<?xml version="1.0" encoding="iso-8859-1"?>
<!-- Generator: Adobe Illustrator 10, SVG Export Plug-In . SVG Version: 3.0.0 Build 76)  -->
<!DOCTYPE svg PUBLIC "-//W3C//DTD SVG 1.0//EN"    "http://www.w3.org/TR/2001/REC-SVG-20010904/DTD/svg10.dtd" [
	<!ENTITY ns_flows "http://ns.adobe.com/Flows/1.0/">
	<!ENTITY ns_svg "http://www.w3.org/2000/svg">
	<!ENTITY ns_xlink "http://www.w3.org/1999/xlink">
]>
<svg  xmlns="&ns_svg;" xmlns:xlink="&ns_xlink;" xmlns:a="http://ns.adobe.com/AdobeSVGViewerExtensions/3.0/"
	 width="569.301" height="596.698" viewBox="0 0 569.301 596.698"
	 style="overflow:visible;enable-background:new 0 0 569.301 596.698" xml:space="preserve">
	<style type="text/css">
	<![CDATA[
		@font-face{font-family:'Times-Roman';src:url(F9C5ABC0.cef)}
	]]>
	</style>
	<g id="Layer_1">
		<text transform="matrix(1 0 0 1 0 533.7354)"><tspan x="0" y="0" style="font-family:'Times-Roman'; font-size:12;">&quot;Analogue&quot;</tspan><tspan x="0" y="14.5" style="font-family:'Times-Roman'; font-size:12;">Copyright </tspan><tspan x="51.668" y="14.5" style="font-family:'Times-Roman'; font-size:12;">&#xA9;</tspan><tspan x="60.785" y="14.5" style="font-family:'Times-Roman'; font-size:12;"> 2000 Rob Myers http://www.robmyers.org/ .</tspan><tspan x="0" y="29" style="font-family:'Times-Roman'; font-size:12;">This work is licensed under the Creative Commons Attribution-ShareAlike License.</tspan><tspan x="0" y="43.5" style="font-family:'Times-Roman'; font-size:12;">To view a copy of this license, visit http://creativecommons.org/licenses/by-sa/1.0/ </tspan><tspan x="0" y="58" style="font-family:'Times-Roman'; font-size:12;">or send a letter to Creative Commons, 559 Nathan Abbott Way, Stanford, California 94305, USA.</tspan></text>
		<g>
			<g>
				<path style="fill:#981485;" d="M475.016,377.819c26.929,19.584,54.433,37.296,82.152,52.561
					c-2.088-10.225-3.888-20.521-5.544-30.816c-25.992-12.744-51.696-28.512-76.608-46.224V377.819z M475.016,118.332
					c4.465-2.305,8.929-4.681,13.465-7.057c-4.393-5.04-8.929-10.008-13.465-14.903V118.332z M475.016,470.412V427.14
					c4.177-7.344,8.784-16.056,13.752-26.136l6.769,21.888C483.8,452.34,479.768,462.636,475.016,470.412z M475.016,208.764V180.54
					c6.408,1.655,10.513,3.384,16.92,6.479c11.593,4.032,20.448,10.296,28.009,18.648c3.6,3.96,7.199,7.92,9.792,12.456
					c9.288,16.056,12.456,33.048,9.792,51.336c-2.305,12.023-8.208,31.536-18.792,59.111l-20.88,12.024
					c7.344-26.352,11.951-45.792,12.6-56.16c-0.072-16.128-3.888-31.968-13.176-48.023
					C492.944,225.396,484.952,216.107,475.016,208.764z M278.888,305.676c3.889,14.04,7.849,28.08,11.521,42.191
					c5.184,20.089,8.352,40.248,9.216,60.265c11.664,3.384,23.328,7.416,35.208,12.528c-1.296-20.664-5.112-41.545-11.304-62.28
					c-6.265-21.024-13.248-41.904-19.656-62.856c17.28,6.696,34.632,14.544,52.128,23.185c0.504-10.225,1.296-20.593,2.88-30.96
					c31.104,24.191,62.928,49.68,95.977,75.023c6.695,5.185,13.392,10.152,20.159,15.048V353.34
					c-6.84-4.896-13.68-9.937-20.447-15.12c-31.177-23.976-60.984-48.6-90.504-71.856c5.832-14.615,13.248-29.376,21.815-44.496
					c-13.464-14.327-27.288-28.151-41.399-41.399c41.111-18,85.176-38.592,130.535-62.136v-21.96
					c-3.168-3.528-6.407-6.913-9.647-10.368c-49.896,27.72-99.864,51.695-146.521,73.08c-13.104-9.576-26.424-18.433-39.96-26.712
					v33.407c10.584,7.345,21.024,14.977,31.248,23.257c10.8,9.287,21.384,19.079,31.824,29.376
					c-4.464,9.287-8.712,18.432-12.168,27.504c-3.096,9.071-5.544,18.071-7.56,26.928c-12.744-5.112-25.633-9.576-38.305-13.248
					c-1.655-0.36-3.384-0.72-5.04-1.08V305.676z M475.016,180.54v28.224c-4.176-3.096-8.712-5.832-13.607-8.136
					c-9.648-5.185-27.216-10.44-51.769-16.416l19.801-11.448C454.784,176.651,466.808,178.451,475.016,180.54z M475.016,427.14
					v43.272c-2.088,3.384-4.319,6.336-7.344,10.151c-6.552,10.44-14.688,17.712-24.552,23.112
					c-4.608,2.592-9.288,5.256-14.256,6.768c-17.784,5.473-34.992,4.752-52.272-1.943c-11.231-4.969-28.872-15.12-53.352-31.608
					l-7.057-23.04c24.049,13.032,41.904,21.96,51.912,24.84c15.696,3.601,32.04,3.384,49.752-2.016
					c17.208-5.256,31.969-14.616,43.416-28.872C465.224,443.268,469.832,436.283,475.016,427.14z M278.888,461.699v-9.359
					c1.944-0.648,3.96-1.296,5.977-1.944L278.888,461.699z M278.888,236.268v-42.336c3.312,1.729,6.624,4.608,9.648,7.848
					c4.824,5.257,7.848,10.729,7.848,15.553c-0.144,4.752-2.88,8.64-6.12,12.023C287.168,232.668,283.352,235.476,278.888,236.268z
					 M278.888,57.996V22.284c2.017,0.144,4.032,0.36,6.048,0.72c18.288,3.456,33.12,12.168,45.288,26.136
					c7.561,9.648,18.504,26.856,32.4,52.776l-4.464,23.688c-15.192-22.752-26.856-38.88-34.344-46.152
					C311.648,68.939,297.104,61.523,278.888,57.996z M224.96,150.66c-45.576-26.496-94.608-56.377-143.928-91.944
					c-3.528,3.024-6.84,6.048-10.08,9.216v19.872c45.864,30.672,89.712,56.664,130.248,78.768
					c-12.312,10.152-23.976,21.24-35.208,33.12c10.296,16.776,20.088,32.904,29.016,48.601
					c-24.12,21.456-48.312,45.72-73.152,70.704c-16.416,16.56-33.408,31.823-50.904,45.071v36.576
					c20.952-16.92,41.256-36.504,60.696-57.528c24.912-26.855,49.536-52.487,74.664-74.663c4.896,8.783,10.152,17.424,15.696,25.92
					c16.848-5.4,34.128-8.064,51.912-6.984c1.584,6.048,3.24,12.168,4.968,18.288v-47.16c-10.8-2.016-21.6-3.168-32.112-3.024
					c-5.04-9.504-10.224-18.72-15.264-27.936c-5.184-9.288-10.368-18.504-15.696-27.864c9.288-7.487,19.008-14.256,29.016-20.304
					c10.44-5.256,21.168-10.224,32.112-14.976c0.647,0.432,1.296,0.863,1.943,1.367v-33.407c-2.304-1.368-4.536-2.736-6.768-4.104
					C255.776,135.18,240.008,142.451,224.96,150.66z M278.888,22.284v35.712c-17.64-3.384-35.063-2.016-51.768,5.256
					c-10.224,3.888-25.704,13.752-46.224,28.512l4.248-22.464c34.632-29.592,36.792-31.536,51.624-38.016
					c10.584-6.12,21.168-8.784,32.4-9C272.48,22.212,275.648,22.14,278.888,22.284z M278.888,193.932v42.336
					c-0.359,0.072-0.792,0.145-1.151,0.145c-4.968-0.576-9.792-5.257-14.833-10.08c-5.04-4.824-9.216-9.288-9.432-14.112
					c-0.216-4.896,2.088-9.144,5.472-12.672c3.456-3.601,7.632-7.128,13.032-7.488C274.208,191.987,276.512,192.636,278.888,193.932
					z M278.888,452.34v9.359l-4.68,8.929c-41.76,18-44.424,19.224-60.48,21.023c-11.952,2.736-22.824,2.16-33.624-1.008
					c-5.184-1.368-10.368-2.808-14.976-5.328c-16.344-8.712-28.08-21.384-35.496-38.304c-4.464-11.448-9.72-31.104-15.408-60.048
					l11.304-21.312c7.776,26.208,14.112,45.145,19.152,54.288c8.496,13.681,20.232,25.057,36.648,33.769
					c15.84,8.424,32.904,12.312,51.048,10.224C242.312,463.283,258.008,459.18,278.888,452.34z M70.952,302.796v-24.265
					c6.696,7.704,15.84,16.921,27.144,27.648H75.2C73.688,305.027,72.32,303.876,70.952,302.796z M70.952,153.54v-25.345
					c1.008-0.863,2.016-1.728,3.096-2.52h24.048C87.08,136.476,77.864,145.836,70.952,153.54z M70.952,67.932
					c-4.032,3.888-7.92,7.848-11.736,11.952c3.888,2.664,7.848,5.328,11.736,7.92V67.932z M70.952,364.067
					c-8.928,6.769-18,12.96-27.144,18.576c2.88,10.729,5.832,21.312,8.928,31.896c6.12-4.393,12.168-9.072,18.216-13.896V364.067z
					 M70.952,128.195v25.345c-5.328,5.832-9.288,10.728-11.808,14.472c-7.992,13.968-12.6,29.592-12.6,48.168
					c0,18,4.608,34.848,14.904,49.968c2.16,3.528,5.4,7.704,9.504,12.384v24.265c-31.464-25.2-33.984-27.36-42.768-40.176
					c-7.992-9.288-12.6-19.152-14.904-30.168c-1.152-5.185-2.232-10.44-2.232-15.696c0-18.576,5.688-34.776,17.136-49.32
					C35.888,158.58,49.784,145.476,70.952,128.195z"/>
				<path style="fill:none;stroke:#981485;stroke-width:7.992;" d="M224.96,150.66c-45.576-26.496-94.608-56.377-143.928-91.944
					c-7.92,6.768-14.976,13.824-21.816,21.168c50.112,34.2,97.992,62.712,141.984,86.688c-12.312,10.152-23.976,21.24-35.208,33.12
					c10.296,16.776,20.088,32.904,29.016,48.601c-24.12,21.456-48.312,45.72-73.152,70.704
					c-24.768,24.983-50.832,47.016-78.048,63.647c2.88,10.729,5.832,21.312,8.928,31.896c27.504-19.801,53.856-44.353,78.912-71.425
					c24.912-26.855,49.536-52.487,74.664-74.663c4.896,8.783,10.152,17.424,15.696,25.92c16.848-5.4,34.128-8.064,51.912-6.984
					c5.328,20.16,11.232,40.248,16.488,60.479c5.184,20.089,8.352,40.248,9.216,60.265c11.664,3.384,23.328,7.416,35.208,12.528
					c-1.296-20.664-5.112-41.545-11.304-62.28c-6.265-21.024-13.248-41.904-19.656-62.856c17.28,6.696,34.632,14.544,52.128,23.185
					c0.504-10.225,1.296-20.593,2.88-30.96c31.104,24.191,62.928,49.68,95.977,75.023c33.264,25.561,67.68,48.528,102.312,67.608
					c-2.088-10.225-3.888-20.521-5.544-30.816c-33.12-16.271-65.88-37.439-97.056-61.344c-31.177-23.976-60.984-48.6-90.504-71.856
					c5.832-14.615,13.248-29.376,21.815-44.496c-13.464-14.327-27.288-28.151-41.399-41.399c45.216-19.729,93.888-42.624,144-69.192
					c-7.488-8.567-15.265-16.92-23.112-25.271c-49.896,27.72-99.864,51.695-146.521,73.08c-15.264-11.16-30.96-21.456-46.728-30.816
					C255.776,135.18,240.008,142.451,224.96,150.66z M276.944,164.412c11.304,7.775,22.319,15.84,33.191,24.624
					c10.8,9.287,21.384,19.079,31.824,29.376c-4.464,9.287-8.712,18.432-12.168,27.504c-3.096,9.071-5.544,18.071-7.56,26.928
					c-12.744-5.112-25.633-9.576-38.305-13.248c-12.456-2.736-24.984-4.248-37.152-4.104c-5.04-9.504-10.224-18.72-15.264-27.936
					c-5.184-9.288-10.368-18.504-15.696-27.864c9.288-7.487,19.008-14.256,29.016-20.304
					C255.272,174.132,266,169.164,276.944,164.412z M520.736,328.571l-20.88,12.024c7.344-26.352,11.951-45.792,12.6-56.16
					c-0.072-16.128-3.888-31.968-13.176-48.023c-9-15.624-21.384-27.937-37.872-35.784c-9.648-5.185-27.216-10.44-51.769-16.416
					l19.801-11.448c45,6.912,47.88,7.272,62.495,14.256c11.593,4.032,20.448,10.296,28.009,18.648c3.6,3.96,7.199,7.92,9.792,12.456
					c9.288,16.056,12.456,33.048,9.792,51.336C537.224,281.483,531.32,300.996,520.736,328.571z M323.24,476.892l-7.057-23.04
					c24.049,13.032,41.904,21.96,51.912,24.84c15.696,3.601,32.04,3.384,49.752-2.016c17.208-5.256,31.969-14.616,43.416-28.872
					c7.2-8.208,16.272-24.192,27.504-46.8l6.769,21.888c-16.849,42.336-17.784,45-27.864,57.672
					c-6.552,10.44-14.688,17.712-24.552,23.112c-4.608,2.592-9.288,5.256-14.256,6.768c-17.784,5.473-34.992,4.752-52.272-1.943
					C365.36,503.531,347.72,493.38,323.24,476.892z M114.224,386.964l11.304-21.312c7.776,26.208,14.112,45.145,19.152,54.288
					c8.496,13.681,20.232,25.057,36.648,33.769c15.84,8.424,32.904,12.312,51.048,10.224c10.872-0.648,28.584-5.544,52.488-13.536
					l-10.656,20.232c-41.76,18-44.424,19.224-60.48,21.023c-11.952,2.736-22.824,2.16-33.624-1.008
					c-5.184-1.368-10.368-2.808-14.976-5.328c-16.344-8.712-28.08-21.384-35.496-38.304
					C125.168,435.563,119.912,415.907,114.224,386.964z M74.048,125.676h24.048c-19.44,19.152-33.192,33.624-38.952,42.336
					c-7.992,13.968-12.6,29.592-12.6,48.168c0,18,4.608,34.848,14.904,49.968c5.688,9.288,18.36,22.608,36.648,40.032H75.2
					c-35.568-28.44-37.8-30.168-47.016-43.56c-7.992-9.288-12.6-19.152-14.904-30.168c-1.152-5.185-2.232-10.44-2.232-15.696
					c0-18.576,5.688-34.776,17.136-49.32C36.248,158.147,51.152,144.252,74.048,125.676z M362.624,101.916l-4.464,23.688
					c-15.192-22.752-26.856-38.88-34.344-46.152c-12.168-10.512-26.713-17.928-44.929-21.456
					c-17.64-3.384-35.063-2.016-51.768,5.256c-10.224,3.888-25.704,13.752-46.224,28.512l4.248-22.464
					c34.632-29.592,36.792-31.536,51.624-38.016c10.584-6.12,21.168-8.784,32.4-9c5.4-0.144,10.656-0.288,15.768,0.72
					c18.288,3.456,33.12,12.168,45.288,26.136C337.784,58.788,348.728,75.996,362.624,101.916z M271.976,192.06
					c5.328-0.288,11.448,4.248,16.56,9.72c4.824,5.257,7.848,10.729,7.848,15.553c-0.144,4.752-2.88,8.64-6.12,12.023
					c-3.384,3.601-7.56,6.624-12.527,7.057c-4.968-0.576-9.792-5.257-14.833-10.08c-5.04-4.824-9.216-9.288-9.432-14.112
					c-0.216-4.896,2.088-9.144,5.472-12.672C262.4,195.947,266.576,192.42,271.976,192.06z"/>
			</g>
			<g>
				<path style="fill:#51B67F;" d="M285.512,287.315c3.889,14.112,7.849,28.152,11.521,42.265
					c5.184,20.088,8.28,40.176,9.216,60.191c11.664,3.384,23.328,7.416,35.208,12.601c-1.296-20.664-5.112-41.544-11.304-62.353
					c-6.265-21.023-13.248-41.904-19.656-62.855c17.28,6.695,34.632,14.615,52.128,23.184c0.504-10.152,1.296-20.52,2.88-30.96
					c31.104,24.264,62.928,49.752,95.977,75.096c33.264,25.488,67.68,48.456,102.239,67.536
					c-2.016-10.224-3.815-20.448-5.472-30.815c-33.12-16.272-65.88-37.368-97.056-61.345c-31.177-23.976-60.984-48.6-90.505-71.784
					c5.832-14.615,13.248-29.447,21.816-44.567c-13.464-14.328-27.288-28.152-41.4-41.328c45.217-19.8,93.889-42.696,144-69.264
					c-7.487-8.424-15.264-16.848-23.111-25.2c-49.896,27.72-99.864,51.624-146.521,73.08c-13.104-9.648-26.424-18.504-39.96-26.784
					v33.408c10.584,7.344,21.024,15.048,31.248,23.256c10.8,9.36,21.384,19.08,31.824,29.376
					c-4.464,9.288-8.712,18.504-12.168,27.504c-3.096,9.072-5.544,18.072-7.56,26.928c-12.744-5.111-25.633-9.504-38.305-13.248
					c-1.655-0.359-3.384-0.72-5.04-1.008V287.315z M231.584,132.3c-45.576-26.424-94.68-56.304-143.928-91.872
					c-7.92,6.768-14.976,13.824-21.816,21.096c50.112,34.2,97.992,62.712,141.984,86.688c-12.312,10.224-24.048,21.239-35.208,33.12
					c10.296,16.848,20.016,32.976,29.016,48.6c-24.192,21.456-48.312,45.72-73.152,70.704
					c-24.768,24.984-50.832,47.088-78.048,63.647c2.88,10.729,5.832,21.385,8.928,31.969c27.504-19.8,53.856-44.353,78.912-71.424
					c24.912-26.929,49.536-52.561,74.664-74.736c4.896,8.784,10.152,17.424,15.696,25.992c16.848-5.473,34.128-8.064,51.84-7.057
					c1.656,6.12,3.312,12.24,5.04,18.288v-47.088c-10.8-2.088-21.6-3.168-32.112-3.096c-5.04-9.504-10.224-18.72-15.264-27.864
					c-5.184-9.288-10.368-18.576-15.696-27.936c9.288-7.416,19.008-14.256,29.016-20.305c10.44-5.256,21.168-10.151,32.112-14.976
					c0.647,0.504,1.296,0.936,1.943,1.368v-33.408c-2.304-1.368-4.607-2.736-6.84-4.104
					C262.328,116.819,246.632,124.164,231.584,132.3z"/>
				<path style="fill:none;stroke:#83A798;stroke-width:7.992;" d="M231.584,132.3c-45.576-26.424-94.68-56.304-143.928-91.872
					c-7.92,6.768-14.976,13.824-21.816,21.096c50.112,34.2,97.992,62.712,141.984,86.688c-12.312,10.224-24.048,21.239-35.208,33.12
					c10.296,16.848,20.016,32.976,29.016,48.6c-24.192,21.456-48.312,45.72-73.152,70.704
					c-24.768,24.984-50.832,47.088-78.048,63.647c2.88,10.729,5.832,21.385,8.928,31.969c27.504-19.8,53.856-44.353,78.912-71.424
					c24.912-26.929,49.536-52.561,74.664-74.736c4.896,8.784,10.152,17.424,15.696,25.992c16.848-5.473,34.128-8.064,51.84-7.057
					c5.4,20.16,11.305,40.32,16.561,60.553c5.184,20.088,8.28,40.176,9.216,60.191c11.664,3.384,23.328,7.416,35.208,12.601
					c-1.296-20.664-5.112-41.544-11.304-62.353c-6.265-21.023-13.248-41.904-19.656-62.855c17.28,6.695,34.632,14.615,52.128,23.184
					c0.504-10.152,1.296-20.52,2.88-30.96c31.104,24.264,62.928,49.752,95.977,75.096c33.264,25.488,67.68,48.456,102.239,67.536
					c-2.016-10.224-3.815-20.448-5.472-30.815c-33.12-16.272-65.88-37.368-97.056-61.345c-31.177-23.976-60.984-48.6-90.505-71.784
					c5.832-14.615,13.248-29.447,21.816-44.567c-13.464-14.328-27.288-28.152-41.4-41.328c45.217-19.8,93.889-42.696,144-69.264
					c-7.487-8.424-15.264-16.848-23.111-25.2c-49.896,27.72-99.864,51.624-146.521,73.08c-15.264-11.232-30.96-21.456-46.8-30.889
					C262.328,116.819,246.632,124.164,231.584,132.3z M283.568,146.052c11.304,7.776,22.319,15.912,33.191,24.624
					c10.8,9.36,21.384,19.08,31.824,29.376c-4.464,9.288-8.712,18.504-12.168,27.504c-3.096,9.072-5.544,18.072-7.56,26.928
					c-12.744-5.111-25.633-9.504-38.305-13.248c-12.527-2.735-24.984-4.248-37.152-4.104c-5.04-9.504-10.224-18.72-15.264-27.864
					c-5.184-9.288-10.368-18.576-15.696-27.936c9.288-7.416,19.008-14.256,29.016-20.305
					C261.896,155.771,272.624,150.876,283.568,146.052z"/>
			</g>
			<g>
				<path style="fill:#F5A432;" d="M527.36,310.212l-20.88,12.023c7.344-26.279,11.951-45.72,12.6-56.16
					c-0.072-16.056-3.888-31.968-13.176-48.023c-9-15.552-21.385-27.864-37.872-35.784c-9.648-5.184-27.216-10.439-51.769-16.344
					l19.801-11.448c45,6.84,47.88,7.2,62.495,14.185c11.593,4.031,20.448,10.296,28.009,18.72c3.6,3.96,7.199,7.848,9.792,12.384
					c9.288,16.128,12.456,33.048,9.792,51.336C543.848,263.195,537.872,282.708,527.36,310.212z M329.864,458.531l-7.057-22.968
					c23.977,13.032,41.904,21.889,51.912,24.84c15.696,3.601,32.04,3.385,49.752-2.088c17.208-5.256,31.969-14.544,43.416-28.872
					c7.2-8.208,16.272-24.12,27.504-46.8l6.769,21.96c-16.848,42.264-17.784,45-27.864,57.672
					c-6.552,10.368-14.688,17.641-24.552,23.04c-4.608,2.664-9.288,5.256-14.328,6.84c-17.712,5.4-34.92,4.681-52.2-2.016
					C371.984,485.172,354.344,475.02,329.864,458.531z M120.848,368.604l11.304-21.24c7.776,26.208,14.112,45.145,19.152,54.288
					c8.496,13.608,20.232,24.984,36.648,33.696c15.84,8.496,32.904,12.312,51.048,10.296c10.872-0.72,28.584-5.616,52.488-13.607
					l-10.729,20.231c-41.688,18.072-44.352,19.224-60.408,21.096c-11.952,2.736-22.824,2.16-33.624-1.008
					c-5.184-1.439-10.368-2.88-14.976-5.328c-16.416-8.712-28.08-21.384-35.496-38.304
					C131.792,417.275,126.464,397.548,120.848,368.604z M80.672,107.315h24.048c-19.44,19.152-33.192,33.696-38.952,42.408
					c-7.992,13.896-12.6,29.592-12.6,48.168c0,18,4.608,34.848,14.904,49.896c5.688,9.287,18.288,22.68,36.648,40.104H81.824
					c-35.568-28.439-37.8-30.24-47.016-43.56c-7.992-9.288-12.6-19.152-14.904-30.168c-1.152-5.257-2.304-10.513-2.304-15.696
					c0-18.576,5.76-34.848,17.208-49.32C42.872,139.859,57.776,125.892,80.672,107.315z M369.248,83.7l-4.464,23.544
					c-15.192-22.681-26.856-38.88-34.344-46.152c-12.168-10.512-26.713-17.928-45-21.384c-17.568-3.384-34.992-2.088-51.696,5.256
					c-10.224,3.888-25.704,13.752-46.224,28.512l4.248-22.536c34.632-29.592,36.792-31.464,51.624-38.016
					c10.584-6.12,21.168-8.784,32.328-8.928c5.4-0.144,10.729-0.288,15.84,0.648c18.288,3.528,33.12,12.168,45.217,26.208
					C344.408,40.428,355.352,57.708,369.248,83.7z"/>
				<path style="fill:none;stroke:#A16012;stroke-width:7.992;" d="M527.36,310.212l-20.88,12.023
					c7.344-26.279,11.951-45.72,12.6-56.16c-0.072-16.056-3.888-31.968-13.176-48.023c-9-15.552-21.385-27.864-37.872-35.784
					c-9.648-5.184-27.216-10.439-51.769-16.344l19.801-11.448c45,6.84,47.88,7.2,62.495,14.185
					c11.593,4.031,20.448,10.296,28.009,18.72c3.6,3.96,7.199,7.848,9.792,12.384c9.288,16.128,12.456,33.048,9.792,51.336
					C543.848,263.195,537.872,282.708,527.36,310.212z M329.864,458.531l-7.057-22.968c23.977,13.032,41.904,21.889,51.912,24.84
					c15.696,3.601,32.04,3.385,49.752-2.088c17.208-5.256,31.969-14.544,43.416-28.872c7.2-8.208,16.272-24.12,27.504-46.8
					l6.769,21.96c-16.848,42.264-17.784,45-27.864,57.672c-6.552,10.368-14.688,17.641-24.552,23.04
					c-4.608,2.664-9.288,5.256-14.328,6.84c-17.712,5.4-34.92,4.681-52.2-2.016C371.984,485.172,354.344,475.02,329.864,458.531z
					 M120.848,368.604l11.304-21.24c7.776,26.208,14.112,45.145,19.152,54.288c8.496,13.608,20.232,24.984,36.648,33.696
					c15.84,8.496,32.904,12.312,51.048,10.296c10.872-0.72,28.584-5.616,52.488-13.607l-10.729,20.231
					c-41.688,18.072-44.352,19.224-60.408,21.096c-11.952,2.736-22.824,2.16-33.624-1.008c-5.184-1.439-10.368-2.88-14.976-5.328
					c-16.416-8.712-28.08-21.384-35.496-38.304C131.792,417.275,126.464,397.548,120.848,368.604z M80.672,107.315h24.048
					c-19.44,19.152-33.192,33.696-38.952,42.408c-7.992,13.896-12.6,29.592-12.6,48.168c0,18,4.608,34.848,14.904,49.896
					c5.688,9.287,18.288,22.68,36.648,40.104H81.824c-35.568-28.439-37.8-30.24-47.016-43.56
					c-7.992-9.288-12.6-19.152-14.904-30.168c-1.152-5.257-2.304-10.513-2.304-15.696c0-18.576,5.76-34.848,17.208-49.32
					C42.872,139.859,57.776,125.892,80.672,107.315z M369.248,83.7l-4.464,23.544c-15.192-22.681-26.856-38.88-34.344-46.152
					c-12.168-10.512-26.713-17.928-45-21.384c-17.568-3.384-34.992-2.088-51.696,5.256c-10.224,3.888-25.704,13.752-46.224,28.512
					l4.248-22.536c34.632-29.592,36.792-31.464,51.624-38.016c10.584-6.12,21.168-8.784,32.328-8.928
					c5.4-0.144,10.729-0.288,15.84,0.648c18.288,3.528,33.12,12.168,45.217,26.208C344.408,40.428,355.352,57.708,369.248,83.7z"/>
			</g>
			<path style="fill:#C7D4E7;stroke:#6682BB;stroke-width:7.992;" d="M278.528,173.771c5.399-0.359,11.52,4.176,16.632,9.648
				c4.824,5.256,7.848,10.728,7.848,15.552c-0.144,4.824-2.88,8.64-6.12,12.096c-3.384,3.528-7.56,6.553-12.527,6.984
				c-5.04-0.504-9.792-5.256-14.833-10.08c-5.04-4.752-9.216-9.216-9.432-14.112c-0.216-4.896,2.088-9.144,5.472-12.672
				C268.952,177.588,273.2,174.06,278.528,173.771z"/>
		</g>
	</g>
</svg>
