<?xml version="1.0" encoding="UTF-8" standalone="no"?>
<!-- Generator: Adobe Illustrator 10, SVG Export Plug-In . SVG Version: 3.0.0 Build 76)  -->
<svg
   xmlns:dc="http://purl.org/dc/elements/1.1/"
   xmlns:cc="http://creativecommons.org/ns#"
   xmlns:rdf="http://www.w3.org/1999/02/22-rdf-syntax-ns#"
   xmlns:svg="http://www.w3.org/2000/svg"
   xmlns="http://www.w3.org/2000/svg"
   xmlns:sodipodi="http://sodipodi.sourceforge.net/DTD/sodipodi-0.dtd"
   xmlns:inkscape="http://www.inkscape.org/namespaces/inkscape"
   width="560.66498"
   height="518.19128"
   viewBox="0 0 569.301 596.698"
   style="overflow:visible"
   xml:space="preserve"
   id="svg2"
   sodipodi:version="0.32"
   inkscape:version="0.46"
   sodipodi:docname="analogue.svg"
   inkscape:output_extension="org.inkscape.output.svg.inkscape"
   version="1.0"><metadata
   id="metadata48"><rdf:RDF><cc:Work
       rdf:about=""><dc:format>image/svg+xml</dc:format><dc:type
         rdf:resource="http://purl.org/dc/dcmitype/StillImage" /></cc:Work></rdf:RDF></metadata><defs
   id="defs46"><inkscape:perspective
   sodipodi:type="inkscape:persp3d"
   inkscape:vp_x="0 : 298.349 : 1"
   inkscape:vp_y="0 : 1000 : 0"
   inkscape:vp_z="569.30103 : 298.349 : 1"
   inkscape:persp3d-origin="284.65051 : 198.89933 : 1"
   id="perspective50" />
		
		
	</defs><sodipodi:namedview
   inkscape:window-height="670"
   inkscape:window-width="640"
   inkscape:pageshadow="2"
   inkscape:pageopacity="0.0"
   guidetolerance="10.0"
   gridtolerance="10.0"
   objecttolerance="10.0"
   borderopacity="1.0"
   bordercolor="#666666"
   pagecolor="#ffffff"
   id="base"
   showgrid="false"
   inkscape:zoom="0.77426102"
   inkscape:cx="284.65051"
   inkscape:cy="298.349"
   inkscape:window-x="0"
   inkscape:window-y="0"
   inkscape:current-layer="svg2" />
	<style
   type="text/css"
   id="style4">
	
		@font-face{font-family:'Times-Roman';src:url(F9C5ABC0.cef)}
	
	</style>
	
<g
   transform="matrix(1.1515014,0,0,1.1515014,-46.273147,0.121081)"
   style="overflow:visible"
   id="g23">
			<g
   id="g25">
				<path
   id="path27"
   d="M 475.016,377.819 C 501.945,397.403 529.449,415.115 557.168,430.38 C 555.08,420.155 553.28,409.859 551.624,399.564 C 525.632,386.82 499.928,371.052 475.016,353.34 L 475.016,377.819 L 475.016,377.819 z M 475.016,118.332 C 479.481,116.027 483.945,113.651 488.481,111.275 C 484.088,106.235 479.552,101.267 475.016,96.372 L 475.016,118.332 z M 475.016,470.412 L 475.016,427.14 C 479.193,419.796 483.8,411.084 488.768,401.004 L 495.537,422.892 C 483.8,452.34 479.768,462.636 475.016,470.412 z M 475.016,208.764 L 475.016,180.54 C 481.424,182.195 485.529,183.924 491.936,187.019 C 503.529,191.051 512.384,197.315 519.945,205.667 C 523.545,209.627 527.144,213.587 529.737,218.123 C 539.025,234.179 542.193,251.171 539.529,269.459 C 537.224,281.482 531.321,300.995 520.737,328.57 L 499.857,340.594 C 507.201,314.242 511.808,294.802 512.457,284.434 C 512.385,268.306 508.569,252.466 499.281,236.411 C 492.944,225.396 484.952,216.107 475.016,208.764 z M 278.888,305.676 C 282.777,319.716 286.737,333.756 290.409,347.867 C 295.593,367.956 298.761,388.115 299.625,408.132 C 311.289,411.516 322.953,415.548 334.833,420.66 C 333.537,399.996 329.721,379.115 323.529,358.38 C 317.264,337.356 310.281,316.476 303.873,295.524 C 321.153,302.22 338.505,310.068 356.001,318.709 C 356.505,308.484 357.297,298.116 358.881,287.749 C 389.985,311.94 421.809,337.429 454.858,362.772 C 461.553,367.957 468.25,372.924 475.017,377.82 L 475.017,353.34 C 468.177,348.444 461.337,343.403 454.57,338.22 C 423.393,314.244 393.586,289.62 364.066,266.364 C 369.898,251.749 377.314,236.988 385.881,221.868 C 372.417,207.541 358.593,193.717 344.482,180.469 C 385.593,162.469 429.658,141.877 475.017,118.333 L 475.017,96.373 C 471.849,92.845 468.61,89.46 465.37,86.005 C 415.474,113.725 365.506,137.7 318.849,159.085 C 305.745,149.509 292.425,140.652 278.889,132.373 L 278.889,165.78 C 289.473,173.125 299.913,180.757 310.137,189.037 C 320.937,198.324 331.521,208.116 341.961,218.413 C 337.497,227.7 333.249,236.845 329.793,245.917 C 326.697,254.988 324.249,263.988 322.233,272.845 C 309.489,267.733 296.6,263.269 283.928,259.597 C 282.273,259.237 280.544,258.877 278.888,258.517 L 278.888,305.676 L 278.888,305.676 z M 475.016,180.54 L 475.016,208.764 C 470.84,205.668 466.304,202.932 461.409,200.628 C 451.761,195.443 434.193,190.188 409.64,184.212 L 429.441,172.764 C 454.784,176.651 466.808,178.451 475.016,180.54 z M 475.016,427.14 L 475.016,470.412 C 472.928,473.796 470.697,476.748 467.672,480.563 C 461.12,491.003 452.984,498.275 443.12,503.675 C 438.512,506.267 433.832,508.931 428.864,510.443 C 411.08,515.916 393.872,515.195 376.592,508.5 C 365.361,503.531 347.72,493.38 323.24,476.892 L 316.183,453.852 C 340.232,466.884 358.087,475.812 368.095,478.692 C 383.791,482.293 400.135,482.076 417.847,476.676 C 435.055,471.42 449.816,462.06 461.263,447.804 C 465.224,443.268 469.832,436.283 475.016,427.14 z M 278.888,461.699 L 278.888,452.34 C 280.832,451.692 282.848,451.044 284.865,450.396 L 278.888,461.699 z M 278.888,236.268 L 278.888,193.932 C 282.2,195.661 285.512,198.54 288.536,201.78 C 293.36,207.037 296.384,212.509 296.384,217.333 C 296.24,222.085 293.504,225.973 290.264,229.356 C 287.168,232.668 283.352,235.476 278.888,236.268 z M 278.888,57.996 L 278.888,22.284 C 280.905,22.428 282.92,22.644 284.936,23.004 C 303.224,26.46 318.056,35.172 330.224,49.14 C 337.785,58.788 348.728,75.996 362.624,101.916 L 358.16,125.604 C 342.968,102.852 331.304,86.724 323.816,79.452 C 311.648,68.939 297.104,61.523 278.888,57.996 z M 224.96,150.66 C 179.384,124.164 130.352,94.283 81.032,58.716 C 77.504,61.74 74.192,64.764 70.952,67.932 L 70.952,87.804 C 116.816,118.476 160.664,144.468 201.2,166.572 C 188.888,176.724 177.224,187.812 165.992,199.692 C 176.288,216.468 186.08,232.596 195.008,248.293 C 170.888,269.749 146.696,294.013 121.856,318.997 C 105.44,335.557 88.448,350.82 70.952,364.068 L 70.952,400.644 C 91.904,383.724 112.208,364.14 131.648,343.116 C 156.56,316.261 181.184,290.629 206.312,268.453 C 211.208,277.236 216.464,285.877 222.008,294.373 C 238.856,288.973 256.136,286.309 273.92,287.389 C 275.504,293.437 277.16,299.557 278.888,305.677 L 278.888,258.517 C 268.088,256.501 257.288,255.349 246.776,255.493 C 241.736,245.989 236.552,236.773 231.512,227.557 C 226.328,218.269 221.144,209.053 215.816,199.693 C 225.104,192.206 234.824,185.437 244.832,179.389 C 255.272,174.133 266,169.165 276.944,164.413 C 277.591,164.845 278.24,165.276 278.887,165.78 L 278.887,132.373 C 276.583,131.005 274.351,129.637 272.119,128.269 C 255.776,135.18 240.008,142.451 224.96,150.66 z M 278.888,22.284 L 278.888,57.996 C 261.248,54.612 243.825,55.98 227.12,63.252 C 216.896,67.14 201.416,77.004 180.896,91.764 L 185.144,69.3 C 219.776,39.708 221.936,37.764 236.768,31.284 C 247.352,25.164 257.936,22.5 269.168,22.284 C 272.48,22.212 275.648,22.14 278.888,22.284 z M 278.888,193.932 L 278.888,236.268 C 278.529,236.34 278.096,236.413 277.737,236.413 C 272.769,235.837 267.945,231.156 262.904,226.333 C 257.864,221.509 253.688,217.045 253.472,212.221 C 253.256,207.325 255.56,203.077 258.944,199.549 C 262.4,195.948 266.576,192.421 271.976,192.061 C 274.208,191.987 276.512,192.636 278.888,193.932 z M 278.888,452.34 L 278.888,461.699 L 274.208,470.628 C 232.448,488.628 229.784,489.852 213.728,491.651 C 201.776,494.387 190.904,493.811 180.104,490.643 C 174.92,489.275 169.736,487.835 165.128,485.315 C 148.784,476.603 137.048,463.931 129.632,447.011 C 125.168,435.563 119.912,415.907 114.224,386.963 L 125.528,365.651 C 133.304,391.859 139.64,410.796 144.68,419.939 C 153.176,433.62 164.912,444.996 181.328,453.708 C 197.168,462.132 214.232,466.02 232.376,463.932 C 242.312,463.283 258.008,459.18 278.888,452.34 z M 70.952,302.796 L 70.952,278.531 C 77.648,286.235 86.792,295.452 98.096,306.179 L 75.2,306.179 C 73.688,305.027 72.32,303.876 70.952,302.796 z M 70.952,153.54 L 70.952,128.195 C 71.96,127.332 72.968,126.467 74.048,125.675 L 98.096,125.675 C 87.08,136.476 77.864,145.836 70.952,153.54 z M 70.952,67.932 C 66.92,71.82 63.032,75.78 59.216,79.884 C 63.104,82.548 67.064,85.212 70.952,87.804 L 70.952,67.932 z M 70.952,364.067 C 62.024,370.836 52.952,377.027 43.808,382.643 C 46.688,393.372 49.64,403.955 52.736,414.539 C 58.856,410.146 64.904,405.467 70.952,400.643 L 70.952,364.067 z M 70.952,128.195 L 70.952,153.54 C 65.624,159.372 61.664,164.268 59.144,168.012 C 51.152,181.98 46.544,197.604 46.544,216.18 C 46.544,234.18 51.152,251.028 61.448,266.148 C 63.608,269.676 66.848,273.852 70.952,278.532 L 70.952,302.797 C 39.488,277.597 36.968,275.437 28.184,262.621 C 20.192,253.333 15.584,243.469 13.28,232.453 C 12.128,227.268 11.048,222.013 11.048,216.757 C 11.048,198.181 16.736,181.981 28.184,167.437 C 35.888,158.58 49.784,145.476 70.952,128.195 z"
   style="fill:#981485" />
				<path
   id="path29"
   d="M 224.96,150.66 C 179.384,124.164 130.352,94.283 81.032,58.716 C 73.112,65.484 66.056,72.54 59.216,79.884 C 109.328,114.084 157.208,142.596 201.2,166.572 C 188.888,176.724 177.224,187.812 165.992,199.692 C 176.288,216.468 186.08,232.596 195.008,248.293 C 170.888,269.749 146.696,294.013 121.856,318.997 C 97.088,343.98 71.024,366.013 43.808,382.644 C 46.688,393.373 49.64,403.956 52.736,414.54 C 80.24,394.739 106.592,370.187 131.648,343.115 C 156.56,316.26 181.184,290.628 206.312,268.452 C 211.208,277.235 216.464,285.876 222.008,294.372 C 238.856,288.972 256.136,286.308 273.92,287.388 C 279.248,307.548 285.152,327.636 290.408,347.867 C 295.592,367.956 298.76,388.115 299.624,408.132 C 311.288,411.516 322.952,415.548 334.832,420.66 C 333.536,399.996 329.72,379.115 323.528,358.38 C 317.263,337.356 310.28,316.476 303.872,295.524 C 321.152,302.22 338.504,310.068 356,318.709 C 356.504,308.484 357.296,298.116 358.88,287.749 C 389.984,311.94 421.808,337.429 454.857,362.772 C 488.121,388.333 522.537,411.3 557.169,430.38 C 555.081,420.155 553.281,409.859 551.625,399.564 C 518.505,383.293 485.745,362.125 454.569,338.22 C 423.392,314.244 393.585,289.62 364.065,266.364 C 369.897,251.749 377.313,236.988 385.88,221.868 C 372.416,207.541 358.592,193.717 344.481,180.469 C 389.697,160.74 438.369,137.845 488.481,111.277 C 480.993,102.71 473.216,94.357 465.369,86.006 C 415.473,113.726 365.505,137.701 318.848,159.086 C 303.584,147.926 287.888,137.63 272.12,128.27 C 255.776,135.18 240.008,142.451 224.96,150.66 z M 276.944,164.412 C 288.248,172.187 299.263,180.252 310.135,189.036 C 320.935,198.323 331.519,208.115 341.959,218.412 C 337.495,227.699 333.247,236.844 329.791,245.916 C 326.695,254.987 324.247,263.987 322.231,272.844 C 309.487,267.732 296.598,263.268 283.926,259.596 C 271.47,256.86 258.942,255.348 246.774,255.492 C 241.734,245.988 236.55,236.772 231.51,227.556 C 226.326,218.268 221.142,209.052 215.814,199.692 C 225.102,192.205 234.822,185.436 244.83,179.388 C 255.272,174.132 266,169.164 276.944,164.412 z M 520.736,328.571 L 499.856,340.595 C 507.2,314.243 511.807,294.803 512.456,284.435 C 512.384,268.307 508.568,252.467 499.28,236.412 C 490.28,220.788 477.896,208.475 461.408,200.628 C 451.76,195.443 434.192,190.188 409.639,184.212 L 429.44,172.764 C 474.44,179.676 477.32,180.036 491.935,187.02 C 503.528,191.052 512.383,197.316 519.944,205.668 C 523.544,209.628 527.143,213.588 529.736,218.124 C 539.024,234.18 542.192,251.172 539.528,269.46 C 537.224,281.483 531.32,300.996 520.736,328.571 z M 323.24,476.892 L 316.183,453.852 C 340.232,466.884 358.087,475.812 368.095,478.692 C 383.791,482.293 400.135,482.076 417.847,476.676 C 435.055,471.42 449.816,462.06 461.263,447.804 C 468.463,439.596 477.535,423.612 488.767,401.004 L 495.536,422.892 C 478.687,465.228 477.752,467.892 467.672,480.564 C 461.12,491.004 452.984,498.276 443.12,503.676 C 438.512,506.268 433.832,508.932 428.864,510.444 C 411.08,515.917 393.872,515.196 376.592,508.501 C 365.36,503.531 347.72,493.38 323.24,476.892 z M 114.224,386.964 L 125.528,365.652 C 133.304,391.86 139.64,410.797 144.68,419.94 C 153.176,433.621 164.912,444.997 181.328,453.709 C 197.168,462.133 214.232,466.021 232.376,463.933 C 243.248,463.285 260.96,458.389 284.864,450.397 L 274.208,470.629 C 232.448,488.629 229.784,489.853 213.728,491.652 C 201.776,494.388 190.904,493.812 180.104,490.644 C 174.92,489.276 169.736,487.836 165.128,485.316 C 148.784,476.604 137.048,463.932 129.632,447.012 C 125.168,435.563 119.912,415.907 114.224,386.964 z M 74.048,125.676 L 98.096,125.676 C 78.656,144.828 64.904,159.3 59.144,168.012 C 51.152,181.98 46.544,197.604 46.544,216.18 C 46.544,234.18 51.152,251.028 61.448,266.148 C 67.136,275.436 79.808,288.756 98.096,306.18 L 75.2,306.18 C 39.632,277.74 37.4,276.012 28.184,262.62 C 20.192,253.332 15.584,243.468 13.28,232.452 C 12.128,227.267 11.048,222.012 11.048,216.756 C 11.048,198.18 16.736,181.98 28.184,167.436 C 36.248,158.147 51.152,144.252 74.048,125.676 z M 362.624,101.916 L 358.16,125.604 C 342.968,102.852 331.304,86.724 323.816,79.452 C 311.648,68.94 297.103,61.524 278.887,57.996 C 261.247,54.612 243.824,55.98 227.119,63.252 C 216.895,67.14 201.415,77.004 180.895,91.764 L 185.143,69.3 C 219.775,39.708 221.935,37.764 236.767,31.284 C 247.351,25.164 257.935,22.5 269.167,22.284 C 274.567,22.14 279.823,21.996 284.935,23.004 C 303.223,26.46 318.055,35.172 330.223,49.14 C 337.784,58.788 348.728,75.996 362.624,101.916 z M 271.976,192.06 C 277.304,191.772 283.424,196.308 288.536,201.78 C 293.36,207.037 296.384,212.509 296.384,217.333 C 296.24,222.085 293.504,225.973 290.264,229.356 C 286.88,232.957 282.704,235.98 277.737,236.413 C 272.769,235.837 267.945,231.156 262.904,226.333 C 257.864,221.509 253.688,217.045 253.472,212.221 C 253.256,207.325 255.56,203.077 258.944,199.549 C 262.4,195.947 266.576,192.42 271.976,192.06 z"
   style="fill:none;stroke:#981485;stroke-width:7.9920001" />
			</g>
			<g
   id="g31">
				<path
   id="path33"
   d="M 285.512,287.315 C 289.401,301.427 293.361,315.467 297.033,329.58 C 302.217,349.668 305.313,369.756 306.249,389.771 C 317.913,393.155 329.577,397.187 341.457,402.372 C 340.161,381.708 336.345,360.828 330.153,340.019 C 323.888,318.996 316.905,298.115 310.497,277.164 C 327.777,283.859 345.129,291.779 362.625,300.348 C 363.129,290.196 363.921,279.828 365.505,269.388 C 396.609,293.652 428.433,319.14 461.482,344.484 C 494.746,369.972 529.162,392.94 563.721,412.02 C 561.705,401.796 559.906,391.572 558.249,381.205 C 525.129,364.933 492.369,343.837 461.193,319.86 C 430.016,295.884 400.209,271.26 370.688,248.076 C 376.52,233.461 383.936,218.629 392.504,203.509 C 379.04,189.181 365.216,175.357 351.104,162.181 C 396.321,142.381 444.993,119.485 495.104,92.917 C 487.617,84.493 479.84,76.069 471.993,67.717 C 422.097,95.437 372.129,119.341 325.472,140.797 C 312.368,131.149 299.048,122.293 285.512,114.013 L 285.512,147.421 C 296.096,154.765 306.536,162.469 316.76,170.677 C 327.56,180.037 338.144,189.757 348.584,200.053 C 344.12,209.341 339.872,218.557 336.416,227.557 C 333.32,236.629 330.872,245.629 328.856,254.485 C 316.112,249.374 303.223,244.981 290.551,241.237 C 288.896,240.878 287.167,240.517 285.511,240.229 L 285.511,287.315 L 285.512,287.315 z M 231.584,132.3 C 186.008,105.876 136.904,75.996 87.656,40.428 C 79.736,47.196 72.68,54.252 65.84,61.524 C 115.952,95.724 163.832,124.236 207.824,148.212 C 195.512,158.436 183.776,169.451 172.616,181.332 C 182.912,198.18 192.632,214.308 201.632,229.932 C 177.44,251.388 153.32,275.652 128.48,300.636 C 103.712,325.62 77.648,347.724 50.432,364.283 C 53.312,375.012 56.264,385.668 59.36,396.252 C 86.864,376.452 113.216,351.899 138.272,324.828 C 163.184,297.899 187.808,272.267 212.936,250.092 C 217.832,258.876 223.088,267.516 228.632,276.084 C 245.48,270.611 262.76,268.02 280.472,269.027 C 282.128,275.147 283.784,281.267 285.512,287.315 L 285.512,240.227 C 274.712,238.139 263.912,237.059 253.4,237.131 C 248.36,227.627 243.176,218.411 238.136,209.267 C 232.952,199.979 227.768,190.691 222.44,181.331 C 231.728,173.915 241.448,167.075 251.456,161.026 C 261.896,155.77 272.624,150.875 283.568,146.05 C 284.215,146.554 284.864,146.986 285.511,147.418 L 285.511,114.01 C 283.207,112.642 280.904,111.274 278.671,109.906 C 262.328,116.819 246.632,124.164 231.584,132.3 z"
   style="fill:#51b67f" />
				<path
   id="path35"
   d="M 231.584,132.3 C 186.008,105.876 136.904,75.996 87.656,40.428 C 79.736,47.196 72.68,54.252 65.84,61.524 C 115.952,95.724 163.832,124.236 207.824,148.212 C 195.512,158.436 183.776,169.451 172.616,181.332 C 182.912,198.18 192.632,214.308 201.632,229.932 C 177.44,251.388 153.32,275.652 128.48,300.636 C 103.712,325.62 77.648,347.724 50.432,364.283 C 53.312,375.012 56.264,385.668 59.36,396.252 C 86.864,376.452 113.216,351.899 138.272,324.828 C 163.184,297.899 187.808,272.267 212.936,250.092 C 217.832,258.876 223.088,267.516 228.632,276.084 C 245.48,270.611 262.76,268.02 280.472,269.027 C 285.872,289.187 291.777,309.347 297.033,329.58 C 302.217,349.668 305.313,369.756 306.249,389.771 C 317.913,393.155 329.577,397.187 341.457,402.372 C 340.161,381.708 336.345,360.828 330.153,340.019 C 323.888,318.996 316.905,298.115 310.497,277.164 C 327.777,283.859 345.129,291.779 362.625,300.348 C 363.129,290.196 363.921,279.828 365.505,269.388 C 396.609,293.652 428.433,319.14 461.482,344.484 C 494.746,369.972 529.162,392.94 563.721,412.02 C 561.705,401.796 559.906,391.572 558.249,381.205 C 525.129,364.933 492.369,343.837 461.193,319.86 C 430.016,295.884 400.209,271.26 370.688,248.076 C 376.52,233.461 383.936,218.629 392.504,203.509 C 379.04,189.181 365.216,175.357 351.104,162.181 C 396.321,142.381 444.993,119.485 495.104,92.917 C 487.617,84.493 479.84,76.069 471.993,67.717 C 422.097,95.437 372.129,119.341 325.472,140.797 C 310.208,129.565 294.512,119.341 278.672,109.908 C 262.328,116.819 246.632,124.164 231.584,132.3 z M 283.568,146.052 C 294.872,153.828 305.887,161.964 316.759,170.676 C 327.559,180.036 338.143,189.756 348.583,200.052 C 344.119,209.34 339.871,218.556 336.415,227.556 C 333.319,236.628 330.871,245.628 328.855,254.484 C 316.111,249.373 303.222,244.98 290.55,241.236 C 278.023,238.501 265.566,236.988 253.398,237.132 C 248.358,227.628 243.174,218.412 238.134,209.268 C 232.95,199.98 227.766,190.692 222.438,181.332 C 231.726,173.916 241.446,167.076 251.454,161.027 C 261.896,155.771 272.624,150.876 283.568,146.052 z"
   style="fill:none;stroke:#83a798;stroke-width:7.9920001" />
			</g>
			<g
   id="g37">
				<path
   id="path39"
   d="M 527.36,310.212 L 506.48,322.235 C 513.824,295.956 518.431,276.515 519.08,266.075 C 519.008,250.019 515.192,234.107 505.904,218.052 C 496.904,202.5 484.519,190.188 468.032,182.268 C 458.384,177.084 440.816,171.829 416.263,165.924 L 436.064,154.476 C 481.064,161.316 483.944,161.676 498.559,168.661 C 510.152,172.692 519.007,178.957 526.568,187.381 C 530.168,191.341 533.767,195.229 536.36,199.765 C 545.648,215.893 548.816,232.813 546.152,251.101 C 543.848,263.195 537.872,282.708 527.36,310.212 z M 329.864,458.531 L 322.807,435.563 C 346.784,448.595 364.711,457.452 374.719,460.403 C 390.415,464.004 406.759,463.788 424.471,458.315 C 441.679,453.059 456.44,443.771 467.887,429.443 C 475.087,421.235 484.159,405.323 495.391,382.643 L 502.16,404.603 C 485.312,446.867 484.376,449.603 474.296,462.275 C 467.744,472.643 459.608,479.916 449.744,485.315 C 445.136,487.979 440.456,490.571 435.416,492.155 C 417.704,497.555 400.496,496.836 383.216,490.139 C 371.984,485.172 354.344,475.02 329.864,458.531 z M 120.848,368.604 L 132.152,347.364 C 139.928,373.572 146.264,392.509 151.304,401.652 C 159.8,415.26 171.536,426.636 187.952,435.348 C 203.792,443.844 220.856,447.66 239,445.644 C 249.872,444.924 267.584,440.028 291.488,432.037 L 280.759,452.268 C 239.071,470.34 236.407,471.492 220.351,473.364 C 208.399,476.1 197.527,475.524 186.727,472.356 C 181.543,470.917 176.359,469.476 171.751,467.028 C 155.335,458.316 143.671,445.644 136.255,428.724 C 131.792,417.275 126.464,397.548 120.848,368.604 z M 80.672,107.315 L 104.72,107.315 C 85.28,126.467 71.528,141.011 65.768,149.723 C 57.776,163.619 53.168,179.315 53.168,197.891 C 53.168,215.891 57.776,232.739 68.072,247.787 C 73.76,257.074 86.36,270.467 104.72,287.891 L 81.824,287.891 C 46.256,259.452 44.024,257.651 34.808,244.331 C 26.816,235.043 22.208,225.179 19.904,214.163 C 18.752,208.906 17.6,203.65 17.6,198.467 C 17.6,179.891 23.36,163.619 34.808,149.147 C 42.872,139.859 57.776,125.892 80.672,107.315 z M 369.248,83.7 L 364.784,107.244 C 349.592,84.563 337.928,68.364 330.44,61.092 C 318.272,50.58 303.727,43.164 285.44,39.708 C 267.872,36.324 250.448,37.62 233.744,44.964 C 223.52,48.852 208.04,58.716 187.52,73.476 L 191.768,50.94 C 226.4,21.348 228.56,19.476 243.392,12.924 C 253.976,6.804 264.56,4.14 275.72,3.996 C 281.12,3.852 286.449,3.708 291.56,4.644 C 309.848,8.172 324.68,16.812 336.777,30.852 C 344.408,40.428 355.352,57.708 369.248,83.7 z"
   style="fill:#f5a432" />
				<path
   id="path41"
   d="M 527.36,310.212 L 506.48,322.235 C 513.824,295.956 518.431,276.515 519.08,266.075 C 519.008,250.019 515.192,234.107 505.904,218.052 C 496.904,202.5 484.519,190.188 468.032,182.268 C 458.384,177.084 440.816,171.829 416.263,165.924 L 436.064,154.476 C 481.064,161.316 483.944,161.676 498.559,168.661 C 510.152,172.692 519.007,178.957 526.568,187.381 C 530.168,191.341 533.767,195.229 536.36,199.765 C 545.648,215.893 548.816,232.813 546.152,251.101 C 543.848,263.195 537.872,282.708 527.36,310.212 z M 329.864,458.531 L 322.807,435.563 C 346.784,448.595 364.711,457.452 374.719,460.403 C 390.415,464.004 406.759,463.788 424.471,458.315 C 441.679,453.059 456.44,443.771 467.887,429.443 C 475.087,421.235 484.159,405.323 495.391,382.643 L 502.16,404.603 C 485.312,446.867 484.376,449.603 474.296,462.275 C 467.744,472.643 459.608,479.916 449.744,485.315 C 445.136,487.979 440.456,490.571 435.416,492.155 C 417.704,497.555 400.496,496.836 383.216,490.139 C 371.984,485.172 354.344,475.02 329.864,458.531 z M 120.848,368.604 L 132.152,347.364 C 139.928,373.572 146.264,392.509 151.304,401.652 C 159.8,415.26 171.536,426.636 187.952,435.348 C 203.792,443.844 220.856,447.66 239,445.644 C 249.872,444.924 267.584,440.028 291.488,432.037 L 280.759,452.268 C 239.071,470.34 236.407,471.492 220.351,473.364 C 208.399,476.1 197.527,475.524 186.727,472.356 C 181.543,470.917 176.359,469.476 171.751,467.028 C 155.335,458.316 143.671,445.644 136.255,428.724 C 131.792,417.275 126.464,397.548 120.848,368.604 z M 80.672,107.315 L 104.72,107.315 C 85.28,126.467 71.528,141.011 65.768,149.723 C 57.776,163.619 53.168,179.315 53.168,197.891 C 53.168,215.891 57.776,232.739 68.072,247.787 C 73.76,257.074 86.36,270.467 104.72,287.891 L 81.824,287.891 C 46.256,259.452 44.024,257.651 34.808,244.331 C 26.816,235.043 22.208,225.179 19.904,214.163 C 18.752,208.906 17.6,203.65 17.6,198.467 C 17.6,179.891 23.36,163.619 34.808,149.147 C 42.872,139.859 57.776,125.892 80.672,107.315 z M 369.248,83.7 L 364.784,107.244 C 349.592,84.563 337.928,68.364 330.44,61.092 C 318.272,50.58 303.727,43.164 285.44,39.708 C 267.872,36.324 250.448,37.62 233.744,44.964 C 223.52,48.852 208.04,58.716 187.52,73.476 L 191.768,50.94 C 226.4,21.348 228.56,19.476 243.392,12.924 C 253.976,6.804 264.56,4.14 275.72,3.996 C 281.12,3.852 286.449,3.708 291.56,4.644 C 309.848,8.172 324.68,16.812 336.777,30.852 C 344.408,40.428 355.352,57.708 369.248,83.7 z"
   style="fill:none;stroke:#a16012;stroke-width:7.9920001" />
			</g>
			<path
   id="path43"
   d="M 278.528,173.771 C 283.927,173.412 290.048,177.947 295.16,183.419 C 299.984,188.675 303.008,194.147 303.008,198.971 C 302.864,203.795 300.128,207.611 296.888,211.067 C 293.504,214.595 289.328,217.62 284.361,218.051 C 279.321,217.547 274.569,212.795 269.528,207.971 C 264.488,203.219 260.312,198.755 260.096,193.859 C 259.88,188.963 262.184,184.715 265.568,181.187 C 268.952,177.588 273.2,174.06 278.528,173.771 z"
   style="fill:#c7d4e7;stroke:#6682bb;stroke-width:7.9920001" />
		</g></svg>