<?xml version="1.0" encoding="UTF-8" standalone="no"?>
<!-- Generator: Adobe Illustrator 10, SVG Export Plug-In . SVG Version: 3.0.0 Build 76)  -->
<svg
   xmlns:dc="http://purl.org/dc/elements/1.1/"
   xmlns:cc="http://creativecommons.org/ns#"
   xmlns:rdf="http://www.w3.org/1999/02/22-rdf-syntax-ns#"
   xmlns:svg="http://www.w3.org/2000/svg"
   xmlns="http://www.w3.org/2000/svg"
   xmlns:sodipodi="http://sodipodi.sourceforge.net/DTD/sodipodi-0.dtd"
   xmlns:inkscape="http://www.inkscape.org/namespaces/inkscape"
   width="382.77673"
   height="405.75043"
   viewBox="0 0 468.311 485.06"
   style="overflow:visible"
   xml:space="preserve"
   id="svg2423"
   sodipodi:version="0.32"
   inkscape:version="0.46"
   sodipodi:docname="discard1.svg"
   inkscape:output_extension="org.inkscape.output.svg.inkscape"
   version="1.0"><metadata
   id="metadata2495"><rdf:RDF><cc:Work
       rdf:about=""><dc:format>image/svg+xml</dc:format><dc:type
         rdf:resource="http://purl.org/dc/dcmitype/StillImage" /></cc:Work></rdf:RDF></metadata><defs
   id="defs2493"><inkscape:perspective
   sodipodi:type="inkscape:persp3d"
   inkscape:vp_x="0 : 242.53 : 1"
   inkscape:vp_y="0 : 1000 : 0"
   inkscape:vp_z="468.311 : 242.53 : 1"
   inkscape:persp3d-origin="234.1555 : 161.68667 : 1"
   id="perspective2497" />
		
		
	</defs><sodipodi:namedview
   inkscape:window-height="670"
   inkscape:window-width="640"
   inkscape:pageshadow="2"
   inkscape:pageopacity="0.0"
   guidetolerance="10.0"
   gridtolerance="10.0"
   objecttolerance="10.0"
   borderopacity="1.0"
   bordercolor="#666666"
   pagecolor="#ffffff"
   id="base"
   showgrid="false"
   inkscape:zoom="0.95245949"
   inkscape:cx="234.1555"
   inkscape:cy="242.53"
   inkscape:window-x="38"
   inkscape:window-y="14"
   inkscape:current-layer="svg2423" />
	<style
   type="text/css"
   id="style2425">
	
		@font-face{font-family:'Times-Roman';src:url(4C4C98F9.cef)}
	
	</style>
	
<g
   transform="matrix(1.2234573,0,0,1.2234573,-4.6317236,-5.6767353)"
   style="overflow:visible"
   id="g2444">
			<g
   id="g2446">
				<g
   id="g2448">
					<path
   id="path2450"
   d="M 189.912,401.725 C 220.08,402.733 264.792,382.069 305.256,345.709 C 360.84,295.669 387.768,234.253 365.088,209.125 C 350.112,192.421 317.136,195.661 280.416,214.237 C 299.208,174.061 299.784,135.901 278.04,117.397 C 258.6,100.189 224.616,104.149 189.912,124.093 L 189.912,168.013 C 220.368,144.685 249.456,135.325 262.056,147.061 C 278.976,162.757 260.328,210.421 220.584,253.117 C 210.576,263.917 200.208,273.349 189.912,281.197 L 189.912,330.517 C 198.48,313.237 212.232,293.58 230.016,274.788 C 270.048,232.452 315.336,209.772 330.817,224.46 C 346.369,239.076 326.352,285.588 286.321,327.924 C 249.6,366.804 208.417,389.052 189.913,381.204 L 189.913,401.725 L 189.912,401.725 z M 166.008,140.366 C 173.065,94.43 163.56,56.702 139.224,46.91 C 134.76,45.182 130.08,44.39 125.112,44.534 L 125.112,71.102 C 143.04,82.55 143.472,132.374 125.4,186.374 C 125.328,186.59 125.256,186.806 125.112,187.094 L 125.112,242.677 C 133.32,227.701 144.912,211.573 159.24,196.093 C 169.248,185.365 179.687,175.933 189.912,168.013 L 189.912,124.093 C 181.92,128.702 173.928,134.173 166.008,140.366 z M 125.112,330.95 C 137.496,332.75 151.752,330.662 166.872,325.118 C 153.12,352.694 150.672,377.174 163.056,390.926 C 169.248,397.838 178.536,401.294 189.912,401.726 L 189.912,381.206 C 188.256,380.485 186.744,379.55 185.519,378.326 C 176.879,370.19 179.255,352.19 189.912,330.518 L 189.912,281.198 C 164.351,300.782 139.872,310.574 125.112,306.254 L 125.112,330.95 L 125.112,330.95 z M 125.112,44.534 C 113.088,44.966 99.912,51.014 86.88,61.454 L 86.88,87.662 C 99.264,73.262 111.792,66.062 121.656,69.446 C 122.88,69.806 124.032,70.382 125.112,71.102 L 125.112,44.534 L 125.112,44.534 z M 86.88,292.79 C 88.896,304.31 93.72,313.886 101.64,320.582 C 108.048,326.27 116.04,329.653 125.112,330.95 L 125.112,306.254 C 122.304,305.39 119.856,304.094 117.84,302.15 C 107.04,292.142 110.712,269.103 125.112,242.678 L 125.112,187.095 C 114.96,217.262 100.92,242.894 86.88,259.239 L 86.88,292.79 z M 86.88,61.454 C 64.992,79.022 43.536,109.046 28.776,146.054 C 18.552,171.614 12.936,197.03 11.64,219.422 L 11.64,237.998 C 13.368,266.078 23.16,287.102 40.512,294.014 C 53.904,299.342 69.888,295.527 85.872,284.654 C 86.088,287.463 86.376,290.199 86.88,292.791 L 86.88,259.239 C 74.424,273.638 61.968,280.839 52.032,277.527 C 30.792,270.398 29.136,217.839 48.288,160.527 C 58.512,129.999 72.696,104.151 86.88,87.663 L 86.88,61.454 z" />
					<path
   id="path2452"
   d="M 166.008,140.366 C 173.065,94.43 163.56,56.702 139.224,46.91 C 105.528,33.518 55.92,78.014 28.776,146.054 C 1.56,214.093 6.888,280.549 40.512,294.013 C 53.904,299.341 69.888,295.526 85.872,284.653 C 86.808,299.774 91.992,312.374 101.64,320.582 C 116.76,333.974 140.736,334.767 166.872,325.118 C 153.12,352.694 150.672,377.174 163.056,390.926 C 185.737,416.126 249.6,395.822 305.256,345.71 C 360.84,295.67 387.768,234.254 365.088,209.126 C 350.112,192.422 317.136,195.662 280.416,214.238 C 299.208,174.062 299.784,135.902 278.04,117.398 C 254.136,96.229 208.272,107.173 166.008,140.366 z M 121.656,69.446 C 142.896,76.502 144.552,129.062 125.4,186.374 C 106.176,243.686 73.272,284.582 52.032,277.526 C 30.792,270.397 29.136,217.838 48.288,160.526 C 67.512,103.213 100.488,62.318 121.656,69.446 z M 262.056,147.062 C 278.976,162.758 260.328,210.422 220.584,253.118 C 180.84,295.886 134.688,317.918 117.84,302.149 C 100.92,286.454 119.568,238.79 159.24,196.093 C 198.984,153.397 245.208,131.366 262.056,147.062 z M 330.816,224.461 C 346.368,239.077 326.351,285.589 286.32,327.925 C 246.288,370.333 201,392.942 185.519,378.325 C 169.967,363.709 189.984,317.197 230.015,274.789 C 270.048,232.454 315.336,209.774 330.816,224.461 z"
   style="fill:none;stroke:#000000;stroke-width:7.9920001" />
				</g>
				<path
   id="path2454"
   d="M 90.336,138.35 C 90.336,138.35 216.408,139.286 274.512,285.878 C 268.824,291.206 279.624,283.286 249.96,300.494 C 249.96,300.494 201,174.782 84.864,172.982 C 86.736,132.014 90.336,138.35 90.336,138.35 z"
   style="stroke:#000000;stroke-width:15.98400021" />
				<path
   id="path2456"
   d="M 84.288,131.582 C 84.288,131.582 210.288,127.334 274.368,271.406 C 268.896,276.95 279.336,268.598 250.464,286.958 C 250.464,286.958 196.32,163.406 80.256,166.43 C 80.4,125.39 84.288,131.582 84.288,131.582 z"
   style="fill:#c3c6d4;stroke:#98adb2;stroke-width:15.98400021" />
				<g
   id="g2458">
					<path
   id="path2460"
   d="M 186.312,383.725 C 216.48,384.733 261.192,364.069 301.656,327.709 C 357.24,277.669 384.168,216.253 361.488,191.125 C 346.511,174.421 313.536,177.661 276.816,196.237 C 295.608,156.061 296.183,117.901 274.44,99.397 C 255,82.189 221.015,86.149 186.312,106.093 L 186.312,150.013 C 216.767,126.685 245.856,117.325 258.456,129.061 C 275.376,144.757 256.727,192.421 216.984,235.117 C 206.975,245.917 196.608,255.349 186.312,263.197 L 186.312,312.517 C 194.879,295.237 208.631,275.58 226.416,256.788 C 266.448,214.452 311.736,191.772 327.216,206.46 C 342.768,221.076 322.752,267.588 282.72,309.924 C 246,348.804 204.817,371.052 186.313,363.204 L 186.313,383.725 L 186.312,383.725 z M 162.408,122.366 C 169.464,76.43 159.96,38.702 135.624,28.91 C 131.16,27.182 126.48,26.39 121.512,26.534 L 121.512,53.102 C 139.44,64.55 139.872,114.374 121.8,168.374 C 121.728,168.59 121.656,168.806 121.512,169.094 L 121.512,224.677 C 129.72,209.701 141.312,193.573 155.639,178.094 C 165.648,167.366 176.087,157.934 186.312,150.014 L 186.312,106.094 C 178.32,110.702 170.328,116.173 162.408,122.366 z M 121.512,312.95 C 133.896,314.75 148.152,312.662 163.272,307.118 C 149.519,334.694 147.071,359.174 159.456,372.926 C 165.648,379.838 174.935,383.294 186.312,383.726 L 186.312,363.206 C 184.656,362.485 183.143,361.55 181.919,360.326 C 173.279,352.19 175.655,334.19 186.312,312.518 L 186.312,263.198 C 160.751,282.782 136.271,292.574 121.512,288.254 L 121.512,312.95 L 121.512,312.95 z M 121.512,26.534 C 109.488,26.966 96.312,33.014 83.28,43.454 L 83.28,69.662 C 95.664,55.262 108.192,48.062 118.056,51.446 C 119.28,51.806 120.432,52.382 121.512,53.102 L 121.512,26.534 L 121.512,26.534 z M 83.28,274.79 C 85.296,286.31 90.12,295.886 98.04,302.582 C 104.448,308.27 112.44,311.653 121.512,312.95 L 121.512,288.254 C 118.704,287.39 116.256,286.094 114.24,284.15 C 103.44,274.142 107.112,251.103 121.512,224.678 L 121.512,169.095 C 111.36,199.262 97.32,224.894 83.28,241.239 L 83.28,274.79 z M 83.28,43.454 C 61.392,61.022 39.936,91.046 25.176,128.054 C 14.952,153.614 9.336,179.03 8.04,201.422 L 8.04,219.998 C 9.768,248.078 19.56,269.102 36.912,276.014 C 50.304,281.342 66.288,277.527 82.272,266.654 C 82.488,269.463 82.776,272.199 83.28,274.791 L 83.28,241.239 C 70.824,255.638 58.368,262.839 48.432,259.527 C 27.192,252.398 25.536,199.839 44.688,142.527 C 54.912,111.999 69.096,86.151 83.28,69.663 L 83.28,43.454 z"
   style="fill:#ffff00" />
					<path
   id="path2462"
   d="M 162.408,122.366 C 169.464,76.43 159.96,38.702 135.624,28.91 C 101.928,15.518 52.32,60.014 25.176,128.054 C -2.04,196.093 3.288,262.549 36.912,276.013 C 50.304,281.341 66.288,277.526 82.272,266.653 C 83.208,281.774 88.392,294.374 98.04,302.582 C 113.16,315.974 137.136,316.767 163.272,307.118 C 149.519,334.694 147.071,359.174 159.456,372.926 C 182.136,398.126 246,377.822 301.656,327.71 C 357.24,277.67 384.168,216.254 361.488,191.126 C 346.511,174.422 313.536,177.662 276.816,196.238 C 295.608,156.062 296.183,117.902 274.44,99.398 C 250.536,78.229 204.672,89.173 162.408,122.366 z M 118.056,51.446 C 139.296,58.502 140.952,111.062 121.8,168.374 C 102.576,225.686 69.672,266.582 48.432,259.526 C 27.192,252.397 25.536,199.838 44.688,142.526 C 63.912,85.213 96.888,44.318 118.056,51.446 z M 258.456,129.062 C 275.376,144.758 256.727,192.422 216.984,235.118 C 177.24,277.886 131.088,299.918 114.24,284.149 C 97.32,268.454 115.968,220.79 155.639,178.094 C 195.384,135.397 241.608,113.366 258.456,129.062 z M 327.216,206.461 C 342.768,221.077 322.752,267.589 282.72,309.925 C 242.688,352.333 197.401,374.942 181.92,360.325 C 166.368,345.709 186.384,299.197 226.416,256.789 C 266.448,214.454 311.736,191.773 327.216,206.461 z"
   style="fill:none;stroke:#ff4f00;stroke-width:7.9920001" />
				</g>
			</g>
			<g
   id="g2464">
				<path
   id="path2466"
   d="M 87.24,122.078 L 112.8,133.598 L 90.768,181.406 L 66,172.549 L 87.24,122.078 z"
   style="stroke:#000000;stroke-width:7.9920001" />
				<path
   id="path2468"
   d="M 213.456,163.694 L 234.696,178.742 L 193.152,221.294 L 174.576,210.71 L 213.456,163.694 z"
   style="stroke:#000000;stroke-width:7.9920001" />
				<path
   id="path2470"
   d="M 280.632,247.934 L 297.408,262.118 L 260.256,298.406 L 247.944,285.158 L 280.632,247.934 z"
   style="stroke:#000000;stroke-width:7.9920001" />
				<g
   id="g2472">
					<path
   id="path2474"
   d="M 199.344,379.19 C 229.512,380.198 274.224,359.534 314.616,323.173 C 370.271,273.133 397.2,211.717 374.519,186.589 C 359.543,169.885 326.568,173.125 289.847,191.701 C 308.568,151.525 309.215,113.365 287.471,94.861 C 267.959,77.581 234.047,81.613 199.343,101.557 L 199.343,145.477 C 229.799,122.149 258.887,112.789 271.488,124.525 C 288.408,140.221 269.759,187.885 230.015,230.581 C 220.007,241.381 209.568,250.812 199.343,258.661 L 199.343,307.98 C 207.839,290.701 221.663,271.044 239.447,252.252 C 279.479,209.916 324.766,187.236 340.247,201.924 C 355.727,216.54 335.711,263.052 295.751,305.388 C 258.959,344.269 217.847,366.517 199.343,358.668 L 199.343,379.19 L 199.344,379.19 z M 175.44,117.83 C 182.423,71.894 172.992,34.166 148.511,24.374 C 144.191,22.646 139.439,21.854 134.543,21.998 L 134.543,48.566 C 152.399,60.014 152.831,109.838 134.831,163.838 C 134.687,164.054 134.615,164.27 134.543,164.558 L 134.543,220.141 C 142.751,205.165 154.272,189.037 168.671,173.558 C 178.679,162.83 189.047,153.326 199.343,145.478 L 199.343,101.558 C 191.352,106.166 183.288,111.638 175.44,117.83 z M 134.544,308.414 C 146.928,310.214 161.184,308.126 176.304,302.582 C 162.481,330.158 160.104,354.638 172.489,368.39 C 178.68,375.302 187.968,378.758 199.344,379.191 L 199.344,358.67 C 197.688,357.95 196.176,357.015 194.88,355.79 C 186.313,347.653 188.616,329.653 199.344,307.981 L 199.344,258.662 C 173.784,278.246 149.16,288.038 134.544,283.718 L 134.544,308.414 z M 134.544,21.998 C 122.52,22.43 109.272,28.478 96.24,38.918 L 96.24,65.126 C 108.696,50.726 121.152,43.526 131.088,46.838 C 132.312,47.27 133.464,47.846 134.544,48.566 L 134.544,21.998 L 134.544,21.998 z M 96.24,270.253 C 98.256,281.774 103.152,291.35 111,298.045 C 117.48,303.733 125.472,307.117 134.544,308.413 L 134.544,283.717 C 131.736,282.854 129.288,281.557 127.2,279.613 C 116.472,269.605 120.144,246.564 134.544,220.14 L 134.544,164.557 C 124.32,194.725 110.352,220.357 96.24,236.701 L 96.24,270.253 z M 96.24,38.917 C 74.352,56.485 52.968,86.509 38.136,123.517 C 27.984,149.077 22.296,174.493 21.072,196.885 L 21.072,215.461 C 22.8,243.541 32.592,264.493 49.944,271.477 C 63.336,276.805 79.248,272.99 95.304,262.118 C 95.448,264.926 95.808,267.662 96.24,270.254 L 96.24,236.702 C 83.784,251.102 71.328,258.302 61.392,254.918 C 40.224,247.862 38.568,195.302 57.72,137.99 C 67.944,107.462 82.056,81.614 96.24,65.126 L 96.24,38.917 z" />
					<path
   id="path2476"
   d="M 175.44,117.83 C 182.423,71.894 172.992,34.166 148.511,24.374 C 114.959,10.982 65.351,55.478 38.136,123.518 C 10.992,191.558 16.248,258.014 49.944,271.477 C 63.336,276.805 79.248,272.99 95.304,262.118 C 96.24,277.238 101.352,289.838 111,298.046 C 126.192,311.439 150.024,312.23 176.304,302.582 C 162.481,330.158 160.104,354.638 172.489,368.39 C 195.096,393.59 258.961,373.286 314.617,323.174 C 370.272,273.134 397.201,211.718 374.52,186.59 C 359.544,169.886 326.569,173.126 289.848,191.702 C 308.569,151.526 309.216,113.366 287.472,94.862 C 263.496,73.622 217.704,84.565 175.44,117.83 z M 131.088,46.837 C 152.256,53.965 153.912,106.525 134.832,163.837 C 115.608,221.149 82.632,262.045 61.392,254.917 C 40.224,247.861 38.568,195.301 57.72,137.989 C 76.872,80.678 109.848,39.782 131.088,46.837 z M 271.488,124.526 C 288.408,140.222 269.759,187.886 230.015,230.582 C 190.272,273.351 144.119,295.382 127.2,279.614 C 110.352,263.918 129,216.254 168.672,173.558 C 208.416,130.862 254.64,108.83 271.488,124.526 z M 340.248,201.925 C 355.728,216.541 335.712,263.053 295.752,305.389 C 255.72,347.797 210.432,370.406 194.88,355.789 C 179.401,341.173 199.416,294.661 239.448,252.253 C 279.48,209.917 324.768,187.238 340.248,201.925 z"
   style="fill:none;stroke:#000000;stroke-width:7.9920001" />
				</g>
				<g
   id="g2478">
					<g
   id="g2480">
						<path
   id="path2482"
   d="M 195.744,361.19 C 225.912,362.198 270.624,341.534 311.015,305.173 C 366.671,255.133 393.599,193.717 370.919,168.589 C 355.943,151.885 322.967,155.125 286.247,173.701 C 304.967,133.525 305.615,95.365 283.871,76.861 C 264.359,59.581 230.447,63.613 195.743,83.557 L 195.743,127.477 C 226.199,104.149 255.287,94.789 267.887,106.525 C 284.807,122.221 266.159,169.885 226.415,212.581 C 216.407,223.381 205.967,232.812 195.743,240.661 L 195.743,289.98 C 204.239,272.701 218.063,253.044 235.847,234.252 C 275.879,191.916 321.167,169.236 336.648,183.924 C 352.127,198.54 332.112,245.052 292.152,287.388 C 255.36,326.269 214.248,348.517 195.744,340.668 L 195.744,361.19 L 195.744,361.19 z M 171.84,99.83 C 178.824,53.894 169.392,16.166 144.984,6.374 C 140.592,4.646 135.84,3.854 130.944,3.998 L 130.944,30.566 C 148.8,42.014 149.233,91.838 131.232,145.838 C 131.088,146.054 131.016,146.27 130.944,146.558 L 130.944,202.142 C 139.152,187.166 150.672,171.038 165.072,155.558 C 175.08,144.83 185.448,135.326 195.744,127.478 L 195.744,83.558 C 187.752,88.166 179.688,93.638 171.84,99.83 z M 130.944,290.414 C 143.328,292.214 157.584,290.126 172.704,284.582 C 158.88,312.158 156.504,336.638 168.888,350.39 C 175.08,357.302 184.368,360.758 195.744,361.191 L 195.744,340.67 C 194.088,339.95 192.576,339.015 191.28,337.79 C 182.712,329.653 185.015,311.653 195.744,289.981 L 195.744,240.662 C 170.183,260.246 145.632,270.038 130.944,265.718 L 130.944,290.414 L 130.944,290.414 z M 130.944,3.998 C 118.92,4.43 105.672,10.478 92.64,20.918 L 92.64,47.126 C 105.096,32.726 117.552,25.526 127.488,28.838 C 128.712,29.27 129.864,29.846 130.944,30.566 L 130.944,3.998 z M 92.64,252.253 C 94.656,263.774 99.552,273.35 107.4,280.045 C 113.88,285.733 121.872,289.117 130.944,290.413 L 130.944,265.717 C 128.136,264.854 125.688,263.557 123.6,261.613 C 112.872,251.605 116.544,228.564 130.944,202.141 L 130.944,146.557 C 120.72,176.725 106.752,202.357 92.64,218.701 L 92.64,252.253 L 92.64,252.253 z M 92.64,20.917 C 70.752,38.485 49.368,68.509 34.536,105.517 C 24.384,131.077 18.696,156.493 17.472,178.885 L 17.472,197.461 C 19.2,225.541 28.992,246.493 46.344,253.477 C 59.736,258.805 75.648,254.99 91.704,244.118 C 91.848,246.926 92.208,249.662 92.64,252.254 L 92.64,218.702 C 80.184,233.102 67.728,240.302 57.792,236.918 C 36.624,229.862 34.968,177.302 54.12,119.99 C 64.344,89.462 78.456,63.614 92.64,47.126 L 92.64,20.917 L 92.64,20.917 z"
   style="fill:#ffff00" />
						<path
   id="path2484"
   d="M 171.84,99.83 C 178.824,53.894 169.392,16.166 144.984,6.374 C 111.36,-7.019 61.752,37.478 34.536,105.518 C 7.392,173.558 12.648,240.014 46.344,253.477 C 59.736,258.805 75.648,254.99 91.704,244.118 C 92.64,259.238 97.752,271.838 107.4,280.046 C 122.592,293.439 146.496,294.23 172.704,284.582 C 158.88,312.158 156.504,336.638 168.888,350.39 C 191.496,375.59 255.361,355.286 311.016,305.174 C 366.672,255.134 393.6,193.718 370.92,168.59 C 355.944,151.886 322.968,155.126 286.248,173.702 C 304.968,133.526 305.616,95.366 283.872,76.862 C 259.896,55.622 214.104,66.565 171.84,99.83 z M 127.488,28.837 C 148.656,35.965 150.313,88.525 131.232,145.837 C 112.008,203.149 79.032,244.045 57.792,236.917 C 36.624,229.861 34.968,177.301 54.12,119.989 C 73.272,62.678 106.248,21.782 127.488,28.837 z M 267.888,106.526 C 284.808,122.222 266.16,169.886 226.416,212.582 C 186.672,255.351 140.52,277.382 123.6,261.614 C 106.752,245.918 125.4,198.254 165.072,155.558 C 204.816,112.862 251.04,90.83 267.888,106.526 z M 336.648,183.925 C 352.127,198.541 332.112,245.053 292.152,287.389 C 252.12,329.797 206.832,352.406 191.28,337.789 C 175.8,323.173 195.816,276.661 235.847,234.253 C 275.88,191.917 321.168,169.238 336.648,183.925 z"
   style="fill:none;stroke:#ff4f00;stroke-width:7.9920001" />
					</g>
					<path
   id="path2486"
   d="M 87.024,109.694 L 112.656,121.214 L 90.552,169.094 L 65.784,160.238 L 87.024,109.694 z"
   style="fill:#d1d193;stroke:#e8e800;stroke-width:7.9920001" />
					<path
   id="path2488"
   d="M 213.24,151.381 L 234.48,166.429 L 192.935,208.98 L 174.36,198.325 L 213.24,151.381 z"
   style="fill:#d1d193;stroke:#e8e800;stroke-width:7.9920001" />
					<path
   id="path2490"
   d="M 280.416,235.549 L 297.192,249.733 L 260.112,286.093 L 247.727,272.774 L 280.416,235.549 z"
   style="fill:#d1d193;stroke:#e8e800;stroke-width:7.9920001" />
				</g>
			</g>
		</g></svg>