<?xml version="1.0" encoding="iso-8859-1"?>
<!-- Generator: Adobe Illustrator 10, SVG Export Plug-In . SVG Version: 3.0.0 Build 76)  -->
<!DOCTYPE svg PUBLIC "-//W3C//DTD SVG 1.0//EN"    "http://www.w3.org/TR/2001/REC-SVG-20010904/DTD/svg10.dtd" [
	<!ENTITY ns_flows "http://ns.adobe.com/Flows/1.0/">
	<!ENTITY ns_svg "http://www.w3.org/2000/svg">
	<!ENTITY ns_xlink "http://www.w3.org/1999/xlink">
]>
<svg  xmlns="&ns_svg;" xmlns:xlink="&ns_xlink;" xmlns:a="http://ns.adobe.com/AdobeSVGViewerExtensions/3.0/"
	 width="468.311" height="485.06" viewBox="0 0 468.311 485.06" style="overflow:visible;enable-background:new 0 0 468.311 485.06"
	 xml:space="preserve">
	<style type="text/css">
	<![CDATA[
		@font-face{font-family:'Times-Roman';src:url(4C4C98F9.cef)}
	]]>
	</style>
	<g id="Layer_1">
		<text transform="matrix(1 0 0 1 0 422.0972)"><tspan x="0" y="0" style="font-family:'Times-Roman'; font-size:12;">&quot;Discard 1&quot;</tspan><tspan x="0" y="14.5" style="font-family:'Times-Roman'; font-size:12;">Copyright </tspan><tspan x="51.668" y="14.5" style="font-family:'Times-Roman'; font-size:12;">&#xA9;</tspan><tspan x="60.785" y="14.5" style="font-family:'Times-Roman'; font-size:12;"> 2000 Rob Myers http://www.robmyers.org/ .</tspan><tspan x="0" y="29" style="font-family:'Times-Roman'; font-size:12;">This work is licensed under the Creative Commons Attribution-ShareAlike License.</tspan><tspan x="0" y="43.5" style="font-family:'Times-Roman'; font-size:12;">To view a copy of this license, visit http://creativecommons.org/licenses/by-sa/1.0/ </tspan><tspan x="0" y="58" style="font-family:'Times-Roman'; font-size:12;">or send a letter to Creative Commons, 559 Nathan Abbott Way, Stanford, California 94305, USA.</tspan></text>
		<g>
			<g>
				<g>
					<path d="M189.912,401.725c30.168,1.008,74.88-19.656,115.344-56.016c55.584-50.04,82.512-111.456,59.832-136.584
						c-14.976-16.704-47.952-13.464-84.672,5.112c18.792-40.176,19.368-78.336-2.376-96.84
						c-19.44-17.208-53.424-13.248-88.128,6.696v43.92c30.456-23.328,59.544-32.688,72.144-20.952
						c16.92,15.696-1.728,63.36-41.472,106.056c-10.008,10.8-20.376,20.232-30.672,28.08v49.32
						c8.568-17.28,22.32-36.937,40.104-55.729c40.032-42.336,85.32-65.016,100.801-50.328
						c15.552,14.616-4.465,61.128-44.496,103.464c-36.721,38.88-77.904,61.128-96.408,53.28V401.725z M166.008,140.366
						c7.057-45.936-2.448-83.664-26.784-93.456c-4.464-1.728-9.144-2.52-14.112-2.376v26.568
						c17.928,11.448,18.36,61.272,0.288,115.272c-0.072,0.216-0.144,0.432-0.288,0.72v55.583
						c8.208-14.976,19.8-31.104,34.128-46.584c10.008-10.728,20.447-20.16,30.672-28.08v-43.92
						C181.92,128.702,173.928,134.173,166.008,140.366z M125.112,330.95c12.384,1.8,26.64-0.288,41.76-5.832
						c-13.752,27.576-16.2,52.056-3.816,65.808c6.192,6.912,15.48,10.368,26.856,10.8v-20.52c-1.656-0.721-3.168-1.656-4.393-2.88
						c-8.64-8.136-6.264-26.136,4.393-47.808v-49.32c-25.561,19.584-50.04,29.376-64.8,25.056V330.95z M125.112,44.534
						c-12.024,0.432-25.2,6.48-38.232,16.92v26.208c12.384-14.4,24.912-21.6,34.776-18.216c1.224,0.36,2.376,0.936,3.456,1.656
						V44.534z M86.88,292.79c2.016,11.52,6.84,21.096,14.76,27.792c6.408,5.688,14.4,9.071,23.472,10.368v-24.696
						c-2.808-0.864-5.256-2.16-7.272-4.104c-10.8-10.008-7.128-33.047,7.272-59.472v-55.583
						c-10.152,30.167-24.192,55.799-38.232,72.144V292.79z M86.88,61.454c-21.888,17.568-43.344,47.592-58.104,84.6
						c-10.224,25.56-15.84,50.976-17.136,73.368v18.576c1.728,28.08,11.52,49.104,28.872,56.016
						c13.392,5.328,29.376,1.513,45.36-9.36c0.216,2.809,0.504,5.545,1.008,8.137v-33.552c-12.456,14.399-24.912,21.6-34.848,18.288
						c-21.24-7.129-22.896-59.688-3.744-117c10.224-30.528,24.408-56.376,38.592-72.864V61.454z"/>
					<path style="fill:none;stroke:#000000;stroke-width:7.992;" d="M166.008,140.366c7.057-45.936-2.448-83.664-26.784-93.456
						C105.528,33.518,55.92,78.014,28.776,146.054C1.56,214.093,6.888,280.549,40.512,294.013c13.392,5.328,29.376,1.513,45.36-9.36
						c0.936,15.121,6.12,27.721,15.768,35.929c15.12,13.392,39.096,14.185,65.232,4.536c-13.752,27.576-16.2,52.056-3.816,65.808
						c22.681,25.2,86.544,4.896,142.2-45.216c55.584-50.04,82.512-111.456,59.832-136.584
						c-14.976-16.704-47.952-13.464-84.672,5.112c18.792-40.176,19.368-78.336-2.376-96.84
						C254.136,96.229,208.272,107.173,166.008,140.366z M121.656,69.446c21.24,7.056,22.896,59.616,3.744,116.928
						c-19.224,57.312-52.128,98.208-73.368,91.152c-21.24-7.129-22.896-59.688-3.744-117
						C67.512,103.213,100.488,62.318,121.656,69.446z M262.056,147.062c16.92,15.696-1.728,63.36-41.472,106.056
						c-39.744,42.768-85.896,64.8-102.744,49.031c-16.92-15.695,1.728-63.359,41.4-106.056
						C198.984,153.397,245.208,131.366,262.056,147.062z M330.816,224.461c15.552,14.616-4.465,61.128-44.496,103.464
						c-40.032,42.408-85.32,65.017-100.801,50.4c-15.552-14.616,4.465-61.128,44.496-103.536
						C270.048,232.454,315.336,209.774,330.816,224.461z"/>
				</g>
				<path style="stroke:#000000;stroke-width:15.984;" d="M90.336,138.35c0,0,126.072,0.936,184.176,147.528
					c-5.688,5.328,5.112-2.592-24.552,14.616c0,0-48.96-125.712-165.096-127.512C86.736,132.014,90.336,138.35,90.336,138.35z"/>
				<path style="fill:#C3C6D4;stroke:#98ADB2;stroke-width:15.984;" d="M84.288,131.582c0,0,126-4.248,190.08,139.824
					c-5.472,5.544,4.968-2.808-23.904,15.552c0,0-54.144-123.552-170.208-120.528C80.4,125.39,84.288,131.582,84.288,131.582z"/>
				<g>
					<path style="fill:#FFFF00;" d="M186.312,383.725c30.168,1.008,74.88-19.656,115.344-56.016
						c55.584-50.04,82.512-111.456,59.832-136.584c-14.977-16.704-47.952-13.464-84.672,5.112
						c18.792-40.176,19.367-78.336-2.376-96.84c-19.44-17.208-53.425-13.248-88.128,6.696v43.92
						c30.455-23.328,59.544-32.688,72.144-20.952c16.92,15.696-1.729,63.36-41.472,106.056c-10.009,10.8-20.376,20.232-30.672,28.08
						v49.32c8.567-17.28,22.319-36.937,40.104-55.729c40.032-42.336,85.32-65.016,100.8-50.328
						c15.552,14.616-4.464,61.128-44.496,103.464c-36.72,38.88-77.903,61.128-96.407,53.28V383.725z M162.408,122.366
						c7.056-45.936-2.448-83.664-26.784-93.456c-4.464-1.728-9.144-2.52-14.112-2.376v26.568
						c17.928,11.448,18.36,61.272,0.288,115.272c-0.072,0.216-0.144,0.432-0.288,0.72v55.583
						c8.208-14.976,19.8-31.104,34.127-46.583c10.009-10.728,20.448-20.16,30.673-28.08v-43.92
						C178.32,110.702,170.328,116.173,162.408,122.366z M121.512,312.95c12.384,1.8,26.64-0.288,41.76-5.832
						c-13.753,27.576-16.201,52.056-3.816,65.808c6.192,6.912,15.479,10.368,26.856,10.8v-20.52
						c-1.656-0.721-3.169-1.656-4.393-2.88c-8.64-8.136-6.264-26.136,4.393-47.808v-49.32c-25.561,19.584-50.041,29.376-64.8,25.056
						V312.95z M121.512,26.534c-12.024,0.432-25.2,6.48-38.232,16.92v26.208c12.384-14.4,24.912-21.6,34.776-18.216
						c1.224,0.36,2.376,0.936,3.456,1.656V26.534z M83.28,274.79c2.016,11.52,6.84,21.096,14.76,27.792
						c6.408,5.688,14.4,9.071,23.472,10.368v-24.696c-2.808-0.864-5.256-2.16-7.272-4.104c-10.8-10.008-7.128-33.047,7.272-59.472
						v-55.583c-10.152,30.167-24.192,55.799-38.232,72.144V274.79z M83.28,43.454c-21.888,17.568-43.344,47.592-58.104,84.6
						c-10.224,25.56-15.84,50.976-17.136,73.368v18.576c1.728,28.08,11.52,49.104,28.872,56.016
						c13.392,5.328,29.376,1.513,45.36-9.36c0.216,2.809,0.504,5.545,1.008,8.137v-33.552c-12.456,14.399-24.912,21.6-34.848,18.288
						c-21.24-7.129-22.896-59.688-3.744-117c10.224-30.528,24.408-56.376,38.592-72.864V43.454z"/>
					<path style="fill:none;stroke:#FF4F00;stroke-width:7.992;" d="M162.408,122.366c7.056-45.936-2.448-83.664-26.784-93.456
						C101.928,15.518,52.32,60.014,25.176,128.054C-2.04,196.093,3.288,262.549,36.912,276.013
						c13.392,5.328,29.376,1.513,45.36-9.36c0.936,15.121,6.12,27.721,15.768,35.929c15.12,13.392,39.096,14.185,65.232,4.536
						c-13.753,27.576-16.201,52.056-3.816,65.808c22.68,25.2,86.544,4.896,142.2-45.216c55.584-50.04,82.512-111.456,59.832-136.584
						c-14.977-16.704-47.952-13.464-84.672,5.112c18.792-40.176,19.367-78.336-2.376-96.84
						C250.536,78.229,204.672,89.173,162.408,122.366z M118.056,51.446c21.24,7.056,22.896,59.616,3.744,116.928
						c-19.224,57.312-52.128,98.208-73.368,91.152c-21.24-7.129-22.896-59.688-3.744-117
						C63.912,85.213,96.888,44.318,118.056,51.446z M258.456,129.062c16.92,15.696-1.729,63.36-41.472,106.056
						c-39.744,42.768-85.896,64.8-102.744,49.031c-16.92-15.695,1.728-63.359,41.399-106.055
						C195.384,135.397,241.608,113.366,258.456,129.062z M327.216,206.461c15.552,14.616-4.464,61.128-44.496,103.464
						c-40.032,42.408-85.319,65.017-100.8,50.4c-15.552-14.616,4.464-61.128,44.496-103.536
						C266.448,214.454,311.736,191.773,327.216,206.461z"/>
				</g>
			</g>
			<g>
				<path style="stroke:#000000;stroke-width:7.992;" d="M87.24,122.078l25.56,11.52l-22.032,47.808L66,172.549L87.24,122.078z"/>
				<path style="stroke:#000000;stroke-width:7.992;" d="M213.456,163.694l21.24,15.048l-41.544,42.552l-18.576-10.584
					L213.456,163.694z"/>
				<path style="stroke:#000000;stroke-width:7.992;" d="M280.632,247.934l16.776,14.184l-37.152,36.288l-12.312-13.248
					L280.632,247.934z"/>
				<g>
					<path d="M199.344,379.19c30.168,1.008,74.88-19.656,115.272-56.017c55.655-50.04,82.584-111.456,59.903-136.584
						c-14.976-16.704-47.951-13.464-84.672,5.112c18.721-40.176,19.368-78.336-2.376-96.84
						c-19.512-17.28-53.424-13.248-88.128,6.696v43.92c30.456-23.328,59.544-32.688,72.145-20.952
						c16.92,15.696-1.729,63.36-41.473,106.056c-10.008,10.8-20.447,20.231-30.672,28.08v49.319
						c8.496-17.279,22.32-36.936,40.104-55.728c40.032-42.336,85.319-65.016,100.8-50.328c15.48,14.616-4.536,61.128-44.496,103.464
						c-36.792,38.881-77.904,61.129-96.408,53.28V379.19z M175.44,117.83c6.983-45.936-2.448-83.664-26.929-93.456
						c-4.32-1.728-9.072-2.52-13.968-2.376v26.568c17.856,11.448,18.288,61.272,0.288,115.272c-0.144,0.216-0.216,0.432-0.288,0.72
						v55.583c8.208-14.976,19.729-31.104,34.128-46.583c10.008-10.728,20.376-20.232,30.672-28.08v-43.92
						C191.352,106.166,183.288,111.638,175.44,117.83z M134.544,308.414c12.384,1.8,26.64-0.288,41.76-5.832
						c-13.823,27.576-16.2,52.056-3.815,65.808c6.191,6.912,15.479,10.368,26.855,10.801v-20.521
						c-1.656-0.72-3.168-1.655-4.464-2.88c-8.567-8.137-6.264-26.137,4.464-47.809v-49.319c-25.56,19.584-50.184,29.376-64.8,25.056
						V308.414z M134.544,21.998c-12.024,0.432-25.272,6.48-38.304,16.92v26.208c12.456-14.4,24.912-21.6,34.848-18.288
						c1.224,0.432,2.376,1.008,3.456,1.728V21.998z M96.24,270.253c2.016,11.521,6.912,21.097,14.76,27.792
						c6.48,5.688,14.472,9.072,23.544,10.368v-24.696c-2.808-0.863-5.256-2.16-7.344-4.104
						c-10.728-10.008-7.056-33.049,7.344-59.473v-55.583c-10.224,30.168-24.192,55.8-38.304,72.144V270.253z M96.24,38.917
						c-21.888,17.568-43.272,47.592-58.104,84.6c-10.152,25.56-15.84,50.976-17.064,73.368v18.576
						c1.728,28.08,11.52,49.032,28.872,56.016c13.392,5.328,29.304,1.513,45.36-9.359c0.144,2.808,0.504,5.544,0.936,8.136v-33.552
						c-12.456,14.4-24.912,21.6-34.848,18.216c-21.168-7.056-22.824-59.616-3.672-116.928c10.224-30.528,24.336-56.376,38.52-72.864
						V38.917z"/>
					<path style="fill:none;stroke:#000000;stroke-width:7.992;" d="M175.44,117.83c6.983-45.936-2.448-83.664-26.929-93.456
						c-33.552-13.392-83.16,31.104-110.375,99.144c-27.144,68.04-21.888,134.496,11.808,147.959
						c13.392,5.328,29.304,1.513,45.36-9.359c0.936,15.12,6.048,27.72,15.696,35.928c15.192,13.393,39.024,14.184,65.304,4.536
						c-13.823,27.576-16.2,52.056-3.815,65.808c22.607,25.2,86.472,4.896,142.128-45.216
						c55.655-50.04,82.584-111.456,59.903-136.584c-14.976-16.704-47.951-13.464-84.672,5.112
						c18.721-40.176,19.368-78.336-2.376-96.84C263.496,73.622,217.704,84.565,175.44,117.83z M131.088,46.837
						c21.168,7.128,22.824,59.688,3.744,117c-19.224,57.312-52.2,98.208-73.44,91.08c-21.168-7.056-22.824-59.616-3.672-116.928
						C76.872,80.678,109.848,39.782,131.088,46.837z M271.488,124.526c16.92,15.696-1.729,63.36-41.473,106.056
						c-39.743,42.769-85.896,64.8-102.815,49.032c-16.848-15.696,1.8-63.36,41.472-106.056
						C208.416,130.862,254.64,108.83,271.488,124.526z M340.248,201.925c15.48,14.616-4.536,61.128-44.496,103.464
						c-40.032,42.408-85.32,65.017-100.872,50.4c-15.479-14.616,4.536-61.128,44.568-103.536
						C279.48,209.917,324.768,187.238,340.248,201.925z"/>
				</g>
				<g>
					<g>
						<path style="fill:#FFFF00;" d="M195.744,361.19c30.168,1.008,74.88-19.656,115.271-56.017
							c55.656-50.04,82.584-111.456,59.904-136.584c-14.976-16.704-47.952-13.464-84.672,5.112
							c18.72-40.176,19.368-78.336-2.376-96.84c-19.512-17.28-53.424-13.248-88.128,6.696v43.92
							c30.456-23.328,59.544-32.688,72.144-20.952c16.92,15.696-1.728,63.36-41.472,106.056
							c-10.008,10.8-20.448,20.231-30.672,28.08v49.319c8.496-17.279,22.32-36.936,40.104-55.728
							c40.032-42.336,85.32-65.016,100.801-50.328c15.479,14.616-4.536,61.128-44.496,103.464
							c-36.792,38.881-77.904,61.129-96.408,53.28V361.19z M171.84,99.83c6.984-45.936-2.448-83.664-26.856-93.456
							c-4.392-1.728-9.144-2.52-14.04-2.376v26.568c17.856,11.448,18.289,61.272,0.288,115.272c-0.144,0.216-0.216,0.432-0.288,0.72
							v55.584c8.208-14.976,19.728-31.104,34.128-46.584c10.008-10.728,20.376-20.232,30.672-28.08v-43.92
							C187.752,88.166,179.688,93.638,171.84,99.83z M130.944,290.414c12.384,1.8,26.64-0.288,41.76-5.832
							c-13.824,27.576-16.2,52.056-3.816,65.808c6.192,6.912,15.48,10.368,26.856,10.801v-20.521
							c-1.656-0.72-3.168-1.655-4.464-2.88c-8.568-8.137-6.265-26.137,4.464-47.809v-49.319
							c-25.561,19.584-50.112,29.376-64.8,25.056V290.414z M130.944,3.998c-12.024,0.432-25.272,6.48-38.304,16.92v26.208
							c12.456-14.4,24.912-21.6,34.848-18.288c1.224,0.432,2.376,1.008,3.456,1.728V3.998z M92.64,252.253
							c2.016,11.521,6.912,21.097,14.76,27.792c6.48,5.688,14.472,9.072,23.544,10.368v-24.696c-2.808-0.863-5.256-2.16-7.344-4.104
							c-10.728-10.008-7.056-33.049,7.344-59.472v-55.584c-10.224,30.168-24.192,55.8-38.304,72.144V252.253z M92.64,20.917
							c-21.888,17.568-43.272,47.592-58.104,84.6c-10.152,25.56-15.84,50.976-17.064,73.368v18.576
							c1.728,28.08,11.52,49.032,28.872,56.016c13.392,5.328,29.304,1.513,45.36-9.359c0.144,2.808,0.504,5.544,0.936,8.136v-33.552
							c-12.456,14.4-24.912,21.6-34.848,18.216c-21.168-7.056-22.824-59.616-3.672-116.928
							c10.224-30.528,24.336-56.376,38.52-72.864V20.917z"/>
						<path style="fill:none;stroke:#FF4F00;stroke-width:7.992;" d="M171.84,99.83c6.984-45.936-2.448-83.664-26.856-93.456
							C111.36-7.019,61.752,37.478,34.536,105.518c-27.144,68.04-21.888,134.496,11.808,147.959
							c13.392,5.328,29.304,1.513,45.36-9.359c0.936,15.12,6.048,27.72,15.696,35.928c15.192,13.393,39.096,14.184,65.304,4.536
							c-13.824,27.576-16.2,52.056-3.816,65.808c22.608,25.2,86.473,4.896,142.128-45.216
							c55.656-50.04,82.584-111.456,59.904-136.584c-14.976-16.704-47.952-13.464-84.672,5.112
							c18.72-40.176,19.368-78.336-2.376-96.84C259.896,55.622,214.104,66.565,171.84,99.83z M127.488,28.837
							c21.168,7.128,22.825,59.688,3.744,117c-19.224,57.312-52.2,98.208-73.44,91.08c-21.168-7.056-22.824-59.616-3.672-116.928
							C73.272,62.678,106.248,21.782,127.488,28.837z M267.888,106.526c16.92,15.696-1.728,63.36-41.472,106.056
							c-39.744,42.769-85.896,64.8-102.816,49.032c-16.848-15.696,1.8-63.36,41.472-106.056
							C204.816,112.862,251.04,90.83,267.888,106.526z M336.648,183.925c15.479,14.616-4.536,61.128-44.496,103.464
							c-40.032,42.408-85.32,65.017-100.872,50.4c-15.48-14.616,4.536-61.128,44.567-103.536
							C275.88,191.917,321.168,169.238,336.648,183.925z"/>
					</g>
					<path style="fill:#D1D193;stroke:#E8E800;stroke-width:7.992;" d="M87.024,109.694l25.632,11.52l-22.104,47.88l-24.768-8.856
						L87.024,109.694z"/>
					<path style="fill:#D1D193;stroke:#E8E800;stroke-width:7.992;" d="M213.24,151.381l21.24,15.048l-41.545,42.551l-18.575-10.655
						L213.24,151.381z"/>
					<path style="fill:#D1D193;stroke:#E8E800;stroke-width:7.992;" d="M280.416,235.549l16.776,14.184l-37.08,36.36l-12.385-13.319
						L280.416,235.549z"/>
				</g>
			</g>
		</g>
	</g>
</svg>
