<?xml version="1.0" encoding="iso-8859-1"?>
<!-- Generator: Adobe Illustrator 10, SVG Export Plug-In . SVG Version: 3.0.0 Build 76)  -->
<!DOCTYPE svg PUBLIC "-//W3C//DTD SVG 1.0//EN"    "http://www.w3.org/TR/2001/REC-SVG-20010904/DTD/svg10.dtd" [
	<!ENTITY ns_flows "http://ns.adobe.com/Flows/1.0/">
	<!ENTITY ns_svg "http://www.w3.org/2000/svg">
	<!ENTITY ns_xlink "http://www.w3.org/1999/xlink">
]>
<svg  xmlns="&ns_svg;" xmlns:xlink="&ns_xlink;" xmlns:a="http://ns.adobe.com/AdobeSVGViewerExtensions/3.0/"
	 width="468.311" height="498.025" viewBox="0 0 468.311 498.025"
	 style="overflow:visible;enable-background:new 0 0 468.311 498.025" xml:space="preserve">
	<style type="text/css">
	<![CDATA[
		@font-face{font-family:'Times-Roman';src:url(E47A223C.cef)}
	]]>
	</style>
	<g id="Layer_1">
		<text transform="matrix(1 0 0 1 0 435.0625)"><tspan x="0" y="0" style="font-family:'Times-Roman'; font-size:12;">&quot;Discard 2&quot;</tspan><tspan x="0" y="14.5" style="font-family:'Times-Roman'; font-size:12;">Copyright </tspan><tspan x="51.668" y="14.5" style="font-family:'Times-Roman'; font-size:12;">&#xA9;</tspan><tspan x="60.785" y="14.5" style="font-family:'Times-Roman'; font-size:12;"> 2000 Rob Myers http://www.robmyers.org/ .</tspan><tspan x="0" y="29" style="font-family:'Times-Roman'; font-size:12;">This work is licensed under the Creative Commons Attribution-ShareAlike License.</tspan><tspan x="0" y="43.5" style="font-family:'Times-Roman'; font-size:12;">To view a copy of this license, visit http://creativecommons.org/licenses/by-sa/1.0/ </tspan><tspan x="0" y="58" style="font-family:'Times-Roman'; font-size:12;">or send a letter to Creative Commons, 559 Nathan Abbott Way, Stanford, California 94305, USA.</tspan></text>
		<g>
			<g>
				<g>
					<path d="M190.824,415.139c30.096,1.08,74.88-19.584,115.271-56.016c55.656-50.04,82.584-111.456,59.904-136.584
						c-14.977-16.632-47.952-13.392-84.672,5.184c18.72-40.248,19.367-78.408-2.448-96.912
						c-19.44-17.208-53.353-13.176-88.056,6.768v43.92c30.455-23.4,59.472-32.76,72.144-21.024
						c16.921,15.768-1.728,63.36-41.472,106.127c-10.008,10.729-20.448,20.16-30.672,28.008v49.32
						c8.496-17.279,22.32-36.863,40.104-55.728c40.032-42.337,85.32-64.944,100.801-50.328
						c15.479,14.616-4.537,61.128-44.568,103.536c-36.721,38.88-77.832,61.128-96.336,53.207V415.139z M166.92,153.779
						c6.984-45.936-2.448-83.664-26.928-93.384c-4.392-1.8-9.144-2.592-14.04-2.376v26.496
						c17.856,11.521,18.36,61.272,0.216,115.272c-0.072,0.216-0.144,0.504-0.216,0.72v55.584c8.208-14.977,19.8-31.104,34.2-46.584
						c10.008-10.728,20.376-20.16,30.672-28.008v-43.92C182.832,142.115,174.768,147.587,166.92,153.779z M125.952,344.435
						c12.312,1.729,26.712-0.359,41.832-5.904c-13.824,27.576-16.2,52.129-3.816,65.809c6.192,6.912,15.48,10.368,26.856,10.8
						v-20.521c-1.656-0.719-3.168-1.655-4.464-2.879c-8.568-8.137-6.264-26.137,4.464-47.809v-49.32
						c-25.632,19.656-50.184,29.377-64.872,25.057V344.435z M125.952,58.019c-12.024,0.36-25.272,6.408-38.304,16.848v26.28
						c12.456-14.472,24.912-21.6,34.848-18.288c1.224,0.36,2.376,0.936,3.456,1.656V58.019z M87.648,306.203
						c2.016,11.52,6.912,21.096,14.76,27.792c6.48,5.688,14.472,9.072,23.544,10.439v-24.768c-2.808-0.792-5.256-2.16-7.344-4.032
						c-10.728-10.08-7.056-33.048,7.344-59.544v-55.584c-10.224,30.24-24.192,55.8-38.304,72.145V306.203z M87.648,74.867
						c-21.888,17.568-43.272,47.592-58.104,84.6c-10.224,25.632-15.84,50.976-17.064,73.368v18.576
						c1.728,28.08,11.52,49.104,28.872,56.016c13.392,5.328,29.304,1.512,45.36-9.359c0.144,2.808,0.504,5.543,0.936,8.136v-33.552
						c-12.456,14.399-24.912,21.6-34.848,18.287c-21.168-7.128-22.896-59.688-3.672-116.928
						c10.224-30.528,24.336-56.448,38.52-72.864V74.867z"/>
					<path style="fill:none;stroke:#000000;stroke-width:7.992;" d="M166.92,153.779c6.984-45.936-2.448-83.664-26.928-93.384
						C106.368,46.931,56.76,91.427,29.544,159.467C2.4,227.507,7.656,293.963,41.352,307.427c13.392,5.328,29.304,1.512,45.36-9.359
						c0.936,15.191,6.048,27.72,15.696,35.928c15.192,13.392,39.096,14.184,65.376,4.535c-13.824,27.576-16.2,52.129-3.816,65.809
						c22.608,25.2,86.472,4.896,142.128-45.216c55.656-50.04,82.584-111.456,59.904-136.584
						c-14.977-16.632-47.952-13.392-84.672,5.184c18.72-40.248,19.367-78.408-2.448-96.912
						C254.977,109.643,209.184,120.587,166.92,153.779z M122.496,82.859c21.24,7.056,22.896,59.616,3.672,116.928
						c-19.152,57.312-52.128,98.208-73.368,91.151c-21.168-7.128-22.896-59.688-3.672-116.928
						C68.28,116.699,101.256,75.731,122.496,82.859z M262.968,160.475c16.921,15.768-1.728,63.36-41.472,106.127
						c-39.816,42.696-85.968,64.729-102.888,49.032c-16.848-15.769,1.8-63.432,41.544-106.128
						C199.896,166.811,246.048,144.779,262.968,160.475z M331.729,237.875c15.479,14.616-4.537,61.128-44.568,103.536
						c-40.032,42.336-85.32,64.943-100.8,50.328c-15.48-14.616,4.536-61.129,44.568-103.536
						C270.96,245.866,316.248,223.259,331.729,237.875z"/>
				</g>
				<path style="stroke:#000000;stroke-width:15.984;" d="M91.176,151.835c0,0,126.145,0.864,184.176,147.456
					c-5.688,5.327,5.185-2.521-24.479,14.616c0,0-49.032-125.64-165.168-127.512C87.504,145.427,91.176,151.835,91.176,151.835z"/>
				<path style="fill:#C3C6D4;stroke:#98ADB2;stroke-width:15.984;" d="M85.128,144.995c0,0,126-4.248,190.08,139.824
					c-5.472,5.543,5.04-2.736-23.903,15.552c0,0-54.073-123.48-170.208-120.528C81.24,138.803,85.128,144.995,85.128,144.995z"/>
				<g>
					<path style="fill:#FFFF00;" d="M187.224,397.139c30.096,1.08,74.879-19.584,115.272-56.016
						c55.656-50.04,82.584-111.456,59.904-136.584c-14.977-16.632-47.952-13.392-84.672,5.184
						c18.72-40.248,19.367-78.408-2.449-96.912c-19.439-17.208-53.352-13.176-88.055,6.768v43.92
						c30.456-23.4,59.471-32.76,72.144-21.024c16.92,15.768-1.728,63.36-41.472,106.127c-10.008,10.729-20.448,20.16-30.672,28.008
						v49.32c8.496-17.279,22.32-36.863,40.104-55.728c40.031-42.337,85.32-64.944,100.8-50.328s-4.536,61.128-44.567,103.536
						c-36.721,38.88-77.833,61.128-96.336,53.207V397.139z M163.32,135.779c6.984-45.936-2.448-83.664-26.928-93.384
						c-4.392-1.8-9.144-2.592-14.04-2.376v26.496c17.856,11.521,18.36,61.272,0.216,115.272c-0.072,0.216-0.144,0.504-0.216,0.72
						v55.584c8.208-14.977,19.8-31.104,34.2-46.584c10.008-10.728,20.376-20.16,30.672-28.008v-43.92
						C179.232,124.115,171.168,129.587,163.32,135.779z M122.352,326.435c12.312,1.729,26.712-0.359,41.832-5.904
						c-13.824,27.576-16.2,52.129-3.816,65.809c6.192,6.912,15.48,10.368,26.856,10.8v-20.521c-1.656-0.719-3.168-1.655-4.464-2.879
						c-8.568-8.137-6.264-26.137,4.464-47.809v-49.32c-25.632,19.656-50.184,29.377-64.872,25.057V326.435z M122.352,40.019
						c-12.024,0.36-25.272,6.408-38.304,16.848v26.28c12.456-14.472,24.912-21.6,34.848-18.288c1.224,0.36,2.376,0.936,3.456,1.656
						V40.019z M84.048,288.203c2.016,11.52,6.912,21.096,14.76,27.792c6.48,5.688,14.472,9.072,23.544,10.439v-24.768
						c-2.808-0.792-5.256-2.16-7.344-4.032c-10.728-10.08-7.056-33.048,7.344-59.544v-55.584
						c-10.224,30.24-24.192,55.8-38.304,72.145V288.203z M84.048,56.867c-21.888,17.568-43.272,47.592-58.104,84.6
						c-10.224,25.632-15.84,50.976-17.064,73.368v18.576c1.728,28.08,11.52,49.104,28.872,56.016
						c13.392,5.328,29.304,1.512,45.36-9.359c0.144,2.808,0.504,5.543,0.936,8.136v-33.552
						c-12.456,14.399-24.912,21.6-34.848,18.287c-21.168-7.128-22.896-59.688-3.672-116.928
						c10.224-30.528,24.336-56.448,38.52-72.864V56.867z"/>
					<path style="fill:none;stroke:#FF4F00;stroke-width:7.992;" d="M163.32,135.779c6.984-45.936-2.448-83.664-26.928-93.384
						C102.768,28.931,53.16,73.427,25.944,141.467C-1.2,209.507,4.056,275.963,37.752,289.427
						c13.392,5.328,29.304,1.512,45.36-9.359c0.936,15.191,6.048,27.72,15.696,35.928c15.192,13.392,39.096,14.184,65.376,4.535
						c-13.824,27.576-16.2,52.129-3.816,65.809c22.608,25.2,86.472,4.896,142.128-45.216
						c55.656-50.04,82.584-111.456,59.904-136.584c-14.977-16.632-47.952-13.392-84.672,5.184
						c18.72-40.248,19.367-78.408-2.449-96.912C251.376,91.643,205.584,102.587,163.32,135.779z M118.896,64.859
						c21.24,7.056,22.896,59.616,3.672,116.928c-19.152,57.312-52.128,98.208-73.368,91.151
						c-21.168-7.128-22.896-59.688-3.672-116.928C64.68,98.699,97.656,57.731,118.896,64.859z M259.368,142.475
						c16.92,15.768-1.728,63.36-41.472,106.127c-39.816,42.696-85.968,64.729-102.889,49.032
						c-16.848-15.769,1.8-63.432,41.544-106.128C196.296,148.811,242.448,126.779,259.368,142.475z M328.128,219.875
						c15.479,14.616-4.536,61.128-44.567,103.536c-40.033,42.336-85.32,64.943-100.801,50.328
						c-15.48-14.616,4.536-61.129,44.568-103.536C267.359,227.866,312.648,205.259,328.128,219.875z"/>
				</g>
			</g>
			<g>
				<g>
					<path d="M208.824,397.139c30.096,1.08,74.88-19.584,115.271-56.016c55.656-50.04,82.584-111.456,59.904-136.584
						c-14.977-16.632-47.952-13.392-84.672,5.184c18.72-40.248,19.367-78.408-2.448-96.912
						c-19.44-17.208-53.353-13.176-88.056,6.768v43.92c30.455-23.4,59.472-32.76,72.144-21.024
						c16.921,15.768-1.728,63.36-41.472,106.127c-10.008,10.729-20.448,20.16-30.672,28.008v49.32
						c8.496-17.279,22.32-36.863,40.104-55.728c40.032-42.337,85.32-64.944,100.801-50.328
						c15.479,14.616-4.537,61.128-44.568,103.536c-36.721,38.88-77.832,61.128-96.336,53.207V397.139z M184.92,135.779
						c6.984-45.936-2.448-83.664-26.928-93.384c-4.392-1.8-9.144-2.592-14.04-2.376v26.496
						c17.856,11.521,18.36,61.272,0.216,115.272c-0.072,0.216-0.144,0.504-0.216,0.72v55.584c8.208-14.977,19.8-31.104,34.2-46.584
						c10.008-10.728,20.376-20.16,30.672-28.008v-43.92C200.832,124.115,192.768,129.587,184.92,135.779z M143.952,326.435
						c12.312,1.729,26.712-0.359,41.832-5.904c-13.824,27.576-16.2,52.129-3.816,65.809c6.192,6.912,15.48,10.368,26.856,10.8
						v-20.521c-1.656-0.719-3.168-1.655-4.464-2.879c-8.568-8.137-6.264-26.137,4.464-47.809v-49.32
						c-25.632,19.656-50.184,29.377-64.872,25.057V326.435z M143.952,40.019c-12.024,0.36-25.272,6.408-38.304,16.848v26.28
						c12.456-14.472,24.912-21.6,34.848-18.288c1.224,0.36,2.376,0.936,3.456,1.656V40.019z M105.648,288.203
						c2.016,11.52,6.912,21.096,14.76,27.792c6.48,5.688,14.472,9.072,23.544,10.439v-24.768c-2.808-0.792-5.256-2.16-7.344-4.032
						c-10.728-10.08-7.056-33.048,7.344-59.544v-55.584c-10.224,30.24-24.192,55.8-38.304,72.145V288.203z M105.648,56.867
						c-21.888,17.568-43.272,47.592-58.104,84.6c-10.224,25.632-15.84,50.976-17.064,73.368v18.576
						c1.728,28.08,11.52,49.104,28.872,56.016c13.392,5.328,29.304,1.512,45.36-9.359c0.144,2.808,0.504,5.543,0.936,8.136v-33.552
						c-12.456,14.399-24.912,21.6-34.848,18.287c-21.168-7.128-22.896-59.688-3.672-116.928
						c10.224-30.528,24.336-56.448,38.52-72.864V56.867z"/>
					<path style="fill:none;stroke:#000000;stroke-width:7.992;" d="M184.92,135.779c6.984-45.936-2.448-83.664-26.928-93.384
						C124.368,28.931,74.76,73.427,47.544,141.467c-27.144,68.04-21.888,134.496,11.808,147.96
						c13.392,5.328,29.304,1.512,45.36-9.359c0.936,15.191,6.048,27.72,15.696,35.928c15.192,13.392,39.096,14.184,65.376,4.535
						c-13.824,27.576-16.2,52.129-3.816,65.809c22.608,25.2,86.472,4.896,142.128-45.216
						c55.656-50.04,82.584-111.456,59.904-136.584c-14.977-16.632-47.952-13.392-84.672,5.184
						c18.72-40.248,19.367-78.408-2.448-96.912C272.977,91.643,227.184,102.587,184.92,135.779z M140.496,64.859
						c21.24,7.056,22.896,59.616,3.672,116.928c-19.152,57.312-52.128,98.208-73.368,91.151
						c-21.168-7.128-22.896-59.688-3.672-116.928C86.28,98.699,119.256,57.731,140.496,64.859z M280.968,142.475
						c16.921,15.768-1.728,63.36-41.472,106.127c-39.816,42.696-85.968,64.729-102.888,49.032
						c-16.848-15.769,1.8-63.432,41.544-106.128C217.896,148.811,264.048,126.779,280.968,142.475z M349.729,219.875
						c15.479,14.616-4.537,61.128-44.568,103.536c-40.032,42.336-85.32,64.943-100.8,50.328
						c-15.48-14.616,4.536-61.129,44.568-103.536C288.96,227.866,334.248,205.259,349.729,219.875z"/>
				</g>
				<path style="stroke:#000000;stroke-width:15.984;" d="M109.176,133.835c0,0,126.145,0.864,184.176,147.456
					c-5.688,5.327,5.185-2.521-24.479,14.616c0,0-49.032-125.64-165.168-127.512C105.504,127.427,109.176,133.835,109.176,133.835z"
					/>
				<path style="fill:#C3C6D4;stroke:#98ADB2;stroke-width:15.984;" d="M103.128,126.995c0,0,126-4.248,190.08,139.824
					c-5.472,5.543,5.04-2.736-23.903,15.552c0,0-54.072-123.48-170.208-120.528C99.24,120.803,103.128,126.995,103.128,126.995z"/>
				<g>
					<path style="fill:#FFFF00;" d="M205.224,379.139c30.096,1.08,74.879-19.584,115.272-56.016
						c55.656-50.04,82.584-111.456,59.904-136.584c-14.977-16.632-47.952-13.392-84.672,5.184
						c18.72-40.248,19.367-78.408-2.449-96.912c-19.439-17.208-53.352-13.176-88.055,6.768v43.92
						c30.456-23.4,59.471-32.76,72.144-21.024c16.92,15.768-1.728,63.36-41.472,106.127c-10.008,10.729-20.448,20.16-30.672,28.008
						v49.32c8.497-17.279,22.32-36.863,40.104-55.728c40.031-42.336,85.32-64.944,100.8-50.328s-4.536,61.128-44.567,103.536
						c-36.721,38.88-77.832,61.128-96.336,53.207V379.139z M181.32,117.779c6.984-45.936-2.448-83.664-26.928-93.384
						c-4.392-1.8-9.144-2.592-14.04-2.376v26.496c17.856,11.521,18.36,61.272,0.216,115.272c-0.072,0.216-0.144,0.504-0.216,0.72
						v55.584c8.208-14.976,19.8-31.104,34.2-46.584c10.008-10.728,20.376-20.16,30.672-28.008v-43.92
						C197.232,106.115,189.168,111.587,181.32,117.779z M140.352,308.435c12.312,1.729,26.712-0.359,41.832-5.904
						c-13.824,27.576-16.2,52.129-3.816,65.809c6.192,6.912,15.48,10.368,26.856,10.8v-20.521c-1.656-0.719-3.168-1.655-4.464-2.879
						c-8.568-8.137-6.264-26.137,4.464-47.809v-49.32c-25.632,19.656-50.184,29.377-64.872,25.057V308.435z M140.352,22.019
						c-12.024,0.36-25.272,6.408-38.304,16.848v26.28c12.456-14.472,24.912-21.6,34.848-18.288c1.224,0.36,2.376,0.936,3.456,1.656
						V22.019z M102.048,270.203c2.016,11.52,6.912,21.096,14.76,27.792c6.48,5.688,14.472,9.072,23.544,10.439v-24.768
						c-2.808-0.792-5.256-2.16-7.344-4.032c-10.728-10.08-7.056-33.048,7.344-59.544v-55.584
						c-10.224,30.24-24.192,55.8-38.304,72.145V270.203z M102.048,38.867c-21.888,17.568-43.272,47.592-58.104,84.6
						c-10.224,25.632-15.84,50.976-17.064,73.368v18.576c1.728,28.08,11.52,49.104,28.872,56.016
						c13.392,5.328,29.304,1.512,45.36-9.359c0.144,2.808,0.504,5.543,0.936,8.136v-33.552
						c-12.456,14.399-24.912,21.6-34.848,18.287c-21.168-7.128-22.896-59.688-3.672-116.928
						c10.224-30.528,24.336-56.448,38.52-72.864V38.867z"/>
					<path style="fill:none;stroke:#FF4F00;stroke-width:7.992;" d="M181.32,117.779c6.984-45.936-2.448-83.664-26.928-93.384
						C120.768,10.931,71.16,55.427,43.944,123.467c-27.144,68.04-21.888,134.496,11.808,147.96
						c13.392,5.328,29.304,1.512,45.36-9.359c0.936,15.191,6.048,27.72,15.696,35.928c15.192,13.392,39.096,14.184,65.376,4.535
						c-13.824,27.576-16.2,52.129-3.816,65.809c22.608,25.2,86.472,4.896,142.128-45.216
						c55.656-50.04,82.584-111.456,59.904-136.584c-14.977-16.632-47.952-13.392-84.672,5.184
						c18.72-40.248,19.367-78.408-2.449-96.912C269.376,73.643,223.584,84.587,181.32,117.779z M136.896,46.859
						c21.24,7.056,22.896,59.616,3.672,116.928c-19.152,57.312-52.128,98.208-73.368,91.151
						c-21.168-7.128-22.896-59.688-3.672-116.928C82.68,80.699,115.656,39.731,136.896,46.859z M277.368,124.475
						c16.92,15.768-1.728,63.36-41.472,106.127c-39.816,42.696-85.968,64.729-102.889,49.032
						c-16.848-15.769,1.8-63.432,41.544-106.128C214.296,130.811,260.448,108.779,277.368,124.475z M346.128,201.875
						c15.479,14.616-4.536,61.128-44.567,103.536c-40.033,42.336-85.32,64.943-100.801,50.328
						c-15.48-14.616,4.536-61.129,44.568-103.536C285.359,209.867,330.648,187.259,346.128,201.875z"/>
				</g>
			</g>
			<g>
				<g>
					<path d="M226.824,379.139c30.096,1.08,74.88-19.584,115.271-56.016c55.656-50.04,82.584-111.456,59.904-136.584
						c-14.977-16.632-47.952-13.392-84.672,5.184c18.72-40.248,19.367-78.408-2.448-96.912
						c-19.44-17.208-53.353-13.176-88.056,6.768v43.92c30.455-23.4,59.472-32.76,72.144-21.024
						c16.921,15.768-1.728,63.36-41.472,106.127c-10.008,10.729-20.448,20.16-30.672,28.008v49.32
						c8.496-17.279,22.32-36.863,40.104-55.728c40.032-42.336,85.32-64.944,100.801-50.328
						c15.479,14.616-4.537,61.128-44.568,103.536c-36.721,38.88-77.832,61.128-96.336,53.207V379.139z M202.92,117.779
						c6.984-45.936-2.448-83.664-26.928-93.384c-4.392-1.8-9.144-2.592-14.04-2.376v26.496
						c17.856,11.521,18.36,61.272,0.216,115.272c-0.072,0.216-0.144,0.504-0.216,0.72v55.584c8.208-14.976,19.8-31.104,34.2-46.584
						c10.008-10.728,20.375-20.16,30.672-28.008v-43.92C218.832,106.115,210.768,111.587,202.92,117.779z M161.952,308.435
						c12.312,1.729,26.712-0.359,41.832-5.904c-13.824,27.576-16.2,52.129-3.816,65.809c6.192,6.912,15.48,10.368,26.856,10.8
						v-20.521c-1.656-0.719-3.168-1.655-4.465-2.879c-8.567-8.137-6.264-26.137,4.465-47.809v-49.32
						c-25.632,19.656-50.184,29.377-64.872,25.057V308.435z M161.952,22.019c-12.024,0.36-25.272,6.408-38.304,16.848v26.28
						c12.456-14.472,24.912-21.6,34.848-18.288c1.224,0.36,2.376,0.936,3.456,1.656V22.019z M123.648,270.203
						c2.016,11.52,6.912,21.096,14.76,27.792c6.48,5.688,14.472,9.072,23.544,10.439v-24.768c-2.808-0.792-5.256-2.16-7.344-4.032
						c-10.728-10.08-7.056-33.048,7.344-59.544v-55.584c-10.224,30.24-24.192,55.8-38.304,72.145V270.203z M123.648,38.867
						c-21.888,17.568-43.272,47.592-58.104,84.6c-10.224,25.632-15.84,50.976-17.064,73.368v18.576
						c1.728,28.08,11.52,49.104,28.872,56.016c13.392,5.328,29.304,1.512,45.36-9.359c0.144,2.808,0.504,5.543,0.936,8.136v-33.552
						c-12.456,14.399-24.912,21.6-34.848,18.287c-21.168-7.128-22.896-59.688-3.672-116.928
						c10.224-30.528,24.336-56.448,38.52-72.864V38.867z"/>
					<path style="fill:none;stroke:#000000;stroke-width:7.992;" d="M202.92,117.779c6.984-45.936-2.448-83.664-26.928-93.384
						C142.368,10.931,92.76,55.427,65.544,123.467c-27.144,68.04-21.888,134.496,11.808,147.96
						c13.392,5.328,29.304,1.512,45.36-9.359c0.936,15.191,6.048,27.72,15.696,35.928c15.192,13.392,39.096,14.184,65.376,4.535
						c-13.824,27.576-16.2,52.129-3.816,65.809c22.608,25.2,86.472,4.896,142.128-45.216
						c55.656-50.04,82.584-111.456,59.904-136.584c-14.977-16.632-47.952-13.392-84.672,5.184
						c18.72-40.248,19.367-78.408-2.448-96.912C290.977,73.643,245.184,84.587,202.92,117.779z M158.496,46.859
						c21.24,7.056,22.896,59.616,3.672,116.928c-19.152,57.312-52.128,98.208-73.368,91.151
						c-21.168-7.128-22.896-59.688-3.672-116.928C104.28,80.699,137.256,39.731,158.496,46.859z M298.968,124.475
						c16.921,15.768-1.728,63.36-41.472,106.127c-39.816,42.696-85.968,64.729-102.888,49.032
						c-16.848-15.769,1.8-63.432,41.544-106.128C235.896,130.811,282.048,108.779,298.968,124.475z M367.729,201.875
						c15.479,14.616-4.537,61.128-44.568,103.536c-40.032,42.336-85.32,64.943-100.801,50.328
						c-15.479-14.616,4.537-61.129,44.568-103.536C306.96,209.867,352.248,187.259,367.729,201.875z"/>
				</g>
				<path style="stroke:#000000;stroke-width:15.984;" d="M127.176,115.835c0,0,126.145,0.864,184.176,147.456
					c-5.688,5.327,5.185-2.521-24.479,14.616c0,0-49.032-125.64-165.168-127.512C123.504,109.427,127.176,115.835,127.176,115.835z"
					/>
				<path style="fill:#C3C6D4;stroke:#98ADB2;stroke-width:15.984;" d="M121.128,108.995c0,0,126-4.248,190.08,139.824
					c-5.472,5.543,5.04-2.736-23.903,15.552c0,0-54.072-123.48-170.208-120.528C117.24,102.803,121.128,108.995,121.128,108.995z"/>
				<g>
					<path style="fill:#FFFF00;" d="M223.225,361.139c30.096,1.08,74.879-19.584,115.271-56.016
						c55.656-50.04,82.584-111.456,59.904-136.584c-14.977-16.632-47.952-13.392-84.672,5.184
						c18.72-40.248,19.367-78.408-2.449-96.912c-19.439-17.208-53.352-13.176-88.055,6.768v43.92
						c30.455-23.4,59.471-32.76,72.144-21.024c16.92,15.768-1.728,63.36-41.472,106.127c-10.008,10.729-20.448,20.16-30.672,28.008
						v49.32c8.496-17.279,22.319-36.863,40.104-55.728c40.031-42.336,85.32-64.944,100.8-50.328s-4.536,61.128-44.567,103.536
						c-36.721,38.88-77.832,61.128-96.336,53.207V361.139z M199.32,99.779c6.984-45.936-2.448-83.664-26.928-93.384
						c-4.392-1.8-9.144-2.592-14.04-2.376v26.496c17.856,11.521,18.36,61.272,0.216,115.272c-0.072,0.216-0.144,0.504-0.216,0.72
						v55.584c8.208-14.976,19.8-31.104,34.2-46.584c10.008-10.728,20.376-20.16,30.673-28.008v-43.92
						C215.232,88.115,207.168,93.587,199.32,99.779z M158.352,290.435c12.312,1.729,26.712-0.359,41.832-5.904
						c-13.824,27.576-16.2,52.129-3.816,65.809c6.192,6.912,15.48,10.368,26.856,10.8v-20.521c-1.656-0.719-3.168-1.655-4.465-2.879
						c-8.568-8.137-6.264-26.137,4.465-47.809v-49.32c-25.633,19.656-50.185,29.377-64.873,25.057V290.435z M158.352,4.019
						c-12.024,0.36-25.272,6.408-38.304,16.848v26.28c12.456-14.472,24.912-21.6,34.848-18.288c1.224,0.36,2.376,0.936,3.456,1.656
						V4.019z M120.048,252.203c2.016,11.52,6.912,21.096,14.76,27.792c6.48,5.688,14.472,9.072,23.544,10.439v-24.768
						c-2.808-0.792-5.256-2.16-7.344-4.032c-10.728-10.08-7.056-33.048,7.344-59.544v-55.584
						c-10.224,30.24-24.192,55.8-38.304,72.145V252.203z M120.048,20.867c-21.888,17.568-43.272,47.592-58.104,84.6
						c-10.224,25.632-15.84,50.976-17.064,73.368v18.576c1.728,28.08,11.52,49.104,28.872,56.016
						c13.392,5.328,29.304,1.512,45.36-9.359c0.144,2.808,0.504,5.543,0.936,8.136v-33.552
						c-12.456,14.399-24.912,21.6-34.848,18.287c-21.168-7.128-22.896-59.688-3.672-116.928
						c10.224-30.528,24.336-56.448,38.52-72.864V20.867z"/>
					<path style="fill:none;stroke:#FF4F00;stroke-width:7.992;" d="M199.32,99.779c6.984-45.936-2.448-83.664-26.928-93.384
						C138.768-7.069,89.16,37.427,61.944,105.467c-27.144,68.04-21.888,134.496,11.808,147.96
						c13.392,5.328,29.304,1.512,45.36-9.359c0.936,15.191,6.048,27.72,15.696,35.928c15.192,13.392,39.096,14.184,65.376,4.535
						c-13.824,27.576-16.2,52.129-3.816,65.809c22.608,25.2,86.472,4.896,142.128-45.216
						c55.656-50.04,82.584-111.456,59.904-136.584c-14.977-16.632-47.952-13.392-84.672,5.184
						c18.72-40.248,19.367-78.408-2.449-96.912C287.376,55.643,241.584,66.587,199.32,99.779z M154.896,28.859
						c21.24,7.056,22.896,59.616,3.672,116.928c-19.152,57.312-52.128,98.208-73.368,91.151
						c-21.168-7.128-22.896-59.688-3.672-116.928C100.68,62.699,133.656,21.731,154.896,28.859z M295.368,106.475
						c16.92,15.768-1.728,63.36-41.472,106.127c-39.816,42.696-85.968,64.729-102.889,49.032
						c-16.848-15.769,1.8-63.432,41.544-106.128C232.296,112.811,278.448,90.779,295.368,106.475z M364.128,183.875
						c15.479,14.616-4.536,61.128-44.567,103.536c-40.033,42.336-85.32,64.943-100.801,50.328
						c-15.48-14.616,4.536-61.129,44.568-103.536C303.359,191.867,348.648,169.259,364.128,183.875z"/>
				</g>
			</g>
		</g>
	</g>
</svg>
