<?xml version="1.0" encoding="UTF-8" standalone="no"?>
<!-- Generator: Adobe Illustrator 10, SVG Export Plug-In . SVG Version: 3.0.0 Build 76)  -->
<svg
   xmlns:dc="http://purl.org/dc/elements/1.1/"
   xmlns:cc="http://creativecommons.org/ns#"
   xmlns:rdf="http://www.w3.org/1999/02/22-rdf-syntax-ns#"
   xmlns:svg="http://www.w3.org/2000/svg"
   xmlns="http://www.w3.org/2000/svg"
   xmlns:sodipodi="http://sodipodi.sourceforge.net/DTD/sodipodi-0.dtd"
   xmlns:inkscape="http://www.inkscape.org/namespaces/inkscape"
   width="409.45239"
   height="419.16611"
   viewBox="0 0 468.311 498.025"
   style="overflow:visible"
   xml:space="preserve"
   id="svg2499"
   sodipodi:version="0.32"
   inkscape:version="0.46"
   sodipodi:docname="discard2.svg"
   inkscape:output_extension="org.inkscape.output.svg.inkscape"
   version="1.0"><metadata
   id="metadata2579"><rdf:RDF><cc:Work
       rdf:about=""><dc:format>image/svg+xml</dc:format><dc:type
         rdf:resource="http://purl.org/dc/dcmitype/StillImage" /></cc:Work></rdf:RDF></metadata><defs
   id="defs2577"><inkscape:perspective
   sodipodi:type="inkscape:persp3d"
   inkscape:vp_x="0 : 249.0125 : 1"
   inkscape:vp_y="0 : 1000 : 0"
   inkscape:vp_z="468.311 : 249.0125 : 1"
   inkscape:persp3d-origin="234.1555 : 166.00833 : 1"
   id="perspective2581" />
		
		
	</defs><sodipodi:namedview
   inkscape:window-height="670"
   inkscape:window-width="640"
   inkscape:pageshadow="2"
   inkscape:pageopacity="0.0"
   guidetolerance="10.0"
   gridtolerance="10.0"
   objecttolerance="10.0"
   borderopacity="1.0"
   bordercolor="#666666"
   pagecolor="#ffffff"
   id="base"
   showgrid="false"
   inkscape:zoom="0.92766429"
   inkscape:cx="234.1555"
   inkscape:cy="249.0125"
   inkscape:window-x="157"
   inkscape:window-y="34"
   inkscape:current-layer="svg2499" />
	<style
   type="text/css"
   id="style2501">
	
		@font-face{font-family:'Times-Roman';src:url(E47A223C.cef)}
	
	</style>
	
<g
   transform="matrix(1.1881328,0,0,1.1881328,-14.539544,4.3453737e-3)"
   style="overflow:visible"
   id="g2520">
			<g
   id="g2522">
				<g
   id="g2524">
					<path
   id="path2526"
   d="M 190.824,415.139 C 220.92,416.219 265.704,395.555 306.095,359.123 C 361.751,309.083 388.679,247.667 365.999,222.539 C 351.022,205.907 318.047,209.147 281.327,227.723 C 300.047,187.475 300.694,149.315 278.879,130.811 C 259.439,113.603 225.526,117.635 190.823,137.579 L 190.823,181.499 C 221.278,158.099 250.295,148.739 262.967,160.475 C 279.888,176.243 261.239,223.835 221.495,266.602 C 211.487,277.331 201.047,286.762 190.823,294.61 L 190.823,343.93 C 199.319,326.651 213.143,307.067 230.927,288.202 C 270.959,245.865 316.247,223.258 331.728,237.874 C 347.207,252.49 327.191,299.002 287.16,341.41 C 250.439,380.29 209.328,402.538 190.824,394.617 L 190.824,415.139 L 190.824,415.139 z M 166.92,153.779 C 173.904,107.843 164.472,70.115 139.992,60.395 C 135.6,58.595 130.848,57.803 125.952,58.019 L 125.952,84.515 C 143.808,96.036 144.312,145.787 126.168,199.787 C 126.096,200.003 126.024,200.291 125.952,200.507 L 125.952,256.091 C 134.16,241.114 145.752,224.987 160.152,209.507 C 170.16,198.779 180.528,189.347 190.824,181.499 L 190.824,137.579 C 182.832,142.115 174.768,147.587 166.92,153.779 z M 125.952,344.435 C 138.264,346.164 152.664,344.076 167.784,338.531 C 153.96,366.107 151.584,390.66 163.968,404.34 C 170.16,411.252 179.448,414.708 190.824,415.14 L 190.824,394.619 C 189.168,393.9 187.656,392.964 186.36,391.74 C 177.792,383.603 180.096,365.603 190.824,343.931 L 190.824,294.611 C 165.192,314.267 140.64,323.988 125.952,319.668 L 125.952,344.435 z M 125.952,58.019 C 113.928,58.379 100.68,64.427 87.648,74.867 L 87.648,101.147 C 100.104,86.675 112.56,79.547 122.496,82.859 C 123.72,83.219 124.872,83.795 125.952,84.515 L 125.952,58.019 z M 87.648,306.203 C 89.664,317.723 94.56,327.299 102.408,333.995 C 108.888,339.683 116.88,343.067 125.952,344.434 L 125.952,319.666 C 123.144,318.874 120.696,317.506 118.608,315.634 C 107.88,305.554 111.552,282.586 125.952,256.09 L 125.952,200.506 C 115.728,230.746 101.76,256.306 87.648,272.651 L 87.648,306.203 z M 87.648,74.867 C 65.76,92.435 44.376,122.459 29.544,159.467 C 19.32,185.099 13.704,210.443 12.48,232.835 L 12.48,251.411 C 14.208,279.491 24,300.515 41.352,307.427 C 54.744,312.755 70.656,308.939 86.712,298.068 C 86.856,300.876 87.216,303.611 87.648,306.204 L 87.648,272.652 C 75.192,287.051 62.736,294.252 52.8,290.939 C 31.632,283.811 29.904,231.251 49.128,174.011 C 59.352,143.483 73.464,117.563 87.648,101.147 L 87.648,74.867 z" />
					<path
   id="path2528"
   d="M 166.92,153.779 C 173.904,107.843 164.472,70.115 139.992,60.395 C 106.368,46.931 56.76,91.427 29.544,159.467 C 2.4,227.507 7.656,293.963 41.352,307.427 C 54.744,312.755 70.656,308.939 86.712,298.068 C 87.648,313.259 92.76,325.788 102.408,333.996 C 117.6,347.388 141.504,348.18 167.784,338.531 C 153.96,366.107 151.584,390.66 163.968,404.34 C 186.576,429.54 250.44,409.236 306.096,359.124 C 361.752,309.084 388.68,247.668 366,222.54 C 351.023,205.908 318.048,209.148 281.328,227.724 C 300.048,187.476 300.695,149.316 278.88,130.812 C 254.977,109.643 209.184,120.587 166.92,153.779 z M 122.496,82.859 C 143.736,89.915 145.392,142.475 126.168,199.787 C 107.016,257.099 74.04,297.995 52.8,290.938 C 31.632,283.81 29.904,231.25 49.128,174.01 C 68.28,116.699 101.256,75.731 122.496,82.859 z M 262.968,160.475 C 279.889,176.243 261.24,223.835 221.496,266.602 C 181.68,309.298 135.528,331.331 118.608,315.634 C 101.76,299.865 120.408,252.202 160.152,209.506 C 199.896,166.811 246.048,144.779 262.968,160.475 z M 331.729,237.875 C 347.208,252.491 327.192,299.003 287.161,341.411 C 247.129,383.747 201.841,406.354 186.361,391.739 C 170.881,377.123 190.897,330.61 230.929,288.203 C 270.96,245.866 316.248,223.259 331.729,237.875 z"
   style="fill:none;stroke:#000000;stroke-width:7.9920001" />
				</g>
				<path
   id="path2530"
   d="M 91.176,151.835 C 91.176,151.835 217.321,152.699 275.352,299.291 C 269.664,304.618 280.537,296.77 250.873,313.907 C 250.873,313.907 201.841,188.267 85.705,186.395 C 87.504,145.427 91.176,151.835 91.176,151.835 z"
   style="stroke:#000000;stroke-width:15.98400021" />
				<path
   id="path2532"
   d="M 85.128,144.995 C 85.128,144.995 211.128,140.747 275.208,284.819 C 269.736,290.362 280.248,282.083 251.305,300.371 C 251.305,300.371 197.232,176.891 81.097,179.843 C 81.24,138.803 85.128,144.995 85.128,144.995 z"
   style="fill:#c3c6d4;stroke:#98adb2;stroke-width:15.98400021" />
				<g
   id="g2534">
					<path
   id="path2536"
   d="M 187.224,397.139 C 217.32,398.219 262.103,377.555 302.496,341.123 C 358.152,291.083 385.08,229.667 362.4,204.539 C 347.423,187.907 314.448,191.147 277.728,209.723 C 296.448,169.475 297.095,131.315 275.279,112.811 C 255.84,95.603 221.927,99.635 187.224,119.579 L 187.224,163.499 C 217.68,140.099 246.695,130.739 259.368,142.475 C 276.288,158.243 257.64,205.835 217.896,248.602 C 207.888,259.331 197.448,268.762 187.224,276.61 L 187.224,325.93 C 195.72,308.651 209.544,289.067 227.328,270.202 C 267.359,227.865 312.648,205.258 328.128,219.874 C 343.608,234.49 323.592,281.002 283.561,323.41 C 246.84,362.29 205.728,384.538 187.225,376.617 L 187.225,397.139 L 187.224,397.139 z M 163.32,135.779 C 170.304,89.843 160.872,52.115 136.392,42.395 C 132,40.595 127.248,39.803 122.352,40.019 L 122.352,66.515 C 140.208,78.036 140.712,127.787 122.568,181.787 C 122.496,182.003 122.424,182.291 122.352,182.507 L 122.352,238.091 C 130.56,223.114 142.152,206.987 156.552,191.507 C 166.56,180.779 176.928,171.347 187.224,163.499 L 187.224,119.579 C 179.232,124.115 171.168,129.587 163.32,135.779 z M 122.352,326.435 C 134.664,328.164 149.064,326.076 164.184,320.531 C 150.36,348.107 147.984,372.66 160.368,386.34 C 166.56,393.252 175.848,396.708 187.224,397.14 L 187.224,376.619 C 185.568,375.9 184.056,374.964 182.76,373.74 C 174.192,365.603 176.496,347.603 187.224,325.931 L 187.224,276.611 C 161.592,296.267 137.04,305.988 122.352,301.668 L 122.352,326.435 L 122.352,326.435 z M 122.352,40.019 C 110.328,40.379 97.08,46.427 84.048,56.867 L 84.048,83.147 C 96.504,68.675 108.96,61.547 118.896,64.859 C 120.12,65.219 121.272,65.795 122.352,66.515 L 122.352,40.019 L 122.352,40.019 z M 84.048,288.203 C 86.064,299.723 90.96,309.299 98.808,315.995 C 105.288,321.683 113.28,325.067 122.352,326.434 L 122.352,301.666 C 119.544,300.874 117.096,299.506 115.008,297.634 C 104.28,287.554 107.952,264.586 122.352,238.09 L 122.352,182.506 C 112.128,212.746 98.16,238.306 84.048,254.651 L 84.048,288.203 z M 84.048,56.867 C 62.16,74.435 40.776,104.459 25.944,141.467 C 15.72,167.099 10.104,192.443 8.88,214.835 L 8.88,233.411 C 10.608,261.491 20.4,282.515 37.752,289.427 C 51.144,294.755 67.056,290.939 83.112,280.068 C 83.256,282.876 83.616,285.611 84.048,288.204 L 84.048,254.652 C 71.592,269.051 59.136,276.252 49.2,272.939 C 28.032,265.811 26.304,213.251 45.528,156.011 C 55.752,125.483 69.864,99.563 84.048,83.147 L 84.048,56.867 z"
   style="fill:#ffff00" />
					<path
   id="path2538"
   d="M 163.32,135.779 C 170.304,89.843 160.872,52.115 136.392,42.395 C 102.768,28.931 53.16,73.427 25.944,141.467 C -1.2,209.507 4.056,275.963 37.752,289.427 C 51.144,294.755 67.056,290.939 83.112,280.068 C 84.048,295.259 89.16,307.788 98.808,315.996 C 114,329.388 137.904,330.18 164.184,320.531 C 150.36,348.107 147.984,372.66 160.368,386.34 C 182.976,411.54 246.84,391.236 302.496,341.124 C 358.152,291.084 385.08,229.668 362.4,204.54 C 347.423,187.908 314.448,191.148 277.728,209.724 C 296.448,169.476 297.095,131.316 275.279,112.812 C 251.376,91.643 205.584,102.587 163.32,135.779 z M 118.896,64.859 C 140.136,71.915 141.792,124.475 122.568,181.787 C 103.416,239.099 70.44,279.995 49.2,272.938 C 28.032,265.81 26.304,213.25 45.528,156.01 C 64.68,98.699 97.656,57.731 118.896,64.859 z M 259.368,142.475 C 276.288,158.243 257.64,205.835 217.896,248.602 C 178.08,291.298 131.928,313.331 115.007,297.634 C 98.159,281.865 116.807,234.202 156.551,191.506 C 196.296,148.811 242.448,126.779 259.368,142.475 z M 328.128,219.875 C 343.607,234.491 323.592,281.003 283.561,323.411 C 243.528,365.747 198.241,388.354 182.76,373.739 C 167.28,359.123 187.296,312.61 227.328,270.203 C 267.359,227.866 312.648,205.259 328.128,219.875 z"
   style="fill:none;stroke:#ff4f00;stroke-width:7.9920001" />
				</g>
			</g>
			<g
   id="g2540">
				<g
   id="g2542">
					<path
   id="path2544"
   d="M 208.824,397.139 C 238.92,398.219 283.704,377.555 324.095,341.123 C 379.751,291.083 406.679,229.667 383.999,204.539 C 369.022,187.907 336.047,191.147 299.327,209.723 C 318.047,169.475 318.694,131.315 296.879,112.811 C 277.439,95.603 243.526,99.635 208.823,119.579 L 208.823,163.499 C 239.278,140.099 268.295,130.739 280.967,142.475 C 297.888,158.243 279.239,205.835 239.495,248.602 C 229.487,259.331 219.047,268.762 208.823,276.61 L 208.823,325.93 C 217.319,308.651 231.143,289.067 248.927,270.202 C 288.959,227.865 334.247,205.258 349.728,219.874 C 365.207,234.49 345.191,281.002 305.16,323.41 C 268.439,362.29 227.328,384.538 208.824,376.617 L 208.824,397.139 L 208.824,397.139 z M 184.92,135.779 C 191.904,89.843 182.472,52.115 157.992,42.395 C 153.6,40.595 148.848,39.803 143.952,40.019 L 143.952,66.515 C 161.808,78.036 162.312,127.787 144.168,181.787 C 144.096,182.003 144.024,182.291 143.952,182.507 L 143.952,238.091 C 152.16,223.114 163.752,206.987 178.152,191.507 C 188.16,180.779 198.528,171.347 208.824,163.499 L 208.824,119.579 C 200.832,124.115 192.768,129.587 184.92,135.779 z M 143.952,326.435 C 156.264,328.164 170.664,326.076 185.784,320.531 C 171.96,348.107 169.584,372.66 181.968,386.34 C 188.16,393.252 197.448,396.708 208.824,397.14 L 208.824,376.619 C 207.168,375.9 205.656,374.964 204.36,373.74 C 195.792,365.603 198.096,347.603 208.824,325.931 L 208.824,276.611 C 183.192,296.267 158.64,305.988 143.952,301.668 L 143.952,326.435 z M 143.952,40.019 C 131.928,40.379 118.68,46.427 105.648,56.867 L 105.648,83.147 C 118.104,68.675 130.56,61.547 140.496,64.859 C 141.72,65.219 142.872,65.795 143.952,66.515 L 143.952,40.019 z M 105.648,288.203 C 107.664,299.723 112.56,309.299 120.408,315.995 C 126.888,321.683 134.88,325.067 143.952,326.434 L 143.952,301.666 C 141.144,300.874 138.696,299.506 136.608,297.634 C 125.88,287.554 129.552,264.586 143.952,238.09 L 143.952,182.506 C 133.728,212.746 119.76,238.306 105.648,254.651 L 105.648,288.203 z M 105.648,56.867 C 83.76,74.435 62.376,104.459 47.544,141.467 C 37.32,167.099 31.704,192.443 30.48,214.835 L 30.48,233.411 C 32.208,261.491 42,282.515 59.352,289.427 C 72.744,294.755 88.656,290.939 104.712,280.068 C 104.856,282.876 105.216,285.611 105.648,288.204 L 105.648,254.652 C 93.192,269.051 80.736,276.252 70.8,272.939 C 49.632,265.811 47.904,213.251 67.128,156.011 C 77.352,125.483 91.464,99.563 105.648,83.147 L 105.648,56.867 z" />
					<path
   id="path2546"
   d="M 184.92,135.779 C 191.904,89.843 182.472,52.115 157.992,42.395 C 124.368,28.931 74.76,73.427 47.544,141.467 C 20.4,209.507 25.656,275.963 59.352,289.427 C 72.744,294.755 88.656,290.939 104.712,280.068 C 105.648,295.259 110.76,307.788 120.408,315.996 C 135.6,329.388 159.504,330.18 185.784,320.531 C 171.96,348.107 169.584,372.66 181.968,386.34 C 204.576,411.54 268.44,391.236 324.096,341.124 C 379.752,291.084 406.68,229.668 384,204.54 C 369.023,187.908 336.048,191.148 299.328,209.724 C 318.048,169.476 318.695,131.316 296.88,112.812 C 272.977,91.643 227.184,102.587 184.92,135.779 z M 140.496,64.859 C 161.736,71.915 163.392,124.475 144.168,181.787 C 125.016,239.099 92.04,279.995 70.8,272.938 C 49.632,265.81 47.904,213.25 67.128,156.01 C 86.28,98.699 119.256,57.731 140.496,64.859 z M 280.968,142.475 C 297.889,158.243 279.24,205.835 239.496,248.602 C 199.68,291.298 153.528,313.331 136.608,297.634 C 119.76,281.865 138.408,234.202 178.152,191.506 C 217.896,148.811 264.048,126.779 280.968,142.475 z M 349.729,219.875 C 365.208,234.491 345.192,281.003 305.161,323.411 C 265.129,365.747 219.841,388.354 204.361,373.739 C 188.881,359.123 208.897,312.61 248.929,270.203 C 288.96,227.866 334.248,205.259 349.729,219.875 z"
   style="fill:none;stroke:#000000;stroke-width:7.9920001" />
				</g>
				<path
   id="path2548"
   d="M 109.176,133.835 C 109.176,133.835 235.321,134.699 293.352,281.291 C 287.664,286.618 298.537,278.77 268.873,295.907 C 268.873,295.907 219.841,170.267 103.705,168.395 C 105.504,127.427 109.176,133.835 109.176,133.835 z"
   style="stroke:#000000;stroke-width:15.98400021" />
				<path
   id="path2550"
   d="M 103.128,126.995 C 103.128,126.995 229.128,122.747 293.208,266.819 C 287.736,272.362 298.248,264.083 269.305,282.371 C 269.305,282.371 215.233,158.891 99.097,161.843 C 99.24,120.803 103.128,126.995 103.128,126.995 z"
   style="fill:#c3c6d4;stroke:#98adb2;stroke-width:15.98400021" />
				<g
   id="g2552">
					<path
   id="path2554"
   d="M 205.224,379.139 C 235.32,380.219 280.103,359.555 320.496,323.123 C 376.152,273.083 403.08,211.667 380.4,186.539 C 365.423,169.907 332.448,173.147 295.728,191.723 C 314.448,151.475 315.095,113.315 293.279,94.811 C 273.84,77.603 239.927,81.635 205.224,101.579 L 205.224,145.499 C 235.68,122.099 264.695,112.739 277.368,124.475 C 294.288,140.243 275.64,187.835 235.896,230.602 C 225.888,241.331 215.448,250.762 205.224,258.61 L 205.224,307.93 C 213.721,290.651 227.544,271.067 245.328,252.202 C 285.359,209.866 330.648,187.258 346.128,201.874 C 361.608,216.49 341.592,263.002 301.561,305.41 C 264.84,344.29 223.729,366.538 205.225,358.617 L 205.225,379.139 L 205.224,379.139 z M 181.32,117.779 C 188.304,71.843 178.872,34.115 154.392,24.395 C 150,22.595 145.248,21.803 140.352,22.019 L 140.352,48.515 C 158.208,60.036 158.712,109.787 140.568,163.787 C 140.496,164.003 140.424,164.291 140.352,164.507 L 140.352,220.091 C 148.56,205.115 160.152,188.987 174.552,173.507 C 184.56,162.779 194.928,153.347 205.224,145.499 L 205.224,101.579 C 197.232,106.115 189.168,111.587 181.32,117.779 z M 140.352,308.435 C 152.664,310.164 167.064,308.076 182.184,302.531 C 168.36,330.107 165.984,354.66 178.368,368.34 C 184.56,375.252 193.848,378.708 205.224,379.14 L 205.224,358.619 C 203.568,357.9 202.056,356.964 200.76,355.74 C 192.192,347.603 194.496,329.603 205.224,307.931 L 205.224,258.611 C 179.592,278.267 155.04,287.988 140.352,283.668 L 140.352,308.435 z M 140.352,22.019 C 128.328,22.379 115.08,28.427 102.048,38.867 L 102.048,65.147 C 114.504,50.675 126.96,43.547 136.896,46.859 C 138.12,47.219 139.272,47.795 140.352,48.515 L 140.352,22.019 L 140.352,22.019 z M 102.048,270.203 C 104.064,281.723 108.96,291.299 116.808,297.995 C 123.288,303.683 131.28,307.067 140.352,308.434 L 140.352,283.666 C 137.544,282.874 135.096,281.506 133.008,279.634 C 122.28,269.554 125.952,246.586 140.352,220.09 L 140.352,164.506 C 130.128,194.746 116.16,220.306 102.048,236.651 L 102.048,270.203 z M 102.048,38.867 C 80.16,56.435 58.776,86.459 43.944,123.467 C 33.72,149.099 28.104,174.443 26.88,196.835 L 26.88,215.411 C 28.608,243.491 38.4,264.515 55.752,271.427 C 69.144,276.755 85.056,272.939 101.112,262.068 C 101.256,264.876 101.616,267.611 102.048,270.204 L 102.048,236.652 C 89.592,251.051 77.136,258.252 67.2,254.939 C 46.032,247.811 44.304,195.251 63.528,138.011 C 73.752,107.483 87.864,81.563 102.048,65.147 L 102.048,38.867 z"
   style="fill:#ffff00" />
					<path
   id="path2556"
   d="M 181.32,117.779 C 188.304,71.843 178.872,34.115 154.392,24.395 C 120.768,10.931 71.16,55.427 43.944,123.467 C 16.8,191.507 22.056,257.963 55.752,271.427 C 69.144,276.755 85.056,272.939 101.112,262.068 C 102.048,277.259 107.16,289.788 116.808,297.996 C 132,311.388 155.904,312.18 182.184,302.531 C 168.36,330.107 165.984,354.66 178.368,368.34 C 200.976,393.54 264.84,373.236 320.496,323.124 C 376.152,273.084 403.08,211.668 380.4,186.54 C 365.423,169.908 332.448,173.148 295.728,191.724 C 314.448,151.476 315.095,113.316 293.279,94.812 C 269.376,73.643 223.584,84.587 181.32,117.779 z M 136.896,46.859 C 158.136,53.915 159.792,106.475 140.568,163.787 C 121.416,221.099 88.44,261.995 67.2,254.938 C 46.032,247.81 44.304,195.25 63.528,138.01 C 82.68,80.699 115.656,39.731 136.896,46.859 z M 277.368,124.475 C 294.288,140.243 275.64,187.835 235.896,230.602 C 196.08,273.298 149.928,295.331 133.007,279.634 C 116.159,263.865 134.807,216.202 174.551,173.506 C 214.296,130.811 260.448,108.779 277.368,124.475 z M 346.128,201.875 C 361.607,216.491 341.592,263.003 301.561,305.411 C 261.528,347.747 216.241,370.354 200.76,355.739 C 185.28,341.123 205.296,294.61 245.328,252.203 C 285.359,209.867 330.648,187.259 346.128,201.875 z"
   style="fill:none;stroke:#ff4f00;stroke-width:7.9920001" />
				</g>
			</g>
			<g
   id="g2558">
				<g
   id="g2560">
					<path
   id="path2562"
   d="M 226.824,379.139 C 256.92,380.219 301.704,359.555 342.095,323.123 C 397.751,273.083 424.679,211.667 401.999,186.539 C 387.022,169.907 354.047,173.147 317.327,191.723 C 336.047,151.475 336.694,113.315 314.879,94.811 C 295.439,77.603 261.526,81.635 226.823,101.579 L 226.823,145.499 C 257.278,122.099 286.295,112.739 298.967,124.475 C 315.888,140.243 297.239,187.835 257.495,230.602 C 247.487,241.331 237.047,250.762 226.823,258.61 L 226.823,307.93 C 235.319,290.651 249.143,271.067 266.927,252.202 C 306.959,209.866 352.247,187.258 367.728,201.874 C 383.207,216.49 363.191,263.002 323.16,305.41 C 286.439,344.29 245.328,366.538 226.824,358.617 L 226.824,379.139 L 226.824,379.139 z M 202.92,117.779 C 209.904,71.843 200.472,34.115 175.992,24.395 C 171.6,22.595 166.848,21.803 161.952,22.019 L 161.952,48.515 C 179.808,60.036 180.312,109.787 162.168,163.787 C 162.096,164.003 162.024,164.291 161.952,164.507 L 161.952,220.091 C 170.16,205.115 181.752,188.987 196.152,173.507 C 206.16,162.779 216.527,153.347 226.824,145.499 L 226.824,101.579 C 218.832,106.115 210.768,111.587 202.92,117.779 z M 161.952,308.435 C 174.264,310.164 188.664,308.076 203.784,302.531 C 189.96,330.107 187.584,354.66 199.968,368.34 C 206.16,375.252 215.448,378.708 226.824,379.14 L 226.824,358.619 C 225.168,357.9 223.656,356.964 222.359,355.74 C 213.792,347.603 216.095,329.603 226.824,307.931 L 226.824,258.611 C 201.192,278.267 176.64,287.988 161.952,283.668 L 161.952,308.435 z M 161.952,22.019 C 149.928,22.379 136.68,28.427 123.648,38.867 L 123.648,65.147 C 136.104,50.675 148.56,43.547 158.496,46.859 C 159.72,47.219 160.872,47.795 161.952,48.515 L 161.952,22.019 z M 123.648,270.203 C 125.664,281.723 130.56,291.299 138.408,297.995 C 144.888,303.683 152.88,307.067 161.952,308.434 L 161.952,283.666 C 159.144,282.874 156.696,281.506 154.608,279.634 C 143.88,269.554 147.552,246.586 161.952,220.09 L 161.952,164.506 C 151.728,194.746 137.76,220.306 123.648,236.651 L 123.648,270.203 z M 123.648,38.867 C 101.76,56.435 80.376,86.459 65.544,123.467 C 55.32,149.099 49.704,174.443 48.48,196.835 L 48.48,215.411 C 50.208,243.491 60,264.515 77.352,271.427 C 90.744,276.755 106.656,272.939 122.712,262.068 C 122.856,264.876 123.216,267.611 123.648,270.204 L 123.648,236.652 C 111.192,251.051 98.736,258.252 88.8,254.939 C 67.632,247.811 65.904,195.251 85.128,138.011 C 95.352,107.483 109.464,81.563 123.648,65.147 L 123.648,38.867 L 123.648,38.867 z" />
					<path
   id="path2564"
   d="M 202.92,117.779 C 209.904,71.843 200.472,34.115 175.992,24.395 C 142.368,10.931 92.76,55.427 65.544,123.467 C 38.4,191.507 43.656,257.963 77.352,271.427 C 90.744,276.755 106.656,272.939 122.712,262.068 C 123.648,277.259 128.76,289.788 138.408,297.996 C 153.6,311.388 177.504,312.18 203.784,302.531 C 189.96,330.107 187.584,354.66 199.968,368.34 C 222.576,393.54 286.44,373.236 342.096,323.124 C 397.752,273.084 424.68,211.668 402,186.54 C 387.023,169.908 354.048,173.148 317.328,191.724 C 336.048,151.476 336.695,113.316 314.88,94.812 C 290.977,73.643 245.184,84.587 202.92,117.779 z M 158.496,46.859 C 179.736,53.915 181.392,106.475 162.168,163.787 C 143.016,221.099 110.04,261.995 88.8,254.938 C 67.632,247.81 65.904,195.25 85.128,138.01 C 104.28,80.699 137.256,39.731 158.496,46.859 z M 298.968,124.475 C 315.889,140.243 297.24,187.835 257.496,230.602 C 217.68,273.298 171.528,295.331 154.608,279.634 C 137.76,263.865 156.408,216.202 196.152,173.506 C 235.896,130.811 282.048,108.779 298.968,124.475 z M 367.729,201.875 C 383.208,216.491 363.192,263.003 323.161,305.411 C 283.129,347.747 237.841,370.354 222.36,355.739 C 206.881,341.123 226.897,294.61 266.928,252.203 C 306.96,209.867 352.248,187.259 367.729,201.875 z"
   style="fill:none;stroke:#000000;stroke-width:7.9920001" />
				</g>
				<path
   id="path2566"
   d="M 127.176,115.835 C 127.176,115.835 253.321,116.699 311.352,263.291 C 305.664,268.618 316.537,260.77 286.873,277.907 C 286.873,277.907 237.841,152.267 121.705,150.395 C 123.504,109.427 127.176,115.835 127.176,115.835 z"
   style="stroke:#000000;stroke-width:15.98400021" />
				<path
   id="path2568"
   d="M 121.128,108.995 C 121.128,108.995 247.128,104.747 311.208,248.819 C 305.736,254.362 316.248,246.083 287.305,264.371 C 287.305,264.371 233.233,140.891 117.097,143.843 C 117.24,102.803 121.128,108.995 121.128,108.995 z"
   style="fill:#c3c6d4;stroke:#98adb2;stroke-width:15.98400021" />
				<g
   id="g2570">
					<path
   id="path2572"
   d="M 223.225,361.139 C 253.321,362.219 298.104,341.555 338.496,305.123 C 394.152,255.083 421.08,193.667 398.4,168.539 C 383.423,151.907 350.448,155.147 313.728,173.723 C 332.448,133.475 333.095,95.315 311.279,76.811 C 291.84,59.603 257.927,63.635 223.224,83.579 L 223.224,127.499 C 253.679,104.099 282.695,94.739 295.368,106.475 C 312.288,122.243 293.64,169.835 253.896,212.602 C 243.888,223.331 233.448,232.762 223.224,240.61 L 223.224,289.93 C 231.72,272.651 245.543,253.067 263.328,234.202 C 303.359,191.866 348.648,169.258 364.128,183.874 C 379.608,198.49 359.592,245.002 319.561,287.41 C 282.84,326.29 241.729,348.538 223.225,340.617 L 223.225,361.139 L 223.225,361.139 z M 199.32,99.779 C 206.304,53.843 196.872,16.115 172.392,6.395 C 168,4.595 163.248,3.803 158.352,4.019 L 158.352,30.515 C 176.208,42.036 176.712,91.787 158.568,145.787 C 158.496,146.003 158.424,146.291 158.352,146.507 L 158.352,202.091 C 166.56,187.115 178.152,170.987 192.552,155.507 C 202.56,144.779 212.928,135.347 223.225,127.499 L 223.225,83.579 C 215.232,88.115 207.168,93.587 199.32,99.779 z M 158.352,290.435 C 170.664,292.164 185.064,290.076 200.184,284.531 C 186.36,312.107 183.984,336.66 196.368,350.34 C 202.56,357.252 211.848,360.708 223.224,361.14 L 223.224,340.619 C 221.568,339.9 220.056,338.964 218.759,337.74 C 210.191,329.603 212.495,311.603 223.224,289.931 L 223.224,240.611 C 197.591,260.267 173.039,269.988 158.351,265.668 L 158.351,290.435 L 158.352,290.435 z M 158.352,4.019 C 146.328,4.379 133.08,10.427 120.048,20.867 L 120.048,47.147 C 132.504,32.675 144.96,25.547 154.896,28.859 C 156.12,29.219 157.272,29.795 158.352,30.515 L 158.352,4.019 L 158.352,4.019 z M 120.048,252.203 C 122.064,263.723 126.96,273.299 134.808,279.995 C 141.288,285.683 149.28,289.067 158.352,290.434 L 158.352,265.666 C 155.544,264.874 153.096,263.506 151.008,261.634 C 140.28,251.554 143.952,228.586 158.352,202.09 L 158.352,146.506 C 148.128,176.746 134.16,202.306 120.048,218.651 L 120.048,252.203 z M 120.048,20.867 C 98.16,38.435 76.776,68.459 61.944,105.467 C 51.72,131.099 46.104,156.443 44.88,178.835 L 44.88,197.411 C 46.608,225.491 56.4,246.515 73.752,253.427 C 87.144,258.755 103.056,254.939 119.112,244.068 C 119.256,246.876 119.616,249.611 120.048,252.204 L 120.048,218.652 C 107.592,233.051 95.136,240.252 85.2,236.939 C 64.032,229.811 62.304,177.251 81.528,120.011 C 91.752,89.483 105.864,63.563 120.048,47.147 L 120.048,20.867 L 120.048,20.867 z"
   style="fill:#ffff00" />
					<path
   id="path2574"
   d="M 199.32,99.779 C 206.304,53.843 196.872,16.115 172.392,6.395 C 138.768,-7.069 89.16,37.427 61.944,105.467 C 34.8,173.507 40.056,239.963 73.752,253.427 C 87.144,258.755 103.056,254.939 119.112,244.068 C 120.048,259.259 125.16,271.788 134.808,279.996 C 150,293.388 173.904,294.18 200.184,284.531 C 186.36,312.107 183.984,336.66 196.368,350.34 C 218.976,375.54 282.84,355.236 338.496,305.124 C 394.152,255.084 421.08,193.668 398.4,168.54 C 383.423,151.908 350.448,155.148 313.728,173.724 C 332.448,133.476 333.095,95.316 311.279,76.812 C 287.376,55.643 241.584,66.587 199.32,99.779 z M 154.896,28.859 C 176.136,35.915 177.792,88.475 158.568,145.787 C 139.416,203.099 106.44,243.995 85.2,236.938 C 64.032,229.81 62.304,177.25 81.528,120.01 C 100.68,62.699 133.656,21.731 154.896,28.859 z M 295.368,106.475 C 312.288,122.243 293.64,169.835 253.896,212.602 C 214.08,255.298 167.928,277.331 151.007,261.634 C 134.159,245.865 152.807,198.202 192.551,155.506 C 232.296,112.811 278.448,90.779 295.368,106.475 z M 364.128,183.875 C 379.607,198.491 359.592,245.003 319.561,287.411 C 279.528,329.747 234.241,352.354 218.76,337.739 C 203.28,323.123 223.296,276.61 263.328,234.203 C 303.359,191.867 348.648,169.259 364.128,183.875 z"
   style="fill:none;stroke:#ff4f00;stroke-width:7.9920001" />
				</g>
			</g>
		</g></svg>