<?xml version="1.0" encoding="iso-8859-1"?>
<!-- Generator: Adobe Illustrator 10, SVG Export Plug-In . SVG Version: 3.0.0 Build 76)  -->
<!DOCTYPE svg PUBLIC "-//W3C//DTD SVG 1.0//EN"    "http://www.w3.org/TR/2001/REC-SVG-20010904/DTD/svg10.dtd" [
	<!ENTITY ns_flows "http://ns.adobe.com/Flows/1.0/">
	<!ENTITY ns_svg "http://www.w3.org/2000/svg">
	<!ENTITY ns_xlink "http://www.w3.org/1999/xlink">
]>
<svg  xmlns="&ns_svg;" xmlns:xlink="&ns_xlink;" xmlns:a="http://ns.adobe.com/AdobeSVGViewerExtensions/3.0/"
	 width="468.311" height="461.854" viewBox="0 0 468.311 461.854"
	 style="overflow:visible;enable-background:new 0 0 468.311 461.854" xml:space="preserve">
	<style type="text/css">
	<![CDATA[
		@font-face{font-family:'Times-Roman';src:url(7CA7AD7F.cef)}
	]]>
	</style>
	<g id="Layer_1">
		<text transform="matrix(1 0 0 1 0 398.8916)"><tspan x="0" y="0" style="font-family:'Times-Roman'; font-size:12;">&quot;Discard 3&quot;</tspan><tspan x="0" y="14.5" style="font-family:'Times-Roman'; font-size:12;">Copyright </tspan><tspan x="51.668" y="14.5" style="font-family:'Times-Roman'; font-size:12;">&#xA9;</tspan><tspan x="60.785" y="14.5" style="font-family:'Times-Roman'; font-size:12;"> 2000 Rob Myers http://www.robmyers.org/ .</tspan><tspan x="0" y="29" style="font-family:'Times-Roman'; font-size:12;">This work is licensed under the Creative Commons Attribution-ShareAlike License.</tspan><tspan x="0" y="43.5" style="font-family:'Times-Roman'; font-size:12;">To view a copy of this license, visit http://creativecommons.org/licenses/by-sa/1.0/ </tspan><tspan x="0" y="58" style="font-family:'Times-Roman'; font-size:12;">or send a letter to Creative Commons, 559 Nathan Abbott Way, Stanford, California 94305, USA.</tspan></text>
		<g>
			<g>
				<path d="M190.928,379.208c30.168,1.008,74.88-19.656,115.272-56.017c55.656-50.039,82.584-111.455,59.903-136.655
					c-14.976-16.632-47.951-13.392-84.672,5.184c18.721-40.176,19.368-78.336-2.376-96.912
					c-19.439-17.208-53.424-13.176-88.128,6.768v43.92c30.456-23.328,59.544-32.688,72.145-20.952
					c16.92,15.696-1.729,63.36-41.473,106.056c-10.008,10.801-20.447,20.232-30.672,28.08V308
					c8.496-17.28,22.32-36.936,40.104-55.729c40.032-42.408,85.319-65.016,100.8-50.328c15.48,14.617-4.464,61.129-44.496,103.465
					c-36.72,38.88-77.904,61.128-96.408,53.279V379.208z M167.024,117.848c7.056-46.008-2.448-83.664-26.856-93.456
					c-4.464-1.728-9.216-2.52-14.112-2.376v26.568c17.929,11.448,18.36,61.2,0.288,115.272c-0.072,0.216-0.216,0.432-0.288,0.72
					v55.584c8.208-15.049,19.801-31.104,34.2-46.584c10.008-10.8,20.448-20.232,30.672-28.08v-43.92
					C182.936,106.184,174.944,111.656,167.024,117.848z M126.056,308.432c12.385,1.801,26.712-0.287,41.832-5.904
					c-13.823,27.648-16.2,52.129-3.815,65.881c6.191,6.912,15.479,10.367,26.855,10.8v-20.521c-1.656-0.72-3.168-1.728-4.392-2.879
					c-8.64-8.137-6.265-26.137,4.392-47.809v-49.32c-25.56,19.584-50.111,29.376-64.872,25.057V308.432z M126.056,22.016
					c-12.023,0.432-25.199,6.408-38.304,16.92v26.208c12.456-14.4,24.912-21.6,34.848-18.288c1.225,0.432,2.376,1.008,3.456,1.728
					V22.016z M87.752,270.271c2.088,11.521,6.912,21.097,14.832,27.793c6.408,5.615,14.4,9.071,23.472,10.367v-24.695
					c-2.808-0.864-5.256-2.16-7.271-4.104c-10.8-10.008-7.128-33.048,7.271-59.472v-55.584
					c-10.151,30.168-24.191,55.8-38.304,72.144V270.271z M87.752,38.936c-21.816,17.496-43.271,47.592-58.032,84.6
					c-10.224,25.56-15.84,50.904-17.136,73.368v18.576c1.729,28.08,11.52,49.031,28.872,56.016
					c13.392,5.328,29.376,1.512,45.36-9.36c0.216,2.808,0.504,5.472,0.936,8.136V236.72c-12.384,14.4-24.912,21.601-34.776,18.216
					c-21.239-7.056-22.896-59.615-3.743-116.928c10.224-30.528,24.336-56.376,38.52-72.864V38.936z"/>
				<path style="fill:none;stroke:#000000;stroke-width:7.992;" d="M167.024,117.848c7.056-46.008-2.448-83.664-26.856-93.456
					C106.472,10.928,56.864,55.496,29.72,123.536c-27.216,68.04-21.888,134.495,11.736,147.96c13.392,5.328,29.376,1.512,45.36-9.36
					c0.936,15.12,6.048,27.72,15.768,35.929c15.12,13.392,39.024,14.184,65.304,4.463c-13.823,27.648-16.2,52.129-3.815,65.881
					c22.68,25.199,86.544,4.896,142.128-45.217c55.656-50.039,82.584-111.455,59.903-136.655
					c-14.976-16.632-47.951-13.392-84.672,5.184c18.721-40.176,19.368-78.336-2.376-96.912
					C255.08,73.64,209.288,84.584,167.024,117.848z M122.6,46.856c21.24,7.128,22.896,59.688,3.744,117
					c-19.224,57.24-52.2,98.208-73.368,91.08c-21.239-7.056-22.896-59.615-3.743-116.928C68.456,80.696,101.36,39.8,122.6,46.856z
					 M263.072,124.544c16.92,15.696-1.729,63.36-41.473,106.056c-39.743,42.769-85.968,64.729-102.815,49.032
					c-16.92-15.696,1.728-63.36,41.472-106.056C200,130.808,246.224,108.848,263.072,124.544z M331.832,201.943
					c15.48,14.617-4.464,61.129-44.496,103.465c-40.032,42.408-85.32,65.016-100.8,50.4C170.984,341.12,191,294.68,231.032,252.271
					S316.352,187.256,331.832,201.943z"/>
			</g>
			<g>
				<path style="fill:#FFFF00;" d="M187.328,361.208c30.168,1.008,74.88-19.656,115.271-56.017
					c55.656-50.039,82.584-111.455,59.904-136.655c-14.976-16.632-47.952-13.392-84.672,5.184
					c18.72-40.176,19.368-78.336-2.376-96.912c-19.44-17.208-53.424-13.176-88.128,6.768v43.92
					c30.456-23.328,59.544-32.688,72.144-20.952c16.92,15.696-1.728,63.36-41.472,106.056
					c-10.008,10.801-20.448,20.232-30.672,28.08V290c8.496-17.28,22.32-36.936,40.104-55.729
					c40.032-42.408,85.32-65.016,100.801-50.328c15.479,14.617-4.465,61.128-44.496,103.464
					c-36.721,38.88-77.904,61.128-96.408,53.279V361.208z M163.424,99.848c7.057-46.008-2.448-83.664-26.855-93.456
					c-4.465-1.728-9.217-2.52-14.112-2.376v26.568c17.928,11.448,18.36,61.2,0.288,115.272c-0.072,0.216-0.216,0.432-0.288,0.72
					v55.584c8.208-15.048,19.8-31.104,34.2-46.584c10.008-10.8,20.447-20.232,30.672-28.08v-43.92
					C179.336,88.184,171.344,93.656,163.424,99.848z M122.456,290.432c12.384,1.801,26.712-0.287,41.832-5.904
					c-13.824,27.648-16.2,52.129-3.816,65.881c6.192,6.912,15.48,10.367,26.856,10.8v-20.521c-1.656-0.72-3.168-1.728-4.393-2.879
					c-8.64-8.137-6.264-26.137,4.393-47.809v-49.32c-25.561,19.584-50.112,29.376-64.872,25.057V290.432z M122.456,4.016
					c-12.024,0.432-25.2,6.408-38.304,16.92v26.208c12.456-14.4,24.912-21.6,34.848-18.288c1.224,0.432,2.376,1.008,3.456,1.728
					V4.016z M84.152,252.271c2.088,11.521,6.912,21.097,14.832,27.793c6.407,5.615,14.399,9.071,23.472,10.367v-24.695
					c-2.808-0.864-5.256-2.16-7.272-4.104c-10.8-10.008-7.128-33.048,7.272-59.472v-55.584
					c-10.152,30.168-24.192,55.8-38.304,72.144V252.271z M84.152,20.936c-21.816,17.496-43.272,47.592-58.032,84.6
					c-10.224,25.56-15.84,50.904-17.136,73.368v18.577c1.728,28.08,11.52,49.031,28.872,56.016
					c13.392,5.328,29.376,1.512,45.359-9.36c0.216,2.808,0.504,5.472,0.937,8.136V218.72c-12.385,14.4-24.912,21.601-34.776,18.216
					c-21.24-7.056-22.896-59.616-3.744-116.928C55.856,89.48,69.968,63.632,84.152,47.144V20.936z"/>
				<path style="fill:none;stroke:#FF4F00;stroke-width:7.992;" d="M163.424,99.848c7.057-46.008-2.448-83.664-26.855-93.456
					C102.872-7.072,53.264,37.496,26.12,105.536c-27.216,68.04-21.888,134.496,11.736,147.96c13.392,5.328,29.376,1.512,45.359-9.36
					c0.937,15.12,6.048,27.72,15.769,35.929c15.119,13.392,39.023,14.184,65.304,4.463c-13.824,27.648-16.2,52.129-3.816,65.881
					c22.681,25.199,86.544,4.896,142.128-45.217c55.656-50.039,82.584-111.455,59.904-136.655
					c-14.976-16.632-47.952-13.392-84.672,5.184c18.72-40.176,19.368-78.336-2.376-96.912
					C251.48,55.64,205.688,66.584,163.424,99.848z M119,28.856c21.24,7.128,22.896,59.688,3.744,117
					c-19.225,57.24-52.2,98.208-73.368,91.08c-21.24-7.056-22.896-59.616-3.744-116.928C64.856,62.696,97.76,21.8,119,28.856z
					 M259.472,106.544c16.92,15.696-1.728,63.36-41.472,106.056c-39.744,42.769-85.968,64.729-102.816,49.032
					c-16.92-15.696,1.729-63.36,41.473-106.056C196.4,112.808,242.624,90.848,259.472,106.544z M328.232,183.944
					c15.479,14.617-4.465,61.128-44.496,103.464c-40.032,42.408-85.32,65.016-100.801,50.4
					c-15.552-14.688,4.465-61.129,44.496-103.537C267.464,191.864,312.752,169.256,328.232,183.944z"/>
			</g>
		</g>
	</g>
</svg>
