<?xml version="1.0" encoding="iso-8859-1"?>
<!-- Generator: Adobe Illustrator 10, SVG Export Plug-In . SVG Version: 3.0.0 Build 76)  -->
<!DOCTYPE svg PUBLIC "-//W3C//DTD SVG 1.0//EN"    "http://www.w3.org/TR/2001/REC-SVG-20010904/DTD/svg10.dtd" [
	<!ENTITY ns_flows "http://ns.adobe.com/Flows/1.0/">
	<!ENTITY ns_svg "http://www.w3.org/2000/svg">
	<!ENTITY ns_xlink "http://www.w3.org/1999/xlink">
]>
<svg  xmlns="&ns_svg;" xmlns:xlink="&ns_xlink;" xmlns:a="http://ns.adobe.com/AdobeSVGViewerExtensions/3.0/"
	 width="468.311" height="281.599" viewBox="0 0 468.311 281.599"
	 style="overflow:visible;enable-background:new 0 0 468.311 281.599" xml:space="preserve">
	<style type="text/css">
	<![CDATA[
		@font-face{font-family:'Times-Roman';src:url(3CD27109.cef)}
	]]>
	</style>
	<g id="Layer_1">
		<text transform="matrix(1 0 0 1 0 218.6357)"><tspan x="0" y="0" style="font-family:'Times-Roman'; font-size:12;">&quot;Horn&quot;</tspan><tspan x="0" y="14.5" style="font-family:'Times-Roman'; font-size:12;">Copyright </tspan><tspan x="51.668" y="14.5" style="font-family:'Times-Roman'; font-size:12;">&#xA9;</tspan><tspan x="60.785" y="14.5" style="font-family:'Times-Roman'; font-size:12;"> 2000 Rob Myers http://www.robmyers.org/ .</tspan><tspan x="0" y="29" style="font-family:'Times-Roman'; font-size:12;">This work is licensed under the Creative Commons Attribution-ShareAlike License.</tspan><tspan x="0" y="43.5" style="font-family:'Times-Roman'; font-size:12;">To view a copy of this license, visit http://creativecommons.org/licenses/by-sa/1.0/ </tspan><tspan x="0" y="58" style="font-family:'Times-Roman'; font-size:12;">or send a letter to Creative Commons, 559 Nathan Abbott Way, Stanford, California 94305, USA.</tspan></text>
		<g>
			<path style="fill:#554111;" d="M211.256,68.544c17.064-3.024,34.416-3.312,51.264-5.976
				c22.032-3.384,42.769-21.168,63.937-22.896c0.432,8.928,0.432,17.784,0.792,27.144c-21.528-3.816-42.696,6.768-64.296,8.856
				c-14.832,1.44-29.736,1.512-44.496,3.096c2.808,4.68,4.68,9.216,5.256,13.608c13.176-0.504,26.496-0.072,39.672-0.576
				c21.96-0.432,43.561-2.16,65.592,7.992c0.433,8.929,0.864,18.216,0.864,27.144c-22.032-15.695-44.063-21.168-66.096-22.031
				c-13.968-0.288-27.72-1.225-41.473-1.008c-1.799,5.111-4.896,10.367-8.928,15.912c16.992-0.217,33.769,1.728,50.832,3.744
				c21.601,2.52,43.632,18.144,66.097,41.471c0,9.289,0,18.217,0,27.072c-22.465-28.8-44.064-52.056-66.528-55.439
				c-19.296-3.456-39.24-6.264-59.256-5.76c-2.16,2.52-4.393,5.039-6.696,7.703c-0.071,0.504-0.504,1.152-1.44,2.088
				c-5.039,4.537-20.592,13.752-41.472,23.112c-20.88,9.216-45.72,18.216-69.624,26.136c-23.544,7.345-43.704,11.088-57.312,9.793
				c-13.608-1.297-19.224-7.776-13.824-14.977c6.624-8.208,25.632-15.912,49.464-22.824c13.896-16.416,29.088-30.023,33.12-45.504
				c3.312-12.672-5.328-26.352-11.592-40.176c-16.344-5.184-33.264-19.224-41.184-34.704C34.424,21.384,43.136,8.64,60.272,12.96
				c16.272,3.816,41.256,21.168,54.144,37.296c15.264,2.304,30.6,4.608,45.936,6.696c15.264,2.088,30.6,3.888,45.864,5.688
				C208.016,64.656,209.672,66.6,211.256,68.544z"/>
			<path style="fill:#8896C6;" d="M217.088,59.112c16.992-2.952,34.416-3.24,51.264-5.976c22.032-3.384,42.769-21.168,63.937-22.824
				c0.432,8.856,0.432,17.784,0.864,27.072c-21.601-3.816-42.769,6.768-64.368,8.928c-14.832,1.44-29.664,1.512-44.425,3.024
				c2.809,4.68,4.608,9.216,5.185,13.68c13.176-0.576,26.496-0.144,39.672-0.648c22.032-0.432,43.632-2.088,65.592,8.064
				c0.433,8.856,0.864,18.216,0.864,27.072c-22.032-15.624-43.992-21.168-66.023-22.032c-13.969-0.216-27.792-1.224-41.545-1.008
				c-1.799,5.184-4.896,10.368-8.928,15.912c16.92-0.216,33.769,1.8,50.904,3.744c21.6,2.521,43.56,18.216,66.023,41.472
				c0,9.36,0,18.217,0,27.145c-22.464-28.801-44.063-52.129-66.455-55.512c-19.297-3.457-39.24-6.192-59.328-5.688
				c-2.088,2.448-4.32,5.04-6.696,7.632c0,0.504-0.433,1.225-1.368,2.088c-5.111,4.608-20.664,13.824-41.544,23.112
				c-20.808,9.288-45.72,18.216-69.552,26.208c-23.616,7.271-43.776,11.088-57.312,9.792C20.24,189,14.552,182.592,19.952,175.393
				c6.624-8.209,25.704-15.912,49.536-22.824c13.824-16.416,29.088-30.096,33.048-45.504c3.312-12.744-5.328-26.353-11.592-40.176
				C74.6,61.704,57.68,47.664,49.832,32.112C40.256,12.024,48.968-0.792,66.104,3.528c16.272,3.816,41.256,21.168,54.144,37.368
				c15.264,2.304,30.6,4.608,45.936,6.696c15.264,2.088,30.6,3.888,45.864,5.616C213.848,55.224,215.504,57.168,217.088,59.112z"/>
			<g>
				<path style="fill:#881083;" d="M215.936,56.376c17.064-2.952,34.272-3.312,51.337-5.976l0.432,2.592l0.36,2.592
					c-16.992,2.664-34.272,3.024-51.192,5.976l-0.504-2.592L215.936,56.376z"/>
				<path style="fill:#881083;" d="M267.272,50.4c15.552-2.592,29.159-11.376,43.56-17.352l1.008,2.448l1.008,2.448
					C301.04,42.912,289.88,49.32,277.712,53.28c-3.168,0.936-6.336,1.728-9.647,2.304l-0.36-2.592L267.272,50.4z"/>
				<path style="fill:#881083;" d="M310.832,33.048c5.688-2.304,11.304-4.248,17.352-5.184c2.017-0.288,3.96-0.432,5.904-0.648
					l0.145,2.808l-2.664,0.072l-2.448,2.952c-5.04,0.792-9.648,2.232-14.4,4.104l-1.872,0.792l-1.008-2.448L310.832,33.048z"/>
				<path style="fill:#881083;" d="M334.232,30.024c0.359,7.848,0.432,15.768,0.72,23.616c0.072,2.232,0.144,4.464,0.288,6.696
					L332,59.832l0.432-2.592l-2.735-3.096c-0.288-7.056-0.36-14.04-0.576-21.096l2.448-2.952L334.232,30.024z"/>
				<path style="fill:#881083;" d="M332,59.832c-4.536-0.792-8.928-0.936-13.536-0.648c-11.808,0.792-23.184,4.248-34.632,6.912
					c-2.376,0.504-4.824,1.008-7.2,1.44l-0.432-2.592l-0.504-2.592c11.808-2.232,23.328-5.832,35.208-7.632
					c2.735-0.432,5.472-0.72,8.279-0.864c3.528-0.144,6.984-0.072,10.513,0.288l2.735,3.096L332,59.832z"/>
				<path style="fill:#881083;" d="M276.632,67.536c-2.735,0.504-5.472,0.936-8.28,1.152l-0.287-2.592l-0.217-2.592
					c2.664-0.288,5.256-0.648,7.849-1.152l0.504,2.592L276.632,67.536z"/>
				<path style="fill:#881083;" d="M268.352,68.688c-13.464,1.296-27.071,1.512-40.463,2.664l-4.248-2.232l-2.232,1.368l-2.16-3.528
					l4.824-0.504c14.472-1.44,29.16-1.584,43.775-2.952l0.217,2.592L268.352,68.688z"/>
				<path style="fill:#881083;" d="M227.889,71.352l-0.072-0.144c1.367,2.88,2.52,5.832,3.24,8.928l-2.16,2.664l0.071,2.664
					l-2.376,0.072l-0.359-2.592c-0.648-4.464-2.592-8.64-4.824-12.456l2.232-1.368L227.889,71.352z"/>
				<path style="fill:#881083;" d="M231.057,80.136h-0.433c12.384-0.432,24.768-0.072,37.152-0.576c0.216,0,0.504,0,0.72,0v2.592
					l0.072,2.664c-13.177,0.504-26.425,0.072-39.601,0.648l-0.071-2.664L231.057,80.136z"/>
				<path style="fill:#881083;" d="M268.496,79.56c8.928-0.144,17.855-0.504,26.784-0.288c2.088,0.072,4.176,0.144,6.264,0.36
					l-0.216,2.592l-0.216,2.664c-1.296-0.144-2.664-0.216-4.032-0.288c-9.504-0.36-19.008,0-28.512,0.216l-0.072-2.664V79.56z"/>
				<path style="fill:#881083;" d="M301.544,79.632c6.769,0.504,13.32,1.512,19.872,3.24c4.032,1.08,7.848,2.448,11.664,4.032
					c1.224,0.504,2.376,1.08,3.6,1.584l0.072,1.584l-2.592,0.144l-2.592,1.729c-3.097-1.296-6.265-2.448-9.504-3.456
					c-6.265-1.8-12.456-2.88-18.937-3.456l-2.016-0.144l0.216-2.664L301.544,79.632z"/>
				<path style="fill:#881083;" d="M336.752,90.072c0.432,9.072,0.864,18.144,0.864,27.287v5.041l-4.176-2.952l1.512-2.089
					l-2.664-5.039c-0.072-6.768-0.36-13.536-0.72-20.376l2.592-1.729L336.752,90.072z"/>
				<path style="fill:#881083;" d="M333.44,119.448c-6.049-4.248-12.385-7.992-19.152-11.16c-6.264-2.808-12.528-5.04-19.152-6.696
					c-7.992-2.016-16.056-3.096-24.264-3.6l-2.016-0.072l0.071-2.592L269,92.664c0.36,0,0.72,0.072,1.08,0.072
					c11.52,0.576,22.68,2.376,33.696,5.832c3.239,1.08,6.407,2.232,9.504,3.528c6.695,2.881,12.96,6.264,19.008,10.225l2.664,5.039
					L333.44,119.448z"/>
				<path style="fill:#881083;" d="M268.856,97.92c-13.177-0.216-26.425-1.08-39.601-1.008l-1.872-2.592l-2.448-0.864l0.576-1.728
					c1.08-0.072,2.088-0.072,3.168-0.072c13.393-0.144,26.856,0.792,40.32,1.008l-0.072,2.664L268.856,97.92z"/>
				<path style="fill:#881083;" d="M229.256,96.912l0.072-0.216c-1.512,3.815-3.528,7.416-5.832,10.872l-4.969,2.664v2.592
					l-5.184,0.072c4.465-6.121,9.072-12.24,11.592-19.44l2.448,0.864L229.256,96.912z"/>
				<path style="fill:#881083;" d="M223.496,107.568h-0.217c15.48,0.216,30.961,2.016,46.369,3.744h0.071l-0.359,2.592l-0.288,2.664
					c-16.849-1.944-33.624-3.889-50.545-3.744v-2.592L223.496,107.568z"/>
				<path style="fill:#881083;" d="M269.72,111.312l2.017,0.287c11.16,1.873,21.168,6.48,30.672,12.385
					c12.96,8.279,24.264,18.647,34.92,29.592l0.72,0.792v1.08h-2.664l-2.592,1.008c-5.4-5.544-11.016-10.872-16.848-15.84
					c-12.097-10.152-25.561-19.368-41.112-23.04c-1.944-0.432-3.816-0.792-5.76-1.008l0.288-2.664L269.72,111.312z"/>
				<path style="fill:#881083;" d="M338.048,155.448c0,11.521,0,23.112,0,34.704l-4.68-5.977l2.016-1.656l-2.592-7.56v-18.504
					l2.592-1.008H338.048z"/>
				<path style="fill:#881083;" d="M333.368,184.176c-6.696-8.496-13.464-16.848-20.736-24.84
					c-8.64-9.288-18.072-18.288-29.304-24.48c-4.104-2.231-8.28-3.815-12.816-4.823c-0.72-0.144-1.368-0.288-2.016-0.36l0.432-2.592
					l0.433-2.592l3.312,0.648c5.904,1.439,11.16,3.815,16.416,6.911c12.096,7.56,22.176,17.784,31.608,28.368
					c4.104,4.752,8.136,9.648,12.096,14.544l2.592,7.56L333.368,184.176z"/>
				<path style="fill:#881083;" d="M268.496,129.672c-18.576-3.384-37.152-5.904-56.016-5.76h-1.584l-1.225-2.592l-2.016-1.729
					l0.72-0.863c7.128-0.145,14.112,0,21.168,0.432c13.32,0.936,26.64,2.952,39.816,5.328l-0.433,2.592L268.496,129.672z"/>
				<path style="fill:#881083;" d="M210.896,123.912l0.071-0.072c-1.872,2.16-3.743,4.32-5.616,6.408l-2.375-1.296l-2.593-0.504
					l0.72-1.296c2.232-2.521,4.393-5.04,6.553-7.561l2.016,1.729L210.896,123.912z"/>
				<path style="fill:#881083;" d="M205.352,130.248c-0.432,1.08-1.224,2.088-2.088,2.809l-1.728-1.944l-1.8-1.944
					c0.216-0.216,0.432-0.432,0.647-0.72l2.593,0.504L205.352,130.248z"/>
				<path style="fill:#881083;" d="M203.264,133.057c-3.096,2.735-6.695,4.967-10.224,7.127
					c-10.224,6.192-21.024,11.521-31.968,16.416l-1.08-2.447l-1.008-2.377c10.512-4.68,20.879-9.791,30.816-15.768
					c3.384-2.016,6.912-4.248,9.937-6.84l1.8,1.944L203.264,133.057z"/>
				<path style="fill:#881083;" d="M161.072,156.6c-22.752,10.08-46.296,18.289-69.84,26.28l-0.792-2.521l-0.792-2.447
					c6.336-2.16,12.744-4.32,19.08-6.553c16.92-5.976,33.768-12.312,50.256-19.584l1.008,2.377L161.072,156.6z"/>
				<path style="fill:#881083;" d="M91.232,182.88c-13.032,4.032-26.352,7.488-39.888,9.288c-6.048,0.721-12.384,1.225-18.504,0.576
					l0.288-2.592l0.216-2.592c6.12,0.504,12.168,0.071,18.216-0.721c12.888-1.8,25.632-5.111,38.088-8.928l0.792,2.447
					L91.232,182.88z"/>
				<path style="fill:#881083;" d="M32.84,192.744c-6.408-0.648-15.12-2.592-17.712-9.36c-1.08-3.239-0.36-6.12,1.44-8.928
					c0.216-0.288,0.432-0.647,0.648-0.937l2.016,1.656l2.088,1.584c-1.368,2.016-2.16,3.961-0.576,6.049
					c0.576,0.72,1.296,1.224,2.016,1.728c3.168,1.944,6.984,2.592,10.584,3.024l-0.216,2.592L32.84,192.744z"/>
				<path style="fill:#881083;" d="M17.216,173.52c4.032-4.823,9.864-8.063,15.336-10.799c11.088-5.4,22.968-9.217,34.776-12.673
					l1.44,2.304l2.016,1.729l-0.504,0.576c-12.024,3.527-24.12,7.344-35.424,12.816c-4.824,2.375-9.936,5.184-13.536,9.287
					l-2.088-1.584L17.216,173.52z"/>
				<path style="fill:#881083;" d="M67.328,150.048c0.864-1.079,1.8-2.159,2.736-3.239c6.624-7.488,13.464-14.688,19.584-22.608
					l2.088,1.584l2.088,1.584c-2.016,2.664-4.176,5.256-6.336,7.776c-5.472,6.336-11.232,12.527-16.704,18.936l-2.016-1.729
					L67.328,150.048z"/>
				<path style="fill:#881083;" d="M89.648,124.2c3.888-5.112,7.344-10.513,9.288-16.704l0.36-1.296l2.592,0.647l2.52,0.648
					c-0.216,1.008-0.576,2.088-0.936,3.096c-2.232,6.12-5.688,11.592-9.648,16.776l-2.088-1.584L89.648,124.2z"/>
				<path style="fill:#881083;" d="M99.296,106.2c0.936-3.672,0.792-7.272,0-11.016c-0.72-3.456-1.944-6.84-3.312-10.152
					c-2.376-5.472-5.112-10.8-7.632-16.2l1.872-2.16l0.864-2.448l1.08,0.36c1.656,3.528,3.384,7.128,5.04,10.656
					c4.032,8.424,8.28,17.352,7.992,26.855c-0.072,1.873-0.36,3.601-0.792,5.4l-2.52-0.648L99.296,106.2z"/>
				<path style="fill:#881083;" d="M88.352,68.832l0.36,0.072C76.76,64.872,66.176,57.384,57.536,48.24
					c-3.816-4.176-7.2-8.64-9.936-13.608c-0.288-0.504-0.648-1.08-0.864-1.584l2.376-1.152l2.376-1.152
					c1.728,3.384,3.744,6.48,6.048,9.504c7.416,9.216,16.92,16.776,27.648,21.672c1.944,0.864,3.888,1.584,5.904,2.304l-0.864,2.448
					L88.352,68.832z"/>
				<path style="fill:#881083;" d="M46.736,33.048c-3.6-7.776-6.192-17.208-2.088-25.272c1.656-2.952,3.816-4.896,6.912-6.408
					C54.944,0,58.184-0.288,61.784,0c1.44,0.216,2.808,0.432,4.248,0.792l-0.576,2.592l-0.648,2.521
					c-4.608-1.008-9.504-1.44-13.392,1.728c-5.328,4.68-3.744,12.96-1.728,18.864c0.576,1.44,1.152,2.88,1.8,4.248l-2.376,1.152
					L46.736,33.048z"/>
				<path style="fill:#881083;" d="M66.032,0.792c7.704,1.872,14.832,5.544,21.6,9.504c12.456,7.56,23.976,16.848,33.336,27.936
					L119.6,40.68l-0.432,2.592l-1.008-0.144c-2.52-3.168-5.184-6.12-8.064-8.928c-7.128-6.912-14.904-12.96-23.328-18.288
					c-6.192-3.816-12.744-7.272-19.8-9.432l-2.16-0.576l0.648-2.521L66.032,0.792z"/>
				<path style="fill:#881083;" d="M120.968,38.232h-0.288c15.048,2.232,30.096,4.536,45.144,6.552l-0.36,2.592l-0.36,2.592
					c-15.336-2.088-30.6-4.392-45.936-6.696l0.432-2.592L120.968,38.232z"/>
				<path style="fill:#881083;" d="M165.824,44.784c15.624,2.16,31.248,3.96,46.871,5.76l0.648,0.72l-1.943,1.8l-1.297,2.448
					c-15.047-1.728-30.023-3.456-45-5.544l0.36-2.592L165.824,44.784z"/>
				<path style="fill:#881083;" d="M213.344,51.264c1.729,2.016,3.456,4.032,5.112,6.048l-2.088,1.656l-2.017,1.656
					c-1.367-1.728-2.808-3.456-4.248-5.112l1.297-2.448L213.344,51.264z"/>
			</g>
		</g>
	</g>
</svg>
