<?xml version="1.0" encoding="UTF-8" standalone="no"?>
<!-- Generator: Adobe Illustrator 10, SVG Export Plug-In . SVG Version: 3.0.0 Build 76)  -->
<svg
   xmlns:dc="http://purl.org/dc/elements/1.1/"
   xmlns:cc="http://creativecommons.org/ns#"
   xmlns:rdf="http://www.w3.org/1999/02/22-rdf-syntax-ns#"
   xmlns:svg="http://www.w3.org/2000/svg"
   xmlns="http://www.w3.org/2000/svg"
   xmlns:sodipodi="http://sodipodi.sourceforge.net/DTD/sodipodi-0.dtd"
   xmlns:inkscape="http://www.inkscape.org/namespaces/inkscape"
   width="325.96024"
   height="200.08298"
   viewBox="0 0 468.311 281.599"
   style="overflow:visible"
   xml:space="preserve"
   id="svg2625"
   sodipodi:version="0.32"
   inkscape:version="0.46"
   sodipodi:docname="horn.svg"
   inkscape:output_extension="org.inkscape.output.svg.inkscape"
   version="1.0"><metadata
   id="metadata2729"><rdf:RDF><cc:Work
       rdf:about=""><dc:format>image/svg+xml</dc:format><dc:type
         rdf:resource="http://purl.org/dc/dcmitype/StillImage" /></cc:Work></rdf:RDF></metadata><defs
   id="defs2727"><inkscape:perspective
   sodipodi:type="inkscape:persp3d"
   inkscape:vp_x="0 : 140.7995 : 1"
   inkscape:vp_y="0 : 1000 : 0"
   inkscape:vp_z="468.311 : 140.7995 : 1"
   inkscape:persp3d-origin="234.1555 : 93.866333 : 1"
   id="perspective2731" />
		
		
	</defs><sodipodi:namedview
   inkscape:window-height="670"
   inkscape:window-width="640"
   inkscape:pageshadow="2"
   inkscape:pageopacity="0.0"
   guidetolerance="10.0"
   gridtolerance="10.0"
   objecttolerance="10.0"
   borderopacity="1.0"
   bordercolor="#666666"
   pagecolor="#ffffff"
   id="base"
   showgrid="false"
   inkscape:zoom="1.1616212"
   inkscape:cx="234.1555"
   inkscape:cy="140.7995"
   inkscape:window-x="0"
   inkscape:window-y="0"
   inkscape:current-layer="svg2625" />
	<style
   type="text/css"
   id="style2627">
	
		@font-face{font-family:'Times-Roman';src:url(3CD27109.cef)}
	
	</style>
	
<g
   transform="matrix(1.4367121,0,0,1.4367121,-17.368082,-2.7859475)"
   style="overflow:visible"
   id="g2646">
			<path
   id="path2648"
   d="M 211.256,68.544 C 228.32,65.52 245.672,65.232 262.52,62.568 C 284.552,59.184 305.289,41.4 326.457,39.672 C 326.889,48.6 326.889,57.456 327.249,66.816 C 305.721,63 284.553,73.584 262.953,75.672 C 248.121,77.112 233.217,77.184 218.457,78.768 C 221.265,83.448 223.137,87.984 223.713,92.376 C 236.889,91.872 250.209,92.304 263.385,91.8 C 285.345,91.368 306.946,89.64 328.977,99.792 C 329.41,108.721 329.841,118.008 329.841,126.936 C 307.809,111.241 285.778,105.768 263.745,104.905 C 249.777,104.617 236.025,103.68 222.272,103.897 C 220.473,109.008 217.376,114.264 213.344,119.809 C 230.336,119.592 247.113,121.537 264.176,123.553 C 285.777,126.073 307.808,141.697 330.273,165.024 C 330.273,174.313 330.273,183.241 330.273,192.096 C 307.808,163.296 286.209,140.04 263.745,136.657 C 244.449,133.201 224.505,130.393 204.489,130.897 C 202.329,133.417 200.096,135.936 197.793,138.6 C 197.722,139.104 197.289,139.752 196.353,140.688 C 191.314,145.225 175.761,154.44 154.881,163.8 C 134.001,173.016 109.161,182.016 85.257,189.936 C 61.713,197.281 41.553,201.024 27.945,199.729 C 14.337,198.432 8.721,191.953 14.121,184.752 C 20.745,176.544 39.753,168.84 63.585,161.928 C 77.481,145.512 92.673,131.905 96.705,116.424 C 100.017,103.752 91.377,90.072 85.113,76.248 C 68.769,71.064 51.849,57.024 43.929,41.544 C 34.424,21.384 43.136,8.64 60.272,12.96 C 76.544,16.776 101.528,34.128 114.416,50.256 C 129.68,52.56 145.016,54.864 160.352,56.952 C 175.616,59.04 190.952,60.84 206.216,62.64 C 208.016,64.656 209.672,66.6 211.256,68.544 z"
   style="fill:#554111" />
			<path
   id="path2650"
   d="M 217.088,59.112 C 234.08,56.16 251.504,55.872 268.352,53.136 C 290.384,49.752 311.121,31.968 332.289,30.312 C 332.721,39.168 332.721,48.096 333.153,57.384 C 311.552,53.568 290.384,64.152 268.785,66.312 C 253.953,67.752 239.121,67.824 224.36,69.336 C 227.169,74.016 228.968,78.552 229.545,83.016 C 242.721,82.44 256.041,82.872 269.217,82.368 C 291.249,81.936 312.849,80.28 334.809,90.432 C 335.242,99.288 335.673,108.648 335.673,117.504 C 313.641,101.88 291.681,96.336 269.65,95.472 C 255.681,95.256 241.858,94.248 228.105,94.464 C 226.306,99.648 223.209,104.832 219.177,110.376 C 236.097,110.16 252.946,112.176 270.081,114.12 C 291.681,116.641 313.641,132.336 336.104,155.592 C 336.104,164.952 336.104,173.809 336.104,182.737 C 313.64,153.936 292.041,130.608 269.649,127.225 C 250.352,123.768 230.409,121.033 210.321,121.537 C 208.233,123.985 206.001,126.577 203.625,129.169 C 203.625,129.673 203.192,130.394 202.257,131.257 C 197.146,135.865 181.593,145.081 160.713,154.369 C 139.905,163.657 114.993,172.585 91.161,180.577 C 67.545,187.848 47.385,191.665 33.849,190.369 C 20.24,189 14.552,182.592 19.952,175.393 C 26.576,167.184 45.656,159.481 69.488,152.569 C 83.312,136.153 98.576,122.473 102.536,107.065 C 105.848,94.321 97.208,80.712 90.944,66.889 C 74.6,61.704 57.68,47.664 49.832,32.112 C 40.256,12.024 48.968,-0.792 66.104,3.528 C 82.376,7.344 107.36,24.696 120.248,40.896 C 135.512,43.2 150.848,45.504 166.184,47.592 C 181.448,49.68 196.784,51.48 212.048,53.208 C 213.848,55.224 215.504,57.168 217.088,59.112 z"
   style="fill:#8896c6" />
			<g
   id="g2652">
				<path
   id="path2654"
   d="M 215.936,56.376 C 233,53.424 250.208,53.064 267.273,50.4 L 267.705,52.992 L 268.065,55.584 C 251.073,58.248 233.793,58.608 216.873,61.56 L 216.369,58.968 L 215.936,56.376 z"
   style="fill:#881083" />
				<path
   id="path2656"
   d="M 267.272,50.4 C 282.824,47.808 296.431,39.024 310.832,33.048 L 311.84,35.496 L 312.848,37.944 C 301.04,42.912 289.88,49.32 277.712,53.28 C 274.544,54.216 271.376,55.008 268.065,55.584 L 267.705,52.992 L 267.272,50.4 z"
   style="fill:#881083" />
				<path
   id="path2658"
   d="M 310.832,33.048 C 316.52,30.744 322.136,28.8 328.184,27.864 C 330.201,27.576 332.144,27.432 334.088,27.216 L 334.233,30.024 L 331.569,30.096 L 329.121,33.048 C 324.081,33.84 319.473,35.28 314.721,37.152 L 312.849,37.944 L 311.841,35.496 L 310.832,33.048 z"
   style="fill:#881083" />
				<path
   id="path2660"
   d="M 334.232,30.024 C 334.591,37.872 334.664,45.792 334.952,53.64 C 335.024,55.872 335.096,58.104 335.24,60.336 L 332,59.832 L 332.432,57.24 L 329.697,54.144 C 329.409,47.088 329.337,40.104 329.121,33.048 L 331.569,30.096 L 334.232,30.024 z"
   style="fill:#881083" />
				<path
   id="path2662"
   d="M 332,59.832 C 327.464,59.04 323.072,58.896 318.464,59.184 C 306.656,59.976 295.28,63.432 283.832,66.096 C 281.456,66.6 279.008,67.104 276.632,67.536 L 276.2,64.944 L 275.696,62.352 C 287.504,60.12 299.024,56.52 310.904,54.72 C 313.639,54.288 316.376,54 319.183,53.856 C 322.711,53.712 326.167,53.784 329.696,54.144 L 332.431,57.24 L 332,59.832 z"
   style="fill:#881083" />
				<path
   id="path2664"
   d="M 276.632,67.536 C 273.897,68.04 271.16,68.472 268.352,68.688 L 268.065,66.096 L 267.848,63.504 C 270.512,63.216 273.104,62.856 275.697,62.352 L 276.201,64.944 L 276.632,67.536 z"
   style="fill:#881083" />
				<path
   id="path2666"
   d="M 268.352,68.688 C 254.888,69.984 241.281,70.2 227.889,71.352 L 223.641,69.12 L 221.409,70.488 L 219.249,66.96 L 224.073,66.456 C 238.545,65.016 253.233,64.872 267.848,63.504 L 268.065,66.096 L 268.352,68.688 z"
   style="fill:#881083" />
				<path
   id="path2668"
   d="M 227.889,71.352 L 227.817,71.208 C 229.184,74.088 230.337,77.04 231.057,80.136 L 228.897,82.8 L 228.968,85.464 L 226.592,85.536 L 226.233,82.944 C 225.585,78.48 223.641,74.304 221.409,70.488 L 223.641,69.12 L 227.889,71.352 z"
   style="fill:#881083" />
				<path
   id="path2670"
   d="M 231.057,80.136 L 230.624,80.136 C 243.008,79.704 255.392,80.064 267.776,79.56 C 267.992,79.56 268.28,79.56 268.496,79.56 L 268.496,82.152 L 268.568,84.816 C 255.391,85.32 242.143,84.888 228.967,85.464 L 228.896,82.8 L 231.057,80.136 z"
   style="fill:#881083" />
				<path
   id="path2672"
   d="M 268.496,79.56 C 277.424,79.416 286.351,79.056 295.28,79.272 C 297.368,79.344 299.456,79.416 301.544,79.632 L 301.328,82.224 L 301.112,84.888 C 299.816,84.744 298.448,84.672 297.08,84.6 C 287.576,84.24 278.072,84.6 268.568,84.816 L 268.496,82.152 L 268.496,79.56 z"
   style="fill:#881083" />
				<path
   id="path2674"
   d="M 301.544,79.632 C 308.313,80.136 314.864,81.144 321.416,82.872 C 325.448,83.952 329.264,85.32 333.08,86.904 C 334.304,87.408 335.456,87.984 336.68,88.488 L 336.752,90.072 L 334.16,90.216 L 331.568,91.945 C 328.471,90.649 325.303,89.497 322.064,88.489 C 315.799,86.689 309.608,85.609 303.127,85.033 L 301.111,84.889 L 301.327,82.225 L 301.544,79.632 z"
   style="fill:#881083" />
				<path
   id="path2676"
   d="M 336.752,90.072 C 337.184,99.144 337.616,108.216 337.616,117.359 L 337.616,122.4 L 333.44,119.448 L 334.952,117.359 L 332.288,112.32 C 332.216,105.552 331.928,98.784 331.568,91.944 L 334.16,90.215 L 336.752,90.072 z"
   style="fill:#881083" />
				<path
   id="path2678"
   d="M 333.44,119.448 C 327.391,115.2 321.055,111.456 314.288,108.288 C 308.024,105.48 301.76,103.248 295.136,101.592 C 287.144,99.576 279.08,98.496 270.872,97.992 L 268.856,97.92 L 268.927,95.328 L 269,92.664 C 269.36,92.664 269.72,92.736 270.08,92.736 C 281.6,93.312 292.76,95.112 303.776,98.568 C 307.015,99.648 310.183,100.8 313.28,102.096 C 319.975,104.977 326.24,108.36 332.288,112.321 L 334.952,117.36 L 333.44,119.448 z"
   style="fill:#881083" />
				<path
   id="path2680"
   d="M 268.856,97.92 C 255.679,97.704 242.431,96.84 229.255,96.912 L 227.383,94.32 L 224.935,93.456 L 225.511,91.728 C 226.591,91.656 227.599,91.656 228.679,91.656 C 242.072,91.512 255.535,92.448 268.999,92.664 L 268.927,95.328 L 268.856,97.92 z"
   style="fill:#881083" />
				<path
   id="path2682"
   d="M 229.256,96.912 L 229.328,96.696 C 227.816,100.511 225.8,104.112 223.496,107.568 L 218.527,110.232 L 218.527,112.824 L 213.343,112.896 C 217.808,106.775 222.415,100.656 224.935,93.456 L 227.383,94.32 L 229.256,96.912 z"
   style="fill:#881083" />
				<path
   id="path2684"
   d="M 223.496,107.568 L 223.279,107.568 C 238.759,107.784 254.24,109.584 269.648,111.312 L 269.719,111.312 L 269.36,113.904 L 269.072,116.568 C 252.223,114.624 235.448,112.679 218.527,112.824 L 218.527,110.232 L 223.496,107.568 z"
   style="fill:#881083" />
				<path
   id="path2686"
   d="M 269.72,111.312 L 271.737,111.599 C 282.897,113.472 292.905,118.079 302.409,123.984 C 315.369,132.263 326.673,142.631 337.329,153.576 L 338.049,154.368 L 338.049,155.448 L 335.385,155.448 L 332.793,156.456 C 327.393,150.912 321.777,145.584 315.945,140.616 C 303.848,130.464 290.384,121.248 274.833,117.576 C 272.889,117.144 271.017,116.784 269.073,116.568 L 269.361,113.904 L 269.72,111.312 z"
   style="fill:#881083" />
				<path
   id="path2688"
   d="M 338.048,155.448 C 338.048,166.969 338.048,178.56 338.048,190.152 L 333.368,184.175 L 335.384,182.519 L 332.792,174.959 L 332.792,156.455 L 335.384,155.447 L 338.048,155.447 L 338.048,155.448 z"
   style="fill:#881083" />
				<path
   id="path2690"
   d="M 333.368,184.176 C 326.672,175.68 319.904,167.328 312.632,159.336 C 303.992,150.048 294.56,141.048 283.328,134.856 C 279.224,132.625 275.048,131.041 270.512,130.033 C 269.792,129.889 269.144,129.745 268.496,129.673 L 268.928,127.081 L 269.361,124.489 L 272.673,125.137 C 278.577,126.576 283.833,128.952 289.089,132.048 C 301.185,139.608 311.265,149.832 320.697,160.416 C 324.801,165.168 328.833,170.064 332.793,174.96 L 335.385,182.52 L 333.368,184.176 z"
   style="fill:#881083" />
				<path
   id="path2692"
   d="M 268.496,129.672 C 249.92,126.288 231.344,123.768 212.48,123.912 L 210.896,123.912 L 209.671,121.32 L 207.655,119.591 L 208.375,118.728 C 215.503,118.583 222.487,118.728 229.543,119.16 C 242.863,120.096 256.183,122.112 269.359,124.488 L 268.926,127.08 L 268.496,129.672 z"
   style="fill:#881083" />
				<path
   id="path2694"
   d="M 210.896,123.912 L 210.967,123.84 C 209.095,126 207.224,128.16 205.351,130.248 L 202.976,128.952 L 200.383,128.448 L 201.103,127.152 C 203.335,124.631 205.496,122.112 207.656,119.591 L 209.672,121.32 L 210.896,123.912 z"
   style="fill:#881083" />
				<path
   id="path2696"
   d="M 205.352,130.248 C 204.92,131.328 204.128,132.336 203.264,133.057 L 201.536,131.113 L 199.736,129.169 C 199.952,128.953 200.168,128.737 200.383,128.449 L 202.976,128.953 L 205.352,130.248 z"
   style="fill:#881083" />
				<path
   id="path2698"
   d="M 203.264,133.057 C 200.168,135.792 196.569,138.024 193.04,140.184 C 182.816,146.376 172.016,151.705 161.072,156.6 L 159.992,154.153 L 158.984,151.776 C 169.496,147.096 179.863,141.985 189.8,136.008 C 193.184,133.992 196.712,131.76 199.737,129.168 L 201.537,131.112 L 203.264,133.057 z"
   style="fill:#881083" />
				<path
   id="path2700"
   d="M 161.072,156.6 C 138.32,166.68 114.776,174.889 91.232,182.88 L 90.44,180.359 L 89.648,177.912 C 95.984,175.752 102.392,173.592 108.728,171.359 C 125.648,165.383 142.496,159.047 158.984,151.775 L 159.992,154.152 L 161.072,156.6 z"
   style="fill:#881083" />
				<path
   id="path2702"
   d="M 91.232,182.88 C 78.2,186.912 64.88,190.368 51.344,192.168 C 45.296,192.889 38.96,193.393 32.84,192.744 L 33.128,190.152 L 33.344,187.56 C 39.464,188.064 45.512,187.631 51.56,186.839 C 64.448,185.039 77.192,181.728 89.648,177.911 L 90.44,180.358 L 91.232,182.88 z"
   style="fill:#881083" />
				<path
   id="path2704"
   d="M 32.84,192.744 C 26.432,192.096 17.72,190.152 15.128,183.384 C 14.048,180.145 14.768,177.264 16.568,174.456 C 16.784,174.168 17,173.809 17.216,173.519 L 19.232,175.175 L 21.32,176.759 C 19.952,178.775 19.16,180.72 20.744,182.808 C 21.32,183.528 22.04,184.032 22.76,184.536 C 25.928,186.48 29.744,187.128 33.344,187.56 L 33.128,190.152 L 32.84,192.744 z"
   style="fill:#881083" />
				<path
   id="path2706"
   d="M 17.216,173.52 C 21.248,168.697 27.08,165.457 32.552,162.721 C 43.64,157.321 55.52,153.504 67.328,150.048 L 68.768,152.352 L 70.784,154.081 L 70.28,154.657 C 58.256,158.184 46.16,162.001 34.856,167.473 C 30.032,169.848 24.92,172.657 21.32,176.76 L 19.232,175.176 L 17.216,173.52 z"
   style="fill:#881083" />
				<path
   id="path2708"
   d="M 67.328,150.048 C 68.192,148.969 69.128,147.889 70.064,146.809 C 76.688,139.321 83.528,132.121 89.648,124.201 L 91.736,125.785 L 93.824,127.369 C 91.808,130.033 89.648,132.625 87.488,135.145 C 82.016,141.481 76.256,147.672 70.784,154.081 L 68.768,152.352 L 67.328,150.048 z"
   style="fill:#881083" />
				<path
   id="path2710"
   d="M 89.648,124.2 C 93.536,119.088 96.992,113.687 98.936,107.496 L 99.296,106.2 L 101.888,106.847 L 104.408,107.495 C 104.192,108.503 103.832,109.583 103.472,110.591 C 101.24,116.711 97.784,122.183 93.824,127.367 L 91.736,125.783 L 89.648,124.2 z"
   style="fill:#881083" />
				<path
   id="path2712"
   d="M 99.296,106.2 C 100.232,102.528 100.088,98.928 99.296,95.184 C 98.576,91.728 97.352,88.344 95.984,85.032 C 93.608,79.56 90.872,74.232 88.352,68.832 L 90.224,66.672 L 91.088,64.224 L 92.168,64.584 C 93.824,68.112 95.552,71.712 97.208,75.24 C 101.24,83.664 105.488,92.592 105.2,102.095 C 105.128,103.968 104.84,105.696 104.408,107.495 L 101.888,106.847 L 99.296,106.2 z"
   style="fill:#881083" />
				<path
   id="path2714"
   d="M 88.352,68.832 L 88.712,68.904 C 76.76,64.872 66.176,57.384 57.536,48.24 C 53.72,44.064 50.336,39.6 47.6,34.632 C 47.312,34.128 46.952,33.552 46.736,33.048 L 49.112,31.896 L 51.488,30.744 C 53.216,34.128 55.232,37.224 57.536,40.248 C 64.952,49.464 74.456,57.024 85.184,61.92 C 87.128,62.784 89.072,63.504 91.088,64.224 L 90.224,66.672 L 88.352,68.832 z"
   style="fill:#881083" />
				<path
   id="path2716"
   d="M 46.736,33.048 C 43.136,25.272 40.544,15.84 44.648,7.776 C 46.304,4.824 48.464,2.88 51.56,1.368 C 54.944,0 58.184,-0.288 61.784,0 C 63.224,0.216 64.592,0.432 66.032,0.792 L 65.456,3.384 L 64.808,5.905 C 60.2,4.897 55.304,4.465 51.416,7.633 C 46.088,12.313 47.672,20.593 49.688,26.497 C 50.264,27.937 50.84,29.377 51.488,30.745 L 49.112,31.897 L 46.736,33.048 z"
   style="fill:#881083" />
				<path
   id="path2718"
   d="M 66.032,0.792 C 73.736,2.664 80.864,6.336 87.632,10.296 C 100.088,17.856 111.608,27.144 120.968,38.232 L 119.6,40.68 L 119.168,43.272 L 118.16,43.128 C 115.64,39.96 112.976,37.008 110.096,34.2 C 102.968,27.288 95.192,21.24 86.768,15.912 C 80.576,12.096 74.024,8.64 66.968,6.48 L 64.808,5.904 L 65.456,3.383 L 66.032,0.792 z"
   style="fill:#881083" />
				<path
   id="path2720"
   d="M 120.968,38.232 L 120.68,38.232 C 135.728,40.464 150.776,42.768 165.824,44.784 L 165.464,47.376 L 165.104,49.968 C 149.768,47.88 134.504,45.576 119.168,43.272 L 119.6,40.68 L 120.968,38.232 z"
   style="fill:#881083" />
				<path
   id="path2722"
   d="M 165.824,44.784 C 181.448,46.944 197.072,48.744 212.695,50.544 L 213.343,51.264 L 211.4,53.064 L 210.103,55.512 C 195.056,53.784 180.08,52.056 165.103,49.968 L 165.463,47.376 L 165.824,44.784 z"
   style="fill:#881083" />
				<path
   id="path2724"
   d="M 213.344,51.264 C 215.073,53.28 216.8,55.296 218.456,57.312 L 216.368,58.968 L 214.351,60.624 C 212.984,58.896 211.543,57.168 210.103,55.512 L 211.4,53.064 L 213.344,51.264 z"
   style="fill:#881083" />
			</g>
		</g></svg>