<?xml version="1.0" encoding="UTF-8" standalone="no"?>
<!-- Generator: Adobe Illustrator 10, SVG Export Plug-In . SVG Version: 3.0.0 Build 76)  -->
<svg
   xmlns:dc="http://purl.org/dc/elements/1.1/"
   xmlns:cc="http://creativecommons.org/ns#"
   xmlns:rdf="http://www.w3.org/1999/02/22-rdf-syntax-ns#"
   xmlns:svg="http://www.w3.org/2000/svg"
   xmlns="http://www.w3.org/2000/svg"
   xmlns:sodipodi="http://sodipodi.sourceforge.net/DTD/sodipodi-0.dtd"
   xmlns:inkscape="http://www.inkscape.org/namespaces/inkscape"
   width="497.37399"
   height="508.82297"
   viewBox="0 0 505.995 590.923"
   style="overflow:visible"
   xml:space="preserve"
   id="svg2733"
   sodipodi:version="0.32"
   inkscape:version="0.46"
   sodipodi:docname="star.svg"
   inkscape:output_extension="org.inkscape.output.svg.inkscape"
   version="1.0"><metadata
   id="metadata2787"><rdf:RDF><cc:Work
       rdf:about=""><dc:format>image/svg+xml</dc:format><dc:type
         rdf:resource="http://purl.org/dc/dcmitype/StillImage" /></cc:Work></rdf:RDF></metadata><defs
   id="defs2785"><inkscape:perspective
   sodipodi:type="inkscape:persp3d"
   inkscape:vp_x="0 : 295.46149 : 1"
   inkscape:vp_y="0 : 1000 : 0"
   inkscape:vp_z="505.995 : 295.46149 : 1"
   inkscape:persp3d-origin="252.9975 : 196.97432 : 1"
   id="perspective2789" />
		
		
	</defs><sodipodi:namedview
   inkscape:window-height="670"
   inkscape:window-width="640"
   inkscape:pageshadow="2"
   inkscape:pageopacity="0.0"
   guidetolerance="10.0"
   gridtolerance="10.0"
   objecttolerance="10.0"
   borderopacity="1.0"
   bordercolor="#666666"
   pagecolor="#ffffff"
   id="base"
   showgrid="false"
   inkscape:zoom="0.78182779"
   inkscape:cx="252.9975"
   inkscape:cy="295.46149"
   inkscape:window-x="71"
   inkscape:window-y="0"
   inkscape:current-layer="svg2733" />
	<style
   type="text/css"
   id="style2735">
	
		@font-face{font-family:'Times-Roman';src:url(D8027036.cef)}
	
	</style>
	
<g
   transform="matrix(1.1613528,0,0,1.1613528,-44.591032,-3.493365)"
   style="overflow:visible"
   id="g2754">
			<g
   id="g2756">
				<path
   id="path2758"
   d="M 199.688,44.876 L 227.552,22.556 L 255.128,133.148 L 285.296,129.908 L 283.784,137.54 L 319.712,133.725 L 305.527,203.996 L 430.88,144.668 L 437,161.805 L 465.296,148.485 L 490.641,219.477 L 459.321,232.004 L 465.081,248.132 L 461.409,249.645 L 470.121,273.909 L 349.88,321.86 L 426.561,408.404 L 397.184,432.812 L 401,437.06 L 391.064,445.339 L 406.04,462.188 L 351.536,507.835 L 231.368,366.068 L 176.072,491.78 L 119.192,470.18 L 127.184,450.091 L 113.864,445.123 L 124.088,419.779 L 105.008,412.651 L 126.608,359.083 L 25.448,362.035 L 25.448,336.475 L 20.408,336.619 L 20.408,303.859 L 11.552,304.075 L 11.552,241.147 L 90.608,233.299 L 87.944,224.227 L 90.032,223.29 L 83.12,198.595 L 83.336,198.45 L 74.336,166.122 L 127.76,142.002 L 136.544,157.338 L 150.224,151.147 L 134.384,65.683 L 193.208,18.739 L 199.688,44.876 z"
   style="stroke:#000000;stroke-width:7.9920001" />
				<g
   id="g2760">
					<path
   id="path2762"
   d="M 158.144,112.124 L 216.896,65.324 L 246.272,183.188 L 309.057,176.492 L 290.336,268.94 L 454.568,191.18 L 479.984,262.243 L 309.056,330.571 L 415.904,451.171 L 361.111,496.747 L 240.944,354.692 L 186.152,480.62 L 128.768,459.164 L 174.128,346.628 L 35.312,350.66 L 35.312,287.66 L 116.744,279.668 L 98.024,212.637 L 151.448,188.517 L 182.192,242.157 L 158.144,112.124 z"
   style="fill:#ffff00;stroke:#b3b300;stroke-width:7.9920001" />
					<path
   id="path2764"
   d="M 153.536,86.42 L 212.288,39.476 L 241.664,157.34 L 304.448,150.645 L 285.728,243.092 L 449.959,165.404 L 475.375,236.396 L 304.447,304.724 L 411.223,425.324 L 356.504,470.9 L 236.336,328.845 L 181.544,454.845 L 124.16,433.389 L 169.52,320.853 L 30.632,324.813 L 30.632,261.885 L 112.136,253.821 L 93.416,186.789 L 146.84,162.669 L 177.584,216.31 L 153.536,86.42 z"
   style="fill:#ffff00;stroke:#b3b300;stroke-width:7.9920001" />
					<path
   id="path2766"
   d="M 179.096,57.692 L 237.848,10.82 L 267.224,128.684 L 330.007,121.988 L 311.287,214.436 L 475.518,136.675 L 500.934,207.739 L 330.006,276.067 L 436.854,396.667 L 382.063,442.171 L 261.896,300.188 L 207.104,426.116 L 149.72,404.66 L 195.08,292.124 L 56.264,296.156 L 56.264,233.156 L 137.696,225.164 L 118.976,158.132 L 172.4,134.013 L 203.144,187.653 L 179.096,57.692 z"
   style="fill:#ffff00;stroke:#b3b300;stroke-width:7.9920001" />
					<path
   id="path2768"
   d="M 144.68,53.876 L 203.432,7.004 L 232.808,124.868 L 295.592,118.172 L 276.872,210.62 L 441.176,132.86 L 466.52,203.923 L 295.592,272.251 L 402.44,392.852 L 347.649,438.428 L 227.48,296.372 L 172.76,422.3 L 115.304,400.916 L 160.736,288.309 L 21.848,292.34 L 21.848,229.34 L 103.28,221.349 L 84.632,154.317 L 138.056,130.197 L 168.728,183.837 L 144.68,53.876 z"
   style="fill:#ffff00;stroke:#b3b300;stroke-width:7.9920001" />
				</g>
			</g>
			<g
   id="g2770">
				<path
   id="path2772"
   d="M 216.032,190.964 C 236.264,190.964 252.824,208.101 252.824,229.124 C 252.824,250.148 236.264,267.356 216.032,267.356 C 195.872,267.356 179.312,250.148 179.312,229.124 C 179.312,208.101 195.872,190.964 216.032,190.964 z"
   style="fill:#7d6f00;stroke:#7d6f00;stroke-width:7.9920001" />
				<path
   id="path2774"
   d="M 220.496,262.677 C 206.312,248.204 207.032,224.445 222.008,209.685 C 237.056,194.924 260.817,194.708 275,209.109 C 289.184,223.581 288.464,247.34 273.488,262.101 C 258.512,276.788 234.68,277.076 220.496,262.677 z"
   style="fill:#7d6f00;stroke:#7d6f00;stroke-width:7.9920001" />
				<path
   id="path2776"
   d="M 199.544,272.973 C 185.36,258.573 186.08,234.813 201.056,220.053 C 216.032,205.292 239.864,205.076 254.048,219.477 C 268.233,233.949 267.512,257.708 252.536,272.469 C 237.488,287.156 213.728,287.444 199.544,272.973 z"
   style="fill:#7d6f00;stroke:#7d6f00;stroke-width:7.9920001" />
			</g>
			<path
   id="path2778"
   d="M 214.088,178.508 C 234.32,178.508 250.808,195.716 250.808,216.74 C 250.808,237.764 234.32,254.9 214.088,254.9 C 193.856,254.9 177.368,237.764 177.368,216.74 C 177.368,195.716 193.856,178.508 214.088,178.508 z"
   style="fill:#fee3e3;stroke:#fba99a;stroke-width:7.9920001" />
			<path
   id="path2780"
   d="M 218.552,250.221 C 204.368,235.821 205.016,211.989 220.064,197.301 C 235.04,182.54 258.872,182.252 272.984,196.725 C 287.168,211.124 286.519,234.956 271.472,249.645 C 256.496,264.404 232.664,264.62 218.552,250.221 z"
   style="fill:#fee3e3;stroke:#fba99a;stroke-width:7.9920001" />
			<path
   id="path2782"
   d="M 197.528,260.588 C 183.416,246.189 184.064,222.357 199.04,207.597 C 214.088,192.909 237.848,192.62 252.032,207.092 C 266.216,221.492 265.568,245.252 250.52,260.013 C 235.544,274.772 211.712,274.988 197.528,260.588 z"
   style="fill:#fee3e3;stroke:#fba99a;stroke-width:7.9920001" />
		</g></svg>