<?xml version="1.0" encoding="iso-8859-1"?>
<!-- Generator: Adobe Illustrator 10, SVG Export Plug-In . SVG Version: 3.0.0 Build 76)  -->
<!DOCTYPE svg PUBLIC "-//W3C//DTD SVG 1.0//EN"    "http://www.w3.org/TR/2001/REC-SVG-20010904/DTD/svg10.dtd" [
	<!ENTITY ns_flows "http://ns.adobe.com/Flows/1.0/">
	<!ENTITY ns_svg "http://www.w3.org/2000/svg">
	<!ENTITY ns_xlink "http://www.w3.org/1999/xlink">
]>
<svg  xmlns="&ns_svg;" xmlns:xlink="&ns_xlink;" xmlns:a="http://ns.adobe.com/AdobeSVGViewerExtensions/3.0/"
	 width="505.995" height="590.923" viewBox="0 0 505.995 590.923"
	 style="overflow:visible;enable-background:new 0 0 505.995 590.923" xml:space="preserve">
	<style type="text/css">
	<![CDATA[
		@font-face{font-family:'Times-Roman';src:url(D8027036.cef)}
	]]>
	</style>
	<g id="Layer_1">
		<text transform="matrix(1 0 0 1 0 527.96)"><tspan x="0" y="0" style="font-family:'Times-Roman'; font-size:12;">&quot;Star&quot;</tspan><tspan x="0" y="14.5" style="font-family:'Times-Roman'; font-size:12;">Copyright </tspan><tspan x="51.668" y="14.5" style="font-family:'Times-Roman'; font-size:12;">&#xA9;</tspan><tspan x="60.785" y="14.5" style="font-family:'Times-Roman'; font-size:12;"> 2000 Rob Myers http://www.robmyers.org/ .</tspan><tspan x="0" y="29" style="font-family:'Times-Roman'; font-size:12;">This work is licensed under the Creative Commons Attribution-ShareAlike License.</tspan><tspan x="0" y="43.5" style="font-family:'Times-Roman'; font-size:12;">To view a copy of this license, visit http://creativecommons.org/licenses/by-sa/1.0/ </tspan><tspan x="0" y="58" style="font-family:'Times-Roman'; font-size:12;">or send a letter to Creative Commons, 559 Nathan Abbott Way, Stanford, California 94305, USA.</tspan></text>
		<g>
			<g>
				<path style="stroke:#000000;stroke-width:7.992;" d="M199.688,44.876l27.864-22.32l27.576,110.592l30.168-3.24l-1.512,7.632
					l35.928-3.815l-14.185,70.271l125.353-59.328l6.12,17.137l28.296-13.32l25.345,70.992l-31.32,12.527l5.76,16.128l-3.672,1.513
					l8.712,24.264L349.88,321.86l76.681,86.544l-29.377,24.408l3.816,4.248l-9.936,8.279l14.976,16.849l-54.504,45.647
					L231.368,366.068L176.072,491.78l-56.88-21.6l7.992-20.089l-13.32-4.968l10.224-25.344l-19.08-7.128l21.6-53.568l-101.16,2.952
					v-25.56l-5.04,0.144v-32.76l-8.856,0.216v-62.928l79.056-7.848l-2.664-9.072l2.088-0.937l-6.912-24.695l0.216-0.145l-9-32.328
					l53.424-24.12l8.784,15.336l13.68-6.191l-15.84-85.464l58.824-46.944L199.688,44.876z"/>
				<g>
					<path style="fill:#FFFF00;stroke:#B3B300;stroke-width:7.992;" d="M158.144,112.124l58.752-46.8l29.376,117.864l62.785-6.696
						l-18.721,92.448l164.232-77.76l25.416,71.063l-170.928,68.328l106.848,120.6l-54.793,45.576L240.944,354.692L186.152,480.62
						l-57.384-21.456l45.36-112.536L35.312,350.66v-63l81.432-7.992l-18.72-67.031l53.424-24.12l30.744,53.64L158.144,112.124z"/>
					<path style="fill:#FFFF00;stroke:#B3B300;stroke-width:7.992;" d="M153.536,86.42l58.752-46.944l29.376,117.864l62.784-6.695
						l-18.72,92.447l164.231-77.688l25.416,70.992l-170.928,68.328l106.776,120.6L356.504,470.9L236.336,328.845l-54.792,126
						l-57.384-21.456l45.36-112.536l-138.888,3.96v-62.928l81.504-8.064l-18.72-67.032l53.424-24.12l30.744,53.641L153.536,86.42z"
						/>
					<path style="fill:#FFFF00;stroke:#B3B300;stroke-width:7.992;" d="M179.096,57.692l58.752-46.872l29.376,117.864l62.783-6.696
						l-18.72,92.448l164.231-77.761l25.416,71.064l-170.928,68.328l106.848,120.6l-54.791,45.504L261.896,300.188l-54.792,125.928
						L149.72,404.66l45.36-112.536l-138.816,4.032v-63l81.432-7.992l-18.72-67.032l53.424-24.119l30.744,53.64L179.096,57.692z"/>
					<path style="fill:#FFFF00;stroke:#B3B300;stroke-width:7.992;" d="M144.68,53.876l58.752-46.872l29.376,117.864l62.784-6.696
						l-18.72,92.448l164.304-77.76l25.344,71.063l-170.928,68.328l106.848,120.601l-54.791,45.576L227.48,296.372L172.76,422.3
						l-57.456-21.384l45.432-112.607L21.848,292.34v-63l81.432-7.991l-18.648-67.032l53.424-24.12l30.672,53.64L144.68,53.876z"/>
				</g>
			</g>
			<g>
				<path style="fill:#7D6F00;stroke:#7D6F00;stroke-width:7.992;" d="M216.032,190.964c20.232,0,36.792,17.137,36.792,38.16
					c0,21.024-16.56,38.232-36.792,38.232c-20.16,0-36.72-17.208-36.72-38.232C179.312,208.101,195.872,190.964,216.032,190.964z"/>
				<path style="fill:#7D6F00;stroke:#7D6F00;stroke-width:7.992;" d="M220.496,262.677c-14.184-14.473-13.464-38.232,1.512-52.992
					c15.048-14.761,38.809-14.977,52.992-0.576c14.184,14.472,13.464,38.231-1.512,52.992
					C258.512,276.788,234.68,277.076,220.496,262.677z"/>
				<path style="fill:#7D6F00;stroke:#7D6F00;stroke-width:7.992;" d="M199.544,272.973c-14.184-14.4-13.464-38.16,1.512-52.92
					c14.976-14.761,38.808-14.977,52.992-0.576c14.185,14.472,13.464,38.231-1.512,52.992
					C237.488,287.156,213.728,287.444,199.544,272.973z"/>
			</g>
			<path style="fill:#FEE3E3;stroke:#FBA99A;stroke-width:7.992;" d="M214.088,178.508c20.232,0,36.72,17.208,36.72,38.232
				s-16.488,38.16-36.72,38.16s-36.72-17.136-36.72-38.16S193.856,178.508,214.088,178.508z"/>
			<path style="fill:#FEE3E3;stroke:#FBA99A;stroke-width:7.992;" d="M218.552,250.221c-14.184-14.4-13.536-38.232,1.512-52.92
				c14.976-14.761,38.808-15.049,52.92-0.576c14.184,14.399,13.535,38.231-1.512,52.92
				C256.496,264.404,232.664,264.62,218.552,250.221z"/>
			<path style="fill:#FEE3E3;stroke:#FBA99A;stroke-width:7.992;" d="M197.528,260.588c-14.112-14.399-13.464-38.231,1.512-52.991
				c15.048-14.688,38.808-14.977,52.992-0.505c14.184,14.4,13.536,38.16-1.512,52.921
				C235.544,274.772,211.712,274.988,197.528,260.588z"/>
		</g>
	</g>
</svg>
