<?xml version="1.0" encoding="UTF-8" standalone="no"?>
<!-- Generator: Adobe Illustrator 10, SVG Export Plug-In . SVG Version: 3.0.0 Build 76)  -->
<svg
   xmlns:dc="http://purl.org/dc/elements/1.1/"
   xmlns:cc="http://creativecommons.org/ns#"
   xmlns:rdf="http://www.w3.org/1999/02/22-rdf-syntax-ns#"
   xmlns:svg="http://www.w3.org/2000/svg"
   xmlns="http://www.w3.org/2000/svg"
   xmlns:sodipodi="http://sodipodi.sourceforge.net/DTD/sodipodi-0.dtd"
   xmlns:inkscape="http://www.inkscape.org/namespaces/inkscape"
   width="615.1391"
   height="678.383"
   viewBox="0 0 622.885 755.723"
   style="overflow:visible"
   xml:space="preserve"
   id="svg2791"
   sodipodi:version="0.32"
   inkscape:version="0.46"
   sodipodi:docname="swiss.svg"
   inkscape:output_extension="org.inkscape.output.svg.inkscape"
   version="1.0"><metadata
   id="metadata2833"><rdf:RDF><cc:Work
       rdf:about=""><dc:format>image/svg+xml</dc:format><dc:type
         rdf:resource="http://purl.org/dc/dcmitype/StillImage" /></cc:Work></rdf:RDF></metadata><defs
   id="defs2831"><inkscape:perspective
   sodipodi:type="inkscape:persp3d"
   inkscape:vp_x="0 : 377.86151 : 1"
   inkscape:vp_y="0 : 1000 : 0"
   inkscape:vp_z="622.88501 : 377.86151 : 1"
   inkscape:persp3d-origin="311.4425 : 251.90767 : 1"
   id="perspective2835" />
		
		
	</defs><sodipodi:namedview
   inkscape:window-height="670"
   inkscape:window-width="640"
   inkscape:pageshadow="2"
   inkscape:pageopacity="0.0"
   guidetolerance="10.0"
   gridtolerance="10.0"
   objecttolerance="10.0"
   borderopacity="1.0"
   bordercolor="#666666"
   pagecolor="#ffffff"
   id="base"
   showgrid="false"
   inkscape:zoom="0.61133509"
   inkscape:cx="311.4425"
   inkscape:cy="377.86151"
   inkscape:window-x="0"
   inkscape:window-y="64"
   inkscape:current-layer="svg2791" />
	<style
   type="text/css"
   id="style2793">
	
		@font-face{font-family:'Times-Roman';src:url(C12B7E81.cef)}
	
	</style>
	
<g
   transform="matrix(1.1140064,0,0,1.1140064,-38.830618,-3.7085695e-6)"
   style="overflow:visible"
   id="g2812">
			<g
   id="g2814">
				<path
   id="path2816"
   d="M 343.968,622.764 C 329.352,594.756 297.888,568.405 257.136,553.212 C 215.664,538.452 173.688,538.452 144.168,550.908 L 143.448,227.484 C 180.96,251.316 218.256,257.076 240.504,238.572 C 274.992,210.996 262.897,135.828 211.56,71.46 C 195.432,51.3 177.504,34.668 159.36,22.212 L 379.176,21.708 C 374.64,25.812 370.248,30.204 366,34.884 C 317.256,87.516 307.824,158.004 344.904,192.564 C 359.88,206.46 380.904,211.86 403.8,209.556 L 404.016,288.828 C 369.672,281.124 329.065,289.476 294.72,314.388 C 240,356.292 222.288,426.708 255.768,473.22 C 287.448,514.62 350.952,521.029 404.448,490.716 L 404.736,622.62 L 343.968,622.764 z"
   style="stroke:#000000;stroke-width:7.9920001" />
				<path
   id="path2818"
   d="M 170.376,151.668 C 240.504,122.724 323.52,76.86 415.104,86.292 C 501.361,95.22 563.712,154.26 615.985,195.804 C 612.817,203.076 606.913,210.348 599.785,217.044 C 592.153,224.172 584.089,230.724 580.056,237.996 C 538.296,193.644 484.153,133.524 404.737,127.332 C 320.281,120.708 245.545,167.148 183.985,198.324 C 181.825,190.548 179.665,182.556 177.721,175.068 C 175.632,167.004 171.96,159.372 170.376,151.668 z"
   style="stroke:#000000;stroke-width:7.9920001" />
				<path
   id="path2820"
   d="M 372.84,406.908 C 340.368,475.452 309.768,565.452 235.68,620.099 C 165.912,671.652 80.088,669.923 13.488,674.387 C 10.968,666.827 10.392,657.539 11.184,647.747 C 12.048,637.379 13.632,627.011 11.76,619.019 C 72.384,623.626 152.88,631.691 215.736,582.802 C 282.624,530.746 306.817,446.074 331.368,381.49 C 338.208,385.81 345.192,390.274 351.672,394.522 C 358.584,399.132 366.432,402.229 372.84,406.908 z"
   style="stroke:#000000;stroke-width:7.9920001" />
			</g>
			<g
   id="g2822">
				<path
   id="path2824"
   d="M 352.32,588.42 C 338.135,561.204 307.536,535.5 267.864,520.596 C 227.544,506.197 186.72,506.124 157.992,518.149 L 157.992,203.58 C 194.424,226.836 230.712,232.596 252.456,214.596 C 286.008,187.884 274.416,114.732 224.592,52.02 C 208.968,32.364 191.544,16.164 173.904,3.996 L 387.888,3.996 C 383.496,7.956 379.176,12.204 375,16.74 C 327.408,67.86 318.12,136.332 354.12,170.028 C 368.664,183.636 389.112,188.892 411.432,186.66 L 411.432,263.772 C 378.096,256.212 338.496,264.276 305.016,288.468 C 251.664,329.004 234.312,397.548 266.712,442.836 C 297.528,483.156 359.376,489.492 411.432,460.116 L 411.432,588.42 L 352.32,588.42 z"
   style="fill:#d9f1e8;stroke:#38a0a6;stroke-width:7.9920001" />
				<path
   id="path2826"
   d="M 184.344,129.924 C 252.6,101.916 333.6,57.492 422.736,66.852 C 506.688,75.708 567.24,133.308 618,173.772 C 614.904,180.9 609.144,187.956 602.16,194.436 C 594.744,201.276 586.896,207.684 582.935,214.74 C 542.4,171.54 489.839,113.004 412.583,106.74 C 330.359,100.188 257.495,145.116 197.447,175.284 C 195.359,167.724 193.271,160.02 191.471,152.676 C 189.456,144.828 185.856,137.412 184.344,129.924 z"
   style="fill:#fee8b2;stroke:#fec463;stroke-width:7.9920001" />
				<path
   id="path2828"
   d="M 380.832,378.54 C 349.152,445.212 319.128,532.62 246.912,585.612 C 178.872,635.58 95.352,633.708 30.48,637.956 C 28.032,630.612 27.528,621.468 28.32,611.964 C 29.184,601.884 30.696,591.876 28.896,584.028 C 87.936,588.708 166.272,596.628 227.616,549.252 C 292.776,498.853 316.464,416.556 340.584,353.773 C 347.208,357.949 353.976,362.34 360.313,366.516 C 367.008,370.98 374.64,374.004 380.832,378.54 z"
   style="fill:#fee8b2;stroke:#fec463;stroke-width:7.9920001" />
			</g>
		</g></svg>