<?xml version="1.0" encoding="iso-8859-1"?>
<!-- Generator: Adobe Illustrator 10, SVG Export Plug-In . SVG Version: 3.0.0 Build 76)  -->
<!DOCTYPE svg PUBLIC "-//W3C//DTD SVG 1.0//EN"    "http://www.w3.org/TR/2001/REC-SVG-20010904/DTD/svg10.dtd" [
	<!ENTITY ns_flows "http://ns.adobe.com/Flows/1.0/">
	<!ENTITY ns_svg "http://www.w3.org/2000/svg">
	<!ENTITY ns_xlink "http://www.w3.org/1999/xlink">
]>
<svg  xmlns="&ns_svg;" xmlns:xlink="&ns_xlink;" xmlns:a="http://ns.adobe.com/AdobeSVGViewerExtensions/3.0/"
	 width="622.885" height="755.723" viewBox="0 0 622.885 755.723"
	 style="overflow:visible;enable-background:new 0 0 622.885 755.723" xml:space="preserve">
	<style type="text/css">
	<![CDATA[
		@font-face{font-family:'Times-Roman';src:url(C12B7E81.cef)}
	]]>
	</style>
	<g id="Layer_1">
		<text transform="matrix(1 0 0 1 0 692.7598)"><tspan x="0" y="0" style="font-family:'Times-Roman'; font-size:12;">&quot;Swiss&quot;</tspan><tspan x="0" y="14.5" style="font-family:'Times-Roman'; font-size:12;">Copyright </tspan><tspan x="51.668" y="14.5" style="font-family:'Times-Roman'; font-size:12;">&#xA9;</tspan><tspan x="60.785" y="14.5" style="font-family:'Times-Roman'; font-size:12;"> 2000 Rob Myers http://www.robmyers.org/ .</tspan><tspan x="0" y="29" style="font-family:'Times-Roman'; font-size:12;">This work is licensed under the Creative Commons Attribution-ShareAlike License.</tspan><tspan x="0" y="43.5" style="font-family:'Times-Roman'; font-size:12;">To view a copy of this license, visit http://creativecommons.org/licenses/by-sa/1.0/ </tspan><tspan x="0" y="58" style="font-family:'Times-Roman'; font-size:12;">or send a letter to Creative Commons, 559 Nathan Abbott Way, Stanford, California 94305, USA.</tspan></text>
		<g>
			<g>
				<path style="stroke:#000000;stroke-width:7.992;" d="M343.968,622.764c-14.616-28.008-46.08-54.359-86.832-69.552
					c-41.472-14.76-83.448-14.76-112.968-2.304l-0.72-323.424c37.512,23.832,74.808,29.592,97.056,11.088
					c34.488-27.576,22.393-102.744-28.944-167.112c-16.128-20.16-34.056-36.792-52.2-49.248l219.816-0.504
					c-4.536,4.104-8.928,8.496-13.176,13.176c-48.744,52.632-58.176,123.12-21.096,157.68c14.976,13.896,36,19.296,58.896,16.992
					l0.216,79.272c-34.344-7.704-74.951,0.648-109.296,25.56c-54.72,41.904-72.432,112.32-38.952,158.832
					c31.68,41.4,95.184,47.809,148.68,17.496l0.288,131.904L343.968,622.764z"/>
				<path style="stroke:#000000;stroke-width:7.992;" d="M170.376,151.668c70.128-28.944,153.144-74.808,244.728-65.376
					c86.257,8.928,148.608,67.968,200.881,109.512c-3.168,7.272-9.072,14.544-16.2,21.24c-7.632,7.128-15.696,13.68-19.729,20.952
					c-41.76-44.352-95.903-104.472-175.319-110.664c-84.456-6.624-159.192,39.816-220.752,70.992
					c-2.16-7.776-4.32-15.768-6.264-23.256C175.632,167.004,171.96,159.372,170.376,151.668z"/>
				<path style="stroke:#000000;stroke-width:7.992;" d="M372.84,406.908c-32.472,68.544-63.072,158.544-137.16,213.191
					c-69.768,51.553-155.592,49.824-222.192,54.288c-2.52-7.56-3.096-16.848-2.304-26.64c0.864-10.368,2.448-20.736,0.576-28.728
					c60.624,4.607,141.12,12.672,203.976-36.217c66.888-52.056,91.081-136.728,115.632-201.312
					c6.84,4.32,13.824,8.784,20.304,13.032C358.584,399.132,366.432,402.229,372.84,406.908z"/>
			</g>
			<g>
				<path style="fill:#D9F1E8;stroke:#38A0A6;stroke-width:7.992;" d="M352.32,588.42c-14.185-27.216-44.784-52.92-84.456-67.824
					c-40.32-14.399-81.144-14.472-109.872-2.447V203.58c36.432,23.256,72.72,29.016,94.464,11.016
					c33.552-26.712,21.96-99.864-27.864-162.576c-15.624-19.656-33.048-35.856-50.688-48.024h213.984
					c-4.392,3.96-8.712,8.208-12.888,12.744c-47.592,51.12-56.88,119.592-20.88,153.288c14.544,13.608,34.992,18.864,57.312,16.632
					v77.112c-33.336-7.56-72.936,0.504-106.416,24.696c-53.352,40.536-70.704,109.08-38.304,154.368
					c30.816,40.32,92.664,46.656,144.72,17.28V588.42H352.32z"/>
				<path style="fill:#FEE8B2;stroke:#FEC463;stroke-width:7.992;" d="M184.344,129.924C252.6,101.916,333.6,57.492,422.736,66.852
					C506.688,75.708,567.24,133.308,618,173.772c-3.096,7.128-8.856,14.184-15.84,20.664c-7.416,6.84-15.264,13.248-19.225,20.304
					c-40.535-43.2-93.096-101.736-170.352-108c-82.224-6.552-155.088,38.376-215.136,68.544c-2.088-7.56-4.176-15.264-5.976-22.608
					C189.456,144.828,185.856,137.412,184.344,129.924z"/>
				<path style="fill:#FEE8B2;stroke:#FEC463;stroke-width:7.992;" d="M380.832,378.54c-31.68,66.672-61.704,154.08-133.92,207.072
					c-68.04,49.968-151.56,48.096-216.432,52.344c-2.448-7.344-2.952-16.488-2.16-25.992c0.864-10.08,2.376-20.088,0.576-27.936
					c59.04,4.68,137.376,12.6,198.72-34.776c65.16-50.399,88.848-132.696,112.968-195.479c6.624,4.176,13.392,8.567,19.729,12.743
					C367.008,370.98,374.64,374.004,380.832,378.54z"/>
			</g>
		</g>
	</g>
</svg>
