<?xml version="1.0" encoding="UTF-8" standalone="no"?>
<!-- Generator: Adobe Illustrator 10, SVG Export Plug-In . SVG Version: 3.0.0 Build 76)  -->
<svg
   xmlns:dc="http://purl.org/dc/elements/1.1/"
   xmlns:cc="http://creativecommons.org/ns#"
   xmlns:rdf="http://www.w3.org/1999/02/22-rdf-syntax-ns#"
   xmlns:svg="http://www.w3.org/2000/svg"
   xmlns="http://www.w3.org/2000/svg"
   xmlns:sodipodi="http://sodipodi.sourceforge.net/DTD/sodipodi-0.dtd"
   xmlns:inkscape="http://www.inkscape.org/namespaces/inkscape"
   width="516.31"
   height="551.15796"
   viewBox="0 0 528.484 627.47"
   style="overflow:visible"
   xml:space="preserve"
   id="svg2917"
   sodipodi:version="0.32"
   inkscape:version="0.46"
   sodipodi:docname="untitled2.svg"
   inkscape:output_extension="org.inkscape.output.svg.inkscape"
   version="1.0"><metadata
   id="metadata2971"><rdf:RDF><cc:Work
       rdf:about=""><dc:format>image/svg+xml</dc:format><dc:type
         rdf:resource="http://purl.org/dc/dcmitype/StillImage" /></cc:Work></rdf:RDF></metadata><defs
   id="defs2969"><inkscape:perspective
   sodipodi:type="inkscape:persp3d"
   inkscape:vp_x="0 : 313.73499 : 1"
   inkscape:vp_y="0 : 1000 : 0"
   inkscape:vp_z="528.48401 : 313.73499 : 1"
   inkscape:persp3d-origin="264.242 : 209.15666 : 1"
   id="perspective2973" />
		
		
	</defs><sodipodi:namedview
   inkscape:window-height="670"
   inkscape:window-width="640"
   inkscape:pageshadow="2"
   inkscape:pageopacity="0.0"
   guidetolerance="10.0"
   gridtolerance="10.0"
   objecttolerance="10.0"
   borderopacity="1.0"
   bordercolor="#666666"
   pagecolor="#ffffff"
   id="base"
   showgrid="false"
   inkscape:zoom="0.73629022"
   inkscape:cx="264.242"
   inkscape:cy="313.73499"
   inkscape:window-x="0"
   inkscape:window-y="0"
   inkscape:current-layer="svg2917" />
	<style
   type="text/css"
   id="style2919">
	
		@font-face{font-family:'Times-Roman';src:url(E0FFD4D9.cef)}
	
	</style>
	
<g
   transform="matrix(1.1384577,0,0,1.1384577,-38.843889,-0.5146519)"
   style="overflow:visible"
   id="g2938">
			<g
   id="g2940">
				<path
   id="path2942"
   d="M 379.768,222.967 C 389.92,222.967 398.201,231.247 398.201,241.4 C 398.201,251.551 389.921,259.832 379.768,259.832 C 377.537,259.832 375.449,259.472 373.504,258.752 L 373.504,224.048 C 375.448,223.328 377.536,222.967 379.768,222.967 z M 373.504,519.751 L 373.504,498.367 C 385.384,511.255 403.096,526.879 425.056,546.895 L 412.241,551.502 C 393.376,536.167 381.64,526.591 373.504,519.751 z M 373.504,462.44 C 381.928,469.135 390.928,475.688 400.649,481.879 C 421.529,495.775 420.377,494.623 477.256,523.639 L 490.072,516.656 C 459.832,499.303 436.648,486.488 421.528,474.896 C 404.752,463.16 389.2,450.127 373.504,434.648 L 373.504,462.44 L 373.504,462.44 z M 373.504,416.648 L 373.504,390.224 C 396.832,408.871 420.304,424.352 444.784,436.591 C 461.055,445.879 485.391,456.32 517.935,467.911 L 506.271,477.199 C 445.935,456.319 447.087,457.47 425.055,447.031 C 405.76,438.175 388.696,427.664 373.504,416.648 z M 373.504,320.456 L 373.504,304.76 C 377.464,304.401 381.424,303.609 385.313,302.313 C 391.504,300.657 400.792,296.121 413.176,289.209 L 410.872,300.441 C 390.208,314.409 388.912,315.344 379.984,318.225 C 377.824,319.16 375.664,319.879 373.504,320.456 z M 373.504,187.4 L 373.504,177.967 C 375.233,178.327 377.104,178.615 379.12,179.047 L 385.672,188.407 C 381.208,187.976 377.176,187.616 373.504,187.4 z M 373.504,258.751 C 366.376,256.159 361.264,249.319 361.264,241.399 C 361.264,233.407 366.376,226.567 373.504,224.046 L 373.504,258.751 z M 373.504,177.967 C 354.28,174.44 352.264,174.295 343.624,175.159 C 336.64,175.159 330.376,176.743 324.112,179.695 C 321.16,181.063 318.208,182.431 315.544,184.302 C 306.184,190.855 299.56,198.918 295.528,208.782 C 293.152,215.334 290.343,226.35 287.536,242.334 L 294.376,252.198 C 298.48,237.438 301.936,226.637 304.672,221.238 C 309.424,213.03 316.048,205.614 325.408,199.062 C 334.552,192.726 344.344,188.622 354.928,187.541 C 359.248,186.894 365.512,186.894 373.504,187.397 L 373.504,177.967 L 373.504,177.967 z M 373.504,304.759 L 373.504,320.455 C 369.184,321.535 364.792,321.967 360.256,321.823 C 356.944,321.751 353.704,321.678 350.536,321.031 C 339.304,318.799 330.015,314.047 322.384,306.631 C 317.56,301.591 310.576,292.591 301.649,279.127 L 304.025,267.319 C 313.672,279.199 321.088,287.695 325.768,291.583 C 333.401,297.199 342.472,301.303 353.705,303.607 C 360.4,304.904 367.024,305.335 373.504,304.759 z M 373.504,390.224 C 372.496,389.432 371.488,388.639 370.481,387.776 C 346.073,368.047 326.344,348.32 312.377,330.896 C 303.089,319.303 290.345,298.423 272.921,269.408 C 272.921,269.408 265.937,221.744 264.785,215.984 C 257.801,191.576 247.361,166.016 231.161,138.152 C 218.345,116.12 202.073,92.864 181.193,71.984 C 167.008,57.799 165.136,55.927 137.777,33.608 L 137.777,51.824 C 145.985,59.816 152.68,66.8 158.008,73.136 C 177.737,94.088 195.16,118.424 211.361,146.288 C 225.329,170.696 235.768,193.88 242.753,213.68 C 241.601,211.304 240.449,209 240.449,206.697 C 228.784,183.44 212.584,161.408 190.48,137 C 175.648,121.232 158.368,105.393 137.776,90.992 L 137.776,115.76 C 149.152,125.84 160.383,137 171.904,149.817 C 190.48,169.545 204.448,188.121 216.04,205.545 C 203.296,191.577 189.328,177.681 171.904,163.713 C 161.464,155.146 150.088,146.865 137.776,139.161 L 137.776,163.425 C 144.04,167.961 150.376,172.713 156.856,177.681 C 181.192,197.41 199.767,217.137 213.736,234.562 C 224.175,247.305 236.92,267.034 254.343,296.049 C 256.648,319.305 259.024,336.73 262.48,349.473 C 268.312,373.881 279.904,399.442 296.175,427.305 C 308.919,449.337 325.192,472.593 346.071,493.473 C 356.222,504.274 360.039,508.377 373.503,519.753 L 373.503,498.369 C 371.56,496.281 369.759,494.265 368.103,492.321 C 349.528,471.369 332.175,447.033 315.904,419.169 C 301.935,394.761 291.496,372.73 283.36,351.849 C 284.511,354.154 285.736,356.457 286.887,358.761 C 298.48,382.018 314.751,404.049 336.783,428.457 C 347.583,439.978 359.751,451.497 373.503,462.441 L 373.503,434.649 C 367.455,428.745 361.48,422.409 355.359,415.64 C 336.783,397.065 321.663,378.489 311.222,361.136 C 322.886,375.032 337.934,387.777 354.206,401.744 C 360.254,406.784 366.734,411.752 373.502,416.648 L 373.502,390.224 L 373.504,390.224 z M 137.776,368.408 L 137.776,366.32 C 151.024,366.679 160.816,366.392 166.792,365.095 C 177.304,363.295 186.808,358.616 195.52,351.631 C 204.449,344.503 210.497,336.655 214.745,328.159 C 217.121,322.543 219.785,311.599 222.953,296.551 L 230.441,305.984 C 228.712,322.04 226.625,333.272 224.68,339.967 C 221.296,350.047 215.248,358.543 206.321,365.743 C 203.8,367.759 200.921,369.271 198.041,370.855 C 192.065,374.239 185.873,376.254 178.889,376.687 C 169.601,378.271 168.017,378.054 143.249,375.174 L 137.776,368.408 z M 137.776,322.328 L 137.776,306.992 C 138.856,309.296 139.431,311.888 139.431,314.624 C 139.431,317.36 138.856,320.024 137.776,322.328 z M 137.776,249.896 L 137.776,234.343 C 142.528,232.543 147.423,231.608 152.608,231.463 C 155.847,231.319 159.16,231.175 162.328,231.608 C 173.704,233.12 183.28,237.224 191.344,244.064 C 196.529,248.816 204.088,257.312 213.952,270.2 L 212.368,282.152 C 201.928,270.92 193.935,262.927 188.968,259.4 C 180.976,254.288 171.688,250.759 160.384,249.248 C 152.608,248.167 145.048,248.383 137.776,249.896 z M 137.776,33.608 L 137.776,51.824 C 127.839,42.248 115.672,31.232 101.055,18.56 L 115.024,15.104 C 124.168,22.52 131.584,28.568 137.776,33.608 z M 137.776,90.992 C 134.175,88.471 130.431,86.024 126.616,83.576 C 105.736,69.68 106.887,70.832 50.008,41.816 L 37.264,48.799 C 67.432,66.224 90.617,78.967 105.737,90.56 C 116.825,98.335 127.337,106.616 137.777,115.759 L 137.777,90.992 L 137.776,90.992 z M 137.776,139.16 L 137.776,163.424 C 118.984,149.96 100.48,138.441 81.328,128.864 C 66.28,119.576 41.872,110.288 9.4,97.543 L 19.839,89.407 C 81.327,109.135 80.175,109.135 102.279,119.575 C 114.88,125.624 126.688,132.175 137.776,139.16 z M 137.776,234.343 L 137.776,249.896 C 134.752,250.543 131.799,251.408 128.847,252.56 C 122.799,254.648 113.799,259.831 101.992,267.463 L 103.431,256.159 C 123.16,240.823 124.383,239.815 133.167,236.359 C 134.68,235.568 136.192,234.919 137.776,234.343 z M 137.776,306.992 L 137.776,322.328 C 134.824,328.664 128.416,333.128 121,333.128 C 110.848,333.128 102.568,324.776 102.568,314.624 C 102.568,304.472 110.847,296.192 121,296.192 C 128.416,296.192 134.824,300.656 137.776,306.992 z M 137.776,366.32 L 137.776,368.408 L 136.047,366.248 C 136.624,366.32 137.2,366.32 137.776,366.32 z" />
				<path
   id="path2944"
   d="M 379.768,222.967 C 389.92,222.967 398.201,231.247 398.201,241.4 C 398.201,251.551 389.921,259.832 379.768,259.832 C 369.617,259.832 361.264,251.552 361.264,241.4 C 361.264,231.248 369.616,222.967 379.768,222.967 z M 121,296.192 C 131.152,296.192 139.432,304.471 139.432,314.624 C 139.432,324.777 131.153,333.128 121,333.128 C 110.847,333.128 102.568,324.776 102.568,314.624 C 102.568,304.472 110.848,296.192 121,296.192 z M 287.536,242.335 L 294.376,252.199 C 298.48,237.439 301.936,226.638 304.672,221.239 C 309.424,213.031 316.048,205.615 325.408,199.063 C 334.552,192.727 344.344,188.623 354.928,187.542 C 361.264,186.606 371.632,187.038 385.672,188.406 L 379.12,179.046 C 354.568,174.51 353.056,174.15 343.624,175.158 C 336.64,175.158 330.376,176.742 324.112,179.694 C 321.16,181.062 318.208,182.43 315.544,184.301 C 306.184,190.854 299.56,198.917 295.528,208.781 C 293.152,215.335 290.344,226.352 287.536,242.335 z M 230.44,305.984 L 222.952,296.551 C 219.784,311.6 217.12,322.543 214.744,328.159 C 210.496,336.655 204.448,344.503 195.519,351.631 C 186.807,358.615 177.303,363.295 166.791,365.095 C 160.527,366.463 150.159,366.679 136.047,366.247 L 143.247,375.175 C 168.015,378.055 169.599,378.272 178.887,376.688 C 185.871,376.255 192.064,374.24 198.039,370.856 C 200.919,369.272 203.799,367.759 206.319,365.744 C 215.247,358.544 221.295,350.048 224.678,339.968 C 226.624,333.272 228.712,322.04 230.44,305.984 z M 301.648,279.127 L 304.024,267.319 C 313.671,279.199 321.087,287.695 325.767,291.583 C 333.4,297.199 342.471,301.303 353.704,303.607 C 364.576,305.767 375.16,305.55 385.312,302.311 C 391.503,300.655 400.791,296.119 413.175,289.207 L 410.871,300.439 C 390.207,314.407 388.911,315.342 379.983,318.223 C 373.575,321.031 367.167,322.038 360.254,321.823 C 356.942,321.751 353.702,321.678 350.534,321.031 C 339.302,318.799 330.013,314.047 322.382,306.631 C 317.56,301.591 310.576,292.591 301.648,279.127 z M 213.952,270.2 L 212.368,282.152 C 201.928,270.92 193.935,262.927 188.968,259.4 C 180.976,254.288 171.688,250.759 160.384,249.248 C 149.368,247.809 138.784,248.672 128.848,252.56 C 122.8,254.648 113.8,259.831 101.993,267.463 L 103.432,256.159 C 123.161,240.823 124.384,239.815 133.168,236.359 C 139.36,233.191 145.696,231.678 152.608,231.463 C 155.847,231.319 159.16,231.175 162.328,231.608 C 173.704,233.12 183.28,237.224 191.344,244.064 C 196.528,248.816 204.088,257.312 213.952,270.2 z M 272.92,269.408 C 290.344,298.424 303.088,319.304 312.376,330.896 C 326.344,348.32 346.072,368.047 370.48,387.776 C 394.816,407.576 419.223,423.776 444.784,436.591 C 461.055,445.879 485.391,456.32 517.935,467.911 L 506.271,477.199 C 445.935,456.319 447.087,457.47 425.055,447.031 C 397.192,434.215 373.935,418.015 354.207,401.743 C 337.935,387.775 322.887,375.031 311.223,361.135 C 321.663,378.488 336.784,397.064 355.36,415.639 C 377.391,440.047 398.343,458.623 421.528,474.896 C 436.648,486.488 459.832,499.303 490.072,516.656 L 477.256,523.639 C 420.376,494.623 421.528,495.776 400.649,481.879 C 375.088,465.608 354.209,447.031 336.785,428.455 C 314.753,404.047 298.481,382.016 286.889,358.759 C 285.738,356.455 284.513,354.152 283.362,351.847 C 291.498,372.728 301.937,394.759 315.906,419.167 C 332.177,447.031 349.53,471.367 368.105,492.319 C 379.769,506.215 399.498,523.638 425.057,546.895 L 412.242,551.502 C 362.346,510.895 362.346,510.895 346.074,493.47 C 325.194,472.59 308.922,449.334 296.178,427.302 C 279.907,399.439 268.315,373.878 262.483,349.47 C 259.027,336.727 256.651,319.302 254.346,296.046 C 236.922,267.03 224.178,247.302 213.739,234.559 C 199.77,217.134 181.195,197.407 156.859,177.678 C 131.298,157.878 106.89,141.678 81.331,128.863 C 66.28,119.576 41.872,110.288 9.4,97.543 L 19.839,89.407 C 81.327,109.135 80.175,109.135 102.279,119.575 C 128.991,132.391 152.175,147.439 171.903,163.711 C 189.327,177.679 203.295,191.575 216.039,205.543 C 204.447,188.119 190.479,169.543 171.903,149.815 C 149.871,125.407 128.991,106.831 105.735,90.559 C 90.615,78.966 67.43,66.223 37.262,48.798 L 50.006,41.815 C 106.886,70.831 105.735,69.678 126.614,83.575 C 152.174,99.846 173.053,118.423 190.478,136.999 C 212.582,161.407 228.782,183.439 240.446,206.695 C 240.446,208.999 241.597,211.302 242.75,213.678 C 235.766,193.878 225.326,170.695 211.358,146.286 C 195.158,118.422 177.734,94.086 158.005,73.134 C 146.341,59.238 127.765,41.815 101.053,18.559 L 115.022,15.103 C 164.918,55.71 163.765,54.559 181.19,71.983 C 202.07,92.863 218.341,116.119 231.158,138.151 C 247.358,166.015 257.798,191.575 264.782,215.983 C 265.936,221.744 272.92,269.408 272.92,269.408 z"
   style="fill:none;stroke:#000000;stroke-width:0.21600001" />
			</g>
			<path
   id="path2946"
   d="M 275.368,258.608 C 292.792,287.624 305.536,308.504 314.824,320.168 C 328.792,337.592 348.519,357.32 372.928,377.048 C 397.264,396.777 421.672,413.048 447.233,425.792 C 463.504,435.08 487.84,445.521 520.384,457.185 L 508.72,466.472 C 448.384,445.521 449.536,446.672 427.504,436.233 C 399.64,423.489 376.384,407.216 356.656,390.945 C 340.384,377.049 325.336,364.233 313.672,350.337 C 324.112,367.761 339.233,386.337 357.808,404.913 C 379.84,429.249 400.792,447.897 423.976,464.097 C 439.096,475.761 462.281,488.505 492.52,505.929 L 479.705,512.913 C 422.825,483.825 423.976,485.049 403.097,471.081 C 377.537,454.81 356.658,436.233 339.234,417.657 C 317.202,393.321 300.929,371.217 289.338,348.033 C 288.186,345.657 286.962,343.353 285.81,341.049 C 293.947,361.929 304.386,384.033 318.354,408.369 C 334.626,436.233 351.978,460.64 370.554,481.521 C 382.218,495.489 401.947,512.913 427.506,536.096 L 414.69,540.777 C 364.794,500.096 364.794,500.096 348.522,482.673 C 327.642,461.793 311.371,438.537 298.626,416.505 C 282.354,388.641 270.762,363.081 264.93,338.745 C 262.122,326.649 259.315,308.577 257.155,285.681 C 239.875,256.738 227.058,236.721 217.266,224.337 C 203.082,206.697 184.075,187.69 159.666,167.889 C 134.538,147.442 110.273,131.242 84.858,118.497 C 68.73,109.785 44.538,99.777 12.066,87.465 L 23.154,78.898 C 83.922,99.274 83.13,98.698 105.378,108.849 C 132.162,121.881 155.634,137.362 175.29,153.345 C 192.353,167.241 206.682,180.921 218.778,194.818 C 207.761,177.465 193.217,158.746 174.425,140.026 C 152.393,115.618 131.513,97.042 108.257,80.77 C 93.208,69.175 69.952,56.432 39.784,39.007 L 52.528,32.024 C 109.408,61.04 108.256,59.887 129.135,73.856 C 154.696,90.127 175.648,108.704 192.999,127.28 C 215.103,151.616 231.375,173.719 242.967,196.904 C 243.904,198.847 244.911,201.008 245.919,203.24 C 238.863,183.152 228.423,160.688 214.095,135.992 C 197.751,107.984 180.831,84.296 161.535,63.344 C 149.511,49.448 130.431,31.592 104.439,8.552 L 117.831,4.448 C 167.439,45.055 166.935,44.12 184.143,61.616 C 204.591,83.216 221.08,106.04 233.824,127.928 C 250.095,155.937 261.04,181.496 267.592,206.336 C 268.816,211.736 275.368,258.608 275.368,258.608 z"
   style="fill:#b3de69;stroke:#435607;stroke-width:7.9920001" />
			<path
   id="path2948"
   d="M 215.968,271.135 C 205.529,259.904 197.68,252.488 192.569,248.816 C 184.649,243.343 175.216,239.887 164.201,238.376 C 152.969,236.937 142.457,238.088 132.52,241.832 C 126.472,244.136 117.401,249.104 105.52,256.736 L 107.033,245.576 C 116.969,237.728 123.304,232.904 126.041,231.032 C 128.777,229.232 132.377,227.36 136.841,225.344 C 143.033,222.68 149.442,221.096 156.066,220.592 C 159.521,220.376 162.761,220.448 165.786,220.809 C 177.162,222.321 186.954,226.569 195.09,233.409 C 200.274,237.873 207.762,246.513 217.483,259.545 L 215.968,271.135 z"
   style="fill:#9ed8a1" />
			<path
   id="path2950"
   d="M 215.968,271.135 C 205.529,259.904 197.68,252.488 192.569,248.816 C 184.649,243.343 175.216,239.887 164.201,238.376 C 152.969,236.937 142.457,238.088 132.52,241.832 C 126.472,244.136 117.401,249.104 105.52,256.736 L 107.033,245.576 C 116.969,237.728 123.304,232.904 126.041,231.032 C 128.777,229.232 132.377,227.36 136.841,225.344 C 143.033,222.68 149.442,221.096 156.066,220.592 C 159.521,220.376 162.761,220.448 165.786,220.809 C 177.162,222.321 186.954,226.569 195.09,233.409 C 200.274,237.873 207.762,246.513 217.483,259.545 L 215.968,271.135 z"
   style="fill:none;stroke:#919100;stroke-width:7.9920001" />
			<path
   id="path2952"
   d="M 307.552,256.736 C 317.272,268.616 324.544,276.536 329.441,280.496 C 336.928,286.544 346.144,290.576 357.088,292.808 C 368.104,295.039 378.688,294.608 388.84,291.511 C 395.104,289.568 404.392,285.175 416.777,278.407 L 414.545,289.423 C 404.105,296.551 397.482,300.944 394.601,302.671 C 391.793,304.255 388.049,305.911 383.441,307.639 C 377.105,309.944 370.626,311.095 363.929,311.095 C 360.545,311.095 357.305,310.808 354.282,310.232 C 342.977,308 333.546,303.104 325.914,295.688 C 321.018,290.936 314.105,281.792 305.25,268.184 L 307.552,256.736 z"
   style="fill:#9ed8a1" />
			<path
   id="path2954"
   d="M 307.552,256.736 C 317.272,268.616 324.544,276.536 329.441,280.496 C 336.928,286.544 346.144,290.576 357.088,292.808 C 368.104,295.039 378.688,294.608 388.84,291.511 C 395.104,289.568 404.392,285.175 416.777,278.407 L 414.545,289.423 C 404.105,296.551 397.482,300.944 394.601,302.671 C 391.793,304.255 388.049,305.911 383.441,307.639 C 377.105,309.944 370.626,311.095 363.929,311.095 C 360.545,311.095 357.305,310.808 354.282,310.232 C 342.977,308 333.546,303.104 325.914,295.688 C 321.018,290.936 314.105,281.792 305.25,268.184 L 307.552,256.736 z"
   style="fill:none;stroke:#919100;stroke-width:7.9920001" />
			<path
   id="path2956"
   d="M 226.624,285.967 C 223.528,300.944 220.648,311.383 218.128,317.144 C 214.24,325.927 207.976,333.776 199.264,340.759 C 190.481,347.816 180.905,352.28 170.464,354.224 C 164.056,355.375 153.76,355.808 139.649,355.448 L 146.632,364.232 C 159.233,365.744 167.224,366.608 170.464,366.752 C 173.704,366.968 177.808,366.68 182.632,366.032 C 189.328,365.168 195.664,363.224 201.569,360.2 C 204.665,358.616 207.401,356.888 209.777,354.944 C 218.705,347.744 224.897,339.104 228.281,328.952 C 230.441,322.544 232.313,311.24 233.969,295.04 L 226.624,285.967 z"
   style="fill:#9ed8a1" />
			<path
   id="path2958"
   d="M 226.624,285.967 C 223.528,300.944 220.648,311.383 218.128,317.144 C 214.24,325.927 207.976,333.776 199.264,340.759 C 190.481,347.816 180.905,352.28 170.464,354.224 C 164.056,355.375 153.76,355.808 139.649,355.448 L 146.632,364.232 C 159.233,365.744 167.224,366.608 170.464,366.752 C 173.704,366.968 177.808,366.68 182.632,366.032 C 189.328,365.168 195.664,363.224 201.569,360.2 C 204.665,358.616 207.401,356.888 209.777,354.944 C 218.705,347.744 224.897,339.104 228.281,328.952 C 230.441,322.544 232.313,311.24 233.969,295.04 L 226.624,285.967 z"
   style="fill:none;stroke:#919100;stroke-width:7.9920001" />
			<path
   id="path2960"
   d="M 297.904,241.184 C 302.008,226.423 305.536,216.272 308.416,210.656 C 312.88,202.16 319.648,194.744 328.792,188.336 C 338.08,181.857 347.944,178.04 358.456,176.816 C 364.935,176.095 375.232,176.312 389.344,177.679 L 382.865,168.392 C 370.409,166.087 362.561,164.648 359.321,164.288 C 356.081,163.928 351.976,163.856 347.081,164.216 C 340.385,164.649 333.905,166.16 327.785,168.752 C 324.617,170.192 321.808,171.704 319.289,173.504 C 309.857,180.056 303.161,188.264 299.057,198.128 C 296.537,204.464 293.873,215.624 291.209,231.68 L 297.904,241.184 z"
   style="fill:#9ed8a1" />
			<path
   id="path2962"
   d="M 297.904,241.184 C 302.008,226.423 305.536,216.272 308.416,210.656 C 312.88,202.16 319.648,194.744 328.792,188.336 C 338.08,181.857 347.944,178.04 358.456,176.816 C 364.935,176.095 375.232,176.312 389.344,177.679 L 382.865,168.392 C 370.409,166.087 362.561,164.648 359.321,164.288 C 356.081,163.928 351.976,163.856 347.081,164.216 C 340.385,164.649 333.905,166.16 327.785,168.752 C 324.617,170.192 321.808,171.704 319.289,173.504 C 309.857,180.056 303.161,188.264 299.057,198.128 C 296.537,204.464 293.873,215.624 291.209,231.68 L 297.904,241.184 z"
   style="fill:none;stroke:#919100;stroke-width:7.9920001" />
			<path
   id="path2964"
   d="M 383.368,212.167 C 393.519,212.167 401.8,220.447 401.8,230.6 C 401.8,240.751 393.52,249.032 383.368,249.032 C 373.216,249.032 364.864,240.752 364.864,230.6 C 364.864,220.448 373.216,212.167 383.368,212.167 z"
   style="fill:#ff1300" />
			<path
   id="path2966"
   d="M 124.6,285.392 C 134.752,285.392 143.033,293.671 143.033,303.824 C 143.033,313.977 134.753,322.328 124.6,322.328 C 114.449,322.328 106.168,313.976 106.168,303.824 C 106.168,293.672 114.448,285.392 124.6,285.392 z"
   style="fill:#ff1300" />
		</g></svg>