<?xml version="1.0" encoding="UTF-8" standalone="no"?>
<!-- Generator: Adobe Illustrator 10, SVG Export Plug-In . SVG Version: 3.0.0 Build 76)  -->
<svg
   xmlns:dc="http://purl.org/dc/elements/1.1/"
   xmlns:cc="http://creativecommons.org/ns#"
   xmlns:rdf="http://www.w3.org/1999/02/22-rdf-syntax-ns#"
   xmlns:svg="http://www.w3.org/2000/svg"
   xmlns="http://www.w3.org/2000/svg"
   xmlns:sodipodi="http://sodipodi.sourceforge.net/DTD/sodipodi-0.dtd"
   xmlns:inkscape="http://www.inkscape.org/namespaces/inkscape"
   width="228.16901"
   height="364.896"
   viewBox="0 0 468.311 444.316"
   style="overflow:visible"
   xml:space="preserve"
   id="svg2837"
   sodipodi:version="0.32"
   inkscape:version="0.46"
   sodipodi:docname="untitled1.svg"
   inkscape:output_extension="org.inkscape.output.svg.inkscape"
   version="1.0"><metadata
   id="metadata2913"><rdf:RDF><cc:Work
       rdf:about=""><dc:format>image/svg+xml</dc:format><dc:type
         rdf:resource="http://purl.org/dc/dcmitype/StillImage" /></cc:Work></rdf:RDF></metadata><defs
   id="defs2911"><inkscape:perspective
   sodipodi:type="inkscape:persp3d"
   inkscape:vp_x="0 : 222.158 : 1"
   inkscape:vp_y="0 : 1000 : 0"
   inkscape:vp_z="468.311 : 222.158 : 1"
   inkscape:persp3d-origin="234.1555 : 148.10534 : 1"
   id="perspective2915" />
		
		
	</defs><sodipodi:namedview
   inkscape:window-height="670"
   inkscape:window-width="640"
   inkscape:pageshadow="2"
   inkscape:pageopacity="0.0"
   guidetolerance="10.0"
   gridtolerance="10.0"
   objecttolerance="10.0"
   borderopacity="1.0"
   bordercolor="#666666"
   pagecolor="#ffffff"
   id="base"
   showgrid="false"
   inkscape:zoom="1.0398005"
   inkscape:cx="234.1555"
   inkscape:cy="222.158"
   inkscape:window-x="65"
   inkscape:window-y="0"
   inkscape:current-layer="svg2837" />
	<style
   type="text/css"
   id="style2839">
	
		@font-face{font-family:'Times-Roman';src:url(48D24996.cef)}
	
	</style>
	
<g
   transform="matrix(2.0524742,0,0,2.0524742,-14.29343,-154.61469)"
   style="overflow:visible"
   id="g2858">
			<g
   id="g2860">
				<path
   id="path2862"
   d="M 116.008,124.638 C 127.24,114.198 134.729,106.35 138.328,101.238 C 143.872,93.39 147.328,83.958 148.84,72.87 C 150.352,61.71 149.2,51.198 145.456,41.262 C 143.152,35.142 138.184,26.142 130.624,14.19 L 141.784,15.702 C 149.559,25.71 154.384,32.046 156.256,34.782 C 158.056,37.518 159.928,41.118 161.944,45.582 C 164.608,51.774 166.192,58.182 166.696,64.806 C 166.912,68.262 166.84,71.502 166.408,74.526 C 164.896,85.902 160.648,95.694 153.736,103.83 C 149.343,109.014 140.632,116.43 127.599,126.15 L 116.008,124.638 z" />
				<path
   id="path2864"
   d="M 116.008,124.638 C 127.24,114.198 134.729,106.35 138.328,101.238 C 143.872,93.39 147.328,83.958 148.84,72.87 C 150.352,61.71 149.2,51.198 145.456,41.262 C 143.152,35.142 138.184,26.142 130.624,14.19 L 141.784,15.702 C 149.559,25.71 154.384,32.046 156.256,34.782 C 158.056,37.518 159.928,41.118 161.944,45.582 C 164.608,51.774 166.192,58.182 166.696,64.806 C 166.912,68.262 166.84,71.502 166.408,74.526 C 164.896,85.902 160.648,95.694 153.736,103.83 C 149.343,109.014 140.632,116.43 127.599,126.15 L 116.008,124.638 z"
   style="fill:none;stroke:#000000;stroke-width:7.9920001" />
				<path
   id="path2866"
   d="M 115.792,184.397 C 110.824,179.357 106.864,175.685 103.912,173.597 C 95.92,168.485 86.632,164.957 75.256,163.517 C 64.24,162.005 53.656,162.941 43.792,166.757 C 37.672,168.845 28.744,174.029 16.864,181.661 L 18.376,170.356 C 38.104,155.092 39.328,154.085 48.04,150.628 C 54.304,147.46 60.64,145.948 67.48,145.732 C 70.792,145.588 74.032,145.444 77.271,145.876 C 88.576,147.388 98.152,151.492 106.288,158.332 C 109.6,161.428 113.92,165.964 119.176,172.228 C 120.113,169.06 121.048,166.396 121.768,164.452 C 125.296,154.084 132.208,145.948 141.497,140.188 C 143.873,137.812 147.329,136.66 149.633,135.508 C 156.617,132.052 162.449,130.9 169.433,130.9 C 178.721,129.748 181.026,129.748 205.362,134.356 L 211.194,143.644 C 197.298,142.492 186.786,142.492 181.026,142.492 C 170.586,143.644 160.145,148.324 152.009,154.084 C 141.497,161.068 135.738,167.98 131.057,176.116 C 130.049,177.844 128.969,180.004 127.961,182.595 C 134.73,190.659 140.057,196.563 143.73,199.587 C 151.362,205.203 160.433,209.379 171.666,211.611 C 182.538,213.77 193.194,213.627 203.273,210.386 C 209.465,208.658 218.826,204.122 231.137,197.282 L 228.906,208.513 C 208.17,222.481 206.874,223.345 197.946,226.225 C 191.538,229.034 185.13,230.114 178.217,229.897 C 174.905,229.826 171.665,229.753 168.497,229.105 C 157.265,226.801 147.976,222.049 140.345,214.706 C 136.385,210.53 130.986,203.69 124.145,193.826 C 124.074,194.042 124.001,194.33 123.929,194.546 C 122.417,206.426 120.689,215.066 119.105,220.61 C 115.721,230.69 109.673,239.185 100.746,246.385 C 98.225,248.402 95.346,249.913 92.466,251.497 C 86.49,254.881 80.298,256.896 73.315,257.329 C 64.027,258.913 62.443,258.697 37.674,255.817 L 30.474,246.888 C 44.586,247.321 54.954,247.104 61.218,245.737 C 71.731,243.936 81.235,239.257 89.947,232.273 C 98.875,225.073 104.923,217.296 109.171,208.728 C 111.112,204.126 113.344,195.702 115.792,184.397 z"
   style="stroke:#000000;stroke-width:7.9920001" />
				<path
   id="path2868"
   d="M 129.04,252.798 C 117.16,262.518 109.24,269.79 105.28,274.686 C 99.232,282.102 95.128,291.318 92.896,302.262 C 90.664,313.279 91.095,323.863 94.192,334.014 C 96.064,340.279 100.383,349.638 107.223,362.022 L 96.207,359.791 C 89.079,349.279 84.686,342.583 82.959,339.774 C 81.375,336.966 79.719,333.222 78.063,328.615 C 75.758,322.279 74.607,315.799 74.535,309.102 C 74.607,305.646 74.895,302.407 75.471,299.455 C 77.776,288.15 82.671,278.719 90.087,271.087 C 94.839,266.191 103.983,259.351 117.663,250.495 L 129.04,252.798 z" />
				<path
   id="path2870"
   d="M 129.04,252.798 C 117.16,262.518 109.24,269.79 105.28,274.686 C 99.232,282.102 95.128,291.318 92.896,302.262 C 90.664,313.279 91.095,323.863 94.192,334.014 C 96.064,340.279 100.383,349.638 107.223,362.022 L 96.207,359.791 C 89.079,349.279 84.686,342.583 82.959,339.774 C 81.375,336.966 79.719,333.222 78.063,328.615 C 75.758,322.279 74.607,315.799 74.535,309.102 C 74.607,305.646 74.895,302.407 75.471,299.455 C 77.776,288.15 82.671,278.719 90.087,271.087 C 94.839,266.191 103.983,259.351 117.663,250.495 L 129.04,252.798 z"
   style="fill:none;stroke:#000000;stroke-width:7.9920001" />
				<path
   id="path2872"
   d="M 99.232,125.142 C 84.255,121.974 73.887,119.094 68.128,116.574 C 59.344,112.686 51.496,106.35 44.512,97.638 C 37.456,88.854 32.992,79.278 31.12,68.838 C 29.968,62.358 29.536,52.134 29.968,37.95 L 21.184,45.006 C 19.6,57.606 18.737,65.526 18.52,68.838 C 18.376,72.078 18.592,76.11 19.241,81.006 C 20.104,87.702 22.049,93.966 25.073,99.942 C 26.657,102.966 28.385,105.702 30.329,108.15 C 37.457,117.078 46.169,123.27 56.249,126.726 C 62.657,128.886 73.961,130.758 90.161,132.414 L 99.232,125.142 z" />
				<path
   id="path2874"
   d="M 99.232,125.142 C 84.255,121.974 73.887,119.094 68.128,116.574 C 59.344,112.686 51.496,106.35 44.512,97.638 C 37.456,88.854 32.992,79.278 31.12,68.838 C 29.968,62.358 29.536,52.134 29.968,37.95 L 21.184,45.006 C 19.6,57.606 18.737,65.526 18.52,68.838 C 18.376,72.078 18.592,76.11 19.241,81.006 C 20.104,87.702 22.049,93.966 25.073,99.942 C 26.657,102.966 28.385,105.702 30.329,108.15 C 37.457,117.078 46.169,123.27 56.249,126.726 C 62.657,128.886 73.961,130.758 90.161,132.414 L 99.232,125.142 z"
   style="fill:none;stroke:#000000;stroke-width:7.9920001" />
				<path
   id="path2876"
   d="M 151.936,249.198 C 166.697,253.374 176.92,256.901 182.464,259.853 C 190.96,264.246 198.376,271.085 204.784,280.229 C 211.192,289.517 215.008,299.381 216.232,309.893 C 216.952,316.446 216.664,326.669 215.295,340.782 L 224.583,334.374 C 226.959,321.918 228.327,313.998 228.759,310.758 C 229.119,307.518 229.192,303.486 228.831,298.518 C 228.471,291.823 226.959,285.414 224.295,279.294 C 222.927,276.126 221.415,273.246 219.615,270.726 C 213.063,261.294 204.855,254.598 194.991,250.495 C 188.727,247.902 177.567,245.239 161.511,242.575 L 151.936,249.198 z" />
				<path
   id="path2878"
   d="M 151.936,249.198 C 166.697,253.374 176.92,256.901 182.464,259.853 C 190.96,264.246 198.376,271.085 204.784,280.229 C 211.192,289.517 215.008,299.381 216.232,309.893 C 216.952,316.446 216.664,326.669 215.295,340.782 L 224.583,334.374 C 226.959,321.918 228.327,313.998 228.759,310.758 C 229.119,307.518 229.192,303.486 228.831,298.518 C 228.471,291.823 226.959,285.414 224.295,279.294 C 222.927,276.126 221.415,273.246 219.615,270.726 C 213.063,261.294 204.855,254.598 194.991,250.495 C 188.727,247.902 177.567,245.239 161.511,242.575 L 151.936,249.198 z"
   style="fill:none;stroke:#000000;stroke-width:7.9920001" />
			</g>
			<path
   id="path2880"
   d="M 207.088,151.926 C 217.24,151.926 225.52,160.206 225.52,170.286 C 225.52,180.437 217.241,188.718 207.088,188.718 C 196.864,188.718 188.584,180.438 188.584,170.286 C 188.584,160.206 196.864,151.926 207.088,151.926 z"
   style="stroke:#000000;stroke-width:0.21600001" />
			<path
   id="path2882"
   d="M 47.968,185.91 C 58.12,185.91 66.401,194.189 66.401,204.342 C 66.401,214.495 58.121,222.846 47.968,222.846 C 37.817,222.846 29.536,214.494 29.536,204.342 C 29.536,194.19 37.816,185.91 47.968,185.91 z"
   style="stroke:#000000;stroke-width:0.21600001" />
			<g
   id="g2884">
				<g
   id="g2886">
					<path
   id="path2888"
   d="M 110.176,115.566 C 121.408,105.054 128.824,97.278 132.496,92.166 C 137.968,84.318 141.496,74.814 142.935,63.798 C 144.448,52.638 143.368,42.054 139.623,32.19 C 137.247,26.07 132.351,17.07 124.719,5.118 L 135.879,6.63 C 143.655,16.638 148.48,22.974 150.351,25.71 C 152.152,28.374 154.095,31.974 156.039,36.51 C 158.703,42.702 160.287,49.11 160.791,55.734 C 161.007,59.19 160.935,62.43 160.503,65.454 C 158.991,76.83 154.743,86.622 147.831,94.758 C 143.439,99.87 134.727,107.358 121.695,117.078 L 110.176,115.566 z"
   style="fill:#9ed8a1" />
					<path
   id="path2890"
   d="M 110.176,115.566 C 121.408,105.054 128.824,97.278 132.496,92.166 C 137.968,84.318 141.496,74.814 142.935,63.798 C 144.448,52.638 143.368,42.054 139.623,32.19 C 137.247,26.07 132.351,17.07 124.719,5.118 L 135.879,6.63 C 143.655,16.638 148.48,22.974 150.351,25.71 C 152.152,28.374 154.095,31.974 156.039,36.51 C 158.703,42.702 160.287,49.11 160.791,55.734 C 161.007,59.19 160.935,62.43 160.503,65.454 C 158.991,76.83 154.743,86.622 147.831,94.758 C 143.439,99.87 134.727,107.358 121.695,117.078 L 110.176,115.566 z"
   style="fill:none;stroke:#919100;stroke-width:7.9920001" />
					<path
   id="path2892"
   d="M 109.96,175.254 C 104.992,170.286 100.96,166.614 98.008,164.454 C 90.016,159.486 80.729,155.886 69.352,154.374 C 58.336,152.934 47.752,153.87 37.888,157.758 C 31.84,159.846 22.84,164.886 10.96,172.59 L 12.472,161.286 C 32.201,146.022 33.424,145.014 42.208,141.558 C 48.4,138.318 54.736,136.878 61.648,136.59 C 64.887,136.446 68.127,136.302 71.368,136.734 C 82.672,138.246 92.248,142.422 100.384,149.262 C 103.696,152.286 108.016,156.894 113.272,163.23 C 114.209,159.99 115.144,157.398 115.936,155.454 C 119.392,145.014 126.376,136.878 135.665,131.046 C 137.969,128.742 141.425,127.59 143.801,126.438 C 150.713,122.91 156.545,121.758 163.53,121.758 C 172.818,120.606 175.122,120.606 199.53,125.286 L 205.29,134.574 C 191.394,133.422 180.954,133.422 175.122,133.422 C 164.682,134.574 154.242,139.182 146.105,145.014 C 135.666,151.998 129.834,158.91 125.225,166.974 C 124.145,168.703 123.066,170.934 122.057,173.526 C 128.826,181.59 134.154,187.495 137.898,190.518 C 145.53,196.134 154.53,200.239 165.761,202.542 C 176.633,204.702 187.289,204.485 197.442,201.246 C 203.633,199.59 212.921,195.054 225.234,188.142 L 223,199.374 C 202.264,213.342 201.04,214.278 192.04,217.158 C 185.632,219.966 179.224,220.973 172.312,220.758 C 169.072,220.686 165.759,220.614 162.591,219.966 C 151.36,217.734 142.143,212.982 134.44,205.566 C 130.48,201.39 125.08,194.55 118.24,184.758 C 118.168,184.974 118.095,185.19 118.024,185.478 C 116.511,197.358 114.856,205.999 113.2,211.542 C 109.816,221.55 103.767,230.118 94.84,237.246 C 92.32,239.262 89.441,240.846 86.632,242.43 C 80.584,245.814 74.392,247.83 67.408,248.262 C 58.12,249.846 56.536,249.63 31.767,246.75 L 24.568,237.822 C 38.679,238.254 49.047,237.966 55.312,236.67 C 65.824,234.87 75.328,230.118 84.04,223.206 C 92.968,216.006 99.088,208.158 103.264,199.662 C 105.28,194.981 107.44,186.63 109.96,175.254 z"
   style="fill:#9ed8a1;stroke:#919100;stroke-width:7.9920001" />
					<path
   id="path2894"
   d="M 123.208,243.726 C 111.256,253.374 103.336,260.646 99.376,265.542 C 93.328,273.03 89.224,282.246 86.992,293.189 C 84.76,304.206 85.192,314.79 88.288,324.941 C 90.16,331.206 94.552,340.494 101.32,352.878 L 90.303,350.646 C 83.175,340.207 78.783,333.51 77.127,330.703 C 75.471,327.823 73.815,324.15 72.159,319.543 C 69.855,313.207 68.703,306.655 68.703,300.031 C 68.703,296.575 68.991,293.335 69.567,290.31 C 71.871,279.079 76.766,269.575 84.182,261.942 C 88.934,257.119 98.151,250.207 111.758,241.422 L 123.208,243.726 z"
   style="fill:#9ed8a1" />
					<path
   id="path2896"
   d="M 123.208,243.726 C 111.256,253.374 103.336,260.646 99.376,265.542 C 93.328,273.03 89.224,282.246 86.992,293.189 C 84.76,304.206 85.192,314.79 88.288,324.941 C 90.16,331.206 94.552,340.494 101.32,352.878 L 90.303,350.646 C 83.175,340.207 78.783,333.51 77.127,330.703 C 75.471,327.823 73.815,324.15 72.159,319.543 C 69.855,313.207 68.703,306.655 68.703,300.031 C 68.703,296.575 68.991,293.335 69.567,290.31 C 71.871,279.079 76.766,269.575 84.182,261.942 C 88.934,257.119 98.151,250.207 111.758,241.422 L 123.208,243.726 z"
   style="fill:none;stroke:#919100;stroke-width:7.9920001" />
					<path
   id="path2898"
   d="M 93.4,116.07 C 78.351,112.83 67.984,110.022 62.223,107.502 C 53.44,103.614 45.591,97.278 38.608,88.566 C 31.551,79.782 27.087,70.134 25.215,59.694 C 24.064,53.286 23.703,42.99 24.064,28.878 L 15.28,35.934 C 13.696,48.534 12.832,56.454 12.687,59.694 C 12.471,63.006 12.759,67.038 13.335,71.934 C 14.199,78.558 16.143,84.894 19.167,90.87 C 20.751,93.894 22.479,96.63 24.423,99.006 C 31.551,108.006 40.263,114.198 50.343,117.582 C 56.823,119.742 68.127,121.686 84.255,123.342 L 93.4,116.07 z"
   style="fill:#9ed8a1" />
					<path
   id="path2900"
   d="M 93.4,116.07 C 78.351,112.83 67.984,110.022 62.223,107.502 C 53.44,103.614 45.591,97.278 38.608,88.566 C 31.551,79.782 27.087,70.134 25.215,59.694 C 24.064,53.286 23.703,42.99 24.064,28.878 L 15.28,35.934 C 13.696,48.534 12.832,56.454 12.687,59.694 C 12.471,63.006 12.759,67.038 13.335,71.934 C 14.199,78.558 16.143,84.894 19.167,90.87 C 20.751,93.894 22.479,96.63 24.423,99.006 C 31.551,108.006 40.263,114.198 50.343,117.582 C 56.823,119.742 68.127,121.686 84.255,123.342 L 93.4,116.07 z"
   style="fill:none;stroke:#919100;stroke-width:7.9920001" />
					<path
   id="path2902"
   d="M 146.032,240.126 C 160.864,244.302 171.015,247.83 176.632,250.71 C 185.128,255.174 192.472,262.014 198.88,271.158 C 205.288,280.374 209.104,290.309 210.328,300.822 C 211.048,307.301 210.76,317.597 209.464,331.71 L 218.68,325.23 C 221.056,312.774 222.496,304.926 222.857,301.686 C 223.216,298.447 223.289,294.342 223.001,289.447 C 222.569,282.751 221.057,276.343 218.465,270.15 C 217.026,266.982 215.513,264.174 213.785,261.655 C 207.161,252.222 198.953,245.455 189.089,241.423 C 182.825,238.831 171.665,236.167 155.61,233.431 L 146.032,240.126 z"
   style="fill:#9ed8a1" />
					<path
   id="path2904"
   d="M 146.032,240.126 C 160.864,244.302 171.015,247.83 176.632,250.71 C 185.128,255.174 192.472,262.014 198.88,271.158 C 205.288,280.374 209.104,290.309 210.328,300.822 C 211.048,307.301 210.76,317.597 209.464,331.71 L 218.68,325.23 C 221.056,312.774 222.496,304.926 222.857,301.686 C 223.216,298.447 223.289,294.342 223.001,289.447 C 222.569,282.751 221.057,276.343 218.465,270.15 C 217.026,266.982 215.513,264.174 213.785,261.655 C 207.161,252.222 198.953,245.455 189.089,241.423 C 182.825,238.831 171.665,236.167 155.61,233.431 L 146.032,240.126 z"
   style="fill:none;stroke:#919100;stroke-width:7.9920001" />
				</g>
				<path
   id="path2906"
   d="M 210.976,144.51 C 221.128,144.51 229.409,152.862 229.409,163.014 C 229.409,173.094 221.129,181.374 210.976,181.374 C 200.752,181.374 192.472,173.094 192.472,163.014 C 192.472,152.862 200.752,144.51 210.976,144.51 z"
   style="fill:#ff1300" />
				<path
   id="path2908"
   d="M 49.768,175.974 C 59.993,175.974 68.272,184.254 68.272,194.407 C 68.272,204.558 59.993,212.839 49.768,212.839 C 39.617,212.839 31.336,204.559 31.336,194.407 C 31.336,184.254 39.616,175.974 49.768,175.974 z"
   style="fill:#ff1300" />
			</g>
		</g></svg>