<?xml version="1.0" encoding="iso-8859-1"?>
<!-- Generator: Adobe Illustrator 10, SVG Export Plug-In . SVG Version: 3.0.0 Build 76)  -->
<!DOCTYPE svg PUBLIC "-//W3C//DTD SVG 1.0//EN"    "http://www.w3.org/TR/2001/REC-SVG-20010904/DTD/svg10.dtd" [
	<!ENTITY ns_flows "http://ns.adobe.com/Flows/1.0/">
	<!ENTITY ns_svg "http://www.w3.org/2000/svg">
	<!ENTITY ns_xlink "http://www.w3.org/1999/xlink">
]>
<svg  xmlns="&ns_svg;" xmlns:xlink="&ns_xlink;" xmlns:a="http://ns.adobe.com/AdobeSVGViewerExtensions/3.0/"
	 width="468.311" height="444.316" viewBox="0 0 468.311 444.316"
	 style="overflow:visible;enable-background:new 0 0 468.311 444.316" xml:space="preserve">
	<style type="text/css">
	<![CDATA[
		@font-face{font-family:'Times-Roman';src:url(48D24996.cef)}
	]]>
	</style>
	<g id="Layer_1">
		<text transform="matrix(1 0 0 1 0 381.3535)"><tspan x="0" y="0" style="font-family:'Times-Roman'; font-size:12;">&quot;Untitled 1&quot;</tspan><tspan x="0" y="14.5" style="font-family:'Times-Roman'; font-size:12;">Copyright </tspan><tspan x="51.668" y="14.5" style="font-family:'Times-Roman'; font-size:12;">&#xA9;</tspan><tspan x="60.785" y="14.5" style="font-family:'Times-Roman'; font-size:12;"> 2000 Rob Myers http://www.robmyers.org/ .</tspan><tspan x="0" y="29" style="font-family:'Times-Roman'; font-size:12;">This work is licensed under the Creative Commons Attribution-ShareAlike License.</tspan><tspan x="0" y="43.5" style="font-family:'Times-Roman'; font-size:12;">To view a copy of this license, visit http://creativecommons.org/licenses/by-sa/1.0/ </tspan><tspan x="0" y="58" style="font-family:'Times-Roman'; font-size:12;">or send a letter to Creative Commons, 559 Nathan Abbott Way, Stanford, California 94305, USA.</tspan></text>
		<g>
			<g>
				<path d="M116.008,124.638c11.232-10.44,18.721-18.288,22.32-23.4c5.544-7.848,9-17.28,10.512-28.368
					c1.512-11.16,0.36-21.672-3.384-31.608c-2.304-6.12-7.272-15.12-14.832-27.072l11.16,1.512
					c7.775,10.008,12.6,16.344,14.472,19.08c1.8,2.736,3.672,6.336,5.688,10.8c2.664,6.192,4.248,12.6,4.752,19.224
					c0.216,3.456,0.144,6.696-0.288,9.72c-1.512,11.376-5.76,21.168-12.672,29.304c-4.393,5.184-13.104,12.6-26.137,22.32
					L116.008,124.638z"/>
				<path style="fill:none;stroke:#000000;stroke-width:7.992;" d="M116.008,124.638c11.232-10.44,18.721-18.288,22.32-23.4
					c5.544-7.848,9-17.28,10.512-28.368c1.512-11.16,0.36-21.672-3.384-31.608c-2.304-6.12-7.272-15.12-14.832-27.072l11.16,1.512
					c7.775,10.008,12.6,16.344,14.472,19.08c1.8,2.736,3.672,6.336,5.688,10.8c2.664,6.192,4.248,12.6,4.752,19.224
					c0.216,3.456,0.144,6.696-0.288,9.72c-1.512,11.376-5.76,21.168-12.672,29.304c-4.393,5.184-13.104,12.6-26.137,22.32
					L116.008,124.638z"/>
				<path style="stroke:#000000;stroke-width:7.992;" d="M115.792,184.397c-4.968-5.04-8.928-8.712-11.88-10.8
					c-7.992-5.112-17.28-8.64-28.656-10.08c-11.016-1.512-21.6-0.576-31.464,3.24c-6.12,2.088-15.048,7.272-26.928,14.904
					l1.512-11.305c19.728-15.264,20.952-16.271,29.664-19.728c6.264-3.168,12.6-4.68,19.44-4.896
					c3.312-0.144,6.552-0.288,9.791,0.144c11.305,1.512,20.881,5.616,29.017,12.456c3.312,3.096,7.632,7.632,12.888,13.896
					c0.937-3.168,1.872-5.832,2.592-7.776c3.528-10.368,10.44-18.504,19.729-24.264c2.376-2.376,5.832-3.528,8.136-4.68
					c6.984-3.456,12.816-4.608,19.8-4.608c9.288-1.152,11.593-1.152,35.929,3.456l5.832,9.288
					c-13.896-1.152-24.408-1.152-30.168-1.152c-10.44,1.152-20.881,5.832-29.017,11.592c-10.512,6.984-16.271,13.896-20.952,22.032
					c-1.008,1.728-2.088,3.888-3.096,6.479c6.769,8.064,12.096,13.968,15.769,16.992c7.632,5.616,16.703,9.792,27.936,12.024
					c10.872,2.159,21.528,2.016,31.607-1.225c6.192-1.728,15.553-6.264,27.864-13.104l-2.231,11.231
					c-20.736,13.968-22.032,14.832-30.96,17.712c-6.408,2.809-12.816,3.889-19.729,3.672c-3.312-0.071-6.552-0.144-9.72-0.792
					c-11.232-2.304-20.521-7.056-28.152-14.399c-3.96-4.176-9.359-11.016-16.2-20.88c-0.071,0.216-0.144,0.504-0.216,0.72
					c-1.512,11.88-3.24,20.52-4.824,26.064c-3.384,10.08-9.432,18.575-18.359,25.775c-2.521,2.017-5.4,3.528-8.28,5.112
					c-5.976,3.384-12.168,5.399-19.151,5.832c-9.288,1.584-10.872,1.368-35.641-1.512l-7.2-8.929
					c14.112,0.433,24.48,0.216,30.744-1.151c10.513-1.801,20.017-6.48,28.729-13.464c8.928-7.2,14.976-14.977,19.224-23.545
					C111.112,204.126,113.344,195.702,115.792,184.397z"/>
				<path d="M129.04,252.798c-11.88,9.72-19.8,16.992-23.76,21.888c-6.048,7.416-10.152,16.632-12.384,27.576
					c-2.232,11.017-1.801,21.601,1.296,31.752c1.872,6.265,6.191,15.624,13.031,28.008l-11.016-2.231
					c-7.128-10.512-11.521-17.208-13.248-20.017c-1.584-2.808-3.24-6.552-4.896-11.159c-2.305-6.336-3.456-12.816-3.528-19.513
					c0.072-3.456,0.36-6.695,0.936-9.647c2.305-11.305,7.2-20.736,14.616-28.368c4.752-4.896,13.896-11.736,27.576-20.592
					L129.04,252.798z"/>
				<path style="fill:none;stroke:#000000;stroke-width:7.992;" d="M129.04,252.798c-11.88,9.72-19.8,16.992-23.76,21.888
					c-6.048,7.416-10.152,16.632-12.384,27.576c-2.232,11.017-1.801,21.601,1.296,31.752c1.872,6.265,6.191,15.624,13.031,28.008
					l-11.016-2.231c-7.128-10.512-11.521-17.208-13.248-20.017c-1.584-2.808-3.24-6.552-4.896-11.159
					c-2.305-6.336-3.456-12.816-3.528-19.513c0.072-3.456,0.36-6.695,0.936-9.647c2.305-11.305,7.2-20.736,14.616-28.368
					c4.752-4.896,13.896-11.736,27.576-20.592L129.04,252.798z"/>
				<path d="M99.232,125.142c-14.977-3.168-25.345-6.048-31.104-8.568c-8.784-3.888-16.632-10.224-23.616-18.936
					c-7.056-8.784-11.52-18.36-13.392-28.8c-1.152-6.48-1.584-16.704-1.152-30.888l-8.784,7.056
					c-1.584,12.6-2.447,20.52-2.664,23.832c-0.144,3.24,0.072,7.272,0.721,12.168c0.863,6.696,2.808,12.96,5.832,18.936
					c1.584,3.024,3.312,5.76,5.256,8.208c7.128,8.928,15.84,15.12,25.92,18.576c6.408,2.16,17.712,4.032,33.912,5.688
					L99.232,125.142z"/>
				<path style="fill:none;stroke:#000000;stroke-width:7.992;" d="M99.232,125.142c-14.977-3.168-25.345-6.048-31.104-8.568
					c-8.784-3.888-16.632-10.224-23.616-18.936c-7.056-8.784-11.52-18.36-13.392-28.8c-1.152-6.48-1.584-16.704-1.152-30.888
					l-8.784,7.056c-1.584,12.6-2.447,20.52-2.664,23.832c-0.144,3.24,0.072,7.272,0.721,12.168
					c0.863,6.696,2.808,12.96,5.832,18.936c1.584,3.024,3.312,5.76,5.256,8.208c7.128,8.928,15.84,15.12,25.92,18.576
					c6.408,2.16,17.712,4.032,33.912,5.688L99.232,125.142z"/>
				<path d="M151.936,249.198c14.761,4.176,24.984,7.703,30.528,10.655c8.496,4.393,15.912,11.232,22.32,20.376
					c6.408,9.288,10.224,19.152,11.448,29.664c0.72,6.553,0.432,16.776-0.937,30.889l9.288-6.408
					c2.376-12.456,3.744-20.376,4.176-23.616c0.36-3.24,0.433-7.272,0.072-12.24c-0.36-6.695-1.872-13.104-4.536-19.224
					c-1.368-3.168-2.88-6.048-4.68-8.568c-6.552-9.432-14.76-16.128-24.624-20.231c-6.264-2.593-17.424-5.256-33.48-7.92
					L151.936,249.198z"/>
				<path style="fill:none;stroke:#000000;stroke-width:7.992;" d="M151.936,249.198c14.761,4.176,24.984,7.703,30.528,10.655
					c8.496,4.393,15.912,11.232,22.32,20.376c6.408,9.288,10.224,19.152,11.448,29.664c0.72,6.553,0.432,16.776-0.937,30.889
					l9.288-6.408c2.376-12.456,3.744-20.376,4.176-23.616c0.36-3.24,0.433-7.272,0.072-12.24c-0.36-6.695-1.872-13.104-4.536-19.224
					c-1.368-3.168-2.88-6.048-4.68-8.568c-6.552-9.432-14.76-16.128-24.624-20.231c-6.264-2.593-17.424-5.256-33.48-7.92
					L151.936,249.198z"/>
			</g>
			<path style="stroke:#000000;stroke-width:0.216;" d="M207.088,151.926c10.152,0,18.432,8.28,18.432,18.36
				c0,10.151-8.279,18.432-18.432,18.432c-10.224,0-18.504-8.28-18.504-18.432C188.584,160.206,196.864,151.926,207.088,151.926z"/>
			<path style="stroke:#000000;stroke-width:0.216;" d="M47.968,185.91c10.152,0,18.433,8.279,18.433,18.432
				s-8.28,18.504-18.433,18.504c-10.151,0-18.432-8.352-18.432-18.504S37.816,185.91,47.968,185.91z"/>
			<g>
				<g>
					<path style="fill:#9ED8A1;" d="M110.176,115.566c11.232-10.512,18.648-18.288,22.32-23.4c5.472-7.848,9-17.352,10.439-28.368
						c1.513-11.16,0.433-21.744-3.312-31.608c-2.376-6.12-7.272-15.12-14.904-27.072l11.16,1.512
						c7.776,10.008,12.601,16.344,14.472,19.08c1.801,2.664,3.744,6.264,5.688,10.8c2.664,6.192,4.248,12.6,4.752,19.224
						c0.216,3.456,0.144,6.696-0.288,9.72c-1.512,11.376-5.76,21.168-12.672,29.304c-4.392,5.112-13.104,12.6-26.136,22.32
						L110.176,115.566z"/>
					<path style="fill:none;stroke:#919100;stroke-width:7.992;" d="M110.176,115.566c11.232-10.512,18.648-18.288,22.32-23.4
						c5.472-7.848,9-17.352,10.439-28.368c1.513-11.16,0.433-21.744-3.312-31.608c-2.376-6.12-7.272-15.12-14.904-27.072
						l11.16,1.512c7.776,10.008,12.601,16.344,14.472,19.08c1.801,2.664,3.744,6.264,5.688,10.8
						c2.664,6.192,4.248,12.6,4.752,19.224c0.216,3.456,0.144,6.696-0.288,9.72c-1.512,11.376-5.76,21.168-12.672,29.304
						c-4.392,5.112-13.104,12.6-26.136,22.32L110.176,115.566z"/>
					<path style="fill:#9ED8A1;stroke:#919100;stroke-width:7.992;" d="M109.96,175.254c-4.968-4.968-9-8.64-11.952-10.8
						c-7.992-4.968-17.279-8.568-28.656-10.08c-11.016-1.44-21.6-0.504-31.464,3.384c-6.048,2.088-15.048,7.128-26.928,14.832
						l1.512-11.304c19.729-15.264,20.952-16.272,29.736-19.728c6.192-3.24,12.528-4.68,19.44-4.968
						c3.239-0.144,6.479-0.288,9.72,0.144c11.304,1.512,20.88,5.688,29.016,12.528c3.312,3.024,7.632,7.632,12.888,13.968
						c0.937-3.24,1.872-5.832,2.664-7.776c3.456-10.44,10.44-18.576,19.729-24.408c2.304-2.304,5.76-3.456,8.136-4.608
						c6.912-3.528,12.744-4.68,19.729-4.68c9.288-1.152,11.592-1.152,36,3.528l5.76,9.288c-13.896-1.152-24.336-1.152-30.168-1.152
						c-10.44,1.152-20.88,5.76-29.017,11.592c-10.439,6.984-16.271,13.896-20.88,21.96c-1.08,1.729-2.159,3.96-3.168,6.552
						c6.769,8.064,12.097,13.969,15.841,16.992c7.632,5.616,16.632,9.721,27.863,12.024c10.872,2.16,21.528,1.943,31.681-1.296
						c6.191-1.656,15.479-6.192,27.792-13.104L223,199.374c-20.736,13.968-21.96,14.904-30.96,17.784
						c-6.408,2.808-12.816,3.815-19.728,3.6c-3.24-0.072-6.553-0.144-9.721-0.792c-11.231-2.232-20.448-6.984-28.151-14.4
						c-3.96-4.176-9.36-11.016-16.2-20.808c-0.072,0.216-0.145,0.432-0.216,0.72c-1.513,11.88-3.168,20.521-4.824,26.064
						c-3.384,10.008-9.433,18.576-18.36,25.704c-2.52,2.016-5.399,3.6-8.208,5.184c-6.048,3.384-12.24,5.4-19.224,5.832
						c-9.288,1.584-10.872,1.368-35.641-1.512l-7.199-8.928c14.111,0.432,24.479,0.144,30.744-1.152
						c10.512-1.8,20.016-6.552,28.728-13.464c8.928-7.2,15.048-15.048,19.224-23.544C105.28,194.981,107.44,186.63,109.96,175.254z"
						/>
					<path style="fill:#9ED8A1;" d="M123.208,243.726c-11.952,9.648-19.872,16.92-23.832,21.816
						c-6.048,7.488-10.152,16.704-12.384,27.647c-2.232,11.017-1.8,21.601,1.296,31.752c1.872,6.265,6.264,15.553,13.032,27.937
						l-11.017-2.232c-7.128-10.439-11.52-17.136-13.176-19.943c-1.656-2.88-3.312-6.553-4.968-11.16
						c-2.304-6.336-3.456-12.888-3.456-19.512c0-3.456,0.288-6.696,0.864-9.721c2.304-11.231,7.199-20.735,14.615-28.368
						c4.752-4.823,13.969-11.735,27.576-20.52L123.208,243.726z"/>
					<path style="fill:none;stroke:#919100;stroke-width:7.992;" d="M123.208,243.726c-11.952,9.648-19.872,16.92-23.832,21.816
						c-6.048,7.488-10.152,16.704-12.384,27.647c-2.232,11.017-1.8,21.601,1.296,31.752c1.872,6.265,6.264,15.553,13.032,27.937
						l-11.017-2.232c-7.128-10.439-11.52-17.136-13.176-19.943c-1.656-2.88-3.312-6.553-4.968-11.16
						c-2.304-6.336-3.456-12.888-3.456-19.512c0-3.456,0.288-6.696,0.864-9.721c2.304-11.231,7.199-20.735,14.615-28.368
						c4.752-4.823,13.969-11.735,27.576-20.52L123.208,243.726z"/>
					<path style="fill:#9ED8A1;" d="M93.4,116.07c-15.049-3.24-25.416-6.048-31.177-8.568c-8.783-3.888-16.632-10.224-23.615-18.936
						c-7.057-8.784-11.521-18.432-13.393-28.872c-1.151-6.408-1.512-16.704-1.151-30.816l-8.784,7.056
						c-1.584,12.6-2.448,20.52-2.593,23.76c-0.216,3.312,0.072,7.344,0.648,12.24c0.864,6.624,2.808,12.96,5.832,18.936
						c1.584,3.024,3.312,5.76,5.256,8.136c7.128,9,15.84,15.192,25.92,18.576c6.48,2.16,17.784,4.104,33.912,5.76L93.4,116.07z"/>
					<path style="fill:none;stroke:#919100;stroke-width:7.992;" d="M93.4,116.07c-15.049-3.24-25.416-6.048-31.177-8.568
						c-8.783-3.888-16.632-10.224-23.615-18.936c-7.057-8.784-11.521-18.432-13.393-28.872c-1.151-6.408-1.512-16.704-1.151-30.816
						l-8.784,7.056c-1.584,12.6-2.448,20.52-2.593,23.76c-0.216,3.312,0.072,7.344,0.648,12.24
						c0.864,6.624,2.808,12.96,5.832,18.936c1.584,3.024,3.312,5.76,5.256,8.136c7.128,9,15.84,15.192,25.92,18.576
						c6.48,2.16,17.784,4.104,33.912,5.76L93.4,116.07z"/>
					<path style="fill:#9ED8A1;" d="M146.032,240.126c14.832,4.176,24.983,7.704,30.6,10.584
						c8.496,4.464,15.84,11.304,22.248,20.448c6.408,9.216,10.224,19.151,11.448,29.664c0.72,6.479,0.432,16.775-0.864,30.888
						l9.216-6.48c2.376-12.456,3.816-20.304,4.177-23.544c0.359-3.239,0.432-7.344,0.144-12.239
						c-0.432-6.696-1.944-13.104-4.536-19.297c-1.439-3.168-2.952-5.976-4.68-8.495c-6.624-9.433-14.832-16.2-24.696-20.232
						c-6.264-2.592-17.424-5.256-33.479-7.992L146.032,240.126z"/>
					<path style="fill:none;stroke:#919100;stroke-width:7.992;" d="M146.032,240.126c14.832,4.176,24.983,7.704,30.6,10.584
						c8.496,4.464,15.84,11.304,22.248,20.448c6.408,9.216,10.224,19.151,11.448,29.664c0.72,6.479,0.432,16.775-0.864,30.888
						l9.216-6.48c2.376-12.456,3.816-20.304,4.177-23.544c0.359-3.239,0.432-7.344,0.144-12.239
						c-0.432-6.696-1.944-13.104-4.536-19.297c-1.439-3.168-2.952-5.976-4.68-8.495c-6.624-9.433-14.832-16.2-24.696-20.232
						c-6.264-2.592-17.424-5.256-33.479-7.992L146.032,240.126z"/>
				</g>
				<path style="fill:#FF1300;" d="M210.976,144.51c10.152,0,18.433,8.352,18.433,18.504c0,10.08-8.28,18.36-18.433,18.36
					c-10.224,0-18.504-8.28-18.504-18.36C192.472,152.862,200.752,144.51,210.976,144.51z"/>
				<path style="fill:#FF1300;" d="M49.768,175.974c10.225,0,18.504,8.28,18.504,18.433c0,10.151-8.279,18.432-18.504,18.432
					c-10.151,0-18.432-8.28-18.432-18.432C31.336,184.254,39.616,175.974,49.768,175.974z"/>
			</g>
		</g>
	</g>
</svg>
