<?xml version="1.0" encoding="iso-8859-1"?>
<!-- Generator: Adobe Illustrator 10, SVG Export Plug-In . SVG Version: 3.0.0 Build 76)  -->
<!DOCTYPE svg PUBLIC "-//W3C//DTD SVG 1.0//EN"    "http://www.w3.org/TR/2001/REC-SVG-20010904/DTD/svg10.dtd" [
	<!ENTITY ns_flows "http://ns.adobe.com/Flows/1.0/">
	<!ENTITY ns_svg "http://www.w3.org/2000/svg">
	<!ENTITY ns_xlink "http://www.w3.org/1999/xlink">
]>
<svg  xmlns="&ns_svg;" xmlns:xlink="&ns_xlink;" xmlns:a="http://ns.adobe.com/AdobeSVGViewerExtensions/3.0/"
	 width="528.484" height="627.47" viewBox="0 0 528.484 627.47" style="overflow:visible;enable-background:new 0 0 528.484 627.47"
	 xml:space="preserve">
	<style type="text/css">
	<![CDATA[
		@font-face{font-family:'Times-Roman';src:url(E0FFD4D9.cef)}
	]]>
	</style>
	<g id="Layer_1">
		<text transform="matrix(1 0 0 1 0 564.5073)"><tspan x="0" y="0" style="font-family:'Times-Roman'; font-size:12;">&quot;Untitled 2&quot;</tspan><tspan x="0" y="14.5" style="font-family:'Times-Roman'; font-size:12;">Copyright </tspan><tspan x="51.668" y="14.5" style="font-family:'Times-Roman'; font-size:12;">&#xA9;</tspan><tspan x="60.785" y="14.5" style="font-family:'Times-Roman'; font-size:12;"> 2000 Rob Myers http://www.robmyers.org/ .</tspan><tspan x="0" y="29" style="font-family:'Times-Roman'; font-size:12;">This work is licensed under the Creative Commons Attribution-ShareAlike License.</tspan><tspan x="0" y="43.5" style="font-family:'Times-Roman'; font-size:12;">To view a copy of this license, visit http://creativecommons.org/licenses/by-sa/1.0/ </tspan><tspan x="0" y="58" style="font-family:'Times-Roman'; font-size:12;">or send a letter to Creative Commons, 559 Nathan Abbott Way, Stanford, California 94305, USA.</tspan></text>
		<g>
			<g>
				<path d="M379.768,222.967c10.152,0,18.433,8.28,18.433,18.433c0,10.151-8.28,18.432-18.433,18.432
					c-2.231,0-4.319-0.36-6.264-1.08v-34.704C375.448,223.328,377.536,222.967,379.768,222.967z M373.504,519.751v-21.384
					c11.88,12.888,29.592,28.512,51.552,48.528l-12.815,4.607C393.376,536.167,381.64,526.591,373.504,519.751z M373.504,462.44
					c8.424,6.695,17.424,13.248,27.145,19.439c20.88,13.896,19.728,12.744,76.607,41.76l12.816-6.983
					c-30.24-17.353-53.424-30.168-68.544-41.76c-16.776-11.736-32.328-24.769-48.024-40.248V462.44z M373.504,416.648v-26.424
					c23.328,18.647,46.8,34.128,71.28,46.367c16.271,9.288,40.607,19.729,73.151,31.32l-11.664,9.288
					c-60.336-20.88-59.184-19.729-81.216-30.168C405.76,438.175,388.696,427.664,373.504,416.648z M373.504,320.456v-15.696
					c3.96-0.359,7.92-1.151,11.809-2.447c6.191-1.656,15.479-6.192,27.863-13.104l-2.304,11.232
					c-20.664,13.968-21.96,14.903-30.888,17.784C377.824,319.16,375.664,319.879,373.504,320.456z M373.504,187.4v-9.433
					c1.729,0.36,3.6,0.648,5.616,1.08l6.552,9.36C381.208,187.976,377.176,187.616,373.504,187.4z M373.504,258.751
					c-7.128-2.592-12.24-9.432-12.24-17.352c0-7.992,5.112-14.832,12.24-17.353V258.751z M373.504,177.967
					c-19.224-3.527-21.24-3.672-29.88-2.808c-6.984,0-13.248,1.584-19.512,4.536c-2.952,1.368-5.904,2.736-8.568,4.607
					c-9.36,6.553-15.984,14.616-20.016,24.48c-2.376,6.552-5.185,17.568-7.992,33.552l6.84,9.864
					c4.104-14.76,7.56-25.561,10.296-30.96c4.752-8.208,11.376-15.624,20.736-22.176c9.144-6.336,18.936-10.44,29.52-11.521
					c4.32-0.647,10.584-0.647,18.576-0.144V177.967z M373.504,304.759v15.696c-4.32,1.08-8.712,1.512-13.248,1.368
					c-3.312-0.072-6.552-0.145-9.72-0.792c-11.232-2.232-20.521-6.984-28.152-14.4c-4.824-5.04-11.808-14.04-20.735-27.504
					l2.376-11.808c9.647,11.88,17.063,20.376,21.743,24.264c7.633,5.616,16.704,9.72,27.937,12.024
					C360.4,304.904,367.024,305.335,373.504,304.759z M373.504,390.224c-1.008-0.792-2.016-1.585-3.023-2.448
					c-24.408-19.729-44.137-39.456-58.104-56.88c-9.288-11.593-22.032-32.473-39.456-61.488c0,0-6.984-47.664-8.136-53.424
					c-6.984-24.408-17.424-49.968-33.624-77.832c-12.816-22.032-29.088-45.288-49.968-66.168
					c-14.185-14.185-16.057-16.057-43.416-38.376v18.216c8.208,7.992,14.903,14.976,20.231,21.312
					c19.729,20.952,37.152,45.288,53.353,73.152c13.968,24.408,24.407,47.592,31.392,67.392c-1.152-2.376-2.304-4.68-2.304-6.983
					C228.784,183.44,212.584,161.408,190.48,137c-14.832-15.768-32.112-31.607-52.704-46.008v24.768
					c11.376,10.08,22.607,21.24,34.128,34.057c18.576,19.728,32.544,38.304,44.136,55.728
					c-12.744-13.968-26.712-27.864-44.136-41.832c-10.44-8.567-21.816-16.848-34.128-24.552v24.264
					c6.264,4.536,12.6,9.288,19.08,14.256c24.336,19.729,42.911,39.456,56.88,56.881c10.439,12.743,23.184,32.472,40.607,61.487
					c2.305,23.256,4.681,40.681,8.137,53.424c5.832,24.408,17.424,49.969,33.695,77.832c12.744,22.032,29.017,45.288,49.896,66.168
					c10.151,10.801,13.968,14.904,27.432,26.28v-21.384c-1.943-2.088-3.744-4.104-5.4-6.048
					c-18.575-20.952-35.928-45.288-52.199-73.152c-13.969-24.408-24.408-46.439-32.544-67.32c1.151,2.305,2.376,4.608,3.527,6.912
					c11.593,23.257,27.864,45.288,49.896,69.696c10.8,11.521,22.968,23.04,36.72,33.984v-27.792
					c-6.048-5.904-12.023-12.24-18.144-19.009c-18.576-18.575-33.696-37.151-44.137-54.504
					c11.664,13.896,26.712,26.641,42.984,40.608c6.048,5.04,12.528,10.008,19.296,14.904V390.224z M137.776,368.408v-2.088
					c13.248,0.359,23.04,0.072,29.016-1.225c10.512-1.8,20.016-6.479,28.728-13.464c8.929-7.128,14.977-14.976,19.225-23.472
					c2.376-5.616,5.04-16.56,8.208-31.608l7.488,9.433c-1.729,16.056-3.816,27.288-5.761,33.983
					c-3.384,10.08-9.432,18.576-18.359,25.776c-2.521,2.016-5.4,3.528-8.28,5.112c-5.976,3.384-12.168,5.399-19.152,5.832
					c-9.288,1.584-10.872,1.367-35.64-1.513L137.776,368.408z M137.776,322.328v-15.336c1.08,2.304,1.655,4.896,1.655,7.632
					S138.856,320.024,137.776,322.328z M137.776,249.896v-15.553c4.752-1.8,9.647-2.735,14.832-2.88
					c3.239-0.144,6.552-0.288,9.72,0.145c11.376,1.512,20.952,5.616,29.016,12.456c5.185,4.752,12.744,13.248,22.608,26.136
					l-1.584,11.952c-10.44-11.232-18.433-19.225-23.4-22.752c-7.992-5.112-17.28-8.641-28.584-10.152
					C152.608,248.167,145.048,248.383,137.776,249.896z M137.776,33.608v18.216c-9.937-9.576-22.104-20.592-36.721-33.264
					l13.969-3.456C124.168,22.52,131.584,28.568,137.776,33.608z M137.776,90.992c-3.601-2.521-7.345-4.968-11.16-7.416
					c-20.88-13.896-19.729-12.744-76.608-41.76l-12.744,6.983c30.168,17.425,53.353,30.168,68.473,41.761
					c11.088,7.775,21.6,16.056,32.04,25.199V90.992z M137.776,139.16v24.264c-18.792-13.464-37.296-24.983-56.448-34.56
					C66.28,119.576,41.872,110.288,9.4,97.543l10.439-8.136c61.488,19.728,60.336,19.728,82.44,30.168
					C114.88,125.624,126.688,132.175,137.776,139.16z M137.776,234.343v15.553c-3.024,0.647-5.977,1.512-8.929,2.664
					c-6.048,2.088-15.048,7.271-26.855,14.903l1.439-11.304c19.729-15.336,20.952-16.344,29.736-19.8
					C134.68,235.568,136.192,234.919,137.776,234.343z M137.776,306.992v15.336c-2.952,6.336-9.36,10.8-16.776,10.8
					c-10.152,0-18.432-8.352-18.432-18.504s8.279-18.432,18.432-18.432C128.416,296.192,134.824,300.656,137.776,306.992z
					 M137.776,366.32v2.088l-1.729-2.16C136.624,366.32,137.2,366.32,137.776,366.32z"/>
				<path style="fill:none;stroke:#000000;stroke-width:0.216;" d="M379.768,222.967c10.152,0,18.433,8.28,18.433,18.433
					c0,10.151-8.28,18.432-18.433,18.432c-10.151,0-18.504-8.28-18.504-18.432C361.264,231.248,369.616,222.967,379.768,222.967z
					 M121,296.192c10.152,0,18.432,8.279,18.432,18.432s-8.279,18.504-18.432,18.504s-18.432-8.352-18.432-18.504
					S110.848,296.192,121,296.192z M287.536,242.335l6.84,9.864c4.104-14.76,7.56-25.561,10.296-30.96
					c4.752-8.208,11.376-15.624,20.736-22.176c9.144-6.336,18.936-10.44,29.52-11.521c6.336-0.936,16.704-0.504,30.744,0.864
					l-6.552-9.36c-24.552-4.536-26.064-4.896-35.496-3.888c-6.984,0-13.248,1.584-19.512,4.536
					c-2.952,1.368-5.904,2.736-8.568,4.607c-9.36,6.553-15.984,14.616-20.016,24.48
					C293.152,215.335,290.344,226.352,287.536,242.335z M230.44,305.984l-7.488-9.433c-3.168,15.049-5.832,25.992-8.208,31.608
					c-4.248,8.496-10.296,16.344-19.225,23.472c-8.712,6.984-18.216,11.664-28.728,13.464c-6.264,1.368-16.632,1.584-30.744,1.152
					l7.2,8.928c24.768,2.88,26.352,3.097,35.64,1.513c6.984-0.433,13.177-2.448,19.152-5.832c2.88-1.584,5.76-3.097,8.28-5.112
					c8.928-7.2,14.976-15.696,18.359-25.776C226.624,333.272,228.712,322.04,230.44,305.984z M301.648,279.127l2.376-11.808
					c9.647,11.88,17.063,20.376,21.743,24.264c7.633,5.616,16.704,9.72,27.937,12.024c10.872,2.16,21.456,1.943,31.608-1.296
					c6.191-1.656,15.479-6.192,27.863-13.104l-2.304,11.232c-20.664,13.968-21.96,14.903-30.888,17.784
					c-6.408,2.808-12.816,3.815-19.729,3.6c-3.312-0.072-6.552-0.145-9.72-0.792c-11.232-2.232-20.521-6.984-28.152-14.4
					C317.56,301.591,310.576,292.591,301.648,279.127z M213.952,270.2l-1.584,11.952c-10.44-11.232-18.433-19.225-23.4-22.752
					c-7.992-5.112-17.28-8.641-28.584-10.152c-11.016-1.439-21.6-0.576-31.536,3.312c-6.048,2.088-15.048,7.271-26.855,14.903
					l1.439-11.304c19.729-15.336,20.952-16.344,29.736-19.8c6.192-3.168,12.528-4.681,19.44-4.896
					c3.239-0.144,6.552-0.288,9.72,0.145c11.376,1.512,20.952,5.616,29.016,12.456C196.528,248.816,204.088,257.312,213.952,270.2z
					 M272.92,269.408c17.424,29.016,30.168,49.896,39.456,61.488c13.968,17.424,33.696,37.151,58.104,56.88
					c24.336,19.8,48.743,36,74.304,48.815c16.271,9.288,40.607,19.729,73.151,31.32l-11.664,9.288
					c-60.336-20.88-59.184-19.729-81.216-30.168c-27.863-12.816-51.12-29.016-70.848-45.288
					c-16.272-13.968-31.32-26.712-42.984-40.608c10.44,17.353,25.561,35.929,44.137,54.504
					c22.031,24.408,42.983,42.984,66.168,59.257c15.12,11.592,38.304,24.407,68.544,41.76l-12.816,6.983
					c-56.88-29.016-55.728-27.863-76.607-41.76c-25.561-16.271-46.44-34.848-63.864-53.424
					c-22.032-24.408-38.304-46.439-49.896-69.696c-1.151-2.304-2.376-4.607-3.527-6.912c8.136,20.881,18.575,42.912,32.544,67.32
					c16.271,27.864,33.624,52.2,52.199,73.152c11.664,13.896,31.393,31.319,56.952,54.576l-12.815,4.607
					c-49.896-40.607-49.896-40.607-66.168-58.032c-20.88-20.88-37.152-44.136-49.896-66.168
					c-16.271-27.863-27.863-53.424-33.695-77.832c-3.456-12.743-5.832-30.168-8.137-53.424
					c-17.424-29.016-30.168-48.744-40.607-61.487c-13.969-17.425-32.544-37.152-56.88-56.881c-25.561-19.8-49.969-36-75.528-48.815
					C66.28,119.576,41.872,110.288,9.4,97.543l10.439-8.136c61.488,19.728,60.336,19.728,82.44,30.168
					c26.712,12.816,49.896,27.864,69.624,44.136c17.424,13.968,31.392,27.864,44.136,41.832c-11.592-17.424-25.56-36-44.136-55.728
					c-22.032-24.408-42.912-42.984-66.168-59.256c-15.12-11.593-38.305-24.336-68.473-41.761l12.744-6.983
					c56.88,29.016,55.729,27.863,76.608,41.76c25.56,16.271,46.439,34.848,63.864,53.424c22.104,24.408,38.304,46.44,49.968,69.696
					c0,2.304,1.151,4.607,2.304,6.983c-6.984-19.8-17.424-42.983-31.392-67.392c-16.2-27.864-33.624-52.2-53.353-73.152
					c-11.664-13.896-30.24-31.319-56.952-54.575l13.969-3.456c49.896,40.607,48.743,39.456,66.168,56.88
					c20.88,20.88,37.151,44.136,49.968,66.168c16.2,27.864,26.64,53.424,33.624,77.832
					C265.936,221.744,272.92,269.408,272.92,269.408z"/>
			</g>
			<path style="fill:#B3DE69;stroke:#435607;stroke-width:7.992;" d="M275.368,258.608c17.424,29.016,30.168,49.896,39.456,61.56
				c13.968,17.424,33.695,37.152,58.104,56.88c24.336,19.729,48.744,36,74.305,48.744c16.271,9.288,40.607,19.729,73.151,31.393
				l-11.664,9.287c-60.336-20.951-59.184-19.8-81.216-30.239c-27.864-12.744-51.12-29.017-70.848-45.288
				c-16.272-13.896-31.32-26.712-42.984-40.608c10.44,17.424,25.561,36,44.136,54.576c22.032,24.336,42.984,42.984,66.168,59.184
				c15.12,11.664,38.305,24.408,68.544,41.832l-12.815,6.984c-56.88-29.088-55.729-27.864-76.608-41.832
				c-25.56-16.271-46.439-34.848-63.863-53.424c-22.032-24.336-38.305-46.44-49.896-69.624c-1.152-2.376-2.376-4.68-3.528-6.984
				c8.137,20.88,18.576,42.984,32.544,67.32c16.272,27.864,33.624,52.271,52.2,73.152c11.664,13.968,31.393,31.392,56.952,54.575
				l-12.816,4.681c-49.896-40.681-49.896-40.681-66.168-58.104c-20.88-20.88-37.151-44.136-49.896-66.168
				c-16.272-27.864-27.864-53.424-33.696-77.76c-2.808-12.096-5.615-30.168-7.775-53.064c-17.28-28.943-30.097-48.96-39.889-61.344
				c-14.184-17.64-33.191-36.647-57.6-56.448c-25.128-20.447-49.393-36.647-74.808-49.392c-16.128-8.712-40.32-18.72-72.792-31.032
				l11.088-8.567c60.768,20.376,59.976,19.8,82.224,29.951c26.784,13.032,50.256,28.513,69.912,44.496
				c17.063,13.896,31.392,27.576,43.488,41.473c-11.017-17.353-25.561-36.072-44.353-54.792
				c-22.032-24.408-42.912-42.984-66.168-59.256C93.208,69.175,69.952,56.432,39.784,39.007l12.744-6.983
				c56.88,29.016,55.728,27.863,76.607,41.832c25.561,16.271,46.513,34.848,63.864,53.424
				c22.104,24.336,38.376,46.439,49.968,69.624c0.937,1.943,1.944,4.104,2.952,6.336c-7.056-20.088-17.496-42.552-31.824-67.248
				c-16.344-28.008-33.264-51.696-52.56-72.648c-12.024-13.896-31.104-31.752-57.096-54.792l13.392-4.104
				c49.608,40.607,49.104,39.672,66.312,57.168c20.448,21.6,36.937,44.424,49.681,66.312c16.271,28.009,27.216,53.568,33.768,78.408
				C268.816,211.736,275.368,258.608,275.368,258.608z"/>
			<path style="fill:#9ED8A1;" d="M215.968,271.135c-10.439-11.231-18.288-18.647-23.399-22.319
				c-7.92-5.473-17.353-8.929-28.368-10.44c-11.232-1.439-21.744-0.288-31.681,3.456c-6.048,2.304-15.119,7.272-27,14.904
				l1.513-11.16c9.936-7.848,16.271-12.672,19.008-14.544c2.736-1.8,6.336-3.672,10.8-5.688c6.192-2.664,12.601-4.248,19.225-4.752
				c3.455-0.216,6.695-0.144,9.72,0.217c11.376,1.512,21.168,5.76,29.304,12.6c5.184,4.464,12.672,13.104,22.393,26.136
				L215.968,271.135z"/>
			<path style="fill:none;stroke:#919100;stroke-width:7.992;" d="M215.968,271.135c-10.439-11.231-18.288-18.647-23.399-22.319
				c-7.92-5.473-17.353-8.929-28.368-10.44c-11.232-1.439-21.744-0.288-31.681,3.456c-6.048,2.304-15.119,7.272-27,14.904
				l1.513-11.16c9.936-7.848,16.271-12.672,19.008-14.544c2.736-1.8,6.336-3.672,10.8-5.688c6.192-2.664,12.601-4.248,19.225-4.752
				c3.455-0.216,6.695-0.144,9.72,0.217c11.376,1.512,21.168,5.76,29.304,12.6c5.184,4.464,12.672,13.104,22.393,26.136
				L215.968,271.135z"/>
			<path style="fill:#9ED8A1;" d="M307.552,256.736c9.72,11.88,16.992,19.8,21.889,23.76c7.487,6.048,16.703,10.08,27.647,12.312
				c11.016,2.231,21.6,1.8,31.752-1.297c6.264-1.943,15.552-6.336,27.937-13.104l-2.232,11.016
				c-10.44,7.128-17.063,11.521-19.944,13.248c-2.808,1.584-6.552,3.24-11.16,4.968c-6.336,2.305-12.815,3.456-19.512,3.456
				c-3.384,0-6.624-0.287-9.647-0.863c-11.305-2.232-20.736-7.128-28.368-14.544c-4.896-4.752-11.809-13.896-20.664-27.504
				L307.552,256.736z"/>
			<path style="fill:none;stroke:#919100;stroke-width:7.992;" d="M307.552,256.736c9.72,11.88,16.992,19.8,21.889,23.76
				c7.487,6.048,16.703,10.08,27.647,12.312c11.016,2.231,21.6,1.8,31.752-1.297c6.264-1.943,15.552-6.336,27.937-13.104
				l-2.232,11.016c-10.44,7.128-17.063,11.521-19.944,13.248c-2.808,1.584-6.552,3.24-11.16,4.968
				c-6.336,2.305-12.815,3.456-19.512,3.456c-3.384,0-6.624-0.287-9.647-0.863c-11.305-2.232-20.736-7.128-28.368-14.544
				c-4.896-4.752-11.809-13.896-20.664-27.504L307.552,256.736z"/>
			<path style="fill:#9ED8A1;" d="M226.624,285.967c-3.096,14.977-5.976,25.416-8.496,31.177
				c-3.888,8.783-10.152,16.632-18.864,23.615c-8.783,7.057-18.359,11.521-28.8,13.465c-6.408,1.151-16.704,1.584-30.815,1.224
				l6.983,8.784c12.601,1.512,20.592,2.376,23.832,2.52c3.24,0.216,7.344-0.072,12.168-0.72c6.696-0.864,13.032-2.808,18.937-5.832
				c3.096-1.584,5.832-3.312,8.208-5.256c8.928-7.2,15.12-15.84,18.504-25.992c2.16-6.408,4.032-17.712,5.688-33.912
				L226.624,285.967z"/>
			<path style="fill:none;stroke:#919100;stroke-width:7.992;" d="M226.624,285.967c-3.096,14.977-5.976,25.416-8.496,31.177
				c-3.888,8.783-10.152,16.632-18.864,23.615c-8.783,7.057-18.359,11.521-28.8,13.465c-6.408,1.151-16.704,1.584-30.815,1.224
				l6.983,8.784c12.601,1.512,20.592,2.376,23.832,2.52c3.24,0.216,7.344-0.072,12.168-0.72c6.696-0.864,13.032-2.808,18.937-5.832
				c3.096-1.584,5.832-3.312,8.208-5.256c8.928-7.2,15.12-15.84,18.504-25.992c2.16-6.408,4.032-17.712,5.688-33.912
				L226.624,285.967z"/>
			<path style="fill:#9ED8A1;" d="M297.904,241.184c4.104-14.761,7.632-24.912,10.512-30.528
				c4.464-8.496,11.232-15.912,20.376-22.32c9.288-6.479,19.152-10.296,29.664-11.52c6.479-0.721,16.776-0.504,30.888,0.863
				l-6.479-9.287c-12.456-2.305-20.304-3.744-23.544-4.104s-7.345-0.432-12.24-0.072c-6.696,0.433-13.176,1.944-19.296,4.536
				c-3.168,1.44-5.977,2.952-8.496,4.752c-9.432,6.552-16.128,14.76-20.232,24.624c-2.52,6.336-5.184,17.496-7.848,33.552
				L297.904,241.184z"/>
			<path style="fill:none;stroke:#919100;stroke-width:7.992;" d="M297.904,241.184c4.104-14.761,7.632-24.912,10.512-30.528
				c4.464-8.496,11.232-15.912,20.376-22.32c9.288-6.479,19.152-10.296,29.664-11.52c6.479-0.721,16.776-0.504,30.888,0.863
				l-6.479-9.287c-12.456-2.305-20.304-3.744-23.544-4.104s-7.345-0.432-12.24-0.072c-6.696,0.433-13.176,1.944-19.296,4.536
				c-3.168,1.44-5.977,2.952-8.496,4.752c-9.432,6.552-16.128,14.76-20.232,24.624c-2.52,6.336-5.184,17.496-7.848,33.552
				L297.904,241.184z"/>
			<path style="fill:#FF1300;" d="M383.368,212.167c10.151,0,18.432,8.28,18.432,18.433c0,10.151-8.28,18.432-18.432,18.432
				c-10.152,0-18.504-8.28-18.504-18.432C364.864,220.448,373.216,212.167,383.368,212.167z"/>
			<path style="fill:#FF1300;" d="M124.6,285.392c10.152,0,18.433,8.279,18.433,18.432s-8.28,18.504-18.433,18.504
				c-10.151,0-18.432-8.352-18.432-18.504S114.448,285.392,124.6,285.392z"/>
		</g>
	</g>
</svg>
