<?xml version="1.0" encoding="iso-8859-1"?>
<!-- Generator: Adobe Illustrator 10, SVG Export Plug-In . SVG Version: 3.0.0 Build 76)  -->
<!DOCTYPE svg PUBLIC "-//W3C//DTD SVG 1.0//EN"    "http://www.w3.org/TR/2001/REC-SVG-20010904/DTD/svg10.dtd" [
	<!ENTITY ns_flows "http://ns.adobe.com/Flows/1.0/">
	<!ENTITY ns_svg "http://www.w3.org/2000/svg">
	<!ENTITY ns_xlink "http://www.w3.org/1999/xlink">
]>
<svg  xmlns="&ns_svg;" xmlns:xlink="&ns_xlink;" xmlns:a="http://ns.adobe.com/AdobeSVGViewerExtensions/3.0/"
	 width="631.226" height="928.882" viewBox="0 0 631.226 928.882"
	 style="overflow:visible;enable-background:new 0 0 631.226 928.882" xml:space="preserve">
	<style type="text/css">
	<![CDATA[
		@font-face{font-family:'Times-Roman';src:url(144CF9C.cef)}
	]]>
	</style>
	<g id="Layer_1">
		<text transform="matrix(1 0 0 1 0 865.9194)"><tspan x="0" y="0" style="font-family:'Times-Roman'; font-size:12;">&quot;Bananas&quot;</tspan><tspan x="0" y="14.5" style="font-family:'Times-Roman'; font-size:12;">Copyright </tspan><tspan x="51.668" y="14.5" style="font-family:'Times-Roman'; font-size:12;">&#xA9;</tspan><tspan x="60.785" y="14.5" style="font-family:'Times-Roman'; font-size:12;"> 2000 Rob Myers http://www.robmyers.org/ .</tspan><tspan x="0" y="29" style="font-family:'Times-Roman'; font-size:12;">This work is licensed under the Creative Commons Attribution-ShareAlike License.</tspan><tspan x="0" y="43.5" style="font-family:'Times-Roman'; font-size:12;">To view a copy of this license, visit http://creativecommons.org/licenses/by-sa/1.0/ </tspan><tspan x="0" y="58" style="font-family:'Times-Roman'; font-size:12;">or send a letter to Creative Commons, 559 Nathan Abbott Way, Stanford, California 94305, USA.</tspan></text>
		<g>
			<g>
				<g>
					<path style="fill:#59600E;stroke:#59600E;stroke-width:7.992;" d="M518.224,293.044l-17.352,7.344
						c2.231-35.784,2.952-60.624,1.44-76.392c-2.377-22.536-8.856-47.448-20.232-74.304C470.344,121.9,456.52,99.076,439.168,79.78
						c-10.584-12.888-28.584-28.8-53.496-48.96l17.353-7.344c48.527,34.704,48.168,33.84,64.008,49.608
						c18.647,19.8,32.04,41.76,41.184,63.432c11.809,27.792,17.712,53.928,18.648,80.208
						C526.648,233.14,524.2,258.772,518.224,293.044z"/>
					<path style="fill:#59600E;stroke:#59600E;stroke-width:7.992;" d="M614.992,643.828l-17.353,7.344
						c2.305-35.783,3.024-60.624,1.513-76.392c-2.376-22.536-8.856-47.448-20.232-74.304c-11.808-27.792-25.56-50.616-42.912-69.912
						c-10.584-12.889-28.584-28.8-53.496-48.96l17.353-7.416c48.527,34.775,48.096,33.912,64.008,49.68
						c18.647,19.8,32.04,41.76,41.184,63.432c11.809,27.792,17.712,53.929,18.576,80.208
						C623.488,583.923,620.968,609.556,614.992,643.828z"/>
					<path style="fill:#59600E;stroke:#59600E;stroke-width:7.992;" d="M381.928,538.419h-18.792
						c15.984-32.04,26.353-54.647,31.032-69.768c6.624-21.672,10.368-47.088,10.368-76.32c0-30.168-3.816-56.448-12.24-81
						c-4.752-15.984-15.12-37.656-30.24-65.952h18.864c31.104,50.904,31.104,49.968,39.6,70.704
						c9.433,25.416,13.248,50.761,13.248,74.376c0,30.168-4.68,56.521-14.111,81.072
						C413.032,486.58,400.792,509.188,381.928,538.419z"/>
					<path style="fill:#59600E;stroke:#59600E;stroke-width:7.992;" d="M306.112,842.62l-8.353-16.848
						c35.784,0.072,60.624-0.721,76.248-3.168c22.393-3.744,46.8-11.736,73.008-24.696c27-13.392,48.96-28.512,67.177-47.016
						c12.239-11.376,27-30.312,45.647-56.376l8.353,16.92c-31.752,50.472-30.889,50.04-45.648,66.888
						c-18.647,19.728-39.744,34.416-60.84,44.928c-27,13.393-52.776,20.952-78.912,23.4
						C366.376,847.444,340.672,846.507,306.112,842.62z"/>
					<path style="fill:#59600E;stroke:#59600E;stroke-width:7.992;" d="M280.696,22.396l19.296,4.464
						c-22.536,26.712-38.808,47.16-46.584,59.904c-11.448,20.592-20.808,44.568-27.504,73.944c-6.552,28.512-9,55.944-6.192,81.72
						c1.296,15.768,6.552,39.24,14.904,70.128l-18.36-4.176c-18.144-51.552-19.368-54.72-21.888-77.544
						c-3.096-16.128-3.168-32.616-1.008-50.472c0.936-8.496,1.944-16.992,3.816-25.272c6.768-29.376,17.208-54.072,31.68-74.952
						C238.648,66.964,255.64,47.596,280.696,22.396z"/>
					<path style="fill:#59600E;stroke:#59600E;stroke-width:7.992;" d="M350.536,283.972l18.216,7.704
						c-26.855,22.392-46.439,39.744-56.304,50.904c-14.832,18.216-28.224,40.176-39.96,67.968
						c-11.376,26.929-18.504,53.568-20.232,79.416c-1.584,15.696-0.432,39.744,2.448,71.641l-17.352-7.345
						c-8.928-53.928-9.576-57.239-8.136-80.136c-0.144-16.488,2.592-32.688,7.848-49.896c2.448-8.208,4.824-16.416,8.136-24.192
						c11.736-27.792,26.352-50.256,44.208-68.256C301.288,320.476,321.376,304.42,350.536,283.972z"/>
					<path style="fill:#59600E;stroke:#59600E;stroke-width:7.992;" d="M170.248,303.844l16.992,10.152
						c-29.664,18.504-51.48,32.904-62.784,42.624c-17.208,16.056-33.552,35.928-48.96,61.848
						c-14.976,25.129-25.776,50.545-31.032,75.889c-3.672,15.408-5.904,39.312-7.416,71.352l-16.2-9.72
						c-1.44-54.576-1.584-58.032,3.024-80.496c2.088-16.344,7.056-32.04,14.616-48.384c3.528-7.704,7.056-15.48,11.448-22.752
						c15.408-25.92,32.976-46.152,53.136-61.488C116.464,333.292,138.64,320.116,170.248,303.844z"/>
					<path style="fill:#59600E;stroke:#59600E;stroke-width:7.992;" d="M10.84,616.54l12.096-15.695
						c14.904,31.607,26.712,54.936,34.992,67.319c13.968,19.008,31.824,37.512,55.728,55.872
						c23.184,17.784,47.16,31.464,71.784,39.672c14.832,5.4,38.376,10.44,69.984,15.696l-11.52,14.904
						c-54.432-4.969-57.816-5.185-79.632-12.385c-15.912-3.96-30.96-10.728-46.296-20.159c-7.272-4.393-14.616-8.856-21.312-13.969
						c-23.976-18.432-41.976-38.231-54.936-60.048C33.736,673.348,23.296,649.804,10.84,616.54z"/>
				</g>
				<g>
					<path style="fill:#59600E;" d="M369.4,695.596c10.008,5.472,20.735,9.72,32.184,12.672
						c42.768,11.016,72.792-2.952,94.968-33.624c16.057-16.632,27.576-38.376,32.616-71.208c5.04-33.48,0.792-73.225-14.184-125.856
						c-14.473-47.808-37.729-87.768-67.896-106.344c5.688-6.408,10.8-13.824,15.336-22.104c11.88-22.607,15.48-54.72,6.624-101.375
						c-11.016-49.608-26.567-96.264-49.248-138.024C403.456,85.9,386.32,68.692,369.4,58.612V97.06
						c28.943,16.2,52.056,66.888,60.84,131.616c14.832,108.288-16.057,137.664-55.008,134.208c-2.017-0.144-3.889-0.287-5.832-0.647
						v88.704c14.04-35.136,33.191-51.984,61.271-45.072c49.968,12.24,60.336,80.712,52.704,152.064
						C472.576,658.66,442.264,680.764,400,670.108c-11.88-2.88-22.176-8.424-30.6-16.704V695.596z M313.672,639.22
						c13.896,25.056,32.832,43.92,55.729,56.376v-42.192c-10.44-10.152-18-24.48-22.177-43.056
						c-4.968-21.96-3.096-48.889,2.448-81.721c5.328-31.248,11.664-57.456,19.729-77.688v-88.704
						c-21.024-3.312-35.856-18.936-45.217-45.72c-4.319-12.456-7.703-26.496-10.512-42.84v105.912
						c9.504,21.097,11.448,51.841,5.904,87.336c-1.729,10.729-3.672,20.664-5.904,29.736V639.22z M369.4,58.612
						c-14.544-8.712-28.944-12.168-42.553-10.08c-4.752,1.08-9.071,2.664-13.176,4.896v64.368
						c6.48-15.48,16.704-24.336,31.608-25.992c8.352-0.936,16.487,0.936,24.12,5.256V58.612z M279.112,313.708
						c-5.904-0.216-12.312,0.216-18.864,1.08c-3.528,0.72-6.984,1.512-10.44,2.52v36.072c4.104-1.439,8.496-2.447,13.176-3.023
						c24.408-3.168,41.256,8.208,50.688,29.231V273.676c-1.8-11.016-3.384-23.04-4.824-36.36
						c-5.903-54.576-5.256-95.184,4.824-119.52V53.428c-23.832,12.888-36.864,45-41.112,90.864
						c-5.616,28.729-7.704,61.632-4.68,96.696C270.04,268.636,273.424,293.188,279.112,313.708z M249.808,624.028
						c19.584-4.248,36.504-13.608,51.192-27.937c1.944,14.688,5.616,28.225,11.16,40.248c0.504,1.009,1.008,1.944,1.512,2.881
						V496.66c-13.68,56.952-36.936,83.016-63.864,91.872V624.028z M249.808,317.308c-39.168,11.232-68.184,42.264-83.376,87.913
						c-9.72,27.504-15.84,57.455-22.032,87.479c-12.888,38.736-15.768,69.048-7.056,90.72c14.256,28.225,42.84,43.057,82.296,43.2
						c10.728,0.36,20.808-0.504,30.168-2.592v-35.496c-8.424,2.808-17.208,3.888-26.136,3.744
						c-26.784,0.288-42.84-12.96-46.008-39.888c-2.088-17.641,5.832-39.456,10.224-69.408
						c10.368-70.704,24.552-116.641,61.92-129.601V317.308z"/>
					<path style="fill:none;stroke:#59600E;stroke-width:15.984;" d="M279.112,313.708c-5.904-0.216-12.312,0.216-18.864,1.08
						c-44.496,8.496-77.328,40.752-93.816,90.433c-9.72,27.504-15.84,57.455-22.032,87.479
						c-12.888,38.736-15.768,69.048-7.056,90.72c14.256,28.225,42.84,43.057,82.296,43.2c32.976,1.008,59.544-9.288,81.36-30.528
						c1.944,14.688,5.616,28.225,11.16,40.248c19.872,37.656,50.976,61.849,89.424,71.929c42.768,11.016,72.792-2.952,94.968-33.624
						c16.057-16.632,27.576-38.376,32.616-71.208c5.04-33.48,0.792-73.225-14.184-125.856
						c-14.473-47.808-37.729-87.768-67.896-106.344c5.688-6.408,10.8-13.824,15.336-22.104c11.88-22.607,15.48-54.72,6.624-101.375
						c-11.016-49.608-26.567-96.264-49.248-138.024c-30.456-44.424-63.504-65.736-92.952-61.2
						c-32.399,7.272-49.248,42.192-54.288,95.76c-5.616,28.729-7.704,61.632-4.68,96.696
						C270.04,268.636,273.424,293.188,279.112,313.708z M223.672,592.276c42.048,0.792,80.353-26.353,95.904-125.353
						c11.088-70.848-7.704-122.976-56.592-116.567c-47.376,6.12-63.576,54.216-75.096,132.624
						c-4.392,29.952-12.312,51.768-10.224,69.408C180.832,579.316,196.888,592.564,223.672,592.276z M375.232,362.883
						c38.951,3.456,69.84-25.919,55.008-134.208c-11.16-81.864-45.145-141.408-84.96-136.872
						c-38.305,4.32-45.937,56.232-36.433,145.512c3.528,33.264,8.064,58.392,15.336,79.2
						C334.408,345.604,351.112,361.66,375.232,362.883z M400,670.108c42.264,10.656,72.576-11.448,83.376-112.176
						c7.632-71.353-2.736-139.824-52.704-152.064c-44.208-10.872-66.384,37.224-81,122.76c-5.544,32.832-7.416,59.761-2.448,81.721
						C354.784,643.9,373.36,663.556,400,670.108z"/>
				</g>
			</g>
			<g>
				<g>
					<path style="fill:#98BE6C;stroke:#75984A;stroke-width:7.992;" d="M521.824,275.044l-17.353,7.344
						c2.232-35.784,2.952-60.624,1.44-76.392c-2.376-22.536-8.856-47.448-20.232-74.304c-11.735-27.792-25.56-50.616-42.912-69.912
						c-10.584-12.888-28.584-28.8-53.495-48.96l17.352-7.344c48.528,34.704,48.168,33.84,64.008,49.608
						c18.648,19.8,32.04,41.76,41.185,63.432c11.808,27.792,17.712,53.928,18.647,80.208
						C530.248,215.14,527.8,240.772,521.824,275.044z"/>
					<path style="fill:#98BE6C;stroke:#75984A;stroke-width:7.992;" d="M618.592,625.828l-17.352,7.344
						c2.304-35.783,3.023-60.624,1.512-76.392c-2.376-22.536-8.855-47.448-20.232-74.304c-11.808-27.792-25.56-50.616-42.911-69.912
						c-10.584-12.889-28.584-28.8-53.496-48.96l17.352-7.416c48.528,34.775,48.096,33.912,64.008,49.68
						c18.648,19.8,32.04,41.76,41.185,63.432c11.808,27.792,17.712,53.929,18.576,80.208
						C627.088,565.923,624.568,591.556,618.592,625.828z"/>
					<path style="fill:#98BE6C;stroke:#75984A;stroke-width:7.992;" d="M385.528,520.419h-18.792
						c15.983-32.04,26.352-54.647,31.031-69.768c6.624-21.672,10.368-47.088,10.368-76.32c0-30.168-3.815-56.448-12.239-81
						c-4.753-15.984-15.12-37.656-30.24-65.952h18.863c31.104,50.904,31.104,49.968,39.601,70.704
						c9.432,25.416,13.248,50.761,13.248,74.376c0,30.168-4.681,56.521-14.112,81.072
						C416.632,468.58,404.392,491.188,385.528,520.419z"/>
					<path style="fill:#98BE6C;stroke:#75984A;stroke-width:7.992;" d="M309.712,824.62l-8.424-16.848
						c35.855,0.072,60.696-0.721,76.32-3.168c22.392-3.744,46.8-11.736,73.008-24.696c27-13.392,48.96-28.512,67.176-47.016
						c12.24-11.376,27-30.312,45.648-56.376l8.352,16.92c-31.752,50.472-30.888,50.04-45.648,66.888
						c-18.647,19.728-39.743,34.416-60.84,44.928c-27,13.393-52.775,20.952-78.912,23.4
						C369.976,829.444,344.272,828.507,309.712,824.62z"/>
					<path style="fill:#98BE6C;stroke:#75984A;stroke-width:7.992;" d="M284.296,4.396L303.52,8.86
						c-22.463,26.712-38.735,47.16-46.512,59.904c-11.448,20.592-20.808,44.568-27.504,73.944c-6.552,28.512-9,55.944-6.192,81.72
						c1.296,15.768,6.552,39.24,14.904,70.128l-18.36-4.176c-18.144-51.552-19.368-54.72-21.888-77.544
						c-3.096-16.128-3.168-32.616-1.008-50.472c0.936-8.496,1.944-16.992,3.816-25.272c6.768-29.376,17.208-54.072,31.68-74.952
						C242.248,48.964,259.24,29.596,284.296,4.396z"/>
					<path style="fill:#98BE6C;stroke:#75984A;stroke-width:7.992;" d="M354.136,265.972l18.216,7.704
						c-26.855,22.392-46.439,39.744-56.304,50.904c-14.904,18.288-28.224,40.176-39.96,67.968
						c-11.376,26.929-18.504,53.568-20.232,79.416c-1.584,15.696-0.432,39.744,2.448,71.641l-17.352-7.345
						c-8.928-53.928-9.576-57.239-8.136-80.136c-0.144-16.488,2.592-32.688,7.848-49.896c2.448-8.208,4.824-16.416,8.136-24.192
						c11.736-27.792,26.352-50.184,44.208-68.256C304.888,302.476,324.976,286.42,354.136,265.972z"/>
					<path style="fill:#98BE6C;stroke:#75984A;stroke-width:7.992;" d="M173.848,285.844l16.992,10.152
						c-29.664,18.504-51.48,32.976-62.784,42.696c-17.208,15.983-33.552,35.855-48.96,61.775
						c-14.976,25.129-25.776,50.545-31.032,75.889c-3.672,15.408-5.904,39.312-7.416,71.352l-16.2-9.72
						c-1.44-54.576-1.584-58.032,3.024-80.496c2.088-16.344,7.056-32.04,14.616-48.384c3.528-7.704,7.056-15.48,11.448-22.752
						c15.408-25.92,32.976-46.08,53.136-61.488C120.064,315.292,142.24,302.116,173.848,285.844z"/>
					<path style="fill:#98BE6C;stroke:#75984A;stroke-width:7.992;" d="M14.44,598.54l12.096-15.695
						c14.904,31.607,26.712,54.936,34.992,67.319c13.968,19.008,31.824,37.512,55.728,55.872
						c23.184,17.784,47.16,31.464,71.784,39.672c14.832,5.4,38.376,10.44,69.984,15.696l-11.52,14.904
						c-54.432-4.969-57.816-5.185-79.632-12.385c-15.912-3.96-30.96-10.728-46.296-20.159c-7.272-4.393-14.616-8.856-21.312-13.969
						c-23.976-18.432-41.976-38.231-54.936-60.048C37.336,655.348,26.896,631.804,14.44,598.54z"/>
				</g>
				<g>
					<path style="fill:#CCEA97;" d="M373,677.596c10.008,5.472,20.736,9.72,32.184,12.672c42.769,11.016,72.792-2.952,94.969-33.624
						c16.056-16.632,27.576-38.376,32.615-71.208c5.04-33.48,0.792-73.225-14.184-125.856
						c-14.472-47.808-37.728-87.768-67.896-106.344c5.688-6.408,10.801-13.752,15.337-22.032
						c11.88-22.68,15.479-54.792,6.624-101.448c-11.017-49.608-26.568-96.264-49.248-138.024c-16.345-23.832-33.48-41.04-50.4-51.12
						V79.06c28.944,16.2,52.056,66.888,60.84,131.616c14.832,108.288-16.056,137.664-55.008,134.208
						c-2.016-0.144-3.888-0.287-5.832-0.647v88.704c14.04-35.136,33.192-51.984,61.272-45.072
						c49.968,12.24,60.336,80.712,52.703,152.064c-10.8,100.728-41.111,122.832-83.376,112.176
						c-11.88-2.88-22.176-8.424-30.6-16.704V677.596z M317.272,621.22c13.896,25.056,32.831,43.92,55.728,56.376v-42.192
						c-10.44-10.152-18-24.48-22.176-43.056c-4.968-21.96-3.097-48.889,2.448-81.721c5.327-31.248,11.663-57.456,19.728-77.688
						v-88.704c-21.024-3.24-35.856-18.936-45.216-45.72c-4.32-12.456-7.704-26.496-10.512-42.84v105.912
						c9.504,21.097,11.447,51.841,5.903,87.336c-1.728,10.729-3.672,20.664-5.903,29.736V621.22z M373,40.612
						c-14.544-8.712-28.944-12.168-42.552-10.08c-4.752,1.08-9.072,2.664-13.176,4.896v64.368
						c6.479-15.48,16.703-24.336,31.607-25.992c8.353-0.936,16.488,0.936,24.12,5.256V40.612z M282.712,295.708
						c-5.904-0.216-12.312,0.216-18.864,1.08c-3.528,0.72-6.984,1.512-10.44,2.52v36.144c4.104-1.44,8.496-2.448,13.176-3.024
						c24.408-3.168,41.256,8.208,50.688,29.16V255.676c-1.801-11.016-3.385-23.04-4.824-36.36
						c-5.904-54.576-5.256-95.184,4.824-119.52V35.428c-23.833,12.888-36.864,45-41.112,90.864
						c-5.616,28.729-7.704,61.632-4.68,96.696C273.64,250.636,277.024,275.188,282.712,295.708z M253.408,606.028
						c19.584-4.248,36.504-13.608,51.191-27.937c1.944,14.688,5.616,28.225,11.16,40.248c0.504,1.009,1.008,1.944,1.513,2.881
						V478.66c-13.753,56.952-36.937,83.016-63.864,91.872V606.028z M253.408,299.308c-39.168,11.232-68.184,42.336-83.376,87.913
						c-9.72,27.504-15.84,57.455-22.032,87.479c-12.888,38.736-15.768,69.048-7.056,90.72c14.256,28.225,42.84,43.057,82.296,43.2
						c10.728,0.36,20.808-0.504,30.168-2.592v-35.496c-8.424,2.808-17.208,3.888-26.136,3.744
						c-26.784,0.288-42.84-12.96-46.008-39.888c-2.088-17.641,5.832-39.456,10.224-69.408
						c10.368-70.704,24.552-116.641,61.92-129.528V299.308z"/>
					<path style="fill:none;stroke:#AEC095;stroke-width:15.984;" d="M282.712,295.708c-5.904-0.216-12.312,0.216-18.864,1.08
						c-44.496,8.496-77.328,40.824-93.816,90.433c-9.72,27.504-15.84,57.455-22.032,87.479
						c-12.888,38.736-15.768,69.048-7.056,90.72c14.256,28.225,42.84,43.057,82.296,43.2c32.976,1.008,59.544-9.288,81.359-30.528
						c1.944,14.688,5.616,28.225,11.16,40.248c19.872,37.656,50.977,61.849,89.424,71.929c42.769,11.016,72.792-2.952,94.969-33.624
						c16.056-16.632,27.576-38.376,32.615-71.208c5.04-33.48,0.792-73.225-14.184-125.856
						c-14.472-47.808-37.728-87.768-67.896-106.344c5.688-6.408,10.801-13.752,15.337-22.032
						c11.88-22.68,15.479-54.792,6.624-101.448c-11.017-49.608-26.568-96.264-49.248-138.024
						c-30.456-44.424-63.504-65.736-92.952-61.2c-32.4,7.272-49.248,42.192-54.288,95.76c-5.616,28.729-7.704,61.632-4.68,96.696
						C273.64,250.636,277.024,275.188,282.712,295.708z M227.272,574.276c42.048,0.792,80.352-26.353,95.904-125.353
						c11.088-70.848-7.704-122.904-56.592-116.496c-47.376,6.12-63.576,54.144-75.096,132.552
						c-4.392,29.952-12.312,51.768-10.224,69.408C184.432,561.316,200.488,574.564,227.272,574.276z M378.832,344.883
						c38.952,3.456,69.84-25.919,55.008-134.208c-11.16-81.864-45.144-141.408-84.96-136.872
						c-38.304,4.32-46.008,56.232-36.432,145.512c3.527,33.264,8.063,58.392,15.336,79.2
						C338.008,327.676,354.712,343.732,378.832,344.883z M403.6,652.108c42.265,10.656,72.576-11.448,83.376-112.176
						c7.633-71.353-2.735-139.824-52.703-152.064c-44.208-10.872-66.385,37.224-81,122.76c-5.545,32.832-7.416,59.761-2.448,81.721
						C358.384,625.9,376.96,645.556,403.6,652.108z"/>
				</g>
			</g>
		</g>
	</g>
</svg>
