<?xml version="1.0" encoding="UTF-8" standalone="no"?>
<!-- Generator: Adobe Illustrator 10, SVG Export Plug-In . SVG Version: 3.0.0 Build 76)  -->
<svg
   xmlns:dc="http://purl.org/dc/elements/1.1/"
   xmlns:cc="http://creativecommons.org/ns#"
   xmlns:rdf="http://www.w3.org/1999/02/22-rdf-syntax-ns#"
   xmlns:svg="http://www.w3.org/2000/svg"
   xmlns="http://www.w3.org/2000/svg"
   xmlns:sodipodi="http://sodipodi.sourceforge.net/DTD/sodipodi-0.dtd"
   xmlns:inkscape="http://www.inkscape.org/namespaces/inkscape"
   width="624.38599"
   height="850.50696"
   viewBox="0 0 631.226 928.882"
   style="overflow:visible"
   xml:space="preserve"
   id="svg2"
   sodipodi:version="0.32"
   inkscape:version="0.46"
   sodipodi:docname="bananas.svg"
   inkscape:output_extension="org.inkscape.output.svg.inkscape"
   version="1.0"><metadata
   id="metadata80"><rdf:RDF><cc:Work
       rdf:about=""><dc:format>image/svg+xml</dc:format><dc:type
         rdf:resource="http://purl.org/dc/dcmitype/StillImage" /></cc:Work></rdf:RDF></metadata><defs
   id="defs78"><inkscape:perspective
   sodipodi:type="inkscape:persp3d"
   inkscape:vp_x="0 : 464.44101 : 1"
   inkscape:vp_y="0 : 1000 : 0"
   inkscape:vp_z="631.22601 : 464.44101 : 1"
   inkscape:persp3d-origin="315.61301 : 309.62734 : 1"
   id="perspective82" />
		
		
	</defs><sodipodi:namedview
   inkscape:window-height="670"
   inkscape:window-width="640"
   inkscape:pageshadow="2"
   inkscape:pageopacity="0.0"
   guidetolerance="10.0"
   gridtolerance="10.0"
   objecttolerance="10.0"
   borderopacity="1.0"
   bordercolor="#666666"
   pagecolor="#ffffff"
   id="base"
   showgrid="false"
   inkscape:zoom="0.4973721"
   inkscape:cx="315.61301"
   inkscape:cy="464.44101"
   inkscape:window-x="73"
   inkscape:window-y="0"
   inkscape:current-layer="svg2" />
	<style
   type="text/css"
   id="style4">
	
		@font-face{font-family:'Times-Roman';src:url(144CF9C.cef)}
	
	</style>
	
<g
   style="overflow:visible"
   id="g23"
   transform="matrix(1.092151,0,0,1.092151,-32.823562,-0.436887)">
			<g
   id="g25">
				<g
   id="g27">
					<path
   id="path29"
   d="M 518.224,293.044 L 500.872,300.388 C 503.103,264.604 503.824,239.764 502.312,223.996 C 499.935,201.46 493.456,176.548 482.08,149.692 C 470.344,121.9 456.52,99.076 439.168,79.78 C 428.584,66.892 410.584,50.98 385.672,30.82 L 403.025,23.476 C 451.552,58.18 451.193,57.316 467.033,73.084 C 485.68,92.884 499.073,114.844 508.217,136.516 C 520.026,164.308 525.929,190.444 526.865,216.724 C 526.648,233.14 524.2,258.772 518.224,293.044 z"
   style="fill:#59600e;stroke:#59600e;stroke-width:7.9920001" />
					<path
   id="path31"
   d="M 614.992,643.828 L 597.639,651.172 C 599.944,615.389 600.663,590.548 599.152,574.78 C 596.776,552.244 590.296,527.332 578.92,500.476 C 567.112,472.684 553.36,449.86 536.008,430.564 C 525.424,417.675 507.424,401.764 482.512,381.604 L 499.865,374.188 C 548.392,408.963 547.961,408.1 563.873,423.868 C 582.52,443.668 595.913,465.628 605.057,487.3 C 616.866,515.092 622.769,541.229 623.633,567.508 C 623.488,583.923 620.968,609.556 614.992,643.828 z"
   style="fill:#59600e;stroke:#59600e;stroke-width:7.9920001" />
					<path
   id="path33"
   d="M 381.928,538.419 L 363.136,538.419 C 379.12,506.379 389.489,483.772 394.168,468.651 C 400.792,446.979 404.536,421.563 404.536,392.331 C 404.536,362.163 400.72,335.883 392.296,311.331 C 387.544,295.347 377.176,273.675 362.056,245.379 L 380.92,245.379 C 412.024,296.283 412.024,295.347 420.52,316.083 C 429.953,341.499 433.768,366.844 433.768,390.459 C 433.768,420.627 429.088,446.98 419.657,471.531 C 413.032,486.58 400.792,509.188 381.928,538.419 z"
   style="fill:#59600e;stroke:#59600e;stroke-width:7.9920001" />
					<path
   id="path35"
   d="M 306.112,842.62 L 297.759,825.772 C 333.543,825.844 358.383,825.051 374.007,822.604 C 396.4,818.86 420.807,810.868 447.015,797.908 C 474.015,784.516 495.975,769.396 514.192,750.892 C 526.431,739.516 541.192,720.58 559.839,694.516 L 568.192,711.436 C 536.44,761.908 537.303,761.476 522.544,778.324 C 503.897,798.052 482.8,812.74 461.704,823.252 C 434.704,836.645 408.928,844.204 382.792,846.652 C 366.376,847.444 340.672,846.507 306.112,842.62 z"
   style="fill:#59600e;stroke:#59600e;stroke-width:7.9920001" />
					<path
   id="path37"
   d="M 280.696,22.396 L 299.992,26.86 C 277.456,53.572 261.184,74.02 253.408,86.764 C 241.96,107.356 232.6,131.332 225.904,160.708 C 219.352,189.22 216.904,216.652 219.712,242.428 C 221.008,258.196 226.264,281.668 234.616,312.556 L 216.256,308.38 C 198.112,256.828 196.888,253.66 194.368,230.836 C 191.272,214.708 191.2,198.22 193.36,180.364 C 194.296,171.868 195.304,163.372 197.176,155.092 C 203.944,125.716 214.384,101.02 228.856,80.14 C 238.648,66.964 255.64,47.596 280.696,22.396 z"
   style="fill:#59600e;stroke:#59600e;stroke-width:7.9920001" />
					<path
   id="path39"
   d="M 350.536,283.972 L 368.752,291.676 C 341.897,314.068 322.313,331.42 312.448,342.58 C 297.616,360.796 284.224,382.756 272.488,410.548 C 261.112,437.477 253.984,464.116 252.256,489.964 C 250.672,505.66 251.824,529.708 254.704,561.605 L 237.352,554.26 C 228.424,500.332 227.776,497.021 229.216,474.124 C 229.072,457.636 231.808,441.436 237.064,424.228 C 239.512,416.02 241.888,407.812 245.2,400.036 C 256.936,372.244 271.552,349.78 289.408,331.78 C 301.288,320.476 321.376,304.42 350.536,283.972 z"
   style="fill:#59600e;stroke:#59600e;stroke-width:7.9920001" />
					<path
   id="path41"
   d="M 170.248,303.844 L 187.24,313.996 C 157.576,332.5 135.76,346.9 124.456,356.62 C 107.248,372.676 90.904,392.548 75.496,418.468 C 60.52,443.597 49.72,469.013 44.464,494.357 C 40.792,509.765 38.56,533.669 37.048,565.709 L 20.848,555.989 C 19.408,501.413 19.264,497.957 23.872,475.493 C 25.96,459.149 30.928,443.453 38.488,427.109 C 42.016,419.405 45.544,411.629 49.936,404.357 C 65.344,378.437 82.912,358.205 103.072,342.869 C 116.464,333.292 138.64,320.116 170.248,303.844 z"
   style="fill:#59600e;stroke:#59600e;stroke-width:7.9920001" />
					<path
   id="path43"
   d="M 10.84,616.54 L 22.936,600.845 C 37.84,632.452 49.648,655.781 57.928,668.164 C 71.896,687.172 89.752,705.676 113.656,724.036 C 136.84,741.82 160.816,755.5 185.44,763.708 C 200.272,769.108 223.816,774.148 255.424,779.404 L 243.904,794.308 C 189.472,789.339 186.088,789.123 164.272,781.923 C 148.36,777.963 133.312,771.195 117.976,761.764 C 110.704,757.371 103.36,752.908 96.664,747.795 C 72.688,729.363 54.688,709.564 41.728,687.747 C 33.736,673.348 23.296,649.804 10.84,616.54 z"
   style="fill:#59600e;stroke:#59600e;stroke-width:7.9920001" />
				</g>
				<g
   id="g45">
					<path
   id="path47"
   d="M 369.4,695.596 C 379.408,701.068 390.135,705.316 401.584,708.268 C 444.352,719.284 474.376,705.316 496.552,674.644 C 512.609,658.012 524.128,636.268 529.168,603.436 C 534.208,569.956 529.96,530.211 514.984,477.58 C 500.511,429.772 477.255,389.812 447.088,371.236 C 452.776,364.828 457.888,357.412 462.424,349.132 C 474.304,326.525 477.904,294.412 469.048,247.757 C 458.032,198.149 442.481,151.493 419.8,109.733 C 403.456,85.9 386.32,68.692 369.4,58.612 L 369.4,97.06 C 398.343,113.26 421.456,163.948 430.24,228.676 C 445.072,336.964 414.183,366.34 375.232,362.884 C 373.215,362.74 371.343,362.597 369.4,362.237 L 369.4,450.941 C 383.44,415.805 402.591,398.957 430.671,405.869 C 480.639,418.109 491.007,486.581 483.375,557.933 C 472.576,658.66 442.264,680.764 400,670.108 C 388.12,667.228 377.824,661.684 369.4,653.404 L 369.4,695.596 z M 313.672,639.22 C 327.568,664.276 346.504,683.14 369.401,695.596 L 369.401,653.404 C 358.961,643.252 351.401,628.924 347.224,610.348 C 342.256,588.388 344.128,561.459 349.672,528.627 C 355,497.379 361.336,471.171 369.401,450.939 L 369.401,362.235 C 348.377,358.923 333.545,343.299 324.184,316.515 C 319.865,304.059 316.481,290.019 313.672,273.675 L 313.672,379.587 C 323.176,400.684 325.12,431.428 319.576,466.923 C 317.847,477.652 315.904,487.587 313.672,496.659 L 313.672,639.22 L 313.672,639.22 z M 369.4,58.612 C 354.856,49.9 340.456,46.444 326.847,48.532 C 322.095,49.612 317.776,51.196 313.671,53.428 L 313.671,117.796 C 320.151,102.316 330.375,93.46 345.279,91.804 C 353.631,90.868 361.766,92.74 369.399,97.06 L 369.399,58.612 L 369.4,58.612 z M 279.112,313.708 C 273.208,313.492 266.8,313.924 260.248,314.788 C 256.72,315.508 253.264,316.3 249.808,317.308 L 249.808,353.38 C 253.912,351.941 258.304,350.933 262.984,350.357 C 287.392,347.189 304.24,358.565 313.672,379.588 L 313.672,273.676 C 311.872,262.66 310.288,250.636 308.848,237.316 C 302.945,182.74 303.592,142.132 313.672,117.796 L 313.672,53.428 C 289.84,66.316 276.808,98.428 272.56,144.292 C 266.944,173.021 264.856,205.924 267.88,240.988 C 270.04,268.636 273.424,293.188 279.112,313.708 z M 249.808,624.028 C 269.392,619.78 286.312,610.42 301,596.091 C 302.944,610.779 306.616,624.316 312.16,636.339 C 312.664,637.348 313.168,638.283 313.672,639.22 L 313.672,496.66 C 299.992,553.612 276.736,579.676 249.808,588.532 L 249.808,624.028 z M 249.808,317.308 C 210.64,328.54 181.624,359.572 166.432,405.221 C 156.712,432.725 150.592,462.676 144.4,492.7 C 131.512,531.436 128.632,561.748 137.344,583.42 C 151.6,611.645 180.184,626.477 219.64,626.62 C 230.368,626.98 240.448,626.116 249.808,624.028 L 249.808,588.532 C 241.384,591.34 232.6,592.42 223.672,592.276 C 196.888,592.564 180.832,579.316 177.664,552.388 C 175.576,534.747 183.496,512.932 187.888,482.98 C 198.256,412.276 212.44,366.339 249.808,353.379 L 249.808,317.308 L 249.808,317.308 z"
   style="fill:#59600e" />
					<path
   id="path49"
   d="M 279.112,313.708 C 273.208,313.492 266.8,313.924 260.248,314.788 C 215.752,323.284 182.92,355.54 166.432,405.221 C 156.712,432.725 150.592,462.676 144.4,492.7 C 131.512,531.436 128.632,561.748 137.344,583.42 C 151.6,611.645 180.184,626.477 219.64,626.62 C 252.616,627.628 279.184,617.332 301,596.092 C 302.944,610.78 306.616,624.317 312.16,636.34 C 332.032,673.996 363.136,698.189 401.584,708.269 C 444.352,719.285 474.376,705.317 496.552,674.645 C 512.609,658.013 524.128,636.269 529.168,603.437 C 534.208,569.957 529.96,530.212 514.984,477.581 C 500.511,429.773 477.255,389.813 447.088,371.237 C 452.776,364.829 457.888,357.413 462.424,349.133 C 474.304,326.526 477.904,294.413 469.048,247.758 C 458.032,198.15 442.481,151.494 419.8,109.734 C 389.344,65.31 356.296,43.998 326.848,48.534 C 294.449,55.806 277.6,90.726 272.56,144.294 C 266.944,173.023 264.856,205.926 267.88,240.99 C 270.04,268.636 273.424,293.188 279.112,313.708 z M 223.672,592.276 C 265.72,593.068 304.025,565.923 319.576,466.923 C 330.664,396.075 311.872,343.947 262.984,350.356 C 215.608,356.476 199.408,404.572 187.888,482.98 C 183.496,512.932 175.576,534.748 177.664,552.388 C 180.832,579.316 196.888,592.564 223.672,592.276 z M 375.232,362.883 C 414.183,366.339 445.072,336.964 430.24,228.675 C 419.08,146.811 385.095,87.267 345.28,91.803 C 306.975,96.123 299.343,148.035 308.847,237.315 C 312.375,270.579 316.911,295.707 324.183,316.515 C 334.408,345.604 351.112,361.66 375.232,362.883 z M 400,670.108 C 442.264,680.764 472.576,658.66 483.376,557.932 C 491.008,486.579 480.64,418.108 430.672,405.868 C 386.464,394.996 364.288,443.092 349.672,528.628 C 344.128,561.46 342.256,588.389 347.224,610.349 C 354.784,643.9 373.36,663.556 400,670.108 z"
   style="fill:none;stroke:#59600e;stroke-width:15.98400021" />
				</g>
			</g>
			<g
   id="g51">
				<g
   id="g53">
					<path
   id="path55"
   d="M 521.824,275.044 L 504.471,282.388 C 506.703,246.604 507.423,221.764 505.911,205.996 C 503.535,183.46 497.055,158.548 485.679,131.692 C 473.944,103.9 460.119,81.076 442.767,61.78 C 432.183,48.892 414.183,32.98 389.272,12.82 L 406.624,5.476 C 455.152,40.18 454.792,39.316 470.632,55.084 C 489.28,74.884 502.672,96.844 511.817,118.516 C 523.625,146.308 529.529,172.444 530.464,198.724 C 530.248,215.14 527.8,240.772 521.824,275.044 z"
   style="fill:#98be6c;stroke:#75984a;stroke-width:7.9920001" />
					<path
   id="path57"
   d="M 618.592,625.828 L 601.24,633.172 C 603.544,597.389 604.263,572.548 602.752,556.78 C 600.376,534.244 593.897,509.332 582.52,482.476 C 570.712,454.684 556.96,431.86 539.609,412.564 C 529.025,399.675 511.025,383.764 486.113,363.604 L 503.465,356.188 C 551.993,390.963 551.561,390.1 567.473,405.868 C 586.121,425.668 599.513,447.628 608.658,469.3 C 620.466,497.092 626.37,523.229 627.234,549.508 C 627.088,565.923 624.568,591.556 618.592,625.828 z"
   style="fill:#98be6c;stroke:#75984a;stroke-width:7.9920001" />
					<path
   id="path59"
   d="M 385.528,520.419 L 366.736,520.419 C 382.719,488.379 393.088,465.772 397.767,450.651 C 404.391,428.979 408.135,403.563 408.135,374.331 C 408.135,344.163 404.32,317.883 395.896,293.331 C 391.143,277.347 380.776,255.675 365.656,227.379 L 384.519,227.379 C 415.623,278.283 415.623,277.347 424.12,298.083 C 433.552,323.499 437.368,348.844 437.368,372.459 C 437.368,402.627 432.687,428.98 423.256,453.531 C 416.632,468.58 404.392,491.188 385.528,520.419 z"
   style="fill:#98be6c;stroke:#75984a;stroke-width:7.9920001" />
					<path
   id="path61"
   d="M 309.712,824.62 L 301.288,807.772 C 337.143,807.844 361.984,807.051 377.608,804.604 C 400,800.86 424.408,792.868 450.616,779.908 C 477.616,766.516 499.576,751.396 517.792,732.892 C 530.032,721.516 544.792,702.58 563.44,676.516 L 571.792,693.436 C 540.04,743.908 540.904,743.476 526.144,760.324 C 507.497,780.052 486.401,794.74 465.304,805.252 C 438.304,818.645 412.529,826.204 386.392,828.652 C 369.976,829.444 344.272,828.507 309.712,824.62 z"
   style="fill:#98be6c;stroke:#75984a;stroke-width:7.9920001" />
					<path
   id="path63"
   d="M 284.296,4.396 L 303.52,8.86 C 281.057,35.572 264.785,56.02 257.008,68.764 C 245.56,89.356 236.2,113.332 229.504,142.708 C 222.952,171.22 220.504,198.652 223.312,224.428 C 224.608,240.196 229.864,263.668 238.216,294.556 L 219.856,290.38 C 201.712,238.828 200.488,235.66 197.968,212.836 C 194.872,196.708 194.8,180.22 196.96,162.364 C 197.896,153.868 198.904,145.372 200.776,137.092 C 207.544,107.716 217.984,83.02 232.456,62.14 C 242.248,48.964 259.24,29.596 284.296,4.396 z"
   style="fill:#98be6c;stroke:#75984a;stroke-width:7.9920001" />
					<path
   id="path65"
   d="M 354.136,265.972 L 372.352,273.676 C 345.497,296.068 325.913,313.42 316.048,324.58 C 301.144,342.868 287.824,364.756 276.088,392.548 C 264.712,419.477 257.584,446.116 255.856,471.964 C 254.272,487.66 255.424,511.708 258.304,543.605 L 240.952,536.26 C 232.024,482.332 231.376,479.021 232.816,456.124 C 232.672,439.636 235.408,423.436 240.664,406.228 C 243.112,398.02 245.488,389.812 248.8,382.036 C 260.536,354.244 275.152,331.852 293.008,313.78 C 304.888,302.476 324.976,286.42 354.136,265.972 z"
   style="fill:#98be6c;stroke:#75984a;stroke-width:7.9920001" />
					<path
   id="path67"
   d="M 173.848,285.844 L 190.84,295.996 C 161.176,314.5 139.36,328.972 128.056,338.692 C 110.848,354.675 94.504,374.547 79.096,400.467 C 64.12,425.596 53.32,451.012 48.064,476.356 C 44.392,491.764 42.16,515.668 40.648,547.708 L 24.448,537.988 C 23.008,483.412 22.864,479.956 27.472,457.492 C 29.56,441.148 34.528,425.452 42.088,409.108 C 45.616,401.404 49.144,393.628 53.536,386.356 C 68.944,360.436 86.512,340.276 106.672,324.868 C 120.064,315.292 142.24,302.116 173.848,285.844 z"
   style="fill:#98be6c;stroke:#75984a;stroke-width:7.9920001" />
					<path
   id="path69"
   d="M 14.44,598.54 L 26.536,582.845 C 41.44,614.452 53.248,637.781 61.528,650.164 C 75.496,669.172 93.352,687.676 117.256,706.036 C 140.44,723.82 164.416,737.5 189.04,745.708 C 203.872,751.108 227.416,756.148 259.024,761.404 L 247.504,776.308 C 193.072,771.339 189.688,771.123 167.872,763.923 C 151.96,759.963 136.912,753.195 121.576,743.764 C 114.304,739.371 106.96,734.908 100.264,729.795 C 76.288,711.363 58.288,691.564 45.328,669.747 C 37.336,655.348 26.896,631.804 14.44,598.54 z"
   style="fill:#98be6c;stroke:#75984a;stroke-width:7.9920001" />
				</g>
				<g
   id="g71">
					<path
   id="path73"
   d="M 373,677.596 C 383.008,683.068 393.736,687.316 405.184,690.268 C 447.953,701.284 477.976,687.316 500.153,656.644 C 516.209,640.012 527.729,618.268 532.768,585.436 C 537.808,551.956 533.56,512.211 518.584,459.58 C 504.112,411.772 480.856,371.812 450.688,353.236 C 456.376,346.828 461.489,339.484 466.025,331.204 C 477.905,308.524 481.504,276.412 472.649,229.756 C 461.632,180.148 446.081,133.492 423.401,91.732 C 407.056,67.9 389.921,50.692 373.001,40.612 L 373.001,79.06 C 401.945,95.26 425.057,145.948 433.841,210.676 C 448.673,318.964 417.785,348.34 378.833,344.884 C 376.817,344.74 374.945,344.597 373.001,344.237 L 373.001,432.941 C 387.041,397.805 406.193,380.957 434.273,387.869 C 484.241,400.109 494.609,468.581 486.976,539.933 C 476.176,640.661 445.865,662.765 403.6,652.109 C 391.72,649.229 381.424,643.685 373,635.405 L 373,677.596 z M 317.272,621.22 C 331.168,646.276 350.103,665.14 373,677.596 L 373,635.404 C 362.56,625.252 355,610.924 350.824,592.348 C 345.856,570.388 347.727,543.459 353.272,510.627 C 358.599,479.379 364.935,453.171 373,432.939 L 373,344.235 C 351.976,340.995 337.144,325.299 327.784,298.515 C 323.464,286.059 320.08,272.019 317.272,255.675 L 317.272,361.587 C 326.776,382.684 328.719,413.428 323.175,448.923 C 321.447,459.652 319.503,469.587 317.272,478.659 L 317.272,621.22 z M 373,40.612 C 358.456,31.9 344.056,28.444 330.448,30.532 C 325.696,31.612 321.376,33.196 317.272,35.428 L 317.272,99.796 C 323.751,84.316 333.975,75.46 348.879,73.804 C 357.232,72.868 365.367,74.74 372.999,79.06 L 372.999,40.612 L 373,40.612 z M 282.712,295.708 C 276.808,295.492 270.4,295.924 263.848,296.788 C 260.32,297.508 256.864,298.3 253.408,299.308 L 253.408,335.452 C 257.512,334.012 261.904,333.004 266.584,332.428 C 290.992,329.26 307.84,340.636 317.272,361.588 L 317.272,255.676 C 315.471,244.66 313.887,232.636 312.448,219.316 C 306.544,164.74 307.192,124.132 317.272,99.796 L 317.272,35.428 C 293.439,48.316 280.408,80.428 276.16,126.292 C 270.544,155.021 268.456,187.924 271.48,222.988 C 273.64,250.636 277.024,275.188 282.712,295.708 z M 253.408,606.028 C 272.992,601.78 289.912,592.42 304.599,578.091 C 306.543,592.779 310.215,606.316 315.759,618.339 C 316.263,619.348 316.767,620.283 317.272,621.22 L 317.272,478.66 C 303.519,535.612 280.335,561.676 253.408,570.532 L 253.408,606.028 L 253.408,606.028 z M 253.408,299.308 C 214.24,310.54 185.224,341.644 170.032,387.221 C 160.312,414.725 154.192,444.676 148,474.7 C 135.112,513.436 132.232,543.748 140.944,565.42 C 155.2,593.645 183.784,608.477 223.24,608.62 C 233.968,608.98 244.048,608.116 253.408,606.028 L 253.408,570.532 C 244.984,573.34 236.2,574.42 227.272,574.276 C 200.488,574.564 184.432,561.316 181.264,534.388 C 179.176,516.747 187.096,494.932 191.488,464.98 C 201.856,394.276 216.04,348.339 253.408,335.452 L 253.408,299.308 z"
   style="fill:#ccea97" />
					<path
   id="path75"
   d="M 282.712,295.708 C 276.808,295.492 270.4,295.924 263.848,296.788 C 219.352,305.284 186.52,337.612 170.032,387.221 C 160.312,414.725 154.192,444.676 148,474.7 C 135.112,513.436 132.232,543.748 140.944,565.42 C 155.2,593.645 183.784,608.477 223.24,608.62 C 256.216,609.628 282.784,599.332 304.599,578.092 C 306.543,592.78 310.215,606.317 315.759,618.34 C 335.631,655.996 366.736,680.189 405.183,690.269 C 447.952,701.285 477.975,687.317 500.152,656.645 C 516.208,640.013 527.728,618.269 532.767,585.437 C 537.807,551.957 533.559,512.212 518.583,459.581 C 504.111,411.773 480.855,371.813 450.687,353.237 C 456.375,346.829 461.488,339.485 466.024,331.205 C 477.904,308.525 481.503,276.413 472.648,229.757 C 461.631,180.149 446.08,133.493 423.4,91.733 C 392.944,47.309 359.896,25.997 330.448,30.533 C 298.048,37.805 281.2,72.725 276.16,126.293 C 270.544,155.022 268.456,187.925 271.48,222.989 C 273.64,250.636 277.024,275.188 282.712,295.708 z M 227.272,574.276 C 269.32,575.068 307.624,547.923 323.176,448.923 C 334.264,378.075 315.472,326.019 266.584,332.427 C 219.208,338.547 203.008,386.571 191.488,464.979 C 187.096,494.931 179.176,516.747 181.264,534.387 C 184.432,561.316 200.488,574.564 227.272,574.276 z M 378.832,344.883 C 417.784,348.339 448.672,318.964 433.84,210.675 C 422.68,128.811 388.696,69.267 348.88,73.803 C 310.576,78.123 302.872,130.035 312.448,219.315 C 315.975,252.579 320.511,277.707 327.784,298.515 C 338.008,327.676 354.712,343.732 378.832,344.883 z M 403.6,652.108 C 445.865,662.764 476.176,640.66 486.976,539.932 C 494.609,468.579 484.241,400.108 434.273,387.868 C 390.065,376.996 367.888,425.092 353.273,510.628 C 347.728,543.46 345.857,570.389 350.825,592.349 C 358.384,625.9 376.96,645.556 403.6,652.108 z"
   style="fill:none;stroke:#aec095;stroke-width:15.98400021" />
				</g>
			</g>
		</g></svg>