<?xml version="1.0" encoding="UTF-8" standalone="no"?>
<!-- Generator: Adobe Illustrator 10, SVG Export Plug-In . SVG Version: 3.0.0 Build 76)  -->
<svg
   xmlns:dc="http://purl.org/dc/elements/1.1/"
   xmlns:cc="http://creativecommons.org/ns#"
   xmlns:rdf="http://www.w3.org/1999/02/22-rdf-syntax-ns#"
   xmlns:svg="http://www.w3.org/2000/svg"
   xmlns="http://www.w3.org/2000/svg"
   xmlns:sodipodi="http://sodipodi.sourceforge.net/DTD/sodipodi-0.dtd"
   xmlns:inkscape="http://www.inkscape.org/namespaces/inkscape"
   width="516.79956"
   height="553.75299"
   viewBox="0 0 522.909 631.689"
   style="overflow:visible"
   xml:space="preserve"
   id="svg2455"
   sodipodi:version="0.32"
   inkscape:version="0.46"
   sodipodi:docname="blueberry.svg"
   inkscape:output_extension="org.inkscape.output.svg.inkscape"
   version="1.0"><metadata
   id="metadata2505"><rdf:RDF><cc:Work
       rdf:about=""><dc:format>image/svg+xml</dc:format><dc:type
         rdf:resource="http://purl.org/dc/dcmitype/StillImage" /></cc:Work></rdf:RDF></metadata><defs
   id="defs2503"><inkscape:perspective
   sodipodi:type="inkscape:persp3d"
   inkscape:vp_x="0 : 315.84451 : 1"
   inkscape:vp_y="0 : 1000 : 0"
   inkscape:vp_z="522.909 : 315.84451 : 1"
   inkscape:persp3d-origin="261.4545 : 210.56301 : 1"
   id="perspective2507" />
		
		
	</defs><sodipodi:namedview
   inkscape:window-height="670"
   inkscape:window-width="640"
   inkscape:pageshadow="2"
   inkscape:pageopacity="0.0"
   guidetolerance="10.0"
   gridtolerance="10.0"
   objecttolerance="10.0"
   borderopacity="1.0"
   bordercolor="#666666"
   pagecolor="#ffffff"
   id="base"
   showgrid="false"
   inkscape:zoom="0.73137253"
   inkscape:cx="261.4545"
   inkscape:cy="315.84451"
   inkscape:window-x="0"
   inkscape:window-y="0"
   inkscape:current-layer="svg2455" />
	<style
   type="text/css"
   id="style2457">
	
		@font-face{font-family:'Times-Roman';src:url(FA6558C6.cef)}
	
	</style>
	
<g
   transform="matrix(1.1407415,0,0,1.1407415,-40.460039,-0.2258947)"
   style="overflow:visible"
   id="g2476">
			<g
   id="g2478">
				<path
   id="path2480"
   d="M 275.2,107.946 C 318.687,108.306 350.656,127.458 369.592,162.45 C 385.792,191.97 393.208,230.274 393.208,278.946 C 393.208,326.035 385.792,364.339 372.544,395.299 C 352.168,437.563 320.2,459.667 275.2,460.171 L 275.2,421.795 C 317.391,421.147 345.832,390.115 347.416,289.603 C 347.128,289.963 346.912,290.324 346.624,290.683 C 330.352,311.347 308.103,321.715 279.232,321.715 C 277.864,321.715 276.568,321.715 275.2,321.643 L 275.2,299.97 C 277.504,300.114 279.807,300.186 282.183,300.186 C 284.847,300.186 287.44,300.042 289.959,299.827 C 284.703,299.179 279.807,297.955 275.199,296.155 L 275.199,270.955 C 281.678,277.003 290.39,280.387 301.766,280.387 C 332.078,280.387 341.222,253.099 341.222,223.939 C 341.222,215.803 340.647,208.531 338.846,201.907 C 338.63,200.971 338.342,200.107 338.054,199.243 C 337.262,196.867 336.326,194.563 335.174,192.331 C 328.479,179.587 317.534,173.539 301.766,173.539 C 290.39,173.539 281.678,177.571 275.199,184.267 L 275.199,158.923 C 277.934,157.699 280.815,156.691 283.766,155.899 C 282.758,155.827 281.75,155.827 280.67,155.827 C 278.87,155.827 276.998,155.899 275.198,156.043 L 275.198,107.946 L 275.2,107.946 z M 273.76,107.946 C 274.264,107.946 274.768,107.946 275.2,107.946 L 275.2,156.042 C 241.864,158.49 219.183,184.266 219.183,230.634 C 219.183,267.786 235.816,297.018 275.2,299.97 L 275.2,321.642 C 249.712,320.85 229.552,311.922 214.72,295.075 C 210.113,289.243 206.224,282.907 203.128,276.138 C 203.056,279.954 203.056,283.77 203.056,287.731 C 203.056,323.083 207.449,351.09 214.865,373.195 C 226.6,405.594 245.753,421.795 273.761,421.795 C 274.265,421.795 274.769,421.795 275.201,421.795 L 275.201,460.171 C 274.768,460.171 274.264,460.171 273.761,460.171 C 232.505,460.171 201.545,442.459 180.953,407.107 C 164.681,377.587 155.897,336.332 155.897,286.292 C 155.897,247.988 161.729,214.076 172.096,186.068 C 189.736,134.442 225.16,107.946 273.76,107.946 z M 275.2,158.922 C 251.584,169.434 237.328,194.634 237.328,229.986 C 237.328,262.674 251.368,286.794 275.2,296.154 L 275.2,270.954 C 265.48,261.81 261.015,246.762 261.015,228.762 C 261.015,210.834 265.48,194.418 275.2,184.266 L 275.2,158.922 z"
   style="fill:#3d1e01" />
				<path
   id="path2482"
   d="M 273.76,107.946 C 318.04,107.946 350.441,127.098 369.592,162.45 C 385.792,191.97 393.208,230.274 393.208,278.946 C 393.208,326.035 385.792,364.339 372.544,395.299 C 351.952,438.068 319.481,460.171 273.76,460.171 C 232.504,460.171 201.544,442.459 180.952,407.107 C 164.68,377.587 155.896,336.332 155.896,286.292 C 155.896,247.988 161.728,214.076 172.095,186.068 C 189.736,134.442 225.16,107.946 273.76,107.946 z M 347.416,289.602 C 347.128,289.962 346.912,290.323 346.624,290.682 C 330.352,311.346 308.103,321.714 279.232,321.714 C 251.799,321.714 230.271,312.786 214.719,295.074 C 210.112,289.242 206.223,282.906 203.127,276.137 C 203.055,279.953 203.055,283.769 203.055,287.73 C 203.055,323.082 207.448,351.089 214.864,373.194 C 226.599,405.593 245.752,421.794 273.76,421.794 C 316.744,421.794 345.76,391.266 347.416,289.602 z M 289.96,299.827 C 287.44,300.043 284.848,300.186 282.184,300.186 C 237.688,300.186 219.184,269.946 219.184,230.634 C 219.184,181.746 244.384,155.826 280.672,155.826 C 281.752,155.826 282.76,155.826 283.768,155.898 C 255.04,163.746 237.329,190.53 237.329,229.986 C 237.328,268.938 257.2,295.651 289.96,299.827 z M 301.768,280.386 C 332.08,280.386 341.224,253.098 341.224,223.938 C 341.224,215.802 340.649,208.53 338.848,201.906 C 338.632,200.97 338.344,200.106 338.056,199.242 C 337.264,196.866 336.328,194.562 335.176,192.33 C 328.481,179.586 317.536,173.538 301.768,173.538 C 273.184,173.538 261.016,199.026 261.016,228.762 C 261.016,258.57 273.184,280.386 301.768,280.386 z"
   style="fill:none;stroke:#3d1e01;stroke-width:7.9920001" />
			</g>
			<g
   id="g2484">
				<path
   id="path2486"
   d="M 264.4,97.146 C 307.887,97.506 339.856,116.658 358.792,151.65 C 374.992,181.17 382.408,219.474 382.408,268.146 C 382.408,315.234 374.992,353.538 361.744,384.498 C 341.368,426.762 309.4,448.866 264.4,449.37 L 264.4,410.994 C 306.591,410.346 335.032,379.313 336.616,278.802 C 336.328,279.162 336.112,279.522 335.824,279.882 C 319.552,300.546 297.303,310.914 268.431,310.914 C 267.064,310.914 265.767,310.914 264.4,310.842 L 264.4,289.242 C 266.704,289.386 269.007,289.458 271.383,289.458 C 274.047,289.458 276.639,289.314 279.159,289.098 C 273.903,288.378 269.007,287.155 264.399,285.354 L 264.399,260.154 C 270.878,266.202 279.59,269.586 290.966,269.586 C 321.278,269.586 330.422,242.298 330.422,213.138 C 330.422,205.002 329.846,197.73 328.046,191.106 C 327.83,190.17 327.542,189.306 327.254,188.442 C 326.462,186.066 325.526,183.762 324.374,181.53 C 317.678,168.786 306.734,162.738 290.966,162.738 C 279.59,162.738 270.878,166.77 264.399,173.466 L 264.399,148.122 C 267.134,146.898 270.014,145.89 272.966,145.098 C 271.958,145.026 270.95,145.026 269.87,145.026 C 268.07,145.026 266.198,145.098 264.398,145.242 L 264.398,97.146 L 264.4,97.146 z M 262.96,97.146 C 263.464,97.146 263.968,97.146 264.4,97.146 L 264.4,145.242 C 231.064,147.69 208.383,173.466 208.383,219.834 C 208.383,256.986 225.015,286.218 264.4,289.242 L 264.4,310.842 C 238.912,310.05 218.752,301.122 203.92,284.274 C 199.313,278.442 195.424,272.107 192.328,265.338 C 192.256,269.154 192.256,272.97 192.256,276.93 C 192.256,312.283 196.649,340.29 204.065,362.394 C 215.8,394.794 234.953,410.995 262.961,410.995 C 263.465,410.995 263.969,410.995 264.401,410.995 L 264.401,449.371 C 263.968,449.371 263.464,449.371 262.961,449.371 C 221.705,449.371 190.745,431.659 170.153,396.307 C 153.881,366.787 145.096,325.532 145.096,275.491 C 145.096,237.187 150.928,203.275 161.296,175.267 C 178.936,123.643 214.36,97.146 262.96,97.146 z M 264.4,148.123 C 240.784,158.635 226.528,183.835 226.528,219.187 C 226.528,251.875 240.568,275.995 264.4,285.354 L 264.4,260.154 C 254.679,251.01 250.215,235.962 250.215,217.962 C 250.215,200.034 254.679,183.618 264.4,173.466 L 264.4,148.123 z"
   style="fill:#d58bc3" />
				<path
   id="path2488"
   d="M 262.96,97.146 C 307.24,97.146 339.64,116.298 358.792,151.65 C 374.992,181.17 382.408,219.474 382.408,268.146 C 382.408,315.234 374.992,353.538 361.744,384.498 C 341.152,427.266 308.68,449.37 262.96,449.37 C 221.704,449.37 190.744,431.658 170.152,396.306 C 153.88,366.786 145.095,325.531 145.095,275.49 C 145.095,237.186 150.927,203.274 161.295,175.266 C 178.936,123.643 214.36,97.146 262.96,97.146 z M 336.616,278.802 C 336.328,279.162 336.112,279.522 335.824,279.882 C 319.552,300.546 297.303,310.914 268.431,310.914 C 240.999,310.914 219.471,301.986 203.919,284.273 C 199.312,278.441 195.423,272.106 192.327,265.337 C 192.255,269.153 192.255,272.969 192.255,276.929 C 192.255,312.282 196.648,340.289 204.064,362.393 C 215.799,394.793 234.952,410.994 262.96,410.994 C 305.944,410.995 334.96,380.466 336.616,278.802 z M 279.16,289.098 C 276.639,289.315 274.048,289.458 271.384,289.458 C 226.888,289.458 208.384,259.146 208.384,219.834 C 208.384,170.946 233.584,145.026 269.872,145.026 C 270.952,145.026 271.96,145.026 272.968,145.098 C 244.24,152.946 226.529,179.73 226.529,219.186 C 226.528,258.138 246.4,284.85 279.16,289.098 z M 290.968,269.586 C 321.28,269.586 330.424,242.298 330.424,213.138 C 330.424,205.002 329.848,197.73 328.048,191.106 C 327.832,190.17 327.544,189.306 327.256,188.442 C 326.464,186.066 325.528,183.762 324.376,181.53 C 317.68,168.786 306.736,162.738 290.968,162.738 C 262.384,162.738 250.216,188.226 250.216,217.962 C 250.216,247.771 262.384,269.586 290.968,269.586 z"
   style="fill:none;stroke:#af1888;stroke-width:7.9920001" />
			</g>
			<g
   id="g2490">
				<path
   id="path2492"
   d="M 124.936,236.754 L 111.472,235.746 L 111.472,183.906 L 131.92,201.258 C 129.112,212.346 126.808,224.154 124.936,236.754 z M 518.992,253.17 L 518.992,262.746 C 518.992,264.042 518.992,265.266 518.992,266.562 L 423.736,259.362 C 424.095,243.882 423.664,229.05 422.296,215.082 L 505.528,163.53 C 514.24,190.314 518.632,220.123 518.992,253.17 z M 111.472,505.243 L 111.472,407.539 L 130.985,395.442 C 132.281,399.762 133.72,403.938 135.233,408.043 C 150.712,445.915 175.768,470.827 211.552,482.995 L 206.945,543.619 C 169.792,536.491 137.968,523.747 111.472,505.243 z M 111.472,332.875 L 111.472,290.25 L 119.609,290.898 C 119.033,303.786 119.104,316.097 119.68,327.761 L 111.472,332.875 z M 111.472,101.97 L 111.472,64.242 C 146.752,34.002 192.544,17.442 246.976,14.994 L 242.224,78.498 C 204.208,85.41 175.84,105.93 155.897,139.626 L 111.472,101.97 z M 419.848,313.579 L 514.817,320.779 C 509.705,358.363 500.344,391.554 487.096,420.787 L 412.576,357.571 C 415.528,344.106 417.976,329.491 419.848,313.579 z M 477.664,107.083 L 406.744,150.787 C 391.048,115.507 363.472,90.883 319.552,80.803 L 324.16,20.035 C 394.432,31.771 446.056,61.65 477.664,107.083 z M 283.984,549.955 L 288.448,490.77 C 331.648,486.522 366.856,466.363 390.616,420.858 L 454.336,474.93 C 413.152,522.882 356.92,548.371 283.984,549.955 z M 111.472,235.747 L 27.088,229.339 C 32.992,195.427 43.144,164.683 56.824,137.467 L 111.471,183.907 L 111.471,235.747 L 111.472,235.747 z M 111.472,64.242 L 111.472,101.97 L 91.024,84.619 C 97.432,77.203 104.2,70.435 111.472,64.242 z M 111.472,290.25 L 111.472,332.874 L 30.616,382.77 C 24.496,358.218 21.256,331.291 21.112,302.274 L 21.112,298.243 C 21.112,293.419 21.256,288.45 21.4,283.483 L 111.472,290.25 z M 111.472,407.539 L 111.472,505.243 C 91.529,491.347 74.609,474.283 60.712,453.978 C 58.408,450.451 56.248,446.779 54.088,443.035 L 111.472,407.539 z"
   style="fill:#3d1e01" />
				<path
   id="path2494"
   d="M 124.936,236.754 L 27.088,229.338 C 32.992,195.426 43.144,164.682 56.824,137.466 L 131.92,201.258 C 129.112,212.346 126.808,224.154 124.936,236.754 z M 518.992,266.562 L 423.736,259.362 C 424.095,243.882 423.664,229.05 422.296,215.082 L 505.528,163.53 C 515.392,193.915 519.712,228.114 518.992,266.562 z M 419.848,313.579 L 514.817,320.779 C 509.705,358.363 500.344,391.554 487.096,420.787 L 412.576,357.571 C 415.528,344.106 417.976,329.491 419.848,313.579 z M 21.4,283.483 L 119.608,290.899 C 119.032,303.787 119.103,316.098 119.679,327.762 L 30.616,382.77 C 23.128,352.962 19.96,319.626 21.4,283.483 z M 477.664,107.083 L 406.744,150.787 C 391.048,115.507 363.472,90.883 319.552,80.803 L 324.16,20.035 C 394.432,31.771 446.056,61.65 477.664,107.083 z M 54.088,443.035 L 130.984,395.442 C 132.28,399.762 133.719,403.938 135.232,408.043 C 150.711,445.915 175.767,470.827 211.551,482.995 L 206.944,543.619 C 141.856,531.163 93.112,501.283 60.712,453.978 C 58.408,450.451 56.248,446.779 54.088,443.035 z M 246.976,14.995 L 242.224,78.499 C 204.208,85.411 175.84,105.931 155.897,139.627 L 91.024,84.619 C 128.32,41.346 181.384,17.946 246.976,14.995 z M 283.984,549.955 L 288.448,490.77 C 331.648,486.522 366.856,466.363 390.616,420.858 L 454.336,474.93 C 413.152,522.882 356.92,548.371 283.984,549.955 z"
   style="fill:none;stroke:#3d1e01;stroke-width:7.9920001" />
			</g>
			<g
   id="g2496">
				<path
   id="path2498"
   d="M 114.136,225.955 L 100.672,224.947 L 100.672,173.107 L 121.12,190.459 C 118.312,201.546 116.008,213.354 114.136,225.955 z M 508.192,242.371 L 508.192,251.947 C 508.192,253.243 508.192,254.467 508.192,255.763 L 412.935,248.563 C 413.295,233.083 412.864,218.251 411.496,204.283 L 494.728,152.731 C 503.439,179.514 507.832,209.322 508.192,242.371 z M 100.672,494.443 L 100.672,396.739 L 120.184,384.642 C 121.481,388.962 122.92,393.138 124.432,397.243 C 139.912,435.115 164.968,460.027 200.752,472.195 L 196.144,532.819 C 158.992,525.69 127.168,512.947 100.672,494.443 z M 100.672,322.075 L 100.672,279.45 L 108.808,280.098 C 108.233,293.059 108.304,305.298 108.88,316.962 L 100.672,322.075 z M 100.672,91.17 L 100.672,53.442 C 135.952,23.202 181.744,6.642 236.176,4.194 L 231.424,67.698 C 193.408,74.61 165.04,95.13 145.096,128.826 L 100.672,91.17 z M 409.048,302.779 L 504.016,309.978 C 498.905,347.562 489.544,380.754 476.296,409.987 L 401.776,346.77 C 404.729,333.306 407.176,318.69 409.048,302.779 z M 466.864,96.282 L 395.944,139.986 C 380.248,104.706 352.672,80.082 308.752,70.002 L 313.36,9.234 C 383.632,20.97 435.256,50.851 466.864,96.282 z M 273.184,539.155 L 277.649,479.97 C 320.848,475.722 356.056,455.562 379.817,410.058 L 443.537,464.13 C 402.352,512.083 346.12,537.571 273.184,539.155 z M 100.672,224.946 L 16.288,218.538 C 22.192,184.626 32.344,153.882 46.024,126.666 L 100.671,173.106 L 100.671,224.946 L 100.672,224.946 z M 100.672,53.442 L 100.672,91.17 L 80.224,73.818 C 86.632,66.402 93.4,59.634 100.672,53.442 z M 100.672,279.45 L 100.672,322.075 L 19.816,371.97 C 13.696,347.418 10.456,320.491 10.312,291.546 L 10.312,287.442 C 10.312,282.619 10.456,277.651 10.599,272.683 L 100.672,279.45 z M 100.672,396.739 L 100.672,494.443 C 80.729,480.547 63.808,463.482 49.912,443.178 C 47.608,439.651 45.448,435.978 43.288,432.235 L 100.672,396.739 z"
   style="fill:#e5bedd" />
				<path
   id="path2500"
   d="M 114.136,225.955 L 16.288,218.539 C 22.192,184.627 32.344,153.883 46.024,126.667 L 121.12,190.459 C 118.312,201.546 116.008,213.354 114.136,225.955 z M 508.192,255.762 L 412.935,248.562 C 413.295,233.082 412.864,218.25 411.496,204.282 L 494.728,152.73 C 504.592,183.114 508.912,217.314 508.192,255.762 z M 409.048,302.779 L 504.016,309.978 C 498.905,347.562 489.544,380.754 476.296,409.987 L 401.776,346.77 C 404.729,333.306 407.176,318.69 409.048,302.779 z M 10.6,272.683 L 108.808,280.099 C 108.233,293.06 108.304,305.299 108.88,316.963 L 19.816,371.97 C 12.328,342.163 9.16,308.827 10.6,272.683 z M 466.864,96.282 L 395.944,139.986 C 380.248,104.706 352.672,80.082 308.752,70.002 L 313.36,9.234 C 383.632,20.97 435.256,50.851 466.864,96.282 z M 43.288,432.235 L 120.184,384.642 C 121.481,388.962 122.92,393.138 124.432,397.243 C 139.912,435.115 164.968,460.027 200.752,472.195 L 196.144,532.819 C 131.056,520.363 82.313,490.482 49.913,443.178 C 47.608,439.651 45.448,435.978 43.288,432.235 z M 236.176,4.194 L 231.424,67.698 C 193.408,74.61 165.04,95.13 145.096,128.826 L 80.224,73.818 C 117.52,30.546 170.584,7.146 236.176,4.194 z M 273.184,539.155 L 277.649,479.97 C 320.848,475.722 356.056,455.562 379.817,410.058 L 443.537,464.13 C 402.352,512.083 346.12,537.571 273.184,539.155 z"
   style="fill:none;stroke:#c29bca;stroke-width:7.9920001" />
			</g>
		</g></svg>