<?xml version="1.0" encoding="iso-8859-1"?>
<!-- Generator: Adobe Illustrator 10, SVG Export Plug-In . SVG Version: 3.0.0 Build 76)  -->
<!DOCTYPE svg PUBLIC "-//W3C//DTD SVG 1.0//EN"    "http://www.w3.org/TR/2001/REC-SVG-20010904/DTD/svg10.dtd" [
	<!ENTITY ns_flows "http://ns.adobe.com/Flows/1.0/">
	<!ENTITY ns_svg "http://www.w3.org/2000/svg">
	<!ENTITY ns_xlink "http://www.w3.org/1999/xlink">
]>
<svg  xmlns="&ns_svg;" xmlns:xlink="&ns_xlink;" xmlns:a="http://ns.adobe.com/AdobeSVGViewerExtensions/3.0/"
	 width="522.909" height="631.689" viewBox="0 0 522.909 631.689"
	 style="overflow:visible;enable-background:new 0 0 522.909 631.689" xml:space="preserve">
	<style type="text/css">
	<![CDATA[
		@font-face{font-family:'Times-Roman';src:url(FA6558C6.cef)}
	]]>
	</style>
	<g id="Layer_1">
		<text transform="matrix(1 0 0 1 0 568.7261)"><tspan x="0" y="0" style="font-family:'Times-Roman'; font-size:12;">&quot;Blueberry&quot;</tspan><tspan x="0" y="14.5" style="font-family:'Times-Roman'; font-size:12;">Copyright </tspan><tspan x="51.668" y="14.5" style="font-family:'Times-Roman'; font-size:12;">&#xA9;</tspan><tspan x="60.785" y="14.5" style="font-family:'Times-Roman'; font-size:12;"> 2000 Rob Myers http://www.robmyers.org/ .</tspan><tspan x="0" y="29" style="font-family:'Times-Roman'; font-size:12;">This work is licensed under the Creative Commons Attribution-ShareAlike License.</tspan><tspan x="0" y="43.5" style="font-family:'Times-Roman'; font-size:12;">To view a copy of this license, visit http://creativecommons.org/licenses/by-sa/1.0/ </tspan><tspan x="0" y="58" style="font-family:'Times-Roman'; font-size:12;">or send a letter to Creative Commons, 559 Nathan Abbott Way, Stanford, California 94305, USA.</tspan></text>
		<g>
			<g>
				<path style="fill:#3D1E01;" d="M275.2,107.946c43.487,0.36,75.456,19.512,94.392,54.504
					c16.2,29.52,23.616,67.824,23.616,116.496c0,47.089-7.416,85.393-20.664,116.353c-20.376,42.264-52.344,64.368-97.344,64.872
					v-38.376c42.191-0.648,70.632-31.68,72.216-132.192c-0.288,0.36-0.504,0.721-0.792,1.08
					c-16.272,20.664-38.521,31.032-67.392,31.032c-1.368,0-2.664,0-4.032-0.072V299.97c2.304,0.144,4.607,0.216,6.983,0.216
					c2.664,0,5.257-0.144,7.776-0.359c-5.256-0.648-10.152-1.872-14.76-3.672v-25.2c6.479,6.048,15.191,9.432,26.567,9.432
					c30.312,0,39.456-27.288,39.456-56.448c0-8.136-0.575-15.408-2.376-22.032c-0.216-0.936-0.504-1.8-0.792-2.664
					c-0.792-2.376-1.728-4.68-2.88-6.912c-6.695-12.744-17.64-18.792-33.408-18.792c-11.376,0-20.088,4.032-26.567,10.728v-25.344
					c2.735-1.224,5.616-2.232,8.567-3.024c-1.008-0.072-2.016-0.072-3.096-0.072c-1.8,0-3.672,0.072-5.472,0.216V107.946z
					 M273.76,107.946c0.504,0,1.008,0,1.44,0v48.096c-33.336,2.448-56.017,28.224-56.017,74.592
					c0,37.152,16.633,66.384,56.017,69.336v21.672c-25.488-0.792-45.648-9.72-60.48-26.567c-4.607-5.832-8.496-12.168-11.592-18.937
					c-0.072,3.816-0.072,7.632-0.072,11.593c0,35.352,4.393,63.359,11.809,85.464c11.735,32.399,30.888,48.6,58.896,48.6
					c0.504,0,1.008,0,1.44,0v38.376c-0.433,0-0.937,0-1.44,0c-41.256,0-72.216-17.712-92.808-53.064
					c-16.272-29.52-25.056-70.775-25.056-120.815c0-38.304,5.832-72.216,16.199-100.224
					C189.736,134.442,225.16,107.946,273.76,107.946z M275.2,158.922c-23.616,10.512-37.872,35.712-37.872,71.064
					c0,32.688,14.04,56.808,37.872,66.168v-25.2c-9.72-9.144-14.185-24.192-14.185-42.192c0-17.928,4.465-34.344,14.185-44.496
					V158.922z"/>
				<path style="fill:none;stroke:#3D1E01;stroke-width:7.992;" d="M273.76,107.946c44.28,0,76.681,19.152,95.832,54.504
					c16.2,29.52,23.616,67.824,23.616,116.496c0,47.089-7.416,85.393-20.664,116.353c-20.592,42.769-53.063,64.872-98.784,64.872
					c-41.256,0-72.216-17.712-92.808-53.064c-16.272-29.52-25.056-70.775-25.056-120.815c0-38.304,5.832-72.216,16.199-100.224
					C189.736,134.442,225.16,107.946,273.76,107.946z M347.416,289.602c-0.288,0.36-0.504,0.721-0.792,1.08
					c-16.272,20.664-38.521,31.032-67.392,31.032c-27.433,0-48.961-8.928-64.513-26.64c-4.607-5.832-8.496-12.168-11.592-18.937
					c-0.072,3.816-0.072,7.632-0.072,11.593c0,35.352,4.393,63.359,11.809,85.464c11.735,32.399,30.888,48.6,58.896,48.6
					C316.744,421.794,345.76,391.266,347.416,289.602z M289.96,299.827c-2.52,0.216-5.112,0.359-7.776,0.359
					c-44.496,0-63-30.24-63-69.552c0-48.888,25.2-74.808,61.488-74.808c1.08,0,2.088,0,3.096,0.072
					c-28.728,7.848-46.439,34.632-46.439,74.088C237.328,268.938,257.2,295.651,289.96,299.827z M301.768,280.386
					c30.312,0,39.456-27.288,39.456-56.448c0-8.136-0.575-15.408-2.376-22.032c-0.216-0.936-0.504-1.8-0.792-2.664
					c-0.792-2.376-1.728-4.68-2.88-6.912c-6.695-12.744-17.64-18.792-33.408-18.792c-28.584,0-40.752,25.488-40.752,55.224
					C261.016,258.57,273.184,280.386,301.768,280.386z"/>
			</g>
			<g>
				<path style="fill:#D58BC3;" d="M264.4,97.146c43.487,0.36,75.456,19.512,94.392,54.504c16.2,29.52,23.616,67.824,23.616,116.496
					c0,47.088-7.416,85.392-20.664,116.352c-20.376,42.264-52.344,64.368-97.344,64.872v-38.376
					c42.191-0.648,70.632-31.681,72.216-132.192c-0.288,0.36-0.504,0.72-0.792,1.08c-16.272,20.664-38.521,31.032-67.393,31.032
					c-1.367,0-2.664,0-4.031-0.072v-21.6c2.304,0.144,4.607,0.216,6.983,0.216c2.664,0,5.256-0.144,7.776-0.36
					c-5.256-0.72-10.152-1.943-14.76-3.744v-25.2c6.479,6.048,15.191,9.432,26.567,9.432c30.312,0,39.456-27.288,39.456-56.448
					c0-8.136-0.576-15.408-2.376-22.032c-0.216-0.936-0.504-1.8-0.792-2.664c-0.792-2.376-1.728-4.68-2.88-6.912
					c-6.696-12.744-17.64-18.792-33.408-18.792c-11.376,0-20.088,4.032-26.567,10.728v-25.344c2.735-1.224,5.615-2.232,8.567-3.024
					c-1.008-0.072-2.016-0.072-3.096-0.072c-1.8,0-3.672,0.072-5.472,0.216V97.146z M262.96,97.146c0.504,0,1.008,0,1.44,0v48.096
					c-33.336,2.448-56.017,28.224-56.017,74.592c0,37.152,16.632,66.384,56.017,69.408v21.6c-25.488-0.792-45.648-9.72-60.48-26.568
					c-4.607-5.832-8.496-12.167-11.592-18.936c-0.072,3.816-0.072,7.632-0.072,11.592c0,35.353,4.393,63.36,11.809,85.464
					c11.735,32.4,30.888,48.601,58.896,48.601c0.504,0,1.008,0,1.44,0v38.376c-0.433,0-0.937,0-1.44,0
					c-41.256,0-72.216-17.712-92.808-53.064c-16.272-29.52-25.057-70.775-25.057-120.816c0-38.304,5.832-72.216,16.2-100.224
					C178.936,123.643,214.36,97.146,262.96,97.146z M264.4,148.123c-23.616,10.512-37.872,35.712-37.872,71.064
					c0,32.688,14.04,56.808,37.872,66.167v-25.2c-9.721-9.144-14.185-24.192-14.185-42.192c0-17.928,4.464-34.344,14.185-44.496
					V148.123z"/>
				<path style="fill:none;stroke:#AF1888;stroke-width:7.992;" d="M262.96,97.146c44.28,0,76.68,19.152,95.832,54.504
					c16.2,29.52,23.616,67.824,23.616,116.496c0,47.088-7.416,85.392-20.664,116.352c-20.592,42.768-53.064,64.872-98.784,64.872
					c-41.256,0-72.216-17.712-92.808-53.064c-16.272-29.52-25.057-70.775-25.057-120.816c0-38.304,5.832-72.216,16.2-100.224
					C178.936,123.643,214.36,97.146,262.96,97.146z M336.616,278.802c-0.288,0.36-0.504,0.72-0.792,1.08
					c-16.272,20.664-38.521,31.032-67.393,31.032c-27.432,0-48.96-8.928-64.512-26.641c-4.607-5.832-8.496-12.167-11.592-18.936
					c-0.072,3.816-0.072,7.632-0.072,11.592c0,35.353,4.393,63.36,11.809,85.464c11.735,32.4,30.888,48.601,58.896,48.601
					C305.944,410.995,334.96,380.466,336.616,278.802z M279.16,289.098c-2.521,0.217-5.112,0.36-7.776,0.36
					c-44.496,0-63-30.312-63-69.624c0-48.888,25.2-74.808,61.488-74.808c1.08,0,2.088,0,3.096,0.072
					c-28.728,7.848-46.439,34.632-46.439,74.088C226.528,258.138,246.4,284.85,279.16,289.098z M290.968,269.586
					c30.312,0,39.456-27.288,39.456-56.448c0-8.136-0.576-15.408-2.376-22.032c-0.216-0.936-0.504-1.8-0.792-2.664
					c-0.792-2.376-1.728-4.68-2.88-6.912c-6.696-12.744-17.64-18.792-33.408-18.792c-28.584,0-40.752,25.488-40.752,55.224
					C250.216,247.771,262.384,269.586,290.968,269.586z"/>
			</g>
			<g>
				<path style="fill:#3D1E01;" d="M124.936,236.754l-13.464-1.008v-51.84l20.448,17.352
					C129.112,212.346,126.808,224.154,124.936,236.754z M518.992,253.17v9.576c0,1.296,0,2.52,0,3.816l-95.256-7.2
					c0.359-15.48-0.072-30.312-1.44-44.28l83.232-51.552C514.24,190.314,518.632,220.123,518.992,253.17z M111.472,505.243v-97.704
					l19.513-12.097c1.296,4.32,2.735,8.496,4.248,12.601c15.479,37.872,40.535,62.784,76.319,74.952l-4.607,60.624
					C169.792,536.491,137.968,523.747,111.472,505.243z M111.472,332.875V290.25l8.137,0.648
					c-0.576,12.888-0.505,25.199,0.071,36.863L111.472,332.875z M111.472,101.97V64.242c35.28-30.24,81.072-46.8,135.504-49.248
					l-4.752,63.504c-38.016,6.912-66.384,27.432-86.327,61.128L111.472,101.97z M419.848,313.579l94.969,7.2
					c-5.112,37.584-14.473,70.775-27.721,100.008l-74.52-63.216C415.528,344.106,417.976,329.491,419.848,313.579z M477.664,107.083
					l-70.92,43.704c-15.696-35.28-43.272-59.904-87.192-69.984l4.608-60.768C394.432,31.771,446.056,61.65,477.664,107.083z
					 M283.984,549.955l4.464-59.185c43.2-4.248,78.408-24.407,102.168-69.912l63.72,54.072
					C413.152,522.882,356.92,548.371,283.984,549.955z M111.472,235.747l-84.384-6.408c5.904-33.912,16.056-64.656,29.736-91.872
					l54.647,46.44V235.747z M111.472,64.242v37.728L91.024,84.619C97.432,77.203,104.2,70.435,111.472,64.242z M111.472,290.25
					v42.624L30.616,382.77c-6.12-24.552-9.36-51.479-9.504-80.496v-4.031c0-4.824,0.144-9.793,0.288-14.76L111.472,290.25z
					 M111.472,407.539v97.704c-19.943-13.896-36.863-30.96-50.76-51.265c-2.304-3.527-4.464-7.199-6.624-10.943L111.472,407.539z"/>
				<path style="fill:none;stroke:#3D1E01;stroke-width:7.992;" d="M124.936,236.754l-97.848-7.416
					c5.904-33.912,16.056-64.656,29.736-91.872l75.096,63.792C129.112,212.346,126.808,224.154,124.936,236.754z M518.992,266.562
					l-95.256-7.2c0.359-15.48-0.072-30.312-1.44-44.28l83.232-51.552C515.392,193.915,519.712,228.114,518.992,266.562z
					 M419.848,313.579l94.969,7.2c-5.112,37.584-14.473,70.775-27.721,100.008l-74.52-63.216
					C415.528,344.106,417.976,329.491,419.848,313.579z M21.4,283.483l98.208,7.416c-0.576,12.888-0.505,25.199,0.071,36.863
					L30.616,382.77C23.128,352.962,19.96,319.626,21.4,283.483z M477.664,107.083l-70.92,43.704
					c-15.696-35.28-43.272-59.904-87.192-69.984l4.608-60.768C394.432,31.771,446.056,61.65,477.664,107.083z M54.088,443.035
					l76.896-47.593c1.296,4.32,2.735,8.496,4.248,12.601c15.479,37.872,40.535,62.784,76.319,74.952l-4.607,60.624
					c-65.088-12.456-113.832-42.336-146.232-89.641C58.408,450.451,56.248,446.779,54.088,443.035z M246.976,14.995l-4.752,63.504
					c-38.016,6.912-66.384,27.432-86.327,61.128L91.024,84.619C128.32,41.346,181.384,17.946,246.976,14.995z M283.984,549.955
					l4.464-59.185c43.2-4.248,78.408-24.407,102.168-69.912l63.72,54.072C413.152,522.882,356.92,548.371,283.984,549.955z"/>
			</g>
			<g>
				<path style="fill:#E5BEDD;" d="M114.136,225.955l-13.464-1.008v-51.84l20.448,17.352
					C118.312,201.546,116.008,213.354,114.136,225.955z M508.192,242.371v9.576c0,1.296,0,2.52,0,3.816l-95.257-7.2
					c0.36-15.48-0.071-30.312-1.439-44.28l83.232-51.552C503.439,179.514,507.832,209.322,508.192,242.371z M100.672,494.443
					v-97.704l19.512-12.097c1.297,4.32,2.736,8.496,4.248,12.601c15.48,37.872,40.536,62.784,76.32,74.952l-4.608,60.624
					C158.992,525.69,127.168,512.947,100.672,494.443z M100.672,322.075V279.45l8.136,0.648c-0.575,12.961-0.504,25.2,0.072,36.864
					L100.672,322.075z M100.672,91.17V53.442c35.28-30.24,81.072-46.8,135.504-49.248l-4.752,63.504
					c-38.016,6.912-66.384,27.432-86.328,61.128L100.672,91.17z M409.048,302.779l94.968,7.199
					c-5.111,37.584-14.472,70.776-27.72,100.009l-74.52-63.217C404.729,333.306,407.176,318.69,409.048,302.779z M466.864,96.282
					l-70.92,43.704c-15.696-35.28-43.272-59.904-87.192-69.984l4.608-60.768C383.632,20.97,435.256,50.851,466.864,96.282z
					 M273.184,539.155l4.465-59.185c43.199-4.248,78.407-24.408,102.168-69.912l63.72,54.072
					C402.352,512.083,346.12,537.571,273.184,539.155z M100.672,224.946l-84.384-6.408c5.904-33.912,16.056-64.656,29.736-91.872
					l54.647,46.44V224.946z M100.672,53.442V91.17L80.224,73.818C86.632,66.402,93.4,59.634,100.672,53.442z M100.672,279.45v42.625
					L19.816,371.97c-6.12-24.552-9.36-51.479-9.504-80.424v-4.104c0-4.823,0.144-9.791,0.287-14.759L100.672,279.45z
					 M100.672,396.739v97.704c-19.943-13.896-36.864-30.961-50.76-51.265c-2.304-3.527-4.464-7.2-6.624-10.943L100.672,396.739z"/>
				<path style="fill:none;stroke:#C29BCA;stroke-width:7.992;" d="M114.136,225.955l-97.848-7.416
					c5.904-33.912,16.056-64.656,29.736-91.872l75.096,63.792C118.312,201.546,116.008,213.354,114.136,225.955z M508.192,255.762
					l-95.257-7.2c0.36-15.48-0.071-30.312-1.439-44.28l83.232-51.552C504.592,183.114,508.912,217.314,508.192,255.762z
					 M409.048,302.779l94.968,7.199c-5.111,37.584-14.472,70.776-27.72,100.009l-74.52-63.217
					C404.729,333.306,407.176,318.69,409.048,302.779z M10.6,272.683l98.208,7.416c-0.575,12.961-0.504,25.2,0.072,36.864
					L19.816,371.97C12.328,342.163,9.16,308.827,10.6,272.683z M466.864,96.282l-70.92,43.704
					c-15.696-35.28-43.272-59.904-87.192-69.984l4.608-60.768C383.632,20.97,435.256,50.851,466.864,96.282z M43.288,432.235
					l76.896-47.593c1.297,4.32,2.736,8.496,4.248,12.601c15.48,37.872,40.536,62.784,76.32,74.952l-4.608,60.624
					c-65.088-12.456-113.831-42.337-146.231-89.641C47.608,439.651,45.448,435.978,43.288,432.235z M236.176,4.194l-4.752,63.504
					c-38.016,6.912-66.384,27.432-86.328,61.128L80.224,73.818C117.52,30.546,170.584,7.146,236.176,4.194z M273.184,539.155
					l4.465-59.185c43.199-4.248,78.407-24.408,102.168-69.912l63.72,54.072C402.352,512.083,346.12,537.571,273.184,539.155z"/>
			</g>
		</g>
	</g>
</svg>
