<?xml version="1.0" encoding="iso-8859-1"?>
<!-- Generator: Adobe Illustrator 10, SVG Export Plug-In . SVG Version: 3.0.0 Build 76)  -->
<!DOCTYPE svg PUBLIC "-//W3C//DTD SVG 1.0//EN"    "http://www.w3.org/TR/2001/REC-SVG-20010904/DTD/svg10.dtd" [
	<!ENTITY ns_flows "http://ns.adobe.com/Flows/1.0/">
	<!ENTITY ns_svg "http://www.w3.org/2000/svg">
	<!ENTITY ns_xlink "http://www.w3.org/1999/xlink">
]>
<svg  xmlns="&ns_svg;" xmlns:xlink="&ns_xlink;" xmlns:a="http://ns.adobe.com/AdobeSVGViewerExtensions/3.0/"
	 width="468.311" height="747.057" viewBox="0 0 468.311 747.057"
	 style="overflow:visible;enable-background:new 0 0 468.311 747.057" xml:space="preserve">
	<style type="text/css">
	<![CDATA[
		@font-face{font-family:'Times-Roman';src:url(19E451E5.cef)}
	]]>
	</style>
	<g id="Layer_1">
		<text transform="matrix(1 0 0 1 0 684.0942)"><tspan x="0" y="0" style="font-family:'Times-Roman'; font-size:12;">&quot;Cherries&quot;</tspan><tspan x="0" y="14.5" style="font-family:'Times-Roman'; font-size:12;">Copyright </tspan><tspan x="51.668" y="14.5" style="font-family:'Times-Roman'; font-size:12;">&#xA9;</tspan><tspan x="60.785" y="14.5" style="font-family:'Times-Roman'; font-size:12;"> 2000 Rob Myers http://www.robmyers.org/ .</tspan><tspan x="0" y="29" style="font-family:'Times-Roman'; font-size:12;">This work is licensed under the Creative Commons Attribution-ShareAlike License.</tspan><tspan x="0" y="43.5" style="font-family:'Times-Roman'; font-size:12;">To view a copy of this license, visit http://creativecommons.org/licenses/by-sa/1.0/ </tspan><tspan x="0" y="58" style="font-family:'Times-Roman'; font-size:12;">or send a letter to Creative Commons, 559 Nathan Abbott Way, Stanford, California 94305, USA.</tspan></text>
		<g>
			<g>
				<path style="stroke:#000000;stroke-width:7.992;" d="M42.872,185.651c8.928-8.064,17.928-16.057,26.928-24.12
					c36.144,63.216,77.616,128.088,92.736,209.448c15.12,81.504,16.272,161.208,24.696,240.983
					c-14.544,3.168-29.304,5.977-44.136,7.992c-6.696-76.752-3.528-154.08-13.176-234.504
					C120.2,304.955,78.8,244.115,42.872,185.651z"/>
				<path style="stroke:#000000;stroke-width:7.992;" d="M94.712,139.859c8.928-8.496,17.712-17.137,26.424-25.92
					c36.72,71.928,78.264,144.216,103.536,226.871c25.416,83.16,47.736,159.912,59.473,245.232
					c-12.457,5.4-34.345,15.192-48.889,18.792c-10.008-82.296-22.896-165.096-42.84-247.248
					C172.544,275.579,131.216,207.107,94.712,139.859z"/>
				<path style="stroke:#000000;stroke-width:7.992;" d="M133.016,92.338c8.784-8.784,17.496-17.496,26.28-26.496
					c36,77.4,77.256,153.36,110.664,235.008c33.696,82.297,75.744,155.593,107.64,236.232
					c-12.455,9.288-33.264,20.592-47.231,26.064c-22.968-82.009-61.272-156.816-90.216-240.049
					C211.424,240.514,169.232,166.93,133.016,92.338z"/>
				<path style="stroke:#000000;stroke-width:7.992;" d="M28.688,123.586c10.656-0.936,20.088,7.056,20.952,17.712
					c0.864,10.656-7.128,20.088-17.784,20.952c-10.656,0.864-20.088-7.056-20.952-17.784
					C10.04,133.811,18.032,124.451,28.688,123.586z"/>
				<path style="stroke:#000000;stroke-width:7.992;" d="M84.704,78.875c10.656-0.864,20.088,7.128,20.952,17.784
					c0.864,10.656-7.128,20.088-17.784,20.952c-10.656,0.863-20.016-7.128-20.952-17.784C66.056,89.17,74.048,79.739,84.704,78.875z
					"/>
				<path style="stroke:#000000;stroke-width:7.992;" d="M127.688,28.042c10.656-0.864,20.088,7.128,20.952,17.784
					c0.864,10.656-7.056,20.088-17.712,20.952c-10.656,0.863-20.088-7.128-20.952-17.784
					C109.112,38.338,117.032,28.907,127.688,28.042z"/>
				<path style="stroke:#000000;stroke-width:7.992;" d="M154.544,28.258c31.104,21.456,60.696,52.776,84.024,91.584
					c60.552,98.712,59.184,209.521-2.952,247.248c-61.848,37.584-160.92-11.88-220.392-109.872l33.48,407.16l38.664-3.168
					C79.52,597.995,122,515.05,199.184,454.499c70.272-54.576,150.625-77.04,209.448-64.08L377.384,9.97L154.544,28.258z"/>
			</g>
			<path style="fill:#E1BDD0;stroke:#A55A4F;stroke-width:7.992;" d="M44.96,154.115c9.576-7.272,19.224-14.544,28.8-21.816
				c30.816,66.024,66.888,134.064,75.312,216.36c8.352,82.439,2.952,162,4.896,242.208c-14.832,1.943-29.736,3.527-44.712,4.32
				c-0.36-77.04,9.144-153.864,6.048-234.792C112.28,279.395,75.992,215.386,44.96,154.115z"/>
			<path style="fill:#E1BDD0;stroke:#A55A4F;stroke-width:7.992;" d="M100.4,112.787c9.576-7.776,19.08-15.624,28.512-23.76
				c30.672,74.735,66.168,150.191,84.527,234.647c18.504,84.96,34.488,163.296,39.168,249.265
				c-12.887,4.392-35.424,12.384-50.255,14.76c-3.24-82.8-9.288-166.464-22.464-249.984
				C166.856,254.411,131.288,182.771,100.4,112.787z"/>
			<path style="fill:#E1BDD0;stroke:#A55A4F;stroke-width:7.992;" d="M142.52,68.506c9.432-8.063,18.864-15.983,28.296-24.264
				c29.592,80.136,64.44,159.191,91.008,243.288c26.855,84.815,62.783,161.279,88.056,244.296
				c-13.248,8.208-34.991,17.784-49.319,22.104c-16.129-83.592-48.24-161.352-70.272-246.672
				C208.472,222.586,172.472,145.834,142.52,68.506z"/>
			<path style="fill:#FB674E;stroke:#EF1209;stroke-width:7.992;" d="M35.888,91.115c10.728,0,19.44,8.712,19.44,19.368
				c0,10.728-8.712,19.439-19.44,19.439c-10.656,0-19.368-8.712-19.368-19.439C16.52,99.827,25.232,91.115,35.888,91.115z"/>
			<path style="fill:#FB674E;stroke:#EF1209;stroke-width:7.992;" d="M95.432,51.155c10.656,0,19.368,8.712,19.368,19.439
				c0,10.656-8.712,19.368-19.368,19.368c-10.728,0-19.44-8.712-19.44-19.368C75.992,59.867,84.704,51.155,95.432,51.155z"/>
			<path style="fill:#FB674E;stroke:#EF1209;stroke-width:7.992;" d="M142.448,3.995c10.656,0,19.44,8.784,19.44,19.439
				c0,10.729-8.784,19.44-19.44,19.44c-10.728,0-19.44-8.712-19.44-19.44C123.008,12.779,131.72,3.995,142.448,3.995z"/>
			<path style="fill:#D1D193;stroke:#A8A810;stroke-width:7.992;" d="M169.16,6.443c29.232,23.903,56.16,57.527,76.248,98.208
				c52.271,103.319,41.832,213.624-23.256,246.096c-64.729,32.4-159.336-25.056-210.601-127.512v408.527H50.36
				c-2.664-63.72,46.44-142.848,128.376-196.848c74.52-48.6,156.384-64.44,213.984-46.728V6.443H169.16z"/>
		</g>
	</g>
</svg>
