<?xml version="1.0" encoding="UTF-8" standalone="no"?>
<!-- Generator: Adobe Illustrator 10, SVG Export Plug-In . SVG Version: 3.0.0 Build 76)  -->
<svg
   xmlns:dc="http://purl.org/dc/elements/1.1/"
   xmlns:cc="http://creativecommons.org/ns#"
   xmlns:rdf="http://www.w3.org/1999/02/22-rdf-syntax-ns#"
   xmlns:svg="http://www.w3.org/2000/svg"
   xmlns="http://www.w3.org/2000/svg"
   xmlns:sodipodi="http://sodipodi.sourceforge.net/DTD/sodipodi-0.dtd"
   xmlns:inkscape="http://www.inkscape.org/namespaces/inkscape"
   width="605.95203"
   height="644.039"
   viewBox="0 0 614.396 722.698"
   style="overflow:visible"
   xml:space="preserve"
   id="svg2569"
   sodipodi:version="0.32"
   inkscape:version="0.46"
   sodipodi:docname="cinnamon.svg"
   inkscape:output_extension="org.inkscape.output.svg.inkscape"
   version="1.0"><metadata
   id="metadata2629"><rdf:RDF><cc:Work
       rdf:about=""><dc:format>image/svg+xml</dc:format><dc:type
         rdf:resource="http://purl.org/dc/dcmitype/StillImage" /></cc:Work></rdf:RDF></metadata><defs
   id="defs2627"><inkscape:perspective
   sodipodi:type="inkscape:persp3d"
   inkscape:vp_x="0 : 361.349 : 1"
   inkscape:vp_y="0 : 1000 : 0"
   inkscape:vp_z="614.396 : 361.349 : 1"
   inkscape:persp3d-origin="307.198 : 240.89933 : 1"
   id="perspective2631" />
		
		
	</defs><sodipodi:namedview
   inkscape:window-height="670"
   inkscape:window-width="640"
   inkscape:pageshadow="2"
   inkscape:pageopacity="0.0"
   guidetolerance="10.0"
   gridtolerance="10.0"
   objecttolerance="10.0"
   borderopacity="1.0"
   bordercolor="#666666"
   pagecolor="#ffffff"
   id="base"
   showgrid="false"
   inkscape:zoom="0.63927118"
   inkscape:cx="307.198"
   inkscape:cy="361.349"
   inkscape:window-x="0"
   inkscape:window-y="0"
   inkscape:current-layer="svg2569" />
	<style
   type="text/css"
   id="style2571">
	
		@font-face{font-family:'Times-Roman';src:url(6A71AE93.cef)}
	
	</style>
	
<g
   transform="matrix(1.1221339,0,0,1.1221339,-40.694945,-1.0592893)"
   style="overflow:visible"
   id="g2590">
			<g
   id="g2592">
				<g
   id="g2594">
					<path
   id="path2596"
   d="M 100.472,39.068 L 164.768,16.388 L 243.68,186.524 L 215.744,203.588 L 100.472,39.068 z"
   style="fill:#7d5b00;stroke:#7d5b00;stroke-width:7.9920001" />
					<path
   id="path2598"
   d="M 82.544,640.987 L 30.92,596.42 L 139.352,443.42 L 168.08,459.188 L 82.544,640.987 z"
   style="fill:#7d5b00;stroke:#7d5b00;stroke-width:7.9920001" />
					<path
   id="path2600"
   d="M 484.232,472.147 L 428,510.668 L 307.688,366.884 L 330.152,343.196 L 484.232,472.147 z"
   style="fill:#7d5b00;stroke:#7d5b00;stroke-width:7.9920001" />
					<path
   id="path2602"
   d="M 566.24,110.276 L 609.008,163.412 L 474.944,294.523 L 449.528,273.859 L 566.24,110.276 z"
   style="fill:#7d5b00;stroke:#7d5b00;stroke-width:7.9920001" />
				</g>
				<g
   id="g2604">
					<path
   id="path2606"
   d="M 462.56,370.916 C 481.712,372.716 501.008,373.58 520.376,373.939 C 518,340.46 510.944,305.899 519.44,273.139 C 528.511,237.571 551.551,205.171 570.776,171.115 C 542.839,172.843 514.687,175.939 486.536,179.899 C 478.544,181.051 470.552,182.203 462.559,183.427 L 462.559,215.899 C 484.448,213.595 506.335,211.435 528.223,209.491 C 516.776,232.315 504.103,254.347 498.992,277.747 C 494.24,299.923 497.84,322.891 499.136,345.283 C 486.897,344.851 474.728,344.204 462.56,343.483 L 462.56,370.916 L 462.56,370.916 z M 309.632,410.804 C 314.888,411.451 320.216,412.388 325.472,413.468 C 350.241,418.724 374.72,425.42 399.056,431.828 C 397.905,408.716 396.68,385.603 395.672,362.563 C 416.408,365.443 437.072,368.395 457.808,370.483 C 459.392,370.628 460.976,370.771 462.56,370.916 L 462.56,343.483 C 441.248,342.259 420.008,340.532 398.768,338.587 C 398.121,319.075 395.456,299.347 397.905,279.907 C 400.425,260.035 408.129,240.667 414.968,220.939 C 430.808,219.211 446.72,217.483 462.56,215.899 L 462.56,183.427 C 442.544,186.379 422.529,189.547 402.657,192.427 C 397.401,207.763 392.144,223.099 387.321,238.435 C 361.257,240.163 335.337,241.459 309.633,240.307 L 309.633,272.275 C 327.633,273.859 345.778,273.499 363.849,273.355 C 362.41,292.435 363.561,311.443 363.921,330.379 C 364.281,349.243 365.001,368.251 365.721,387.187 C 347.289,383.66 328.785,379.916 310.137,376.963 C 309.993,376.963 309.849,376.963 309.633,376.891 L 309.633,410.804 L 309.632,410.804 z M 309.632,206.107 L 309.632,116.395 C 314.672,117.043 319.784,117.691 324.824,118.267 C 322.015,138.571 318.416,158.947 314.599,179.179 C 312.944,188.18 311.216,197.107 309.632,206.107 z M 232.664,318.86 C 230.864,319.076 229.064,319.292 227.264,319.58 L 227.264,502.676 C 235.184,499.508 243.104,496.412 251.024,493.604 C 249.944,466.028 249.8,438.452 250.088,410.804 C 269.96,408.356 289.976,408.212 309.632,410.804 L 309.632,376.892 C 291.128,374.084 272.408,374.156 253.544,375.884 C 254.048,357.884 254.696,339.956 255.56,321.956 C 256.496,303.956 255.56,285.956 254.984,267.956 C 273.2,268.676 291.272,270.62 309.488,272.276 C 309.56,272.276 309.632,272.276 309.632,272.276 L 309.632,240.308 C 307.688,240.236 305.672,240.092 303.656,240.02 C 305.528,228.716 307.616,217.412 309.632,206.108 L 309.632,116.396 C 285.8,113.372 261.824,109.34 237.92,104.3 C 234.32,103.58 230.792,102.86 227.264,102.068 L 227.264,144.044 C 242.6,146.492 257.936,148.868 273.272,151.172 C 270.248,179.036 267.44,206.756 264.992,234.548 C 252.392,233.756 239.864,233.18 227.264,232.604 L 227.264,265.076 C 228.776,265.076 230.288,265.004 231.8,265.004 C 232.52,283.004 233.672,300.86 232.664,318.86 z M 227.264,319.58 C 207.032,322.172 186.8,325.268 166.712,328.724 C 166.352,328.796 166.064,328.869 165.776,328.869 L 165.776,367.1 C 184.064,362.78 202.424,358.676 220.856,354.716 C 219.776,374.012 218.912,393.236 218.264,412.388 C 217.544,431.54 217.184,450.764 216.968,469.916 C 199.76,477.044 182.696,484.388 165.776,491.876 L 165.776,531.332 C 166.28,531.044 166.784,530.828 167.216,530.54 C 187.016,520.315 207.104,510.956 227.264,502.676 L 227.264,319.58 z M 227.264,102.068 C 206.816,97.676 186.368,92.996 165.776,88.388 L 165.776,267.452 C 186.296,266.372 206.816,265.58 227.264,265.076 L 227.264,232.604 C 213.728,232.028 200.192,231.596 186.656,231.236 C 184.424,199.7 182.48,168.236 181.328,136.628 C 196.664,139.148 212,141.596 227.264,144.044 L 227.264,102.068 z M 165.776,328.868 C 144.32,332.612 122.864,336.499 101.552,340.603 C 97.448,378.835 93.632,417.139 90.752,455.299 C 87.872,493.459 86.432,531.691 86.576,569.851 C 112.712,558.547 138.992,545.155 165.776,531.331 L 165.776,491.875 C 147.272,499.938 128.912,508.146 110.696,516.139 C 111.632,493.171 112.856,470.131 114.44,447.163 C 116.024,424.123 117.968,401.083 120.056,378.043 C 135.248,374.371 150.44,370.698 165.776,367.099 L 165.776,328.868 z M 165.776,88.388 C 160.448,87.236 155.048,86.012 149.72,84.86 C 148.352,115.46 149.792,145.988 153.032,176.3 C 156.2,206.756 160.16,237.14 163.688,267.524 C 164.408,267.524 165.056,267.452 165.776,267.452 L 165.776,88.388 z"
   style="fill:#7d5b00" />
					<path
   id="path2608"
   d="M 232.664,318.86 C 210.632,321.668 188.6,324.907 166.712,328.724 C 144.968,332.54 123.152,336.428 101.552,340.604 C 97.448,378.836 93.632,417.14 90.752,455.3 C 87.872,493.46 86.432,531.692 86.576,569.852 C 113.216,558.332 140,544.652 167.216,530.54 C 194.72,516.355 222.8,503.756 251.024,493.603 C 249.944,466.027 249.8,438.451 250.088,410.803 C 275.36,407.635 300.776,408.282 325.472,413.467 C 350.241,418.723 374.72,425.419 399.056,431.827 C 397.905,408.715 396.68,385.602 395.672,362.562 C 416.408,365.442 437.072,368.394 457.808,370.482 C 478.544,372.57 499.352,373.579 520.376,373.938 C 518,340.459 510.944,305.898 519.44,273.138 C 528.511,237.57 551.551,205.17 570.776,171.114 C 542.839,172.842 514.687,175.938 486.536,179.898 C 458.528,183.858 430.519,188.394 402.656,192.426 C 397.4,207.762 392.143,223.098 387.32,238.434 C 359.24,240.306 331.303,241.602 303.656,240.018 C 307.112,219.714 310.855,199.482 314.599,179.178 C 318.415,158.946 322.015,138.57 324.824,118.266 C 295.952,115.098 266.936,110.346 237.92,104.298 C 208.616,98.178 179.24,91.338 149.72,84.858 C 148.352,115.458 149.792,145.986 153.032,176.298 C 156.2,206.754 160.16,237.138 163.688,267.522 C 186.44,266.37 209.12,265.506 231.8,265.002 C 232.52,283.004 233.672,300.86 232.664,318.86 z M 120.056,378.044 C 153.392,369.98 187.016,361.916 220.856,354.716 C 219.776,374.012 218.912,393.236 218.264,412.388 C 217.544,431.54 217.184,450.764 216.968,469.916 C 180.968,484.819 145.616,500.804 110.696,516.14 C 111.632,493.172 112.856,470.132 114.44,447.164 C 116.024,424.124 117.968,401.084 120.056,378.044 z M 254.984,267.956 C 273.2,268.676 291.272,270.62 309.488,272.276 C 327.488,273.86 345.704,273.5 363.848,273.356 C 362.409,292.436 363.56,311.444 363.92,330.38 C 364.28,349.244 365,368.252 365.72,387.188 C 347.288,383.661 328.784,379.917 310.136,376.964 C 291.488,374.084 272.552,374.155 253.544,375.884 C 254.048,357.884 254.696,339.956 255.56,321.956 C 256.496,303.956 255.56,285.956 254.984,267.956 z M 181.328,136.628 C 212.072,141.668 242.672,146.564 273.272,151.172 C 270.248,179.036 267.44,206.756 264.992,234.548 C 238.928,232.964 212.864,231.956 186.656,231.236 C 184.424,199.7 182.48,168.236 181.328,136.628 z M 414.968,220.939 C 452.697,216.835 490.424,212.875 528.224,209.491 C 516.777,232.315 504.104,254.347 498.993,277.747 C 494.241,299.923 497.841,322.891 499.137,345.283 C 465.585,343.987 432.105,341.683 398.769,338.588 C 398.122,319.076 395.457,299.348 397.906,279.908 C 400.424,260.036 408.128,240.667 414.968,220.939 z"
   style="fill:none;stroke:#7d5b00;stroke-width:7.9920001" />
				</g>
			</g>
			<g
   id="g2610">
				<path
   id="path2612"
   d="M 89.168,26.54 L 153.824,4.94 L 230.072,176.228 L 201.92,192.86 L 89.168,26.54 z"
   style="fill:#fee395;stroke:#ffd911;stroke-width:7.9920001" />
				<path
   id="path2614"
   d="M 61.952,628.172 L 11.048,582.812 L 121.856,431.468 L 150.296,447.668 L 61.952,628.172 z"
   style="fill:#fee395;stroke:#ffd911;stroke-width:7.9920001" />
				<path
   id="path2616"
   d="M 466.232,465.523 L 409.423,503.179 L 291.343,357.595 L 314.167,334.267 L 466.232,465.523 z"
   style="fill:#fee395;stroke:#ffd911;stroke-width:7.9920001" />
				<path
   id="path2618"
   d="M 553.784,104.948 L 595.76,158.66 L 459.68,287.756 L 434.552,266.732 L 553.784,104.948 z"
   style="fill:#fee395;stroke:#ffd911;stroke-width:7.9920001" />
			</g>
			<g
   id="g2620">
				<path
   id="path2622"
   d="M 447.872,364.147 C 466.448,366.091 485.096,367.244 503.816,367.891 C 502.015,334.339 495.536,299.707 504.463,267.019 C 514.111,231.595 537.655,199.555 557.383,165.859 C 529.375,167.083 501.223,169.747 473.071,173.347 C 464.647,174.355 456.295,175.507 447.871,176.587 L 447.871,208.987 C 469.975,207.043 492.079,205.171 514.255,203.515 C 502.447,226.195 489.415,248.011 484.015,271.339 C 478.831,293.443 482.072,316.483 483.079,338.947 C 471.343,338.299 459.607,337.578 447.871,336.642 L 447.871,364.147 L 447.872,364.147 z M 293.072,401.516 C 298.184,402.308 303.368,403.245 308.408,404.396 C 333.103,410.012 357.44,417.14 381.704,423.836 C 380.84,400.724 379.975,377.611 379.328,354.571 C 399.992,357.739 420.656,361.051 441.391,363.427 C 443.551,363.643 445.711,363.931 447.871,364.147 L 447.871,336.643 C 426.127,334.987 404.455,332.971 382.783,330.666 C 382.495,311.083 380.047,291.354 382.855,271.987 C 385.663,252.115 393.655,232.891 400.855,213.235 C 416.55,211.795 432.174,210.355 447.871,208.987 L 447.871,176.587 C 428.215,179.251 408.487,181.987 388.975,184.579 C 383.431,199.843 378.032,215.107 372.919,230.299 C 346.135,231.667 319.495,232.603 293.071,230.875 L 293.071,262.771 C 293.575,262.843 294.079,262.843 294.511,262.915 C 312.511,264.859 330.726,264.715 348.943,264.859 C 347.142,283.939 348.006,302.947 348.079,321.883 C 348.151,340.819 348.583,359.755 349.015,378.763 C 330.656,374.875 312.223,370.843 293.576,367.675 C 293.432,367.675 293.216,367.603 293.072,367.603 L 293.072,401.516 z M 293.072,210.428 L 293.072,106.532 C 299.48,107.468 305.96,108.404 312.296,109.196 C 309.2,129.5 305.312,149.804 301.208,169.964 C 298.472,183.5 295.736,196.964 293.072,210.428 z M 217.04,308.348 C 216.176,308.492 215.24,308.564 214.304,308.636 L 214.304,490.004 C 220.424,487.628 226.544,485.468 232.664,483.38 C 232.088,455.804 232.376,428.155 233.024,400.58 C 253.112,398.348 273.272,398.563 293.072,401.516 L 293.072,367.604 C 274.64,364.508 255.92,364.292 237.056,365.661 C 237.848,347.732 238.712,329.805 239.936,311.805 C 241.088,293.877 240.44,275.805 240.152,257.805 C 257.864,258.741 275.432,260.901 293.072,262.773 L 293.072,230.877 C 291.776,230.805 290.48,230.733 289.184,230.589 C 290.48,223.893 291.776,217.197 293.072,210.429 L 293.072,106.532 C 270.608,103.22 248.072,98.972 225.536,93.932 C 221.792,93.068 218.048,92.204 214.304,91.34 L 214.304,133.532 C 229.64,136.196 244.904,138.788 260.168,141.38 C 256.712,169.1 253.544,196.82 250.664,224.54 C 238.568,223.604 226.472,222.812 214.304,222.092 L 214.304,254.492 C 215.24,254.492 216.104,254.492 217.04,254.492 C 217.472,272.492 218.336,290.42 217.04,308.348 z M 214.304,308.636 C 193.208,311.084 172.04,313.892 150.944,317.204 C 150.08,317.348 149.216,317.492 148.352,317.636 L 148.352,355.796 C 167.072,351.692 185.792,347.732 204.656,344.06 C 203.36,363.356 202.136,382.508 201.2,401.661 C 200.192,420.812 199.544,439.965 199.04,459.116 C 182.048,465.885 165.128,472.868 148.352,479.925 L 148.352,519.021 C 170.096,508.221 192.128,498.429 214.304,490.005 L 214.304,308.636 L 214.304,308.636 z M 214.304,91.34 C 192.416,86.3 170.456,80.9 148.352,75.644 L 148.352,251.036 C 148.496,252.692 148.712,254.348 148.856,256.004 C 170.672,255.212 192.56,254.636 214.304,254.492 L 214.304,222.092 C 200.408,221.3 186.368,220.652 172.4,220.004 C 170.672,188.468 169.16,156.932 168.512,125.324 C 183.776,128.132 199.112,130.796 214.304,133.532 L 214.304,91.34 z M 148.352,317.636 C 127.4,320.948 106.448,324.404 85.64,328.075 C 80.96,366.235 76.496,404.468 73.04,442.628 C 69.584,480.716 67.568,518.947 67.136,557.036 C 93.92,545.947 120.848,532.699 148.352,519.019 L 148.352,479.923 C 129.416,487.915 110.696,495.906 92.048,503.755 C 93.344,480.787 94.928,457.747 96.872,434.851 C 98.816,411.811 101.12,388.771 103.496,365.803 C 118.4,362.419 133.376,359.035 148.352,355.795 L 148.352,317.636 z M 148.352,75.644 C 144.824,74.78 141.224,73.916 137.696,73.124 C 135.824,103.652 136.832,134.18 139.568,164.564 C 142.16,193.436 145.4,222.236 148.352,251.036 L 148.352,75.644 z"
   style="fill:#ffe834" />
				<path
   id="path2624"
   d="M 217.04,308.348 C 195.008,310.796 172.904,313.748 150.944,317.204 C 129.128,320.66 107.312,324.188 85.64,328.076 C 80.96,366.236 76.496,404.469 73.04,442.629 C 69.584,480.717 67.568,518.948 67.136,557.037 C 93.92,545.948 120.848,532.7 148.352,519.02 C 176.072,505.268 204.368,493.028 232.664,483.38 C 232.088,455.804 232.376,428.155 233.024,400.58 C 258.368,397.771 283.712,398.851 308.408,404.395 C 333.103,410.011 357.44,417.139 381.704,423.835 C 380.84,400.723 379.975,377.61 379.328,354.57 C 399.992,357.738 420.656,361.05 441.391,363.426 C 462.055,365.802 482.864,367.17 503.816,367.89 C 502.015,334.338 495.536,299.706 504.463,267.018 C 514.111,231.594 537.655,199.554 557.383,165.858 C 529.375,167.082 501.223,169.746 473.071,173.346 C 444.991,176.874 416.839,180.906 388.974,184.578 C 383.43,199.842 378.031,215.106 372.918,230.298 C 344.838,231.738 316.83,232.674 289.182,230.586 C 292.998,210.426 297.03,190.194 301.206,169.962 C 305.31,149.802 309.198,129.498 312.294,109.194 C 283.494,105.594 254.55,100.41 225.534,93.93 C 196.374,87.378 167.142,80.034 137.694,73.122 C 135.822,103.65 136.83,134.178 139.566,164.562 C 142.302,195.09 145.83,225.546 148.854,256.002 C 171.606,255.138 194.358,254.634 217.038,254.49 C 217.472,272.492 218.336,290.42 217.04,308.348 z M 103.496,365.804 C 136.976,358.244 170.672,350.684 204.656,344.06 C 203.36,363.356 202.136,382.508 201.2,401.661 C 200.192,420.812 199.544,439.965 199.04,459.116 C 162.824,473.516 127.184,488.925 92.048,503.757 C 93.344,480.789 94.928,457.749 96.872,434.853 C 98.816,411.812 101.12,388.771 103.496,365.804 z M 240.152,257.804 C 258.368,258.812 276.44,261.044 294.512,262.916 C 312.512,264.86 330.727,264.716 348.944,264.86 C 347.143,283.94 348.007,302.948 348.08,321.884 C 348.152,340.82 348.584,359.756 349.016,378.764 C 330.657,374.876 312.224,370.844 293.577,367.676 C 275.001,364.508 256.065,364.292 237.057,365.66 C 237.849,347.731 238.713,329.804 239.937,311.804 C 241.088,293.875 240.44,275.804 240.152,257.804 z M 168.512,125.324 C 199.184,130.868 229.712,136.268 260.168,141.38 C 256.712,169.1 253.544,196.82 250.664,224.54 C 224.6,222.524 198.536,221.156 172.4,220.004 C 170.672,188.468 169.16,156.932 168.512,125.324 z M 400.856,213.236 C 438.584,209.708 476.383,206.324 514.255,203.516 C 502.447,226.196 489.415,248.012 484.015,271.34 C 478.831,293.444 482.072,316.484 483.079,338.948 C 449.527,337.147 416.119,334.196 382.783,330.667 C 382.495,311.084 380.047,291.355 382.855,271.988 C 385.664,252.116 393.656,232.892 400.856,213.236 z"
   style="fill:none;stroke:#ffd128;stroke-width:7.9920001" />
			</g>
		</g></svg>