<?xml version="1.0" encoding="iso-8859-1"?>
<!-- Generator: Adobe Illustrator 10, SVG Export Plug-In . SVG Version: 3.0.0 Build 76)  -->
<!DOCTYPE svg PUBLIC "-//W3C//DTD SVG 1.0//EN"    "http://www.w3.org/TR/2001/REC-SVG-20010904/DTD/svg10.dtd" [
	<!ENTITY ns_flows "http://ns.adobe.com/Flows/1.0/">
	<!ENTITY ns_svg "http://www.w3.org/2000/svg">
	<!ENTITY ns_xlink "http://www.w3.org/1999/xlink">
]>
<svg  xmlns="&ns_svg;" xmlns:xlink="&ns_xlink;" xmlns:a="http://ns.adobe.com/AdobeSVGViewerExtensions/3.0/"
	 width="614.396" height="722.698" viewBox="0 0 614.396 722.698"
	 style="overflow:visible;enable-background:new 0 0 614.396 722.698" xml:space="preserve">
	<style type="text/css">
	<![CDATA[
		@font-face{font-family:'Times-Roman';src:url(6A71AE93.cef)}
	]]>
	</style>
	<g id="Layer_1">
		<text transform="matrix(1 0 0 1 0 659.7354)"><tspan x="0" y="0" style="font-family:'Times-Roman'; font-size:12;">&quot;Cinnamon&quot;</tspan><tspan x="0" y="14.5" style="font-family:'Times-Roman'; font-size:12;">Copyright </tspan><tspan x="51.668" y="14.5" style="font-family:'Times-Roman'; font-size:12;">&#xA9;</tspan><tspan x="60.785" y="14.5" style="font-family:'Times-Roman'; font-size:12;"> 2000 Rob Myers http://www.robmyers.org/ .</tspan><tspan x="0" y="29" style="font-family:'Times-Roman'; font-size:12;">This work is licensed under the Creative Commons Attribution-ShareAlike License.</tspan><tspan x="0" y="43.5" style="font-family:'Times-Roman'; font-size:12;">To view a copy of this license, visit http://creativecommons.org/licenses/by-sa/1.0/ </tspan><tspan x="0" y="58" style="font-family:'Times-Roman'; font-size:12;">or send a letter to Creative Commons, 559 Nathan Abbott Way, Stanford, California 94305, USA.</tspan></text>
		<g>
			<g>
				<g>
					<path style="fill:#7D5B00;stroke:#7D5B00;stroke-width:7.992;" d="M100.472,39.068l64.296-22.68l78.912,170.136l-27.936,17.064
						L100.472,39.068z"/>
					<path style="fill:#7D5B00;stroke:#7D5B00;stroke-width:7.992;" d="M82.544,640.987L30.92,596.42l108.432-153l28.728,15.768
						L82.544,640.987z"/>
					<path style="fill:#7D5B00;stroke:#7D5B00;stroke-width:7.992;" d="M484.232,472.147L428,510.668L307.688,366.884l22.464-23.688
						L484.232,472.147z"/>
					<path style="fill:#7D5B00;stroke:#7D5B00;stroke-width:7.992;" d="M566.24,110.276l42.768,53.136L474.944,294.523
						l-25.416-20.664L566.24,110.276z"/>
				</g>
				<g>
					<path style="fill:#7D5B00;" d="M462.56,370.916c19.152,1.8,38.448,2.664,57.816,3.023c-2.376-33.479-9.432-68.04-0.936-100.8
						c9.071-35.568,32.111-67.968,51.336-102.024c-27.937,1.728-56.089,4.824-84.24,8.784c-7.992,1.152-15.984,2.304-23.977,3.528
						v32.472c21.889-2.304,43.776-4.464,65.664-6.408c-11.447,22.824-24.12,44.856-29.231,68.256
						c-4.752,22.176-1.152,45.144,0.144,67.536c-12.239-0.432-24.408-1.079-36.576-1.8V370.916z M309.632,410.804
						c5.256,0.647,10.584,1.584,15.84,2.664c24.769,5.256,49.248,11.952,73.584,18.36c-1.151-23.112-2.376-46.225-3.384-69.265
						c20.736,2.88,41.4,5.832,62.136,7.92c1.584,0.145,3.168,0.288,4.752,0.433v-27.433c-21.312-1.224-42.552-2.951-63.792-4.896
						c-0.647-19.512-3.312-39.24-0.863-58.68c2.52-19.872,10.224-39.24,17.063-58.968c15.84-1.728,31.752-3.456,47.592-5.04v-32.472
						c-20.016,2.952-40.031,6.12-59.903,9c-5.256,15.336-10.513,30.672-15.336,46.008c-26.064,1.728-51.984,3.024-77.688,1.872
						v31.968c18,1.584,36.145,1.224,54.216,1.08c-1.439,19.08-0.288,38.088,0.072,57.024c0.36,18.864,1.08,37.872,1.8,56.808
						c-18.432-3.527-36.936-7.271-55.584-10.224c-0.144,0-0.288,0-0.504-0.072V410.804z M309.632,206.107v-89.712
						c5.04,0.648,10.152,1.296,15.192,1.872c-2.809,20.304-6.408,40.68-10.225,60.912
						C312.944,188.18,311.216,197.107,309.632,206.107z M232.664,318.86c-1.8,0.216-3.6,0.432-5.4,0.72v183.096
						c7.92-3.168,15.84-6.264,23.76-9.072c-1.08-27.576-1.224-55.152-0.936-82.8c19.872-2.448,39.888-2.592,59.544,0v-33.912
						c-18.504-2.808-37.224-2.736-56.088-1.008c0.504-18,1.152-35.928,2.016-53.928c0.936-18,0-36-0.576-54
						c18.216,0.72,36.288,2.664,54.504,4.32c0.072,0,0.144,0,0.144,0v-31.968c-1.944-0.072-3.96-0.216-5.976-0.288
						c1.872-11.304,3.96-22.608,5.976-33.912v-89.712c-23.832-3.024-47.808-7.056-71.712-12.096c-3.6-0.72-7.128-1.44-10.656-2.232
						v41.976c15.336,2.448,30.672,4.824,46.008,7.128c-3.024,27.864-5.832,55.584-8.28,83.376
						c-12.6-0.792-25.128-1.368-37.728-1.944v32.472c1.512,0,3.024-0.072,4.536-0.072C232.52,283.004,233.672,300.86,232.664,318.86
						z M227.264,319.58c-20.232,2.592-40.464,5.688-60.552,9.144c-0.36,0.072-0.648,0.145-0.936,0.145V367.1
						c18.288-4.32,36.648-8.424,55.08-12.384c-1.08,19.296-1.944,38.52-2.592,57.672c-0.72,19.152-1.08,38.376-1.296,57.528
						c-17.208,7.128-34.272,14.472-51.192,21.96v39.456c0.504-0.288,1.008-0.504,1.44-0.792
						c19.8-10.225,39.888-19.584,60.048-27.864V319.58z M227.264,102.068c-20.448-4.392-40.896-9.072-61.488-13.68v179.064
						c20.52-1.08,41.04-1.872,61.488-2.376v-32.472c-13.536-0.576-27.072-1.008-40.608-1.368c-2.232-31.536-4.176-63-5.328-94.608
						c15.336,2.52,30.672,4.968,45.936,7.416V102.068z M165.776,328.868c-21.456,3.744-42.912,7.631-64.224,11.735
						c-4.104,38.232-7.92,76.536-10.8,114.696s-4.32,76.392-4.176,114.552c26.136-11.304,52.416-24.696,79.2-38.52v-39.456
						c-18.504,8.063-36.864,16.271-55.08,24.264c0.936-22.968,2.16-46.008,3.744-68.976c1.584-23.04,3.528-46.08,5.616-69.12
						c15.192-3.672,30.384-7.345,45.72-10.944V328.868z M165.776,88.388c-5.328-1.152-10.728-2.376-16.056-3.528
						c-1.368,30.6,0.072,61.128,3.312,91.44c3.168,30.456,7.128,60.84,10.656,91.224c0.72,0,1.368-0.072,2.088-0.072V88.388z"/>
					<path style="fill:none;stroke:#7D5B00;stroke-width:7.992;" d="M232.664,318.86c-22.032,2.808-44.064,6.047-65.952,9.864
						c-21.744,3.816-43.56,7.704-65.16,11.88c-4.104,38.232-7.92,76.536-10.8,114.696s-4.32,76.392-4.176,114.552
						c26.64-11.52,53.424-25.2,80.64-39.312c27.504-14.185,55.584-26.784,83.808-36.937c-1.08-27.576-1.224-55.152-0.936-82.8
						c25.272-3.168,50.688-2.521,75.384,2.664c24.769,5.256,49.248,11.952,73.584,18.36c-1.151-23.112-2.376-46.225-3.384-69.265
						c20.736,2.88,41.4,5.832,62.136,7.92c20.736,2.088,41.544,3.097,62.568,3.456c-2.376-33.479-9.432-68.04-0.936-100.8
						c9.071-35.568,32.111-67.968,51.336-102.024c-27.937,1.728-56.089,4.824-84.24,8.784c-28.008,3.96-56.017,8.496-83.88,12.528
						c-5.256,15.336-10.513,30.672-15.336,46.008c-28.08,1.872-56.017,3.168-83.664,1.584c3.456-20.304,7.199-40.536,10.943-60.84
						c3.816-20.232,7.416-40.608,10.225-60.912c-28.872-3.168-57.888-7.92-86.904-13.968c-29.304-6.12-58.68-12.96-88.2-19.44
						c-1.368,30.6,0.072,61.128,3.312,91.44c3.168,30.456,7.128,60.84,10.656,91.224c22.752-1.152,45.432-2.016,68.112-2.52
						C232.52,283.004,233.672,300.86,232.664,318.86z M120.056,378.044c33.336-8.064,66.96-16.128,100.8-23.328
						c-1.08,19.296-1.944,38.52-2.592,57.672c-0.72,19.152-1.08,38.376-1.296,57.528c-36,14.903-71.352,30.888-106.272,46.224
						c0.936-22.968,2.16-46.008,3.744-68.976C116.024,424.124,117.968,401.084,120.056,378.044z M254.984,267.956
						c18.216,0.72,36.288,2.664,54.504,4.32c18,1.584,36.216,1.224,54.36,1.08c-1.439,19.08-0.288,38.088,0.072,57.024
						c0.36,18.864,1.08,37.872,1.8,56.808c-18.432-3.527-36.936-7.271-55.584-10.224c-18.648-2.88-37.584-2.809-56.592-1.08
						c0.504-18,1.152-35.928,2.016-53.928C256.496,303.956,255.56,285.956,254.984,267.956z M181.328,136.628
						c30.744,5.04,61.344,9.936,91.944,14.544c-3.024,27.864-5.832,55.584-8.28,83.376c-26.064-1.584-52.128-2.592-78.336-3.312
						C184.424,199.7,182.48,168.236,181.328,136.628z M414.968,220.939c37.729-4.104,75.456-8.064,113.256-11.448
						c-11.447,22.824-24.12,44.856-29.231,68.256c-4.752,22.176-1.152,45.144,0.144,67.536c-33.552-1.296-67.032-3.6-100.368-6.695
						c-0.647-19.512-3.312-39.24-0.863-58.68C400.424,260.036,408.128,240.667,414.968,220.939z"/>
				</g>
			</g>
			<g>
				<path style="fill:#FEE395;stroke:#FFD911;stroke-width:7.992;" d="M89.168,26.54l64.656-21.6l76.248,171.288L201.92,192.86
					L89.168,26.54z"/>
				<path style="fill:#FEE395;stroke:#FFD911;stroke-width:7.992;" d="M61.952,628.172l-50.904-45.36l110.808-151.344l28.44,16.2
					L61.952,628.172z"/>
				<path style="fill:#FEE395;stroke:#FFD911;stroke-width:7.992;" d="M466.232,465.523l-56.809,37.656l-118.08-145.584
					l22.824-23.328L466.232,465.523z"/>
				<path style="fill:#FEE395;stroke:#FFD911;stroke-width:7.992;" d="M553.784,104.948l41.976,53.712L459.68,287.756
					l-25.128-21.024L553.784,104.948z"/>
			</g>
			<g>
				<path style="fill:#FFE834;" d="M447.872,364.147c18.576,1.944,37.224,3.097,55.944,3.744
					c-1.801-33.552-8.28-68.184,0.647-100.872c9.648-35.424,33.192-67.464,52.92-101.16c-28.008,1.224-56.16,3.888-84.312,7.488
					c-8.424,1.008-16.776,2.16-25.2,3.24v32.4c22.104-1.944,44.208-3.816,66.384-5.472c-11.808,22.68-24.84,44.496-30.24,67.824
					c-5.184,22.104-1.943,45.144-0.936,67.608c-11.736-0.648-23.472-1.369-35.208-2.305V364.147z M293.072,401.516
					c5.112,0.792,10.296,1.729,15.336,2.88c24.695,5.616,49.032,12.744,73.296,19.44c-0.864-23.112-1.729-46.225-2.376-69.265
					c20.664,3.168,41.328,6.48,62.063,8.856c2.16,0.216,4.32,0.504,6.48,0.72v-27.504c-21.744-1.656-43.416-3.672-65.088-5.977
					c-0.288-19.583-2.736-39.312,0.072-58.679c2.808-19.872,10.8-39.096,18-58.752c15.695-1.44,31.319-2.88,47.016-4.248v-32.4
					c-19.656,2.664-39.384,5.4-58.896,7.992c-5.544,15.264-10.943,30.528-16.056,45.72c-26.784,1.368-53.424,2.304-79.848,0.576
					v31.896c0.504,0.072,1.008,0.072,1.44,0.144c18,1.944,36.215,1.8,54.432,1.944c-1.801,19.08-0.937,38.088-0.864,57.024
					c0.072,18.936,0.504,37.872,0.936,56.88c-18.359-3.888-36.792-7.92-55.439-11.088c-0.144,0-0.36-0.072-0.504-0.072V401.516z
					 M293.072,210.428V106.532c6.408,0.936,12.888,1.872,19.224,2.664c-3.096,20.304-6.984,40.608-11.088,60.768
					C298.472,183.5,295.736,196.964,293.072,210.428z M217.04,308.348c-0.864,0.144-1.8,0.216-2.736,0.288v181.368
					c6.12-2.376,12.24-4.536,18.36-6.624c-0.576-27.576-0.288-55.225,0.36-82.8c20.088-2.232,40.248-2.017,60.048,0.936v-33.912
					c-18.432-3.096-37.152-3.312-56.016-1.943c0.792-17.929,1.656-35.856,2.88-53.856c1.152-17.928,0.504-36,0.216-54
					c17.712,0.936,35.28,3.096,52.92,4.968v-31.896c-1.296-0.072-2.592-0.144-3.888-0.288c1.296-6.696,2.592-13.392,3.888-20.16
					V106.532c-22.464-3.312-45-7.56-67.536-12.6c-3.744-0.864-7.488-1.728-11.232-2.592v42.192
					c15.336,2.664,30.6,5.256,45.864,7.848c-3.456,27.72-6.624,55.44-9.504,83.16c-12.096-0.936-24.192-1.728-36.36-2.448v32.4
					c0.936,0,1.8,0,2.736,0C217.472,272.492,218.336,290.42,217.04,308.348z M214.304,308.636
					c-21.096,2.448-42.264,5.256-63.36,8.568c-0.864,0.144-1.728,0.288-2.592,0.432v38.16c18.72-4.104,37.44-8.064,56.304-11.736
					c-1.296,19.296-2.52,38.448-3.456,57.601c-1.008,19.151-1.656,38.304-2.16,57.455c-16.992,6.769-33.912,13.752-50.688,20.809
					v39.096c21.744-10.8,43.776-20.592,65.952-29.016V308.636z M214.304,91.34c-21.888-5.04-43.848-10.44-65.952-15.696v175.392
					c0.144,1.656,0.36,3.312,0.504,4.968c21.816-0.792,43.704-1.368,65.448-1.512v-32.4c-13.896-0.792-27.936-1.44-41.904-2.088
					c-1.728-31.536-3.24-63.072-3.888-94.68c15.264,2.808,30.6,5.472,45.792,8.208V91.34z M148.352,317.636
					c-20.952,3.312-41.904,6.768-62.712,10.439c-4.68,38.16-9.144,76.393-12.6,114.553c-3.456,38.088-5.472,76.319-5.904,114.408
					c26.784-11.089,53.712-24.337,81.216-38.017v-39.096c-18.936,7.992-37.656,15.983-56.304,23.832
					c1.296-22.968,2.88-46.008,4.824-68.904c1.944-23.04,4.248-46.08,6.624-69.048c14.904-3.384,29.88-6.768,44.856-10.008V317.636z
					 M148.352,75.644c-3.528-0.864-7.128-1.728-10.656-2.52c-1.872,30.528-0.864,61.056,1.872,91.44
					c2.592,28.872,5.832,57.672,8.784,86.472V75.644z"/>
				<path style="fill:none;stroke:#FFD128;stroke-width:7.992;" d="M217.04,308.348c-22.032,2.448-44.136,5.4-66.096,8.856
					c-21.816,3.456-43.632,6.984-65.304,10.872c-4.68,38.16-9.144,76.393-12.6,114.553c-3.456,38.088-5.472,76.319-5.904,114.408
					c26.784-11.089,53.712-24.337,81.216-38.017c27.72-13.752,56.016-25.992,84.312-35.64c-0.576-27.576-0.288-55.225,0.36-82.8
					c25.344-2.809,50.688-1.729,75.384,3.815c24.695,5.616,49.032,12.744,73.296,19.44c-0.864-23.112-1.729-46.225-2.376-69.265
					c20.664,3.168,41.328,6.48,62.063,8.856c20.664,2.376,41.473,3.744,62.425,4.464c-1.801-33.552-8.28-68.184,0.647-100.872
					c9.648-35.424,33.192-67.464,52.92-101.16c-28.008,1.224-56.16,3.888-84.312,7.488c-28.08,3.528-56.232,7.56-84.097,11.232
					c-5.544,15.264-10.943,30.528-16.056,45.72c-28.08,1.44-56.088,2.376-83.736,0.288c3.816-20.16,7.848-40.392,12.024-60.624
					c4.104-20.16,7.992-40.464,11.088-60.768c-28.8-3.6-57.744-8.784-86.76-15.264c-29.16-6.552-58.392-13.896-87.84-20.808
					c-1.872,30.528-0.864,61.056,1.872,91.44c2.736,30.528,6.264,60.984,9.288,91.44c22.752-0.864,45.504-1.368,68.184-1.512
					C217.472,272.492,218.336,290.42,217.04,308.348z M103.496,365.804c33.48-7.56,67.176-15.12,101.16-21.744
					c-1.296,19.296-2.52,38.448-3.456,57.601c-1.008,19.151-1.656,38.304-2.16,57.455c-36.216,14.4-71.856,29.809-106.992,44.641
					c1.296-22.968,2.88-46.008,4.824-68.904C98.816,411.812,101.12,388.771,103.496,365.804z M240.152,257.804
					c18.216,1.008,36.288,3.24,54.36,5.112c18,1.944,36.215,1.8,54.432,1.944c-1.801,19.08-0.937,38.088-0.864,57.024
					c0.072,18.936,0.504,37.872,0.936,56.88c-18.359-3.888-36.792-7.92-55.439-11.088c-18.576-3.168-37.512-3.384-56.52-2.016
					c0.792-17.929,1.656-35.856,2.88-53.856C241.088,293.875,240.44,275.804,240.152,257.804z M168.512,125.324
					c30.672,5.544,61.2,10.944,91.656,16.056c-3.456,27.72-6.624,55.44-9.504,83.16c-26.064-2.016-52.128-3.384-78.264-4.536
					C170.672,188.468,169.16,156.932,168.512,125.324z M400.856,213.236c37.728-3.528,75.527-6.912,113.399-9.72
					c-11.808,22.68-24.84,44.496-30.24,67.824c-5.184,22.104-1.943,45.144-0.936,67.608c-33.552-1.801-66.96-4.752-100.296-8.281
					c-0.288-19.583-2.736-39.312,0.072-58.679C385.664,252.116,393.656,232.892,400.856,213.236z"/>
			</g>
		</g>
	</g>
</svg>
