<?xml version="1.0" encoding="iso-8859-1"?>
<!-- Generator: Adobe Illustrator 10, SVG Export Plug-In . SVG Version: 3.0.0 Build 76)  -->
<!DOCTYPE svg PUBLIC "-//W3C//DTD SVG 1.0//EN"    "http://www.w3.org/TR/2001/REC-SVG-20010904/DTD/svg10.dtd" [
	<!ENTITY ns_flows "http://ns.adobe.com/Flows/1.0/">
	<!ENTITY ns_svg "http://www.w3.org/2000/svg">
	<!ENTITY ns_xlink "http://www.w3.org/1999/xlink">
]>
<svg  xmlns="&ns_svg;" xmlns:xlink="&ns_xlink;" xmlns:a="http://ns.adobe.com/AdobeSVGViewerExtensions/3.0/"
	 width="469.923" height="664.676" viewBox="0 0 469.923 664.676"
	 style="overflow:visible;enable-background:new 0 0 469.923 664.676" xml:space="preserve">
	<style type="text/css">
	<![CDATA[
		@font-face{font-family:'Times-Roman';src:url(106C684B.cef)}
	]]>
	</style>
	<g id="Layer_1">
		<text transform="matrix(1 0 0 1 1.6123 601.7134)"><tspan x="0" y="0" style="font-family:'Times-Roman'; font-size:12;">&quot;Fudge&quot;</tspan><tspan x="0" y="14.5" style="font-family:'Times-Roman'; font-size:12;">Copyright </tspan><tspan x="51.668" y="14.5" style="font-family:'Times-Roman'; font-size:12;">&#xA9;</tspan><tspan x="60.785" y="14.5" style="font-family:'Times-Roman'; font-size:12;"> 2000 Rob Myers http://www.robmyers.org/ .</tspan><tspan x="0" y="29" style="font-family:'Times-Roman'; font-size:12;">This work is licensed under the Creative Commons Attribution-ShareAlike License.</tspan><tspan x="0" y="43.5" style="font-family:'Times-Roman'; font-size:12;">To view a copy of this license, visit http://creativecommons.org/licenses/by-sa/1.0/ </tspan><tspan x="0" y="58" style="font-family:'Times-Roman'; font-size:12;">or send a letter to Creative Commons, 559 Nathan Abbott Way, Stanford, California 94305, USA.</tspan></text>
		<g>
			<path style="stroke:#000000;stroke-width:15.984;" d="M182.084,347.246l98.856-135.504l-30.168-22.032l66.168-52.272
				L178.772,30.662l-29.017,68.472l91.729,44.136l-16.272,33.696l-89.424-44.136l-39.456,55.728l75.456,42.984l33.696-13.968
				l-40.608,84.744l1.152,1.151l-8.353,17.424L14.324,370.43l41.184,60.84l87.048-52.344l19.729,32.688l-86.328,50.976
				l24.336,62.784l77.76-39.312l7.488-35.856l48.456,80.496l0.72-0.432l32.185,52.344l23.688-14.544l-68.832-184.464l-35.567,14.039
				L182.084,347.246z"/>
			<path style="fill:#FED95E;stroke:#D19800;stroke-width:15.984;" d="M180.212,329.246l98.856-135.504L248.9,171.709l66.168-52.272
				L176.9,12.662l-29.017,68.472l91.729,44.136l-16.272,33.696l-89.424-44.136L94.46,170.558l75.456,42.984l33.696-13.968
				l-40.68,84.744l1.151,1.152l-8.28,17.423L12.452,352.43l41.112,60.84l87.12-52.344l19.728,32.76l-86.328,50.903l24.336,62.784
				l77.688-39.312l7.56-35.856l48.456,80.496l0.721-0.432l32.184,52.344l23.616-14.544l-68.832-184.464l-35.496,14.039
				L180.212,329.246z"/>
		</g>
	</g>
</svg>
