<?xml version="1.0" encoding="UTF-8" standalone="no"?>
<!-- Generator: Adobe Illustrator 10, SVG Export Plug-In . SVG Version: 3.0.0 Build 76)  -->
<svg
   xmlns:dc="http://purl.org/dc/elements/1.1/"
   xmlns:cc="http://creativecommons.org/ns#"
   xmlns:rdf="http://www.w3.org/1999/02/22-rdf-syntax-ns#"
   xmlns:svg="http://www.w3.org/2000/svg"
   xmlns="http://www.w3.org/2000/svg"
   xmlns:sodipodi="http://sodipodi.sourceforge.net/DTD/sodipodi-0.dtd"
   xmlns:inkscape="http://www.inkscape.org/namespaces/inkscape"
   width="320.47202"
   height="585.93604"
   viewBox="0 0 469.923 664.676"
   style="overflow:visible"
   xml:space="preserve"
   id="svg2633"
   sodipodi:version="0.32"
   inkscape:version="0.46"
   sodipodi:docname="fudge.svg"
   inkscape:output_extension="org.inkscape.output.svg.inkscape"
   version="1.0"><metadata
   id="metadata2663"><rdf:RDF><cc:Work
       rdf:about=""><dc:format>image/svg+xml</dc:format><dc:type
         rdf:resource="http://purl.org/dc/dcmitype/StillImage" /></cc:Work></rdf:RDF></metadata><defs
   id="defs2661"><inkscape:perspective
   sodipodi:type="inkscape:persp3d"
   inkscape:vp_x="0 : 332.33801 : 1"
   inkscape:vp_y="0 : 1000 : 0"
   inkscape:vp_z="469.923 : 332.33801 : 1"
   inkscape:persp3d-origin="234.9615 : 221.55868 : 1"
   id="perspective2665" />
		
		
	</defs><sodipodi:namedview
   inkscape:window-height="670"
   inkscape:window-width="640"
   inkscape:pageshadow="2"
   inkscape:pageopacity="0.0"
   guidetolerance="10.0"
   gridtolerance="10.0"
   objecttolerance="10.0"
   borderopacity="1.0"
   bordercolor="#666666"
   pagecolor="#ffffff"
   id="base"
   showgrid="false"
   inkscape:zoom="0.69507547"
   inkscape:cx="234.9615"
   inkscape:cy="332.33801"
   inkscape:window-x="67"
   inkscape:window-y="0"
   inkscape:current-layer="svg2633" />
	<style
   type="text/css"
   id="style2635">
	
		@font-face{font-family:'Times-Roman';src:url(106C684B.cef)}
	
	</style>
	
<g
   transform="matrix(1.4663464,0,0,1.4663464,-6.5399048,-104.10237)"
   style="overflow:visible"
   id="g2654">
			<path
   id="path2656"
   d="M 182.084,347.246 L 280.94,211.742 L 250.772,189.71 L 316.94,137.438 L 178.772,30.662 L 149.755,99.134 L 241.484,143.27 L 225.212,176.966 L 135.788,132.83 L 96.332,188.558 L 171.788,231.542 L 205.484,217.574 L 164.876,302.318 L 166.028,303.469 L 157.675,320.893 L 14.324,370.43 L 55.508,431.27 L 142.556,378.926 L 162.285,411.614 L 75.957,462.59 L 100.293,525.374 L 178.053,486.062 L 185.541,450.206 L 233.997,530.702 L 234.717,530.27 L 266.902,582.614 L 290.59,568.07 L 221.758,383.606 L 186.191,397.645 L 182.084,347.246 z"
   style="stroke:#000000;stroke-width:15.98400021" />
			<path
   id="path2658"
   d="M 180.212,329.246 L 279.068,193.742 L 248.9,171.709 L 315.068,119.437 L 176.9,12.662 L 147.883,81.134 L 239.612,125.27 L 223.34,158.966 L 133.916,114.83 L 94.46,170.558 L 169.916,213.542 L 203.612,199.574 L 162.932,284.318 L 164.083,285.47 L 155.803,302.893 L 12.452,352.43 L 53.564,413.27 L 140.684,360.926 L 160.412,393.686 L 74.084,444.589 L 98.42,507.373 L 176.108,468.061 L 183.668,432.205 L 232.124,512.701 L 232.845,512.269 L 265.029,564.613 L 288.645,550.069 L 219.813,365.605 L 184.317,379.644 L 180.212,329.246 z"
   style="fill:#fed95e;stroke:#d19800;stroke-width:15.98400021" />
		</g></svg>