<?xml version="1.0" encoding="UTF-8" standalone="no"?>
<!-- Generator: Adobe Illustrator 10, SVG Export Plug-In . SVG Version: 3.0.0 Build 76)  -->
<svg
   xmlns:dc="http://purl.org/dc/elements/1.1/"
   xmlns:cc="http://creativecommons.org/ns#"
   xmlns:rdf="http://www.w3.org/1999/02/22-rdf-syntax-ns#"
   xmlns:svg="http://www.w3.org/2000/svg"
   xmlns="http://www.w3.org/2000/svg"
   xmlns:sodipodi="http://sodipodi.sourceforge.net/DTD/sodipodi-0.dtd"
   xmlns:inkscape="http://www.inkscape.org/namespaces/inkscape"
   width="519.91101"
   height="554.97498"
   viewBox="0 0 531.265 633.974"
   style="overflow:visible"
   xml:space="preserve"
   id="svg2667"
   sodipodi:version="0.32"
   inkscape:version="0.46"
   sodipodi:docname="kumquats.svg"
   inkscape:output_extension="org.inkscape.output.svg.inkscape"
   version="1.0"><metadata
   id="metadata2697"><rdf:RDF><cc:Work
       rdf:about=""><dc:format>image/svg+xml</dc:format><dc:type
         rdf:resource="http://purl.org/dc/dcmitype/StillImage" /></cc:Work></rdf:RDF></metadata><defs
   id="defs2695"><inkscape:perspective
   sodipodi:type="inkscape:persp3d"
   inkscape:vp_x="0 : 316.987 : 1"
   inkscape:vp_y="0 : 1000 : 0"
   inkscape:vp_z="531.26501 : 316.987 : 1"
   inkscape:persp3d-origin="265.63251 : 211.32467 : 1"
   id="perspective2699" />
		
		
	</defs><sodipodi:namedview
   inkscape:window-height="670"
   inkscape:window-width="640"
   inkscape:pageshadow="2"
   inkscape:pageopacity="0.0"
   guidetolerance="10.0"
   gridtolerance="10.0"
   objecttolerance="10.0"
   borderopacity="1.0"
   bordercolor="#666666"
   pagecolor="#ffffff"
   id="base"
   showgrid="false"
   inkscape:zoom="0.72873651"
   inkscape:cx="265.63251"
   inkscape:cy="316.987"
   inkscape:window-x="0"
   inkscape:window-y="64"
   inkscape:current-layer="svg2667" />
	<style
   type="text/css"
   id="style2669">
	
		@font-face{font-family:'Times-Roman';src:url(72E0574B.cef)}
	
	</style>
	
<g
   transform="matrix(1.142347,0,0,1.142347,-39.620332,-0.5060861)"
   style="overflow:visible"
   id="g2688">
			<path
   id="path2690"
   d="M 274.56,269.399 C 291.985,298.415 304.729,319.295 314.088,330.887 C 327.984,348.24 347.712,367.967 372.12,387.696 C 396.456,407.496 420.864,423.696 446.424,436.511 C 462.696,445.799 487.032,456.24 519.576,467.831 L 507.984,477.119 C 447.576,456.239 448.728,457.39 426.696,446.951 C 398.832,434.135 375.576,417.935 355.847,401.663 C 339.576,387.695 324.528,374.951 312.864,361.055 C 323.376,378.408 338.424,396.984 357,415.559 C 379.104,439.967 399.984,458.543 423.168,474.816 C 438.288,486.408 461.544,499.223 491.712,516.576 L 478.897,523.559 C 422.016,494.543 423.168,495.696 402.289,481.799 C 376.729,465.528 355.849,446.951 338.425,428.375 C 316.393,403.967 300.121,381.936 288.529,358.679 C 287.377,356.375 286.153,354.072 285.001,351.767 C 293.137,372.648 303.577,394.679 317.545,419.087 C 333.817,446.951 351.241,471.287 369.817,492.239 C 381.409,506.135 401.136,523.558 426.697,546.815 L 413.881,551.422 C 363.985,510.815 363.985,510.815 347.713,493.39 C 326.833,472.51 310.561,449.254 297.817,427.222 C 281.545,399.359 269.953,373.798 264.121,349.39 C 261.313,337.294 258.577,319.294 256.345,296.47 C 239.066,267.526 226.249,247.438 216.457,235.126 C 202.272,217.414 183.265,198.478 158.857,178.678 C 133.729,158.23 109.464,142.03 84.048,129.286 C 67.92,120.574 43.729,110.566 11.256,98.182 L 22.344,89.686 C 83.113,110.062 82.321,109.414 104.569,119.638 C 131.352,132.598 154.825,148.15 174.481,164.134 C 191.544,178.03 205.873,191.638 217.968,205.534 C 206.952,188.254 192.408,169.534 173.616,150.814 C 151.584,126.406 130.704,107.83 107.448,91.558 C 92.4,79.967 69.144,67.151 38.976,49.799 L 51.72,42.815 C 108.6,71.831 107.449,70.679 128.401,84.575 C 153.888,100.847 174.84,119.423 192.193,137.999 C 214.297,162.407 230.569,184.439 242.161,207.695 C 243.097,209.639 244.104,211.727 245.184,214.031 C 238.056,193.943 227.617,171.479 213.288,146.783 C 196.944,118.703 180.024,95.015 160.728,74.063 C 148.704,60.239 129.624,42.311 103.631,19.271 L 117.024,15.239 C 166.631,55.775 166.128,54.911 183.408,72.335 C 203.856,93.935 220.271,116.759 233.015,138.719 C 249.287,166.727 260.232,192.287 266.784,217.055 C 268.008,222.455 274.56,269.399 274.56,269.399 z"
   style="fill:#dae3e5;stroke:#dae3e5;stroke-width:7.9920001" />
			<path
   id="path2692"
   d="M 278.16,258.599 C 295.584,287.615 308.328,308.495 317.687,320.087 C 331.583,337.44 351.312,357.167 375.719,376.896 C 400.055,396.696 424.463,412.896 450.024,425.711 C 466.295,434.999 490.631,445.44 523.175,457.031 L 511.583,466.319 C 451.175,445.439 452.327,446.59 430.295,436.151 C 402.431,423.335 379.175,407.134 359.447,390.863 C 343.175,376.895 328.127,364.151 316.463,350.255 C 326.975,367.608 342.024,386.183 360.599,404.759 C 382.703,429.167 403.583,447.743 426.767,464.015 C 441.887,475.608 465.144,488.423 495.312,505.776 L 482.496,512.759 C 425.616,483.743 426.767,484.896 405.888,470.999 C 380.328,454.727 359.449,436.151 342.025,417.575 C 319.993,393.167 303.72,371.135 292.129,347.879 C 290.977,345.575 289.753,343.272 288.601,340.967 C 296.738,361.847 307.177,383.879 321.145,408.287 C 337.417,436.151 354.841,460.487 373.417,481.439 C 385.009,495.335 404.737,512.758 430.297,536.014 L 417.482,540.622 C 367.586,500.014 367.586,500.014 351.314,482.59 C 330.433,461.71 314.162,438.454 301.418,416.422 C 285.146,388.558 273.554,362.998 267.722,338.59 C 264.914,326.566 262.178,308.494 259.947,285.67 C 242.667,256.726 229.85,236.638 220.058,224.326 C 205.874,206.614 186.867,187.678 162.458,167.878 C 137.33,147.43 113.066,131.23 87.65,118.486 C 71.521,109.774 47.33,99.766 14.858,87.382 L 25.946,78.886 C 86.714,99.262 85.922,98.614 108.17,108.838 C 134.954,121.798 158.426,137.35 178.082,153.334 C 195.145,167.23 209.474,180.838 221.57,194.734 C 210.553,177.454 196.009,158.734 177.217,140.014 C 155.185,115.606 134.305,97.03 111.049,80.758 C 96,69.167 72.744,56.351 42.576,38.999 L 55.32,32.015 C 112.2,61.031 111.048,59.879 132,73.775 C 157.488,90.047 178.44,108.623 195.792,127.199 C 217.896,151.607 234.168,173.639 245.76,196.895 C 246.697,198.839 247.704,200.927 248.784,203.231 C 241.656,183.143 231.216,160.679 216.888,135.983 C 200.544,107.903 183.624,84.215 164.328,63.263 C 152.304,49.439 133.224,31.511 107.232,8.471 L 120.624,4.439 C 170.232,44.975 169.728,44.111 187.008,61.535 C 207.456,83.135 223.872,105.959 236.616,127.919 C 252.887,155.927 263.832,181.487 270.384,206.255 C 271.608,211.655 278.16,258.599 278.16,258.599 z"
   style="fill:#b3de69;stroke:#435607;stroke-width:7.9920001" />
		</g></svg>