<?xml version="1.0" encoding="iso-8859-1"?>
<!-- Generator: Adobe Illustrator 10, SVG Export Plug-In . SVG Version: 3.0.0 Build 76)  -->
<!DOCTYPE svg PUBLIC "-//W3C//DTD SVG 1.0//EN"    "http://www.w3.org/TR/2001/REC-SVG-20010904/DTD/svg10.dtd" [
	<!ENTITY ns_flows "http://ns.adobe.com/Flows/1.0/">
	<!ENTITY ns_svg "http://www.w3.org/2000/svg">
	<!ENTITY ns_xlink "http://www.w3.org/1999/xlink">
]>
<svg  xmlns="&ns_svg;" xmlns:xlink="&ns_xlink;" xmlns:a="http://ns.adobe.com/AdobeSVGViewerExtensions/3.0/"
	 width="531.265" height="633.974" viewBox="0 0 531.265 633.974"
	 style="overflow:visible;enable-background:new 0 0 531.265 633.974" xml:space="preserve">
	<style type="text/css">
	<![CDATA[
		@font-face{font-family:'Times-Roman';src:url(72E0574B.cef)}
	]]>
	</style>
	<g id="Layer_1">
		<text transform="matrix(1 0 0 1 0 571.0107)"><tspan x="0" y="0" style="font-family:'Times-Roman'; font-size:12;">&quot;Kumquats&quot;</tspan><tspan x="0" y="14.5" style="font-family:'Times-Roman'; font-size:12;">Copyright </tspan><tspan x="51.668" y="14.5" style="font-family:'Times-Roman'; font-size:12;">&#xA9;</tspan><tspan x="60.785" y="14.5" style="font-family:'Times-Roman'; font-size:12;"> 2000 Rob Myers http://www.robmyers.org/ .</tspan><tspan x="0" y="29" style="font-family:'Times-Roman'; font-size:12;">This work is licensed under the Creative Commons Attribution-ShareAlike License.</tspan><tspan x="0" y="43.5" style="font-family:'Times-Roman'; font-size:12;">To view a copy of this license, visit http://creativecommons.org/licenses/by-sa/1.0/ </tspan><tspan x="0" y="58" style="font-family:'Times-Roman'; font-size:12;">or send a letter to Creative Commons, 559 Nathan Abbott Way, Stanford, California 94305, USA.</tspan></text>
		<g>
			<path style="fill:#DAE3E5;stroke:#DAE3E5;stroke-width:7.992;" d="M274.56,269.399c17.425,29.016,30.169,49.896,39.528,61.488
				c13.896,17.353,33.624,37.08,58.032,56.809c24.336,19.8,48.744,36,74.304,48.815c16.272,9.288,40.608,19.729,73.152,31.32
				l-11.592,9.288c-60.408-20.88-59.256-19.729-81.288-30.168c-27.864-12.816-51.12-29.016-70.849-45.288
				c-16.271-13.968-31.319-26.712-42.983-40.608c10.512,17.353,25.56,35.929,44.136,54.504
				c22.104,24.408,42.984,42.984,66.168,59.257c15.12,11.592,38.376,24.407,68.544,41.76l-12.815,6.983
				c-56.881-29.016-55.729-27.863-76.608-41.76c-25.56-16.271-46.44-34.848-63.864-53.424
				c-22.032-24.408-38.304-46.439-49.896-69.696c-1.152-2.304-2.376-4.607-3.528-6.912c8.136,20.881,18.576,42.912,32.544,67.32
				c16.272,27.864,33.696,52.2,52.272,73.152c11.592,13.896,31.319,31.319,56.88,54.576l-12.816,4.607
				c-49.896-40.607-49.896-40.607-66.168-58.032c-20.88-20.88-37.152-44.136-49.896-66.168
				c-16.272-27.863-27.864-53.424-33.696-77.832c-2.808-12.096-5.544-30.096-7.776-52.92
				c-17.279-28.944-30.096-49.032-39.888-61.344c-14.185-17.712-33.192-36.648-57.6-56.448
				c-25.128-20.448-49.393-36.648-74.809-49.392c-16.128-8.712-40.319-18.72-72.792-31.104l11.088-8.496
				c60.769,20.376,59.977,19.728,82.225,29.952c26.783,12.96,50.256,28.512,69.912,44.496c17.063,13.896,31.392,27.504,43.487,41.4
				c-11.016-17.28-25.56-36-44.352-54.72c-22.032-24.408-42.912-42.984-66.168-59.256C92.4,79.967,69.144,67.151,38.976,49.799
				l12.744-6.984c56.88,29.016,55.729,27.864,76.681,41.76c25.487,16.272,46.439,34.848,63.792,53.424
				c22.104,24.408,38.376,46.44,49.968,69.696c0.936,1.944,1.943,4.032,3.023,6.336c-7.128-20.088-17.567-42.552-31.896-67.248
				c-16.344-28.08-33.264-51.768-52.56-72.72c-12.024-13.824-31.104-31.752-57.097-54.792l13.393-4.032
				c49.607,40.536,49.104,39.672,66.384,57.096c20.448,21.6,36.863,44.424,49.607,66.384c16.272,28.008,27.217,53.568,33.769,78.336
				C268.008,222.455,274.56,269.399,274.56,269.399z"/>
			<path style="fill:#B3DE69;stroke:#435607;stroke-width:7.992;" d="M278.16,258.599c17.424,29.016,30.168,49.896,39.527,61.488
				c13.896,17.353,33.625,37.08,58.032,56.809c24.336,19.8,48.744,36,74.305,48.815c16.271,9.288,40.607,19.729,73.151,31.32
				l-11.592,9.288c-60.408-20.88-59.256-19.729-81.288-30.168c-27.864-12.816-51.12-29.017-70.848-45.288
				c-16.272-13.968-31.32-26.712-42.984-40.608c10.512,17.353,25.561,35.928,44.136,54.504
				c22.104,24.408,42.984,42.984,66.168,59.256c15.12,11.593,38.377,24.408,68.545,41.761l-12.816,6.983
				c-56.88-29.016-55.729-27.863-76.608-41.76c-25.56-16.272-46.439-34.848-63.863-53.424
				c-22.032-24.408-38.305-46.44-49.896-69.696c-1.152-2.304-2.376-4.607-3.528-6.912c8.137,20.88,18.576,42.912,32.544,67.32
				c16.272,27.864,33.696,52.2,52.272,73.152c11.592,13.896,31.32,31.319,56.88,54.575l-12.815,4.608
				c-49.896-40.608-49.896-40.608-66.168-58.032c-20.881-20.88-37.152-44.136-49.896-66.168
				c-16.272-27.864-27.864-53.424-33.696-77.832c-2.808-12.024-5.544-30.096-7.775-52.92c-17.28-28.944-30.097-49.032-39.889-61.344
				c-14.184-17.712-33.191-36.648-57.6-56.448c-25.128-20.448-49.392-36.648-74.808-49.392c-16.129-8.712-40.32-18.72-72.792-31.104
				l11.088-8.496c60.768,20.376,59.976,19.728,82.224,29.952c26.784,12.96,50.256,28.512,69.912,44.496
				c17.063,13.896,31.392,27.504,43.488,41.4c-11.017-17.28-25.561-36-44.353-54.72c-22.032-24.408-42.912-42.984-66.168-59.256
				C96,69.167,72.744,56.351,42.576,38.999l12.744-6.984c56.88,29.016,55.728,27.864,76.68,41.76
				c25.488,16.272,46.44,34.848,63.792,53.424c22.104,24.408,38.376,46.44,49.968,69.696c0.937,1.944,1.944,4.032,3.024,6.336
				c-7.128-20.088-17.568-42.552-31.896-67.248c-16.344-28.08-33.264-51.768-52.56-72.72
				c-12.024-13.824-31.104-31.752-57.096-54.792l13.392-4.032c49.608,40.536,49.104,39.672,66.384,57.096
				c20.448,21.6,36.864,44.424,49.608,66.384c16.271,28.008,27.216,53.568,33.768,78.336
				C271.608,211.655,278.16,258.599,278.16,258.599z"/>
		</g>
	</g>
</svg>
