<?xml version="1.0" encoding="UTF-8" standalone="no"?>
<!-- Generator: Adobe Illustrator 10, SVG Export Plug-In . SVG Version: 3.0.0 Build 76)  -->
<svg
   xmlns:dc="http://purl.org/dc/elements/1.1/"
   xmlns:cc="http://creativecommons.org/ns#"
   xmlns:rdf="http://www.w3.org/1999/02/22-rdf-syntax-ns#"
   xmlns:svg="http://www.w3.org/2000/svg"
   xmlns="http://www.w3.org/2000/svg"
   xmlns:sodipodi="http://sodipodi.sourceforge.net/DTD/sodipodi-0.dtd"
   xmlns:inkscape="http://www.inkscape.org/namespaces/inkscape"
   width="445.96899"
   height="455.47202"
   viewBox="0 0 468.311 534.34"
   style="overflow:visible"
   xml:space="preserve"
   id="svg2701"
   sodipodi:version="0.32"
   inkscape:version="0.46"
   sodipodi:docname="muffins.svg"
   inkscape:output_extension="org.inkscape.output.svg.inkscape"
   version="1.0"><metadata
   id="metadata2747"><rdf:RDF><cc:Work
       rdf:about=""><dc:format>image/svg+xml</dc:format><dc:type
         rdf:resource="http://purl.org/dc/dcmitype/StillImage" /></cc:Work></rdf:RDF></metadata><defs
   id="defs2745"><inkscape:perspective
   sodipodi:type="inkscape:persp3d"
   inkscape:vp_x="0 : 267.17001 : 1"
   inkscape:vp_y="0 : 1000 : 0"
   inkscape:vp_z="468.311 : 267.17001 : 1"
   inkscape:persp3d-origin="234.1555 : 178.11334 : 1"
   id="perspective2749" />
		
		
	</defs><sodipodi:namedview
   inkscape:window-height="670"
   inkscape:window-width="640"
   inkscape:pageshadow="2"
   inkscape:pageopacity="0.0"
   guidetolerance="10.0"
   gridtolerance="10.0"
   objecttolerance="10.0"
   borderopacity="1.0"
   bordercolor="#666666"
   pagecolor="#ffffff"
   id="base"
   showgrid="false"
   inkscape:zoom="0.86461799"
   inkscape:cx="234.1555"
   inkscape:cy="267.17001"
   inkscape:window-x="93"
   inkscape:window-y="70"
   inkscape:current-layer="svg2701" />
	<style
   type="text/css"
   id="style2703">
	
		@font-face{font-family:'Times-Roman';src:url(6F810E24.cef)}
	
	</style>
	
<g
   transform="matrix(1.1731566,0,0,1.1731566,-35.966736,-1.2775505)"
   style="overflow:visible"
   id="g2722">
			<g
   id="g2724">
				<path
   id="path2726"
   d="M 300.344,157.725 C 309.776,162.693 313.376,174.501 308.336,183.933 C 303.368,193.365 291.561,197.037 282.2,192.069 C 272.767,187.029 269.168,175.293 274.137,165.861 C 279.176,156.357 290.912,152.757 300.344,157.725 z"
   style="fill:#060d3c;stroke:#060d3c;stroke-width:7.9920001" />
				<path
   id="path2728"
   d="M 171.032,238.726 C 180.896,243.91 184.856,255.933 179.888,265.366 C 174.92,274.799 162.752,278.254 152.816,272.998 C 142.952,267.814 138.992,255.79 143.96,246.358 C 149,236.925 161.096,233.47 171.032,238.726 z"
   style="fill:#060d3c;stroke:#060d3c;stroke-width:7.9920001" />
				<path
   id="path2730"
   d="M 298.4,308.277 C 309.271,314.037 312.943,328.294 306.752,340.173 C 300.488,351.982 286.52,356.949 275.721,351.19 C 264.848,345.429 261.104,331.173 267.368,319.366 C 273.632,307.485 287.6,302.517 298.4,308.277 z"
   style="fill:#060d3c;stroke:#060d3c;stroke-width:7.9920001" />
			</g>
			<path
   id="path2732"
   d="M 378.32,452.565 L 349.736,450.981 L 353.408,321.381 C 353.84,306.477 350.599,293.156 345.56,283.221 C 338.431,270.405 327.488,262.197 312.152,259.244 C 302.288,261.26 292.784,261.188 283.279,258.956 C 271.111,261.116 261.536,266.372 254.84,275.084 C 253.111,280.484 250.52,285.74 247.137,290.78 C 245.048,297.692 243.752,305.972 243.464,315.332 L 239.792,445.004 L 210.272,443.348 L 213.656,325.989 C 213.656,324.189 213.728,322.389 213.8,320.661 C 208.976,323.685 203.648,326.71 197.816,329.733 L 93.2,384.165 L 79.232,359.253 L 194.792,299.134 C 206.168,293.302 215.096,285.741 221.144,277.966 C 222.584,273.933 224.24,270.333 226.04,267.022 C 227.048,265.222 228.128,263.566 229.28,261.91 C 232.305,250.534 230.36,238.366 223.016,225.262 C 211.208,204.238 195.944,193.15 176.72,193.078 C 166.784,193.222 154.544,196.606 141.224,203.518 L 25.664,263.566 L 11.264,237.933 L 115.952,183.502 C 139.352,171.334 158.288,165.502 174.272,165.214 C 186.152,165.214 196.952,167.734 206.744,172.774 C 207.392,160.318 210.488,145.702 216.392,128.566 L 254.048,18.046 L 281.264,27.622 L 260.241,89.182 L 322.881,21.574 L 345.058,41.23 L 257.289,135.262 C 246.993,146.926 241.017,158.23 238.28,168.598 C 234.393,186.238 240.081,201.07 255.993,214.75 C 258.657,217.342 261.321,219.646 263.985,221.662 C 265.928,222.598 268.016,223.462 270.249,224.254 C 293.145,232.318 311.864,230.589 325.688,217.918 C 332.745,211.15 339.225,200.494 343.977,186.454 L 385.665,64.414 L 413.673,74.278 L 384.153,160.75 L 427.065,114.814 L 449.241,134.398 L 370.041,219.934 C 360.537,229.942 351.753,237.79 343.545,243.91 C 356.722,250.822 366.369,261.19 372.633,275.014 C 379.402,289.414 382.425,308.926 381.633,335.206 L 378.32,452.565 z"
   style="fill:#36052e;stroke:#36052e;stroke-width:7.9920001" />
			<path
   id="path2734"
   d="M 367.736,434.781 L 339.943,433.63 L 345.271,304.821 C 345.919,290.061 342.967,276.885 338.144,267.092 C 331.448,254.42 320.863,246.5 305.959,243.693 C 296.312,245.853 287.022,245.924 277.879,243.837 C 265.927,246.142 256.567,251.541 249.871,260.253 C 248.143,265.653 245.551,270.909 242.167,275.949 C 240.007,282.861 238.64,291.069 238.278,300.357 L 232.879,429.165 L 204.151,427.941 L 209.047,311.373 C 209.119,309.573 209.191,307.773 209.335,306.046 C 204.583,309.142 199.327,312.165 193.639,315.261 L 90.967,370.701 L 77.72,346.222 L 191.12,284.95 C 202.208,278.974 210.992,271.342 217.04,263.566 C 218.48,259.606 220.136,255.933 221.936,252.622 C 222.944,250.894 224.024,249.166 225.176,247.51 C 228.272,236.206 226.544,224.182 219.56,211.222 C 208.4,190.558 193.64,179.686 174.92,179.902 C 165.2,180.19 153.248,183.718 140.216,190.702 L 26.816,251.974 L 13.136,226.702 L 115.808,171.262 C 138.848,158.806 157.352,152.758 172.904,152.326 C 184.496,152.11 195.008,154.414 204.44,159.382 C 205.232,146.926 208.472,132.454 214.448,115.318 L 252.68,5.085 L 279.033,14.229 L 257.721,75.645 L 319.641,7.605 L 341.024,26.829 L 254.192,121.437 C 244.041,133.173 238.065,144.477 235.256,154.773 C 231.152,172.341 236.552,187.029 251.817,200.349 C 254.409,202.869 256.928,205.101 259.52,207.117 C 261.464,207.981 263.481,208.845 265.641,209.565 C 287.817,217.269 306.033,215.253 319.641,202.509 C 326.624,195.669 333.104,185.013 337.928,171.045 L 380.192,49.293 L 407.337,58.725 L 377.385,144.981 L 419.864,98.757 L 441.249,117.909 L 362.913,203.949 C 353.481,213.957 344.841,221.949 336.776,228.069 C 349.449,234.764 358.737,244.917 364.641,258.596 C 371.048,272.781 373.712,292.076 372.632,318.213 L 367.736,434.781 z"
   style="fill:#d0d4e8;stroke:#9ea9d0;stroke-width:7.9920001" />
			<g
   id="g2736">
				<path
   id="path2738"
   d="M 305.6,146.062 C 314.96,151.03 318.632,162.838 313.592,172.27 C 308.624,181.774 296.817,185.374 287.384,180.406 C 277.952,175.438 274.352,163.63 279.393,154.198 C 284.359,144.765 296.168,141.093 305.6,146.062 z"
   style="fill:#fee3e3;stroke:#fcc5cd;stroke-width:7.9920001" />
				<path
   id="path2740"
   d="M 176.216,227.062 C 186.152,232.318 190.112,244.27 185.144,253.702 C 180.104,263.206 168.008,266.59 158.072,261.406 C 148.208,256.15 144.176,244.198 149.216,234.694 C 154.184,225.261 166.352,221.805 176.216,227.062 z"
   style="fill:#fee3e3;stroke:#fcc5cd;stroke-width:7.9920001" />
				<path
   id="path2742"
   d="M 303.656,296.613 C 314.456,302.373 318.2,316.701 311.935,328.509 C 305.744,340.318 291.775,345.285 280.976,339.526 C 270.103,333.838 266.359,319.509 272.623,307.702 C 278.887,295.895 292.784,290.925 303.656,296.613 z"
   style="fill:#fee3e3;stroke:#fcc5cd;stroke-width:7.9920001" />
			</g>
		</g></svg>