<?xml version="1.0" encoding="iso-8859-1"?>
<!-- Generator: Adobe Illustrator 10, SVG Export Plug-In . SVG Version: 3.0.0 Build 76)  -->
<!DOCTYPE svg PUBLIC "-//W3C//DTD SVG 1.0//EN"    "http://www.w3.org/TR/2001/REC-SVG-20010904/DTD/svg10.dtd" [
	<!ENTITY ns_flows "http://ns.adobe.com/Flows/1.0/">
	<!ENTITY ns_svg "http://www.w3.org/2000/svg">
	<!ENTITY ns_xlink "http://www.w3.org/1999/xlink">
]>
<svg  xmlns="&ns_svg;" xmlns:xlink="&ns_xlink;" xmlns:a="http://ns.adobe.com/AdobeSVGViewerExtensions/3.0/"
	 width="468.311" height="534.34" viewBox="0 0 468.311 534.34" style="overflow:visible;enable-background:new 0 0 468.311 534.34"
	 xml:space="preserve">
	<style type="text/css">
	<![CDATA[
		@font-face{font-family:'Times-Roman';src:url(6F810E24.cef)}
	]]>
	</style>
	<g id="Layer_1">
		<text transform="matrix(1 0 0 1 0 471.377)"><tspan x="0" y="0" style="font-family:'Times-Roman'; font-size:12;">&quot;Muffins&quot;</tspan><tspan x="0" y="14.5" style="font-family:'Times-Roman'; font-size:12;">Copyright </tspan><tspan x="51.668" y="14.5" style="font-family:'Times-Roman'; font-size:12;">&#xA9;</tspan><tspan x="60.785" y="14.5" style="font-family:'Times-Roman'; font-size:12;"> 2000 Rob Myers http://www.robmyers.org/ .</tspan><tspan x="0" y="29" style="font-family:'Times-Roman'; font-size:12;">This work is licensed under the Creative Commons Attribution-ShareAlike License.</tspan><tspan x="0" y="43.5" style="font-family:'Times-Roman'; font-size:12;">To view a copy of this license, visit http://creativecommons.org/licenses/by-sa/1.0/ </tspan><tspan x="0" y="58" style="font-family:'Times-Roman'; font-size:12;">or send a letter to Creative Commons, 559 Nathan Abbott Way, Stanford, California 94305, USA.</tspan></text>
		<g>
			<g>
				<path style="fill:#060D3C;stroke:#060D3C;stroke-width:7.992;" d="M300.344,157.725c9.432,4.968,13.032,16.776,7.992,26.208
					c-4.968,9.432-16.775,13.104-26.136,8.136c-9.433-5.04-13.032-16.776-8.063-26.208
					C279.176,156.357,290.912,152.757,300.344,157.725z"/>
				<path style="fill:#060D3C;stroke:#060D3C;stroke-width:7.992;" d="M171.032,238.726c9.864,5.184,13.824,17.207,8.856,26.64
					c-4.968,9.433-17.136,12.888-27.072,7.632c-9.864-5.184-13.824-17.208-8.856-26.64C149,236.925,161.096,233.47,171.032,238.726z
					"/>
				<path style="fill:#060D3C;stroke:#060D3C;stroke-width:7.992;" d="M298.4,308.277c10.871,5.76,14.543,20.017,8.352,31.896
					c-6.264,11.809-20.232,16.776-31.031,11.017c-10.873-5.761-14.617-20.017-8.353-31.824
					C273.632,307.485,287.6,302.517,298.4,308.277z"/>
			</g>
			<path style="fill:#36052E;stroke:#36052E;stroke-width:7.992;" d="M378.32,452.565l-28.584-1.584l3.672-129.6
				c0.432-14.904-2.809-28.225-7.848-38.16c-7.129-12.816-18.072-21.024-33.408-23.977c-9.864,2.016-19.368,1.944-28.873-0.288
				c-12.168,2.16-21.743,7.416-28.439,16.128c-1.729,5.4-4.32,10.656-7.703,15.696c-2.089,6.912-3.385,15.192-3.673,24.552
				l-3.672,129.672l-29.52-1.656l3.384-117.359c0-1.8,0.072-3.6,0.144-5.328c-4.824,3.024-10.152,6.049-15.984,9.072L93.2,384.165
				l-13.968-24.912l115.56-60.119c11.376-5.832,20.304-13.393,26.352-21.168c1.44-4.033,3.096-7.633,4.896-10.944
				c1.008-1.8,2.088-3.456,3.24-5.112c3.025-11.376,1.08-23.544-6.264-36.648c-11.808-21.024-27.072-32.112-46.296-32.184
				c-9.936,0.144-22.176,3.528-35.496,10.44l-115.56,60.048l-14.4-25.633l104.688-54.431c23.4-12.168,42.336-18,58.32-18.288
				c11.88,0,22.68,2.52,32.472,7.56c0.648-12.456,3.744-27.072,9.648-44.208l37.656-110.52l27.216,9.576l-21.023,61.56l62.64-67.608
				l22.177,19.656l-87.769,94.032c-10.296,11.664-16.272,22.968-19.009,33.336c-3.887,17.64,1.801,32.472,17.713,46.152
				c2.664,2.592,5.328,4.896,7.992,6.912c1.943,0.936,4.031,1.8,6.264,2.592c22.896,8.064,41.615,6.335,55.439-6.336
				c7.057-6.768,13.537-17.424,18.289-31.464l41.688-122.04l28.008,9.864l-29.52,86.472l42.912-45.936l22.176,19.584l-79.2,85.536
				c-9.504,10.008-18.288,17.856-26.496,23.976c13.177,6.912,22.824,17.28,29.088,31.104c6.769,14.4,9.792,33.912,9,60.192
				L378.32,452.565z"/>
			<path style="fill:#D0D4E8;stroke:#9EA9D0;stroke-width:7.992;" d="M367.736,434.781l-27.793-1.151l5.328-128.809
				c0.648-14.76-2.304-27.936-7.127-37.729c-6.696-12.672-17.281-20.592-32.185-23.399c-9.647,2.16-18.937,2.231-28.08,0.144
				c-11.952,2.305-21.312,7.704-28.008,16.416c-1.728,5.4-4.32,10.656-7.704,15.696c-2.16,6.912-3.527,15.12-3.889,24.408
				l-5.399,128.808l-28.728-1.224l4.896-116.568c0.072-1.8,0.144-3.6,0.288-5.327c-4.752,3.096-10.008,6.119-15.696,9.215
				l-102.672,55.44L77.72,346.222l113.4-61.272c11.088-5.976,19.872-13.608,25.92-21.384c1.44-3.96,3.096-7.633,4.896-10.944
				c1.008-1.728,2.088-3.456,3.24-5.112c3.096-11.304,1.368-23.328-5.616-36.288c-11.16-20.664-25.92-31.536-44.64-31.32
				c-9.72,0.288-21.672,3.816-34.704,10.8l-113.4,61.272l-13.68-25.272l102.672-55.44c23.04-12.456,41.544-18.504,57.096-18.936
				c11.592-0.216,22.104,2.088,31.536,7.056c0.792-12.456,4.032-26.928,10.008-44.064L252.68,5.085l26.353,9.144l-21.312,61.416
				l61.92-68.04l21.383,19.224l-86.832,94.608c-10.151,11.736-16.127,23.04-18.936,33.336c-4.104,17.568,1.296,32.256,16.561,45.576
				c2.592,2.52,5.111,4.752,7.703,6.768c1.944,0.864,3.961,1.728,6.121,2.448c22.176,7.704,40.392,5.688,54-7.056
				c6.983-6.84,13.463-17.496,18.287-31.464l42.264-121.752l27.145,9.432l-29.952,86.256l42.479-46.224l21.385,19.152l-78.336,86.04
				c-9.432,10.008-18.072,18-26.137,24.12c12.673,6.695,21.961,16.848,27.865,30.527c6.407,14.185,9.071,33.48,7.991,59.617
				L367.736,434.781z"/>
			<g>
				<path style="fill:#FEE3E3;stroke:#FCC5CD;stroke-width:7.992;" d="M305.6,146.062c9.36,4.968,13.032,16.776,7.992,26.208
					c-4.968,9.504-16.775,13.104-26.208,8.136c-9.432-4.968-13.032-16.776-7.991-26.208
					C284.359,144.765,296.168,141.093,305.6,146.062z"/>
				<path style="fill:#FEE3E3;stroke:#FCC5CD;stroke-width:7.992;" d="M176.216,227.062c9.936,5.256,13.896,17.208,8.928,26.64
					c-5.04,9.504-17.136,12.888-27.072,7.704c-9.864-5.256-13.896-17.208-8.856-26.712
					C154.184,225.261,166.352,221.805,176.216,227.062z"/>
				<path style="fill:#FEE3E3;stroke:#FCC5CD;stroke-width:7.992;" d="M303.656,296.613c10.8,5.76,14.544,20.088,8.279,31.896
					c-6.191,11.809-20.16,16.776-30.959,11.017c-10.873-5.688-14.617-20.017-8.353-31.824S292.784,290.925,303.656,296.613z"/>
			</g>
		</g>
	</g>
</svg>
