<?xml version="1.0" encoding="UTF-8" standalone="no"?>
<!-- Generator: Adobe Illustrator 10, SVG Export Plug-In . SVG Version: 3.0.0 Build 76)  -->
<svg
   xmlns:dc="http://purl.org/dc/elements/1.1/"
   xmlns:cc="http://creativecommons.org/ns#"
   xmlns:rdf="http://www.w3.org/1999/02/22-rdf-syntax-ns#"
   xmlns:svg="http://www.w3.org/2000/svg"
   xmlns="http://www.w3.org/2000/svg"
   xmlns:sodipodi="http://sodipodi.sourceforge.net/DTD/sodipodi-0.dtd"
   xmlns:inkscape="http://www.inkscape.org/namespaces/inkscape"
   width="497.37698"
   height="473.3494"
   viewBox="0 0 501.956 536.538"
   style="overflow:visible"
   xml:space="preserve"
   id="svg2751"
   sodipodi:version="0.32"
   inkscape:version="0.46"
   sodipodi:docname="oranges.svg"
   inkscape:output_extension="org.inkscape.output.svg.inkscape"
   version="1.0"><metadata
   id="metadata2789"><rdf:RDF><cc:Work
       rdf:about=""><dc:format>image/svg+xml</dc:format><dc:type
         rdf:resource="http://purl.org/dc/dcmitype/StillImage" /></cc:Work></rdf:RDF></metadata><defs
   id="defs2787"><inkscape:perspective
   sodipodi:type="inkscape:persp3d"
   inkscape:vp_x="0 : 268.26901 : 1"
   inkscape:vp_y="0 : 1000 : 0"
   inkscape:vp_z="501.95599 : 268.26901 : 1"
   inkscape:persp3d-origin="250.978 : 178.84601 : 1"
   id="perspective2791" />
		
		
	</defs><sodipodi:namedview
   inkscape:window-height="670"
   inkscape:window-width="914"
   inkscape:pageshadow="2"
   inkscape:pageopacity="0.0"
   guidetolerance="10.0"
   gridtolerance="10.0"
   objecttolerance="10.0"
   borderopacity="1.0"
   bordercolor="#666666"
   pagecolor="#ffffff"
   id="base"
   showgrid="false"
   inkscape:zoom="0.86107597"
   inkscape:cx="250.978"
   inkscape:cy="268.26901"
   inkscape:window-x="0"
   inkscape:window-y="0"
   inkscape:current-layer="svg2751" />
	<style
   type="text/css"
   id="style2753">
	
		@font-face{font-family:'Times-Roman';src:url(C54E6F61.cef)}
	
	</style>
	
<g
   transform="matrix(1.1334925,0,0,1.1334925,-34.099327,1.5466536e-3)"
   style="overflow:visible"
   id="g2772">
			<g
   id="g2774">
				<path
   id="path2776"
   d="M 253.448,206.179 C 253.448,206.179 348.488,255.067 325.304,361.411 C 302.191,467.682 311.911,460.339 311.911,460.339 L 394.783,437.083 C 394.783,437.083 439.854,252.618 400.831,225.69 C 361.879,198.834 326.526,170.682 326.526,170.682 C 326.526,170.682 365.55,83.922 410.623,123.018 C 455.694,162.114 455.694,162.114 455.694,162.114 L 492.2,66.787 C 492.2,66.787 392.336,0.763 358.208,30.139 C 324.08,59.443 282.68,93.715 247.4,104.659 C 237.176,107.827 230.768,111.139 224.864,114.595 L 224.864,200.923 C 239.048,198.907 249.56,200.059 253.448,206.179 z M 224.864,456.811 L 224.864,331.675 C 240.848,315.331 255.176,307.339 262.015,319.794 C 262.015,319.794 298.519,355.29 297.295,382.147 C 296.359,403.099 252.008,440.179 224.864,456.811 z M 224.864,114.595 C 214.208,120.715 205.208,127.411 179.144,134.899 L 179.144,212.947 C 196.064,207.187 211.976,202.723 224.864,200.923 L 224.864,114.595 z M 224.864,331.675 L 224.864,456.811 C 217.088,461.563 210.68,464.659 207.152,465.235 C 200.456,466.243 189.512,460.411 179.144,453.355 L 179.144,390.283 C 192.752,370.195 209.6,347.155 224.864,331.675 z M 179.144,343.267 C 196.136,319.507 209.6,296.251 205.928,286.531 C 203.12,278.252 192.104,274.004 179.144,271.987 L 179.144,343.267 z M 179.144,134.899 C 169.352,137.779 157.04,140.731 141.416,143.827 C 139.04,144.259 136.736,144.763 134.432,145.195 L 134.432,229.939 C 149.264,223.819 164.6,217.843 179.144,212.947 L 179.144,134.899 L 179.144,134.899 z M 179.144,271.987 L 179.144,343.267 C 163.736,364.867 145.376,386.899 134.432,399.714 L 134.432,271.123 C 145.16,270.332 163.592,269.539 179.144,271.987 z M 179.144,390.283 C 163.664,413.107 152.36,432.187 152.36,432.187 C 152.36,432.187 165.176,443.923 179.144,453.355 L 179.144,390.283 z M 134.432,145.195 C 58.904,160.675 24.416,176.803 24.416,176.803 L 50.048,268.458 C 50.048,268.458 89.864,248.37 134.432,229.938 L 134.432,145.195 z M 134.432,271.123 L 134.432,399.715 C 128.6,406.484 124.856,410.732 124.856,410.732 C 124.856,410.732 37.16,375.669 69.992,362.564 C 102.896,348.668 125.576,271.917 125.576,271.917 C 125.576,271.917 128.96,271.483 134.432,271.123 z" />
				<path
   id="path2778"
   d="M 253.448,206.179 C 253.448,206.179 348.488,255.067 325.304,361.411 C 302.191,467.682 311.911,460.339 311.911,460.339 L 394.783,437.083 C 394.783,437.083 439.854,252.618 400.831,225.69 C 361.879,198.834 326.526,170.682 326.526,170.682 C 326.526,170.682 365.55,83.922 410.623,123.018 C 455.694,162.114 455.694,162.114 455.694,162.114 L 492.2,66.787 C 492.2,66.787 392.336,0.763 358.208,30.139 C 324.08,59.443 282.68,93.715 247.4,104.659 C 212.048,115.675 221.768,127.915 141.416,143.827 C 60.992,159.667 24.416,176.803 24.416,176.803 L 50.048,268.458 C 50.048,268.458 233.936,175.579 253.448,206.179 z M 262.016,319.794 C 262.016,319.794 298.52,355.29 297.296,382.147 C 296.072,409.004 222.992,462.787 207.152,465.235 C 191.312,467.683 152.36,432.187 152.36,432.187 C 152.36,432.187 241.28,281.923 262.016,319.794 z M 125.576,271.916 C 125.576,271.916 102.896,348.668 69.992,362.563 C 37.16,375.667 124.856,410.731 124.856,410.731 C 124.856,410.731 214.712,309.931 205.928,286.531 C 197.936,263.13 125.576,271.916 125.576,271.916 z"
   style="fill:none;stroke:#000000;stroke-width:15.98400021" />
			</g>
			<g
   id="g2780">
				<path
   id="path2782"
   d="M 239.84,191.491 C 239.84,191.491 334.88,240.378 311.695,346.723 C 288.584,452.994 298.304,445.651 298.304,445.651 L 381.175,422.467 C 381.175,422.467 426.247,237.931 387.224,211.075 C 348.271,184.147 312.919,156.067 312.919,156.067 C 312.919,156.067 351.942,69.307 397.015,108.403 C 442.087,147.499 442.087,147.499 442.087,147.499 L 478.591,52.171 C 478.591,52.171 378.728,-13.853 344.599,15.523 C 310.543,44.827 269.072,79.027 233.791,90.043 C 223.567,93.211 217.159,96.523 211.255,99.907 L 211.255,186.235 C 225.512,184.219 235.952,185.371 239.84,191.491 z M 211.256,442.195 L 211.256,316.987 C 227.312,300.715 241.568,292.651 248.408,305.179 C 248.408,305.179 284.912,340.603 283.687,367.531 C 282.752,388.412 238.4,425.491 211.256,442.195 z M 211.256,99.907 C 200.6,106.099 191.6,112.723 165.536,120.283 L 165.536,198.259 C 182.528,192.499 198.368,188.107 211.256,186.235 L 211.256,99.907 z M 211.256,316.987 L 211.256,442.195 C 203.48,446.947 197.072,450.044 193.544,450.548 C 186.848,451.628 175.904,445.796 165.536,438.739 L 165.536,375.668 C 179.144,355.507 195.992,332.539 211.256,316.987 z M 165.536,328.58 C 182.528,304.819 195.992,281.636 192.32,271.916 C 189.512,263.563 178.496,259.315 165.536,257.299 L 165.536,328.58 z M 165.536,120.283 C 155.744,123.091 143.504,126.043 127.808,129.139 C 125.432,129.643 123.128,130.075 120.824,130.579 L 120.824,215.251 C 135.656,209.131 150.992,203.227 165.536,198.259 L 165.536,120.283 z M 165.536,257.298 L 165.536,328.579 C 150.128,350.251 131.768,372.282 120.824,385.099 L 120.824,256.435 C 131.552,255.643 149.984,254.851 165.536,257.298 z M 165.536,375.667 C 150.056,398.491 138.752,417.57 138.752,417.57 C 138.752,417.57 151.64,429.234 165.536,438.738 L 165.536,375.667 z M 120.824,130.579 C 45.296,146.059 10.808,162.187 10.808,162.187 L 36.44,253.843 C 36.44,253.843 76.256,233.755 120.824,215.251 L 120.824,130.579 z M 120.824,256.435 L 120.824,385.099 C 114.992,391.939 111.248,396.115 111.248,396.115 C 111.248,396.115 23.552,361.052 56.384,347.875 C 89.288,334.052 111.968,257.299 111.968,257.299 C 111.968,257.299 115.424,256.867 120.824,256.435 z"
   style="fill:#fe5a17" />
				<path
   id="path2784"
   d="M 239.84,191.491 C 239.84,191.491 334.88,240.378 311.695,346.723 C 288.584,452.994 298.304,445.651 298.304,445.651 L 381.175,422.467 C 381.175,422.467 426.247,237.931 387.224,211.075 C 348.271,184.147 312.919,156.067 312.919,156.067 C 312.919,156.067 351.942,69.307 397.015,108.403 C 442.087,147.499 442.087,147.499 442.087,147.499 L 478.591,52.171 C 478.591,52.171 378.728,-13.853 344.599,15.523 C 310.543,44.827 269.072,79.027 233.791,90.043 C 198.439,101.059 208.159,113.299 127.807,129.139 C 47.383,145.051 10.807,162.187 10.807,162.187 L 36.439,253.843 C 36.44,253.843 220.4,160.963 239.84,191.491 z M 248.408,305.179 C 248.408,305.179 284.912,340.603 283.687,367.531 C 282.463,394.387 209.383,448.099 193.543,450.548 C 177.703,452.995 138.751,417.571 138.751,417.571 C 138.751,417.571 227.672,267.307 248.408,305.179 z M 111.968,257.298 C 111.968,257.298 89.288,334.051 56.384,347.874 C 23.552,361.051 111.248,396.114 111.248,396.114 C 111.248,396.114 201.104,295.314 192.32,271.915 C 184.328,248.515 111.968,257.298 111.968,257.298 z"
   style="fill:none;stroke:#ffd911;stroke-width:15.98400021" />
			</g>
		</g></svg>