<?xml version="1.0" encoding="iso-8859-1"?>
<!-- Generator: Adobe Illustrator 10, SVG Export Plug-In . SVG Version: 3.0.0 Build 76)  -->
<!DOCTYPE svg PUBLIC "-//W3C//DTD SVG 1.0//EN"    "http://www.w3.org/TR/2001/REC-SVG-20010904/DTD/svg10.dtd" [
	<!ENTITY ns_flows "http://ns.adobe.com/Flows/1.0/">
	<!ENTITY ns_svg "http://www.w3.org/2000/svg">
	<!ENTITY ns_xlink "http://www.w3.org/1999/xlink">
]>
<svg  xmlns="&ns_svg;" xmlns:xlink="&ns_xlink;" xmlns:a="http://ns.adobe.com/AdobeSVGViewerExtensions/3.0/"
	 width="501.956" height="536.538" viewBox="0 0 501.956 536.538"
	 style="overflow:visible;enable-background:new 0 0 501.956 536.538" xml:space="preserve">
	<style type="text/css">
	<![CDATA[
		@font-face{font-family:'Times-Roman';src:url(C54E6F61.cef)}
	]]>
	</style>
	<g id="Layer_1">
		<text transform="matrix(1 0 0 1 0 473.5747)"><tspan x="0" y="0" style="font-family:'Times-Roman'; font-size:12;">&quot;Oranges&quot;</tspan><tspan x="0" y="14.5" style="font-family:'Times-Roman'; font-size:12;">Copyright </tspan><tspan x="51.668" y="14.5" style="font-family:'Times-Roman'; font-size:12;">&#xA9;</tspan><tspan x="60.785" y="14.5" style="font-family:'Times-Roman'; font-size:12;"> 2000 Rob Myers http://www.robmyers.org/ .</tspan><tspan x="0" y="29" style="font-family:'Times-Roman'; font-size:12;">This work is licensed under the Creative Commons Attribution-ShareAlike License.</tspan><tspan x="0" y="43.5" style="font-family:'Times-Roman'; font-size:12;">To view a copy of this license, visit http://creativecommons.org/licenses/by-sa/1.0/ </tspan><tspan x="0" y="58" style="font-family:'Times-Roman'; font-size:12;">or send a letter to Creative Commons, 559 Nathan Abbott Way, Stanford, California 94305, USA.</tspan></text>
		<g>
			<g>
				<path d="M253.448,206.179c0,0,95.04,48.888,71.856,155.232c-23.113,106.271-13.393,98.928-13.393,98.928l82.872-23.256
					c0,0,45.071-184.465,6.048-211.393c-38.952-26.856-74.305-55.008-74.305-55.008s39.024-86.76,84.097-47.664
					c45.071,39.096,45.071,39.096,45.071,39.096L492.2,66.787c0,0-99.864-66.024-133.992-36.648
					C324.08,59.443,282.68,93.715,247.4,104.659c-10.224,3.168-16.632,6.48-22.536,9.936v86.328
					C239.048,198.907,249.56,200.059,253.448,206.179z M224.864,456.811V331.675c15.984-16.344,30.312-24.336,37.151-11.881
					c0,0,36.504,35.496,35.28,62.353C296.359,403.099,252.008,440.179,224.864,456.811z M224.864,114.595
					c-10.656,6.12-19.656,12.816-45.72,20.304v78.048c16.92-5.76,32.832-10.224,45.72-12.024V114.595z M224.864,331.675v125.136
					c-7.776,4.752-14.184,7.848-17.712,8.424c-6.696,1.008-17.64-4.824-28.008-11.88v-63.072
					C192.752,370.195,209.6,347.155,224.864,331.675z M179.144,343.267c16.992-23.76,30.456-47.016,26.784-56.736
					c-2.808-8.279-13.824-12.527-26.784-14.544V343.267z M179.144,134.899c-9.792,2.88-22.104,5.832-37.728,8.928
					c-2.376,0.432-4.68,0.936-6.984,1.368v84.744c14.832-6.12,30.168-12.096,44.712-16.992V134.899z M179.144,271.987v71.28
					c-15.408,21.6-33.768,43.632-44.712,56.447V271.123C145.16,270.332,163.592,269.539,179.144,271.987z M179.144,390.283
					c-15.48,22.824-26.784,41.904-26.784,41.904s12.816,11.736,26.784,21.168V390.283z M134.432,145.195
					c-75.528,15.48-110.016,31.608-110.016,31.608l25.632,91.655c0,0,39.816-20.088,84.384-38.52V145.195z M134.432,271.123v128.592
					c-5.832,6.769-9.576,11.017-9.576,11.017s-87.696-35.063-54.864-48.168c32.904-13.896,55.584-90.647,55.584-90.647
					S128.96,271.483,134.432,271.123z"/>
				<path style="fill:none;stroke:#000000;stroke-width:15.984;" d="M253.448,206.179c0,0,95.04,48.888,71.856,155.232
					c-23.113,106.271-13.393,98.928-13.393,98.928l82.872-23.256c0,0,45.071-184.465,6.048-211.393
					c-38.952-26.856-74.305-55.008-74.305-55.008s39.024-86.76,84.097-47.664c45.071,39.096,45.071,39.096,45.071,39.096
					L492.2,66.787c0,0-99.864-66.024-133.992-36.648C324.08,59.443,282.68,93.715,247.4,104.659
					c-35.352,11.016-25.632,23.256-105.984,39.168c-80.424,15.84-117,32.976-117,32.976l25.632,91.655
					C50.048,268.458,233.936,175.579,253.448,206.179z M262.016,319.794c0,0,36.504,35.496,35.28,62.353
					s-74.304,80.64-90.144,83.088c-15.84,2.448-54.792-33.048-54.792-33.048S241.28,281.923,262.016,319.794z M125.576,271.916
					c0,0-22.68,76.752-55.584,90.647c-32.832,13.104,54.864,48.168,54.864,48.168s89.856-100.8,81.072-124.2
					C197.936,263.13,125.576,271.916,125.576,271.916z"/>
			</g>
			<g>
				<path style="fill:#FE5A17;" d="M239.84,191.491c0,0,95.04,48.887,71.855,155.232c-23.111,106.271-13.391,98.928-13.391,98.928
					l82.871-23.184c0,0,45.072-184.536,6.049-211.392c-38.953-26.928-74.305-55.008-74.305-55.008s39.023-86.76,84.096-47.664
					c45.072,39.096,45.072,39.096,45.072,39.096l36.504-95.328c0,0-99.863-66.024-133.992-36.648
					c-34.056,29.304-75.527,63.504-110.808,74.52c-10.224,3.168-16.632,6.48-22.536,9.864v86.328
					C225.512,184.219,235.952,185.371,239.84,191.491z M211.256,442.195V316.987c16.056-16.272,30.312-24.336,37.152-11.808
					c0,0,36.504,35.424,35.279,62.352C282.752,388.412,238.4,425.491,211.256,442.195z M211.256,99.907
					c-10.656,6.192-19.656,12.816-45.72,20.376v77.976c16.992-5.76,32.832-10.152,45.72-12.024V99.907z M211.256,316.987v125.208
					c-7.776,4.752-14.184,7.849-17.712,8.353c-6.696,1.08-17.64-4.752-28.008-11.809v-63.071
					C179.144,355.507,195.992,332.539,211.256,316.987z M165.536,328.58c16.992-23.761,30.456-46.944,26.784-56.664
					c-2.808-8.353-13.824-12.601-26.784-14.617V328.58z M165.536,120.283c-9.792,2.808-22.032,5.76-37.728,8.856
					c-2.376,0.504-4.68,0.936-6.984,1.44v84.672c14.832-6.12,30.168-12.024,44.712-16.992V120.283z M165.536,257.298v71.281
					c-15.408,21.672-33.768,43.703-44.712,56.52V256.435C131.552,255.643,149.984,254.851,165.536,257.298z M165.536,375.667
					c-15.48,22.824-26.784,41.903-26.784,41.903s12.888,11.664,26.784,21.168V375.667z M120.824,130.579
					c-75.528,15.48-110.016,31.608-110.016,31.608l25.632,91.656c0,0,39.816-20.088,84.384-38.592V130.579z M120.824,256.435
					v128.664c-5.832,6.84-9.576,11.016-9.576,11.016s-87.696-35.063-54.864-48.24c32.904-13.823,55.584-90.576,55.584-90.576
					S115.424,256.867,120.824,256.435z"/>
				<path style="fill:none;stroke:#FFD911;stroke-width:15.984;" d="M239.84,191.491c0,0,95.04,48.887,71.855,155.232
					c-23.111,106.271-13.391,98.928-13.391,98.928l82.871-23.184c0,0,45.072-184.536,6.049-211.392
					c-38.953-26.928-74.305-55.008-74.305-55.008s39.023-86.76,84.096-47.664c45.072,39.096,45.072,39.096,45.072,39.096
					l36.504-95.328c0,0-99.863-66.024-133.992-36.648c-34.056,29.304-75.527,63.504-110.808,74.52
					c-35.352,11.016-25.632,23.256-105.984,39.096c-80.424,15.912-117,33.048-117,33.048l25.632,91.656
					C36.44,253.843,220.4,160.963,239.84,191.491z M248.408,305.179c0,0,36.504,35.424,35.279,62.352
					c-1.224,26.856-74.304,80.568-90.144,83.017c-15.84,2.447-54.792-32.977-54.792-32.977S227.672,267.307,248.408,305.179z
					 M111.968,257.298c0,0-22.68,76.753-55.584,90.576c-32.832,13.177,54.864,48.24,54.864,48.24s89.856-100.8,81.072-124.199
					C184.328,248.515,111.968,257.298,111.968,257.298z"/>
			</g>
		</g>
	</g>
</svg>
