<?xml version="1.0" encoding="iso-8859-1"?>
<!-- Generator: Adobe Illustrator 10, SVG Export Plug-In . SVG Version: 3.0.0 Build 76)  -->
<!DOCTYPE svg PUBLIC "-//W3C//DTD SVG 1.0//EN"    "http://www.w3.org/TR/2001/REC-SVG-20010904/DTD/svg10.dtd" [
	<!ENTITY ns_flows "http://ns.adobe.com/Flows/1.0/">
	<!ENTITY ns_svg "http://www.w3.org/2000/svg">
	<!ENTITY ns_xlink "http://www.w3.org/1999/xlink">
]>
<svg  xmlns="&ns_svg;" xmlns:xlink="&ns_xlink;" xmlns:a="http://ns.adobe.com/AdobeSVGViewerExtensions/3.0/"
	 width="551.229" height="578.031" viewBox="0 0 551.229 578.031"
	 style="overflow:visible;enable-background:new 0 0 551.229 578.031" xml:space="preserve">
	<style type="text/css">
	<![CDATA[
		@font-face{font-family:'Times-Roman';src:url(C514BDB.cef)}
	]]>
	</style>
	<g id="Layer_1">
		<text transform="matrix(1 0 0 1 6.376 515.0679)"><tspan x="0" y="0" style="font-family:'Times-Roman'; font-size:12;">&quot;Rings&quot;</tspan><tspan x="0" y="14.5" style="font-family:'Times-Roman'; font-size:12;">Copyright </tspan><tspan x="51.668" y="14.5" style="font-family:'Times-Roman'; font-size:12;">&#xA9;</tspan><tspan x="60.785" y="14.5" style="font-family:'Times-Roman'; font-size:12;"> 2000 Rob Myers http://www.robmyers.org/ .</tspan><tspan x="0" y="29" style="font-family:'Times-Roman'; font-size:12;">This work is licensed under the Creative Commons Attribution-ShareAlike License.</tspan><tspan x="0" y="43.5" style="font-family:'Times-Roman'; font-size:12;">To view a copy of this license, visit http://creativecommons.org/licenses/by-sa/1.0/ </tspan><tspan x="0" y="58" style="font-family:'Times-Roman'; font-size:12;">or send a letter to Creative Commons, 559 Nathan Abbott Way, Stanford, California 94305, USA.</tspan></text>
		<g>
			<g>
				<path style="stroke:#000000;stroke-width:7.992;" d="M147.744,158.04c29.592,78.408,63.504,137.376,112.824,152.856
					c48.888,15.336,109.008-14.256,175.392-62.424c-2.736,9.433-5.472,18.864-8.208,28.296s-5.472,18.864-8.208,28.296
					c-65.016,43.345-124.128,69.12-173.232,54.792c-49.176-14.328-85.176-67.68-116.783-139.104
					c3.023-10.44,6.048-20.88,9.071-31.32C141.624,178.992,144.647,168.552,147.744,158.04z"/>
				<g>
					<path d="M371.808,482.688c56.376-11.592,116.137-69.768,148.752-151.992c14.688-37.08,22.032-74.304,22.681-108.432v-9
						c-1.08-61.416-24.696-111.096-67.032-127.872c-32.112-12.744-69.48-4.176-104.4,20.016v59.184
						c18.072-8.352,36.36-10.08,52.633-3.6c45.071,17.856,58.248,92.016,29.231,165.096c-18.504,46.729-49.824,82.008-81.864,96.624
						V482.688z M280.512,222.696C274.32,127.584,228.384,50.544,170.28,35.712v86.904c0.216,0,0.432-0.072,0.576-0.072
						c47.663,0,87.119,63.864,87.119,142.848c0,77.761-39.456,141.624-87.119,141.624c-0.145,0-0.36,0-0.576,0v46.152
						c34.199-8.712,64.151-38.88,84.239-81.576c5.473,51.768,28.225,92.448,65.736,107.28c16.2,6.479,33.696,7.487,51.552,3.815
						v-59.976c-18,8.28-36.288,10.008-52.56,3.527c-45.072-17.855-58.248-91.943-29.232-165.023
						c18.504-46.728,49.824-81.936,81.792-96.624v-59.184C336.168,130.104,302.976,171.216,280.512,222.696z M170.28,35.712
						c-6.624-1.656-13.393-2.52-20.305-2.52c-72,0-131.184,95.184-131.184,211.32c0,116.064,59.184,211.248,131.184,211.248
						c6.912,0,13.681-0.937,20.305-2.592v-46.152c-48.456-0.504-87.624-64.152-87.624-141.624
						c0-78.624,39.168-142.272,87.624-142.776V35.712z"/>
					<path style="fill:none;stroke:#000000;stroke-width:15.984;" d="M280.512,222.696
						c-6.84-105.984-63.071-189.504-130.536-189.504c-72,0-131.184,95.184-131.184,211.32c0,116.064,59.184,211.248,131.184,211.248
						c42.48,0,80.496-33.192,104.544-84.168c5.473,51.768,28.225,92.448,65.736,107.28
						c67.392,26.712,157.392-39.889,200.304-148.177c42.984-108.359,23.04-218.592-44.352-245.304
						C411.192,59.616,325.008,120.888,280.512,222.696z M170.856,122.544c47.663,0,87.119,63.864,87.119,142.848
						c0,77.761-39.456,141.624-87.119,141.624c-48.744,0-88.2-63.863-88.2-141.624C82.656,186.408,122.112,122.544,170.856,122.544z
						 M424.44,160.992c-45.072-17.856-105.48,27.144-134.425,100.224c-29.016,73.08-15.84,147.168,29.232,165.023
						c45.072,17.929,105.479-27.071,134.424-100.151C482.688,253.008,469.512,178.848,424.44,160.992z"/>
				</g>
			</g>
			<g>
				<path style="fill:#EC93C1;stroke:#AD497D;stroke-width:7.992;" d="M136.944,132.84
					c29.592,78.408,63.504,137.376,112.823,152.855c48.889,15.336,109.009-14.256,175.393-62.424
					c-2.736,9.432-5.472,18.864-8.208,28.296s-5.473,18.864-8.208,28.295c-65.017,43.344-124.128,69.121-173.232,54.793
					c-49.176-14.328-85.176-67.681-116.784-139.104c3.024-10.44,6.049-20.88,9.072-31.32
					C130.824,153.792,133.848,143.352,136.944,132.84z"/>
				<g>
					<path style="fill:#E6DF00;" d="M361.008,457.488c56.376-11.592,116.136-69.696,148.752-151.991
						c14.688-37.08,22.032-74.304,22.68-108.433v-9c-1.079-61.416-24.695-111.096-67.031-127.872
						c-32.112-12.744-69.48-4.176-104.4,20.016v59.184c18.072-8.352,36.36-10.08,52.632-3.6
						c45.072,17.856,58.248,92.016,29.232,165.096c-18.504,46.728-49.824,82.008-81.864,96.696V457.488z M269.712,197.496
						c-6.192-95.112-52.128-172.152-110.232-186.984v86.904c0.217,0,0.433-0.072,0.576-0.072c47.664,0,87.12,63.864,87.12,142.848
						c0,77.759-39.456,141.625-87.12,141.625c-0.144,0-0.359,0-0.576,0v46.151c34.2-8.712,64.152-38.808,84.24-81.576
						c5.473,51.84,28.225,92.448,65.736,107.28c16.2,6.479,33.696,7.488,51.552,3.815v-59.903c-18,8.279-36.288,10.008-52.56,3.527
						c-45.072-17.855-58.248-92.016-29.232-165.096c18.504-46.728,49.824-81.936,81.792-96.624V80.208
						C325.368,104.904,292.176,146.016,269.712,197.496z M159.479,10.512c-6.623-1.656-13.392-2.52-20.304-2.52
						c-72,0-131.184,95.184-131.184,211.32c0,116.063,59.184,211.248,131.184,211.248c6.912,0,13.681-0.936,20.304-2.592v-46.151
						c-48.455-0.505-87.623-64.152-87.623-141.625c0-78.624,39.168-142.272,87.623-142.776V10.512z"/>
					<path style="fill:none;stroke:#A68D27;stroke-width:15.984;" d="M269.712,197.496C262.872,91.512,206.64,7.992,139.176,7.992
						c-72,0-131.184,95.184-131.184,211.32c0,116.063,59.184,211.248,131.184,211.248c42.48,0,80.496-33.12,104.544-84.168
						c5.473,51.84,28.225,92.448,65.736,107.28c67.392,26.712,157.392-39.889,200.304-148.176
						c42.984-108.36,23.04-218.592-44.352-245.304C400.392,34.416,314.208,95.688,269.712,197.496z M160.056,97.344
						c47.664,0,87.12,63.864,87.12,142.848c0,77.759-39.456,141.625-87.12,141.625c-48.744,0-88.199-63.865-88.199-141.625
						C71.856,161.208,111.312,97.344,160.056,97.344z M413.64,135.792c-45.071-17.856-105.479,27.144-134.424,100.224
						c-29.016,73.08-15.84,147.24,29.232,165.096c45.071,17.856,105.479-27.144,134.424-100.224
						C471.888,227.808,458.712,153.648,413.64,135.792z"/>
				</g>
			</g>
		</g>
	</g>
</svg>
