<?xml version="1.0" encoding="iso-8859-1"?>
<!-- Generator: Adobe Illustrator 10, SVG Export Plug-In . SVG Version: 3.0.0 Build 76)  -->
<!DOCTYPE svg PUBLIC "-//W3C//DTD SVG 1.0//EN"    "http://www.w3.org/TR/2001/REC-SVG-20010904/DTD/svg10.dtd" [
	<!ENTITY ns_flows "http://ns.adobe.com/Flows/1.0/">
	<!ENTITY ns_svg "http://www.w3.org/2000/svg">
	<!ENTITY ns_xlink "http://www.w3.org/1999/xlink">
]>
<svg  xmlns="&ns_svg;" xmlns:xlink="&ns_xlink;" xmlns:a="http://ns.adobe.com/AdobeSVGViewerExtensions/3.0/"
	 width="690.964" height="769.217" viewBox="0 0 690.964 769.217"
	 style="overflow:visible;enable-background:new 0 0 690.964 769.217" xml:space="preserve">
	<style type="text/css">
	<![CDATA[
		@font-face{font-family:'Times-Roman';src:url(CDCBCC59.cef)}
	]]>
	</style>
	<g id="Layer_1">
		<text transform="matrix(1 0 0 1 0 706.2544)"><tspan x="0" y="0" style="font-family:'Times-Roman'; font-size:12;">&quot;Vi&quot;</tspan><tspan x="0" y="14.5" style="font-family:'Times-Roman'; font-size:12;">Copyright </tspan><tspan x="51.668" y="14.5" style="font-family:'Times-Roman'; font-size:12;">&#xA9;</tspan><tspan x="60.785" y="14.5" style="font-family:'Times-Roman'; font-size:12;"> 2000 Rob Myers http://www.robmyers.org/ .</tspan><tspan x="0" y="29" style="font-family:'Times-Roman'; font-size:12;">This work is licensed under the Creative Commons Attribution-ShareAlike License.</tspan><tspan x="0" y="43.5" style="font-family:'Times-Roman'; font-size:12;">To view a copy of this license, visit http://creativecommons.org/licenses/by-sa/1.0/ </tspan><tspan x="0" y="58" style="font-family:'Times-Roman'; font-size:12;">or send a letter to Creative Commons, 559 Nathan Abbott Way, Stanford, California 94305, USA.</tspan></text>
		<g>
			<g>
				<g>
					<path style="fill:#7E0000;" d="M650.712,204.155l-2.88,1.728c-9.145-12.816-10.8-14.256-26.064-5.184l-45.287,26.712
						c-4.104,2.376-7.057,4.104-8.424,5.76c-1.656,2.592-2.377,5.328-0.289,8.856c0.648,1.224,0.648,1.224,6.265,6.624l-2.952,1.728
						l-3.6-3.384c-10.152-9.144-17.568-15.048-22.104-18.648c-1.655-1.44-2.952-2.304-2.952-2.304
						c0.288-0.936,0.864-1.224,0.864-1.224l68.76-40.608c14.688-8.64,15.408-11.448,8.353-24.768l2.951-1.728L650.712,204.155z
						 M502.896,255.923v-1.44c0.215-3.744,2.375-7.272,5.688-9.216c5.328-3.168,12.456-1.8,15.912,4.104
						c3.096,5.256,1.225,12.744-4.104,15.84c-5.256,3.168-12.744,1.224-15.841-4.104
						C503.544,259.451,502.968,257.651,502.896,255.923z"/>
					<path style="fill:none;stroke:#7E0000;stroke-width:7.992;" d="M650.712,204.155l-2.88,1.728
						c-9.145-12.816-10.8-14.256-26.064-5.184l-45.287,26.712c-4.104,2.376-7.057,4.104-8.424,5.76
						c-1.656,2.592-2.377,5.328-0.289,8.856c0.648,1.224,0.648,1.224,6.265,6.624l-2.952,1.728l-3.6-3.384
						c-10.152-9.144-17.568-15.048-22.104-18.648c-1.655-1.44-2.952-2.304-2.952-2.304c0.288-0.936,0.864-1.224,0.864-1.224
						l68.76-40.608c14.688-8.64,15.408-11.448,8.353-24.768l2.951-1.728L650.712,204.155z M520.393,265.211
						c-5.256,3.168-12.744,1.224-15.841-4.104c-3.528-5.832-1.224-12.744,4.032-15.84c5.328-3.168,12.456-1.8,15.912,4.104
						C527.592,254.626,525.721,262.115,520.393,265.211z"/>
				</g>
				<g>
					<path style="fill:#7E0000;" d="M281.568,678.563l0.576-3.312c15.696,1.152,17.784,0.792,20.664-16.704l8.424-51.84
						c0.792-4.752,1.296-8.136,1.008-10.224c-0.936-2.952-2.664-5.256-6.696-5.904c-1.296-0.288-1.296-0.288-9.072,0.576
						l0.576-3.384l4.896-0.576c13.464-1.944,22.752-3.888,28.512-5.04c2.088-0.36,3.528-0.792,3.528-0.792
						c0.576,0.792,0.504,1.439,0.504,1.439l-12.816,78.769c-2.736,16.848-1.08,19.224,13.68,22.32l-0.576,3.312L281.568,678.563z
						 M318,539.315c1.008-6.048,7.272-10.513,13.32-9.576c6.768,1.08,10.584,7.271,9.576,13.32
						c-0.936,6.048-6.552,10.655-13.248,9.575C321.528,551.699,317.064,545.435,318,539.315z"/>
					<path style="fill:none;stroke:#7E0000;stroke-width:7.992;" d="M281.568,678.563l0.576-3.312
						c15.696,1.152,17.784,0.792,20.664-16.704l8.424-51.84c0.792-4.752,1.296-8.136,1.008-10.224
						c-0.936-2.952-2.664-5.256-6.696-5.904c-1.296-0.288-1.296-0.288-9.072,0.576l0.576-3.384l4.896-0.576
						c13.464-1.944,22.752-3.888,28.512-5.04c2.088-0.36,3.528-0.792,3.528-0.792c0.576,0.792,0.504,1.439,0.504,1.439
						l-12.816,78.769c-2.736,16.848-1.08,19.224,13.68,22.32l-0.576,3.312L281.568,678.563z M318,539.315
						c1.008-6.048,7.272-10.513,13.32-9.576c6.768,1.08,10.584,7.271,9.576,13.32c-0.936,6.048-6.552,10.655-13.248,9.575
						C321.528,551.699,317.064,545.435,318,539.315z"/>
				</g>
				<g>
					<path style="fill:#7E0000;" d="M504.408,668.338l-1.584-3.023c13.248-8.496,14.688-10.08,6.48-25.776l-24.48-46.512
						c-2.16-4.176-3.816-7.2-5.328-8.712c-2.52-1.8-5.256-2.664-8.855-0.721c-1.225,0.576-1.225,0.576-6.912,5.904l-1.584-3.023
						l3.6-3.385c9.576-9.72,15.84-16.848,19.729-21.168c1.439-1.584,2.375-2.808,2.375-2.808c0.937,0.288,1.225,0.864,1.225,0.864
						l37.152,70.704c7.92,15.048,10.655,15.911,24.264,9.575l1.584,3.024L504.408,668.338z M448.607,530.674v-1.296
						c0.217-4.031,2.449-7.992,6.049-9.863c6.048-3.168,12.816-0.576,15.695,4.823c2.809,5.473,1.152,12.528-4.896,15.696
						c-5.399,2.88-12.815,0.576-15.624-4.896C449.04,533.771,448.68,532.187,448.607,530.674z"/>
					<path style="fill:none;stroke:#7E0000;stroke-width:7.992;" d="M504.408,668.338l-1.584-3.023
						c13.248-8.496,14.688-10.08,6.48-25.776l-24.48-46.512c-2.16-4.176-3.816-7.2-5.328-8.712c-2.52-1.8-5.256-2.664-8.855-0.721
						c-1.225,0.576-1.225,0.576-6.912,5.904l-1.584-3.023l3.6-3.385c9.576-9.72,15.84-16.848,19.729-21.168
						c1.439-1.584,2.375-2.808,2.375-2.808c0.937,0.288,1.225,0.864,1.225,0.864l37.152,70.704
						c7.92,15.048,10.655,15.911,24.264,9.575l1.584,3.024L504.408,668.338z M449.832,535.139c-2.88-5.4-0.576-12.816,4.824-15.624
						c6.048-3.168,12.816-0.576,15.695,4.823c2.809,5.473,1.152,12.528-4.896,15.696
						C460.057,542.915,452.641,540.611,449.832,535.139z"/>
				</g>
				<g>
					<path style="fill:#7E0000;" d="M106.68,138.635l2.664,2.088c-8.712,13.176-9.432,15.192,4.464,26.208l41.184,32.616
						c3.744,3.024,6.408,5.112,8.424,5.832c3.024,0.648,5.904,0.288,8.424-2.88c0.864-1.08,0.864-1.08,3.888-8.28l2.664,2.16
						l-1.872,4.608c-4.824,12.672-7.704,21.744-9.504,27.288c-0.72,2.016-1.008,3.528-1.008,3.528
						c-1.008,0.144-1.512-0.288-1.512-0.288l-62.568-49.608c-13.32-10.584-16.2-10.296-26.063,1.08l-2.664-2.16L106.68,138.635z
						 M214.68,246.851v1.368c-0.072,2.304-0.864,4.536-2.304,6.408c-4.248,5.328-11.52,5.688-16.344,1.872
						c-4.824-3.816-6.12-10.944-1.872-16.272c3.816-4.824,11.52-5.688,16.272-1.872C213.096,240.371,214.536,243.611,214.68,246.851
						z"/>
					<path style="fill:none;stroke:#7E0000;stroke-width:7.992;" d="M106.68,138.635l2.664,2.088
						c-8.712,13.176-9.432,15.192,4.464,26.208l41.184,32.616c3.744,3.024,6.408,5.112,8.424,5.832
						c3.024,0.648,5.904,0.288,8.424-2.88c0.864-1.08,0.864-1.08,3.888-8.28l2.664,2.16l-1.872,4.608
						c-4.824,12.672-7.704,21.744-9.504,27.288c-0.72,2.016-1.008,3.528-1.008,3.528c-1.008,0.144-1.512-0.288-1.512-0.288
						l-62.568-49.608c-13.32-10.584-16.2-10.296-26.063,1.08l-2.664-2.16L106.68,138.635z M210.432,238.355
						c4.824,3.816,5.76,11.448,1.944,16.271c-4.248,5.328-11.52,5.688-16.344,1.872c-4.824-3.816-6.12-10.944-1.872-16.272
						C197.976,235.403,205.68,234.539,210.432,238.355z"/>
				</g>
				<g>
					<path style="fill:#7E0000;" d="M78.888,538.307l2.952-1.729c9.216,12.744,10.8,14.185,26.064,5.04l45.072-27
						c4.104-2.448,7.056-4.176,8.424-5.832c1.656-2.52,2.376-5.328,0.288-8.855c-0.72-1.152-0.72-1.152-6.336-6.553l2.952-1.8
						l3.6,3.456c10.152,9,17.64,14.832,22.176,18.504c1.656,1.368,2.952,2.232,2.952,2.232c-0.216,0.936-0.792,1.296-0.792,1.296
						l-68.544,40.968c-14.616,8.712-15.336,11.521-8.208,24.768l-2.952,1.801L78.888,538.307z M226.416,485.819v1.296
						c-0.216,3.744-2.304,7.271-5.688,9.288c-5.256,3.096-12.384,1.8-15.912-4.032c-3.096-5.256-1.224-12.744,4.032-15.912
						c5.256-3.168,12.744-1.296,15.912,4.032C225.768,482.218,226.344,484.019,226.416,485.819z"/>
					<path style="fill:none;stroke:#7E0000;stroke-width:7.992;" d="M78.888,538.307l2.952-1.729
						c9.216,12.744,10.8,14.185,26.064,5.04l45.072-27c4.104-2.448,7.056-4.176,8.424-5.832c1.656-2.52,2.376-5.328,0.288-8.855
						c-0.72-1.152-0.72-1.152-6.336-6.553l2.952-1.8l3.6,3.456c10.152,9,17.64,14.832,22.176,18.504
						c1.656,1.368,2.952,2.232,2.952,2.232c-0.216,0.936-0.792,1.296-0.792,1.296l-68.544,40.968
						c-14.616,8.712-15.336,11.521-8.208,24.768l-2.952,1.801L78.888,538.307z M208.848,476.458
						c5.256-3.168,12.744-1.296,15.912,4.032c3.528,5.832,1.296,12.744-4.032,15.912c-5.256,3.096-12.384,1.8-15.912-4.032
						C201.72,487.115,203.592,479.626,208.848,476.458z"/>
				</g>
				<g>
					<path style="fill:#7E0000;" d="M11.424,344.411l3.384-0.144c1.944,15.552,2.736,17.568,20.448,16.92l52.488-2.088
						c4.824-0.145,8.208-0.288,10.224-1.009c2.664-1.512,4.608-3.528,4.464-7.632c0-1.367,0-1.367-2.376-8.784l3.384-0.144
						l1.584,4.68c4.608,12.744,8.352,21.456,10.584,26.856c0.792,2.016,1.512,3.384,1.512,3.384c-0.648,0.72-1.368,0.72-1.368,0.72
						l-79.776,3.097c-16.992,0.647-19.008,2.735-19.08,17.783l-3.384,0.145L11.424,344.411z M155.136,352.474
						c6.12-0.215,11.808,4.969,12.024,11.089c0,0.216,0,0.432,0,0.647c-0.072,6.48-5.184,11.16-11.16,11.376
						c-6.12,0.288-11.736-4.319-12.024-11.088C143.76,358.307,148.944,352.763,155.136,352.474z"/>
					<path style="fill:none;stroke:#7E0000;stroke-width:7.992;" d="M11.424,344.411l3.384-0.144
						c1.944,15.552,2.736,17.568,20.448,16.92l52.488-2.088c4.824-0.145,8.208-0.288,10.224-1.009
						c2.664-1.512,4.608-3.528,4.464-7.632c0-1.367,0-1.367-2.376-8.784l3.384-0.144l1.584,4.68
						c4.608,12.744,8.352,21.456,10.584,26.856c0.792,2.016,1.512,3.384,1.512,3.384c-0.648,0.72-1.368,0.72-1.368,0.72
						l-79.776,3.097c-16.992,0.647-19.008,2.735-19.08,17.783l-3.384,0.145L11.424,344.411z M155.136,352.474
						c6.12-0.215,11.808,4.969,12.024,11.089c0.216,6.84-5.04,11.808-11.16,12.023c-6.12,0.288-11.736-4.319-12.024-11.088
						C143.76,358.307,148.944,352.763,155.136,352.474z"/>
				</g>
				<g>
					<path style="fill:#7E0000;" d="M295.68,19.547l0.792,3.312c-14.976,4.896-16.848,6.048-12.816,23.328l11.808,51.12
						c1.08,4.68,1.872,7.992,3.024,9.864c1.944,2.304,4.392,3.888,8.352,2.952c1.368-0.288,1.368-0.288,8.208-4.032l0.792,3.312
						l-4.392,2.448c-11.664,6.912-19.584,12.24-24.408,15.48c-1.872,1.08-3.024,2.088-3.024,2.088
						c-0.792-0.504-0.936-1.152-0.936-1.152l-18.072-77.76c-3.816-16.632-6.336-18.216-21.096-15.48l-0.72-3.312L295.68,19.547z
						 M314.76,162.25c1.368,5.976-2.736,12.528-8.712,13.896c-6.624,1.512-12.528-2.736-13.896-8.712
						c-1.368-5.976,2.016-12.384,8.64-13.896C306.84,152.171,313.32,156.203,314.76,162.25z"/>
					<path style="fill:none;stroke:#7E0000;stroke-width:7.992;" d="M295.68,19.547l0.792,3.312
						c-14.976,4.896-16.848,6.048-12.816,23.328l11.808,51.12c1.08,4.68,1.872,7.992,3.024,9.864
						c1.944,2.304,4.392,3.888,8.352,2.952c1.368-0.288,1.368-0.288,8.208-4.032l0.792,3.312l-4.392,2.448
						c-11.664,6.912-19.584,12.24-24.408,15.48c-1.872,1.08-3.024,2.088-3.024,2.088c-0.792-0.504-0.936-1.152-0.936-1.152
						l-18.072-77.76c-3.816-16.632-6.336-18.216-21.096-15.48l-0.72-3.312L295.68,19.547z M314.76,162.25
						c1.368,5.976-2.736,12.528-8.712,13.896c-6.624,1.512-12.528-2.736-13.896-8.712c-1.368-5.976,2.016-12.384,8.64-13.896
						C306.84,152.171,313.32,156.203,314.76,162.25z"/>
				</g>
				<g>
					<path style="fill:#7E0000;" d="M649.344,520.307l-2.951-1.656c6.191-14.472,6.551-16.561-9.145-24.984l-46.296-24.768
						c-4.177-2.232-7.2-3.816-9.36-4.248c-3.023-0.072-5.832,0.792-7.703,4.392c-0.648,1.225-0.648,1.225-2.377,8.784l-3.023-1.584
						l1.008-4.896c2.52-13.32,3.672-22.752,4.464-28.513c0.36-2.16,0.433-3.672,0.433-3.672c0.936-0.288,1.512,0,1.512,0
						l70.416,37.656c15.048,8.063,17.783,7.2,25.488-5.688l2.951,1.584L649.344,520.307z M523.488,430.955v-1.512
						c0.072-1.584,0.432-3.096,1.224-4.464c3.24-6.048,10.296-7.704,15.696-4.752c5.4,2.88,7.992,9.647,4.752,15.695
						c-2.881,5.4-10.297,7.633-15.696,4.752C525.863,438.731,523.704,434.915,523.488,430.955z"/>
					<path style="fill:none;stroke:#7E0000;stroke-width:7.992;" d="M649.344,520.307l-2.951-1.656
						c6.191-14.472,6.551-16.561-9.145-24.984l-46.296-24.768c-4.177-2.232-7.2-3.816-9.36-4.248
						c-3.023-0.072-5.832,0.792-7.703,4.392c-0.648,1.225-0.648,1.225-2.377,8.784l-3.023-1.584l1.008-4.896
						c2.52-13.32,3.672-22.752,4.464-28.513c0.36-2.16,0.433-3.672,0.433-3.672c0.936-0.288,1.512,0,1.512,0l70.416,37.656
						c15.048,8.063,17.783,7.2,25.488-5.688l2.951,1.584L649.344,520.307z M529.464,440.674c-5.399-2.88-7.632-10.296-4.752-15.695
						c3.24-6.048,10.296-7.704,15.696-4.752c5.4,2.88,7.992,9.647,4.752,15.695C542.279,441.323,534.863,443.555,529.464,440.674z"
						/>
				</g>
				<g>
					<path style="fill:#7E0000;" d="M517.584,40.067l-1.512,3.096c-14.688-5.76-16.776-6.048-24.696,9.864l-23.256,47.088
						c-2.16,4.248-3.672,7.344-3.96,9.432c0,3.096,0.936,5.832,4.607,7.632c1.225,0.648,1.225,0.648,8.856,2.088l-1.513,3.096
						l-4.896-0.936c-13.392-2.088-22.896-2.952-28.655-3.528c-2.16-0.288-3.672-0.288-3.672-0.288c-0.361-0.936,0-1.512,0-1.512
						l35.352-71.568c7.56-15.264,6.695-18-6.48-25.272l1.512-3.096L517.584,40.067z M419.809,158.147v-1.512
						c0.071-1.512,0.504-3.024,1.224-4.464c2.663-5.472,9.432-8.28,15.479-5.256c5.545,2.736,7.992,10.008,5.256,15.552
						c-2.664,5.472-10.008,7.992-15.479,5.256C422.256,165.707,420.023,162.035,419.809,158.147z"/>
					<path style="fill:none;stroke:#7E0000;stroke-width:7.992;" d="M517.584,40.067l-1.512,3.096
						c-14.688-5.76-16.776-6.048-24.696,9.864l-23.256,47.088c-2.16,4.248-3.672,7.344-3.96,9.432c0,3.096,0.936,5.832,4.607,7.632
						c1.225,0.648,1.225,0.648,8.856,2.088l-1.513,3.096l-4.896-0.936c-13.392-2.088-22.896-2.952-28.655-3.528
						c-2.16-0.288-3.672-0.288-3.672-0.288c-0.361-0.936,0-1.512,0-1.512l35.352-71.568c7.56-15.264,6.695-18-6.48-25.272
						l1.512-3.096L517.584,40.067z M441.768,162.467c-2.664,5.472-10.008,7.992-15.479,5.256c-6.12-3.024-7.992-10.08-5.256-15.552
						c2.663-5.472,9.432-8.28,15.479-5.256C442.057,149.651,444.504,156.923,441.768,162.467z"/>
				</g>
				<path style="fill:#7E0000;stroke:#7E0000;stroke-width:7.992;" d="M260.76,487.331l-26.424-55.584l4.248-2.016
					c2.448,5.256,4.464,9.432,4.968,10.512c3.6,2.16,6.696,3.24,9.792,1.728c3.168-1.439,7.416-6.048,18.072-18.791l48.816-56.521
					l-92.592,11.521c-23.112,1.655-26.856,3.888-31.32,13.896l-3.168-1.224l6.48-27.217l-5.544-16.775l3.096-1.512
					c3.096,3.672,5.616,6.336,9.216,8.497c4.824,2.808,9.432,0.647,14.4,2.231c6.552-0.144,13.176-0.792,19.8-1.224
					c1.584-0.145,3.384-0.289,5.328-0.433l14.76-1.008l71.568-5.04l-69.12-60.336c-6.12-5.112-10.152-8.064-13.32-9.288
					c-3.816-1.368-7.776-0.648-10.224,2.088c-1.368,1.656-3.384,5.256-5.04,9.792l-3.816-1.44l16.056-43.56l3.168,1.224
					c-1.008,4.68-0.936,8.424,0.072,11.664c1.296,4.104,5.328,10.224,13.104,15.696l79.92,57.888L298.56,231.875
					c-9.288-20.88-12.744-23.184-24.408-24.336v-3.528h61.56v4.68c-5.832,0-10.44,0-11.592,0c-3.528,2.304-5.832,4.608-5.832,8.136
					c0,3.456,2.304,9.288,9.288,24.336l30.168,68.328l29.232-88.56c8.424-21.6,7.991-25.992,0.863-34.272l2.448-2.376l21.815,17.568
					l17.641,2.16v3.528c-4.608,1.152-8.137,2.304-11.592,4.608c-4.68,3.096-4.68,8.28-8.28,12.024
					c-2.664,5.976-4.896,12.312-7.272,18.432c-0.576,1.512-1.224,3.24-1.943,5.04l-5.4,13.752l-26.136,66.816l84.168-36.576
					c7.272-3.312,11.592-5.688,14.04-8.064c2.951-2.88,3.96-6.696,2.52-10.08c-0.936-1.944-3.312-5.4-6.623-8.784l2.951-2.88
					l32.4,33.192l-2.448,2.376c-3.815-2.952-7.128-4.464-10.512-4.968c-4.32-0.576-11.593,0.432-19.872,5.112L362.496,354.13
					l122.977,30.96c22.104,5.832,25.56,4.608,33.695-3.456l2.305,2.305l-38.305,47.592l-3.456-2.304
					c3.456-4.681,6.912-8.137,6.912-9.288c1.151-4.681,0-6.984-2.304-9.288c-2.305-2.376-8.137-4.681-24.408-8.136l-71.928-18.576
					l49.896,77.76c11.593,19.728,16.272,22.104,26.712,22.104v3.456l-26.712,5.832l-12.744,12.744l-2.376-2.304
					c1.225-4.68,2.376-8.136,3.528-12.816c0-4.607-3.528-8.136-4.681-13.896c-3.455-5.832-6.912-10.44-10.439-16.272
					c0-2.304-1.152-3.456-2.304-4.607l-6.984-12.816l-36-62.712l-24.336,88.272c-1.224,8.136-2.376,12.743-2.376,16.271
					c0,4.608,3.528,8.136,6.984,8.136c1.152,1.152,5.833,1.152,10.44,1.152v3.456l-45.288,4.68l-1.152-3.527
					c4.68-1.152,8.136-2.305,10.44-4.608c3.528-3.528,6.984-9.288,9.288-18.576l18.144-106.775l-72.575,84.456
					c-14.904,17.352-15.48,21.527-11.592,32.472L260.76,487.331z"/>
			</g>
			<g>
				<g>
					<path style="fill:#CAA7D1;" d="M661.512,193.355l-2.88,1.728c-9.144-12.816-10.8-14.256-26.063-5.184l-45.289,26.712
						c-4.104,2.376-7.055,4.104-8.424,5.76c-1.655,2.592-2.375,5.328-0.287,8.856c0.647,1.224,0.647,1.224,6.264,6.624l-2.952,1.728
						l-3.601-3.384c-10.151-9.144-17.567-15.048-22.104-18.648c-1.656-1.44-2.951-2.304-2.951-2.304
						c0.287-0.936,0.863-1.224,0.863-1.224l68.76-40.608c14.688-8.64,15.408-11.448,8.353-24.768l2.952-1.728L661.512,193.355z
						 M513.695,245.123v-1.44c0.217-3.744,2.377-7.272,5.688-9.216c5.328-3.168,12.456-1.8,15.912,4.104
						c3.097,5.256,1.224,12.744-4.104,15.84c-5.256,3.168-12.743,1.224-15.84-4.104
						C514.344,248.651,513.768,246.851,513.695,245.123z"/>
					<path style="fill:none;stroke:#B696BC;stroke-width:7.992;" d="M661.512,193.355l-2.88,1.728
						c-9.144-12.816-10.8-14.256-26.063-5.184l-45.289,26.712c-4.104,2.376-7.055,4.104-8.424,5.76
						c-1.655,2.592-2.375,5.328-0.287,8.856c0.647,1.224,0.647,1.224,6.264,6.624l-2.952,1.728l-3.601-3.384
						c-10.151-9.144-17.567-15.048-22.104-18.648c-1.656-1.44-2.951-2.304-2.951-2.304c0.287-0.936,0.863-1.224,0.863-1.224
						l68.76-40.608c14.688-8.64,15.408-11.448,8.353-24.768l2.952-1.728L661.512,193.355z M531.191,254.411
						c-5.256,3.168-12.743,1.224-15.84-4.104c-3.527-5.832-1.224-12.744,4.032-15.84c5.328-3.168,12.456-1.8,15.912,4.104
						C538.393,243.827,536.52,251.315,531.191,254.411z"/>
				</g>
				<g>
					<path style="fill:#CAA7D1;" d="M292.368,667.763l0.576-3.312c15.696,1.152,17.784,0.792,20.664-16.704l8.424-51.84
						c0.792-4.752,1.296-8.136,1.008-10.224c-0.936-2.952-2.664-5.257-6.696-5.904c-1.296-0.288-1.296-0.288-9.072,0.576
						l0.576-3.384l4.896-0.576c13.464-1.944,22.752-3.889,28.512-5.04c2.088-0.36,3.528-0.792,3.528-0.792
						c0.576,0.792,0.504,1.439,0.504,1.439l-12.816,78.769c-2.736,16.848-1.08,19.224,13.68,22.319l-0.576,3.312L292.368,667.763z
						 M328.8,528.515c1.008-6.049,7.272-10.513,13.32-9.576c6.769,1.08,10.584,7.271,9.575,13.319
						c-0.936,6.049-6.551,10.656-13.247,9.576C332.328,540.899,327.864,534.634,328.8,528.515z"/>
					<path style="fill:none;stroke:#B696BC;stroke-width:7.992;" d="M292.368,667.763l0.576-3.312
						c15.696,1.152,17.784,0.792,20.664-16.704l8.424-51.84c0.792-4.752,1.296-8.136,1.008-10.224
						c-0.936-2.952-2.664-5.257-6.696-5.904c-1.296-0.288-1.296-0.288-9.072,0.576l0.576-3.384l4.896-0.576
						c13.464-1.944,22.752-3.889,28.512-5.04c2.088-0.36,3.528-0.792,3.528-0.792c0.576,0.792,0.504,1.439,0.504,1.439
						l-12.816,78.769c-2.736,16.848-1.08,19.224,13.68,22.319l-0.576,3.312L292.368,667.763z M328.8,528.515
						c1.008-6.049,7.272-10.513,13.32-9.576c6.769,1.08,10.584,7.271,9.575,13.319c-0.936,6.049-6.551,10.656-13.247,9.576
						C332.328,540.899,327.864,534.634,328.8,528.515z"/>
				</g>
				<g>
					<path style="fill:#CAA7D1;" d="M515.208,657.539l-1.584-3.023c13.248-8.496,14.688-10.08,6.479-25.776l-24.479-46.512
						c-2.16-4.177-3.815-7.2-5.328-8.712c-2.521-1.801-5.256-2.664-8.856-0.721c-1.224,0.576-1.224,0.576-6.912,5.904l-1.584-3.024
						l3.601-3.384c9.576-9.72,15.84-16.848,19.728-21.168c1.44-1.584,2.377-2.808,2.377-2.808c0.936,0.288,1.224,0.864,1.224,0.864
						l37.151,70.703c7.92,15.049,10.656,15.912,24.265,9.576l1.584,3.024L515.208,657.539z M459.408,519.875v-1.296
						c0.216-4.032,2.447-7.992,6.048-9.864c6.048-3.168,12.815-0.575,15.696,4.824c2.808,5.472,1.152,12.528-4.896,15.696
						c-5.4,2.88-12.816,0.576-15.624-4.896C459.84,522.971,459.48,521.386,459.408,519.875z"/>
					<path style="fill:none;stroke:#B696BC;stroke-width:7.992;" d="M515.208,657.539l-1.584-3.023
						c13.248-8.496,14.688-10.08,6.479-25.776l-24.479-46.512c-2.16-4.177-3.815-7.2-5.328-8.712
						c-2.521-1.801-5.256-2.664-8.856-0.721c-1.224,0.576-1.224,0.576-6.912,5.904l-1.584-3.024l3.601-3.384
						c9.576-9.72,15.84-16.848,19.728-21.168c1.44-1.584,2.377-2.808,2.377-2.808c0.936,0.288,1.224,0.864,1.224,0.864
						l37.151,70.703c7.92,15.049,10.656,15.912,24.265,9.576l1.584,3.024L515.208,657.539z M460.632,524.338
						c-2.88-5.399-0.575-12.815,4.824-15.624c6.048-3.168,12.815-0.575,15.696,4.824c2.808,5.472,1.152,12.528-4.896,15.696
						C470.855,532.115,463.439,529.811,460.632,524.338z"/>
				</g>
				<g>
					<path style="fill:#CAA7D1;" d="M117.48,127.834l2.664,2.088c-8.712,13.176-9.432,15.192,4.464,26.208l41.184,32.616
						c3.744,3.024,6.408,5.112,8.424,5.832c3.024,0.648,5.904,0.288,8.424-2.88c0.864-1.08,0.864-1.08,3.888-8.28l2.664,2.16
						l-1.872,4.608c-4.824,12.672-7.704,21.744-9.504,27.288c-0.72,2.016-1.008,3.528-1.008,3.528
						c-1.008,0.145-1.512-0.288-1.512-0.288l-62.568-49.608c-13.32-10.584-16.2-10.296-26.064,1.08L84,170.027L117.48,127.834z
						 M225.48,236.051v1.368c-0.072,2.304-0.864,4.536-2.304,6.408c-4.248,5.328-11.52,5.688-16.344,1.872
						s-6.12-10.944-1.872-16.272c3.816-4.824,11.52-5.688,16.272-1.872C223.896,229.571,225.336,232.811,225.48,236.051z"/>
					<path style="fill:none;stroke:#B696BC;stroke-width:7.992;" d="M117.48,127.834l2.664,2.088
						c-8.712,13.176-9.432,15.192,4.464,26.208l41.184,32.616c3.744,3.024,6.408,5.112,8.424,5.832
						c3.024,0.648,5.904,0.288,8.424-2.88c0.864-1.08,0.864-1.08,3.888-8.28l2.664,2.16l-1.872,4.608
						c-4.824,12.672-7.704,21.744-9.504,27.288c-0.72,2.016-1.008,3.528-1.008,3.528c-1.008,0.145-1.512-0.288-1.512-0.288
						l-62.568-49.608c-13.32-10.584-16.2-10.296-26.064,1.08L84,170.027L117.48,127.834z M221.232,227.555
						c4.824,3.816,5.76,11.448,1.944,16.272c-4.248,5.328-11.52,5.688-16.344,1.872s-6.12-10.944-1.872-16.272
						C208.776,224.603,216.48,223.739,221.232,227.555z"/>
				</g>
				<g>
					<path style="fill:#CAA7D1;" d="M89.688,527.506l2.952-1.728c9.216,12.744,10.8,14.184,26.064,5.04l45.072-27
						c4.104-2.448,7.056-4.176,8.424-5.832c1.656-2.521,2.376-5.328,0.288-8.856c-0.72-1.151-0.72-1.151-6.336-6.552l2.952-1.8
						l3.6,3.456c10.152,9,17.64,14.832,22.176,18.504c1.656,1.368,2.952,2.232,2.952,2.232c-0.216,0.936-0.792,1.296-0.792,1.296
						l-68.544,40.968c-14.616,8.712-15.336,11.52-8.208,24.768l-2.952,1.8L89.688,527.506z M237.216,475.019v1.296
						c-0.216,3.744-2.304,7.271-5.688,9.288c-5.256,3.096-12.384,1.8-15.912-4.032c-3.096-5.256-1.224-12.744,4.032-15.912
						s12.744-1.296,15.912,4.032C236.568,471.418,237.144,473.218,237.216,475.019z"/>
					<path style="fill:none;stroke:#B696BC;stroke-width:7.992;" d="M89.688,527.506l2.952-1.728
						c9.216,12.744,10.8,14.184,26.064,5.04l45.072-27c4.104-2.448,7.056-4.176,8.424-5.832c1.656-2.521,2.376-5.328,0.288-8.856
						c-0.72-1.151-0.72-1.151-6.336-6.552l2.952-1.8l3.6,3.456c10.152,9,17.64,14.832,22.176,18.504
						c1.656,1.368,2.952,2.232,2.952,2.232c-0.216,0.936-0.792,1.296-0.792,1.296l-68.544,40.968
						c-14.616,8.712-15.336,11.52-8.208,24.768l-2.952,1.8L89.688,527.506z M219.648,465.659c5.256-3.168,12.744-1.296,15.912,4.032
						c3.528,5.832,1.296,12.744-4.032,15.912c-5.256,3.096-12.384,1.8-15.912-4.032C212.52,476.315,214.392,468.827,219.648,465.659
						z"/>
				</g>
				<g>
					<path style="fill:#CAA7D1;" d="M22.224,333.611l3.384-0.144c1.944,15.625,2.736,17.64,20.448,16.992l52.488-2.088
						c4.824-0.145,8.208-0.288,10.224-1.008c2.664-1.512,4.608-3.6,4.464-7.704c0-1.368,0-1.368-2.376-8.784l3.384-0.144l1.584,4.68
						c4.608,12.815,8.352,21.456,10.584,26.856c0.792,2.016,1.512,3.384,1.512,3.384c-0.648,0.72-1.368,0.72-1.368,0.72
						l-79.776,3.096c-16.992,0.648-19.008,2.736-19.08,17.784l-3.384,0.145L22.224,333.611z M165.936,341.675
						c6.12-0.216,11.808,5.04,12.024,11.16c0,0.216,0,0.433,0,0.648c-0.072,6.408-5.184,11.088-11.16,11.304
						c-6.12,0.288-11.736-4.32-12.024-11.016C154.56,347.579,159.744,341.963,165.936,341.675z"/>
					<path style="fill:none;stroke:#B696BC;stroke-width:7.992;" d="M22.224,333.611l3.384-0.144
						c1.944,15.625,2.736,17.64,20.448,16.992l52.488-2.088c4.824-0.145,8.208-0.288,10.224-1.008
						c2.664-1.512,4.608-3.6,4.464-7.704c0-1.368,0-1.368-2.376-8.784l3.384-0.144l1.584,4.68
						c4.608,12.815,8.352,21.456,10.584,26.856c0.792,2.016,1.512,3.384,1.512,3.384c-0.648,0.72-1.368,0.72-1.368,0.72
						l-79.776,3.096c-16.992,0.648-19.008,2.736-19.08,17.784l-3.384,0.145L22.224,333.611z M165.936,341.675
						c6.12-0.216,11.808,5.04,12.024,11.16c0.216,6.769-5.04,11.736-11.16,11.952c-6.12,0.288-11.736-4.32-12.024-11.016
						C154.56,347.579,159.744,341.963,165.936,341.675z"/>
				</g>
				<g>
					<path style="fill:#CAA7D1;" d="M306.48,8.747l0.792,3.312c-14.976,4.896-16.848,6.048-12.816,23.328l11.808,51.12
						c1.08,4.68,1.872,7.992,3.024,9.864c1.944,2.304,4.392,3.888,8.352,2.952c1.368-0.288,1.368-0.288,8.208-4.032l0.792,3.312
						l-4.392,2.448c-11.664,6.912-19.584,12.24-24.408,15.48c-1.872,1.08-3.024,2.088-3.024,2.088
						c-0.792-0.504-0.936-1.152-0.936-1.152l-18.072-77.76c-3.816-16.632-6.336-18.216-21.096-15.48l-0.72-3.312L306.48,8.747z
						 M325.56,151.451c1.368,5.976-2.736,12.528-8.712,13.896c-6.624,1.512-12.528-2.736-13.896-8.712
						c-1.368-5.976,2.016-12.384,8.64-13.896C317.64,141.371,324.12,145.403,325.56,151.451z"/>
					<path style="fill:none;stroke:#B696BC;stroke-width:7.992;" d="M306.48,8.747l0.792,3.312
						c-14.976,4.896-16.848,6.048-12.816,23.328l11.808,51.12c1.08,4.68,1.872,7.992,3.024,9.864
						c1.944,2.304,4.392,3.888,8.352,2.952c1.368-0.288,1.368-0.288,8.208-4.032l0.792,3.312l-4.392,2.448
						c-11.664,6.912-19.584,12.24-24.408,15.48c-1.872,1.08-3.024,2.088-3.024,2.088c-0.792-0.504-0.936-1.152-0.936-1.152
						l-18.072-77.76c-3.816-16.632-6.336-18.216-21.096-15.48l-0.72-3.312L306.48,8.747z M325.56,151.451
						c1.368,5.976-2.736,12.528-8.712,13.896c-6.624,1.512-12.528-2.736-13.896-8.712c-1.368-5.976,2.016-12.384,8.64-13.896
						C317.64,141.371,324.12,145.403,325.56,151.451z"/>
				</g>
				<g>
					<path style="fill:#CAA7D1;" d="M660.145,509.506l-2.953-1.655c6.192-14.473,6.553-16.561-9.144-24.984l-46.296-24.768
						c-4.176-2.232-7.2-3.816-9.359-4.248c-3.024-0.072-5.832,0.792-7.705,4.392c-0.647,1.224-0.647,1.224-2.375,8.784l-3.024-1.584
						l1.008-4.896c2.521-13.319,3.672-22.752,4.464-28.512c0.36-2.16,0.432-3.672,0.432-3.672c0.937-0.288,1.513,0,1.513,0
						l70.416,37.656c15.048,8.063,17.784,7.199,25.487-5.688l2.953,1.584L660.145,509.506z M534.288,420.155v-1.512
						c0.071-1.584,0.433-3.097,1.224-4.464c3.24-6.049,10.297-7.704,15.696-4.753c5.399,2.881,7.992,9.648,4.752,15.696
						c-2.88,5.4-10.296,7.632-15.696,4.752C536.664,427.931,534.504,424.115,534.288,420.155z"/>
					<path style="fill:none;stroke:#B696BC;stroke-width:7.992;" d="M660.145,509.506l-2.953-1.655
						c6.192-14.473,6.553-16.561-9.144-24.984l-46.296-24.768c-4.176-2.232-7.2-3.816-9.359-4.248
						c-3.024-0.072-5.832,0.792-7.705,4.392c-0.647,1.224-0.647,1.224-2.375,8.784l-3.024-1.584l1.008-4.896
						c2.521-13.319,3.672-22.752,4.464-28.512c0.36-2.16,0.432-3.672,0.432-3.672c0.937-0.288,1.513,0,1.513,0l70.416,37.656
						c15.048,8.063,17.784,7.199,25.487-5.688l2.953,1.584L660.145,509.506z M540.264,429.875c-5.4-2.88-7.632-10.296-4.752-15.695
						c3.24-6.049,10.297-7.704,15.696-4.753c5.399,2.881,7.992,9.648,4.752,15.696C553.08,430.523,545.664,432.754,540.264,429.875z
						"/>
				</g>
				<g>
					<path style="fill:#CAA7D1;" d="M528.384,29.267l-1.512,3.096c-14.688-5.76-16.776-6.048-24.696,9.864L478.92,89.315
						c-2.16,4.248-3.672,7.344-3.96,9.432c0,3.096,0.937,5.832,4.608,7.632c1.224,0.648,1.224,0.648,8.855,2.088l-1.512,3.096
						l-4.896-0.937c-13.392-2.088-22.896-2.952-28.656-3.528c-2.159-0.288-3.672-0.288-3.672-0.288c-0.359-0.936,0-1.512,0-1.512
						l35.353-71.568c7.56-15.264,6.696-18-6.479-25.272l1.512-3.096L528.384,29.267z M430.607,147.347v-1.512
						c0.072-1.512,0.504-3.024,1.225-4.464c2.664-5.472,9.432-8.28,15.48-5.256c5.543,2.736,7.992,10.008,5.256,15.552
						c-2.664,5.472-10.008,7.992-15.48,5.256C433.057,154.907,430.824,151.235,430.607,147.347z"/>
					<path style="fill:none;stroke:#B696BC;stroke-width:7.992;" d="M528.384,29.267l-1.512,3.096
						c-14.688-5.76-16.776-6.048-24.696,9.864L478.92,89.315c-2.16,4.248-3.672,7.344-3.96,9.432c0,3.096,0.937,5.832,4.608,7.632
						c1.224,0.648,1.224,0.648,8.855,2.088l-1.512,3.096l-4.896-0.937c-13.392-2.088-22.896-2.952-28.656-3.528
						c-2.159-0.288-3.672-0.288-3.672-0.288c-0.359-0.936,0-1.512,0-1.512l35.353-71.568c7.56-15.264,6.696-18-6.479-25.272
						l1.512-3.096L528.384,29.267z M452.568,151.667c-2.664,5.472-10.008,7.992-15.48,5.256c-6.12-3.024-7.992-10.08-5.256-15.552
						c2.664-5.472,9.432-8.28,15.48-5.256C452.855,138.851,455.305,146.123,452.568,151.667z"/>
				</g>
				<path style="fill:#CAA7D1;stroke:#B696BC;stroke-width:7.992;" d="M271.56,476.531l-26.424-55.584l4.248-2.016
					c2.448,5.256,4.464,9.432,4.968,10.512c3.6,2.16,6.696,3.24,9.792,1.728c3.168-1.439,7.416-6.048,18.072-18.792l48.816-56.52
					l-92.592,11.52c-23.112,1.656-26.856,3.889-31.32,13.896l-3.168-1.225l6.48-27.144l-5.544-16.848l3.096-1.512
					c3.096,3.672,5.616,6.336,9.216,8.496c4.824,2.88,9.432,0.648,14.4,2.304c6.552-0.144,13.176-0.864,19.8-1.296
					c1.584-0.144,3.384-0.288,5.328-0.432l14.76-1.008l71.568-5.04l-69.12-60.336c-6.12-5.112-10.152-8.064-13.32-9.288
					c-3.816-1.368-7.776-0.648-10.224,2.088c-1.368,1.656-3.384,5.256-5.04,9.792l-3.816-1.44l16.056-43.56l3.168,1.224
					c-1.008,4.68-0.936,8.424,0.072,11.664c1.296,4.104,5.328,10.224,13.104,15.696l79.919,57.888L309.36,221.075
					c-9.288-20.88-12.744-23.184-24.408-24.336v-3.528h61.56v4.68c-5.832,0-10.44,0-11.592,0c-3.528,2.304-5.832,4.608-5.832,8.136
					c0,3.456,2.304,9.288,9.288,24.336l30.168,68.328l29.231-88.56c8.425-21.6,7.992-25.992,0.865-34.272l2.447-2.376l21.816,17.568
					l17.64,2.16v3.528c-4.608,1.152-8.136,2.304-11.592,4.608c-4.681,3.096-4.681,8.28-8.28,12.024
					c-2.664,5.976-4.896,12.312-7.271,18.432c-0.576,1.512-1.225,3.24-1.944,5.04l-5.399,13.752l-26.137,66.816l84.168-36.576
					c7.271-3.312,11.592-5.688,14.04-8.064c2.952-2.88,3.96-6.696,2.521-10.08c-0.937-1.944-3.312-5.4-6.625-8.784l2.953-2.88
					l32.399,33.192l-2.448,2.376c-3.816-2.952-7.128-4.464-10.512-4.968c-4.32-0.576-11.592,0.432-19.872,5.112l-103.248,56.592
					l122.976,30.96c22.104,5.832,25.561,4.608,33.696-3.456l2.304,2.305l-38.304,47.592l-3.456-2.305
					c3.456-4.68,6.912-8.136,6.912-9.287c1.152-4.681,0-6.984-2.304-9.288c-2.304-2.376-8.136-4.681-24.408-8.137l-71.928-18.575
					l49.896,77.76c11.592,19.728,16.272,22.104,26.713,22.104v3.456l-26.713,5.832l-12.744,12.744l-2.375-2.304
					c1.224-4.681,2.375-8.136,3.527-12.816c0-4.607-3.527-8.136-4.68-13.896c-3.456-5.832-6.912-10.44-10.44-16.272
					c0-2.304-1.151-3.456-2.304-4.607l-6.984-12.816l-36-62.712l-24.336,88.271c-1.224,8.137-2.376,12.744-2.376,16.272
					c0,4.608,3.528,8.136,6.984,8.136c1.151,1.152,5.832,1.152,10.44,1.152v3.456l-45.289,4.68l-1.152-3.528
					c4.68-1.151,8.136-2.304,10.44-4.607c3.528-3.528,6.984-9.288,9.288-18.576l18.144-106.776l-72.576,84.456
					c-14.904,17.353-15.48,21.528-11.592,32.473L271.56,476.531z"/>
			</g>
		</g>
	</g>
</svg>
