<?xml version="1.0" encoding="UTF-8" standalone="no"?>
<!-- Generator: Adobe Illustrator 10, SVG Export Plug-In . SVG Version: 3.0.0 Build 76)  -->
<svg
   xmlns:dc="http://purl.org/dc/elements/1.1/"
   xmlns:cc="http://creativecommons.org/ns#"
   xmlns:rdf="http://www.w3.org/1999/02/22-rdf-syntax-ns#"
   xmlns:svg="http://www.w3.org/2000/svg"
   xmlns="http://www.w3.org/2000/svg"
   xmlns:sodipodi="http://sodipodi.sourceforge.net/DTD/sodipodi-0.dtd"
   xmlns:inkscape="http://www.inkscape.org/namespaces/inkscape"
   width="682.13"
   height="689.83301"
   viewBox="0 0 690.964 769.217"
   style="overflow:visible"
   xml:space="preserve"
   id="svg2897"
   sodipodi:version="0.32"
   inkscape:version="0.46"
   sodipodi:docname="vi.svg"
   inkscape:output_extension="org.inkscape.output.svg.inkscape"
   version="1.0"><metadata
   id="metadata3039"><rdf:RDF><cc:Work
       rdf:about=""><dc:format>image/svg+xml</dc:format><dc:type
         rdf:resource="http://purl.org/dc/dcmitype/StillImage" /></cc:Work></rdf:RDF></metadata><defs
   id="defs3037"><inkscape:perspective
   sodipodi:type="inkscape:persp3d"
   inkscape:vp_x="0 : 384.60849 : 1"
   inkscape:vp_y="0 : 1000 : 0"
   inkscape:vp_z="690.96399 : 384.60849 : 1"
   inkscape:persp3d-origin="345.48199 : 256.40566 : 1"
   id="perspective3041" />
		
		
	</defs><sodipodi:namedview
   inkscape:window-height="670"
   inkscape:window-width="640"
   inkscape:pageshadow="2"
   inkscape:pageopacity="0.0"
   guidetolerance="10.0"
   gridtolerance="10.0"
   objecttolerance="10.0"
   borderopacity="1.0"
   bordercolor="#666666"
   pagecolor="#ffffff"
   id="base"
   showgrid="false"
   inkscape:zoom="0.60061077"
   inkscape:cx="345.48199"
   inkscape:cy="384.60849"
   inkscape:window-x="138"
   inkscape:window-y="15"
   inkscape:current-layer="svg2897" />
	<style
   type="text/css"
   id="style2899">
	
		@font-face{font-family:'Times-Roman';src:url(CDCBCC59.cef)}
	
	</style>
	
<g
   transform="matrix(1.1150771,0,0,1.1150771,-43.114572,-1.5231765)"
   style="overflow:visible"
   id="g2918">
			<g
   id="g2920">
				<g
   id="g2922">
					<path
   id="path2924"
   d="M 650.712,204.155 L 647.832,205.883 C 638.687,193.067 637.032,191.627 621.768,200.699 L 576.481,227.411 C 572.377,229.787 569.424,231.515 568.057,233.171 C 566.401,235.763 565.68,238.499 567.768,242.027 C 568.416,243.251 568.416,243.251 574.033,248.651 L 571.081,250.379 L 567.481,246.995 C 557.329,237.851 549.913,231.947 545.377,228.347 C 543.722,226.907 542.425,226.043 542.425,226.043 C 542.713,225.107 543.289,224.819 543.289,224.819 L 612.049,184.211 C 626.737,175.571 627.457,172.763 620.402,159.443 L 623.353,157.715 L 650.712,204.155 z M 502.896,255.923 L 502.896,254.483 C 503.111,250.739 505.271,247.211 508.584,245.267 C 513.912,242.099 521.04,243.467 524.496,249.371 C 527.592,254.627 525.721,262.115 520.392,265.211 C 515.136,268.379 507.648,266.435 504.551,261.107 C 503.544,259.451 502.968,257.651 502.896,255.923 z"
   style="fill:#7e0000" />
					<path
   id="path2926"
   d="M 650.712,204.155 L 647.832,205.883 C 638.687,193.067 637.032,191.627 621.768,200.699 L 576.481,227.411 C 572.377,229.787 569.424,231.515 568.057,233.171 C 566.401,235.763 565.68,238.499 567.768,242.027 C 568.416,243.251 568.416,243.251 574.033,248.651 L 571.081,250.379 L 567.481,246.995 C 557.329,237.851 549.913,231.947 545.377,228.347 C 543.722,226.907 542.425,226.043 542.425,226.043 C 542.713,225.107 543.289,224.819 543.289,224.819 L 612.049,184.211 C 626.737,175.571 627.457,172.763 620.402,159.443 L 623.353,157.715 L 650.712,204.155 z M 520.393,265.211 C 515.137,268.379 507.649,266.435 504.552,261.107 C 501.024,255.275 503.328,248.363 508.584,245.267 C 513.912,242.099 521.04,243.467 524.496,249.371 C 527.592,254.626 525.721,262.115 520.393,265.211 z"
   style="fill:none;stroke:#7e0000;stroke-width:7.9920001" />
				</g>
				<g
   id="g2928">
					<path
   id="path2930"
   d="M 281.568,678.563 L 282.144,675.251 C 297.84,676.403 299.928,676.043 302.808,658.547 L 311.232,606.707 C 312.024,601.955 312.528,598.571 312.24,596.483 C 311.304,593.531 309.576,591.227 305.544,590.579 C 304.248,590.291 304.248,590.291 296.472,591.155 L 297.048,587.771 L 301.944,587.195 C 315.408,585.251 324.696,583.307 330.456,582.155 C 332.544,581.795 333.984,581.363 333.984,581.363 C 334.56,582.155 334.488,582.802 334.488,582.802 L 321.672,661.571 C 318.936,678.419 320.592,680.795 335.352,683.891 L 334.776,687.203 L 281.568,678.563 z M 318,539.315 C 319.008,533.267 325.272,528.802 331.32,529.739 C 338.088,530.819 341.904,537.01 340.896,543.059 C 339.96,549.107 334.344,553.714 327.648,552.634 C 321.528,551.699 317.064,545.435 318,539.315 z"
   style="fill:#7e0000" />
					<path
   id="path2932"
   d="M 281.568,678.563 L 282.144,675.251 C 297.84,676.403 299.928,676.043 302.808,658.547 L 311.232,606.707 C 312.024,601.955 312.528,598.571 312.24,596.483 C 311.304,593.531 309.576,591.227 305.544,590.579 C 304.248,590.291 304.248,590.291 296.472,591.155 L 297.048,587.771 L 301.944,587.195 C 315.408,585.251 324.696,583.307 330.456,582.155 C 332.544,581.795 333.984,581.363 333.984,581.363 C 334.56,582.155 334.488,582.802 334.488,582.802 L 321.672,661.571 C 318.936,678.419 320.592,680.795 335.352,683.891 L 334.776,687.203 L 281.568,678.563 z M 318,539.315 C 319.008,533.267 325.272,528.802 331.32,529.739 C 338.088,530.819 341.904,537.01 340.896,543.059 C 339.96,549.107 334.344,553.714 327.648,552.634 C 321.528,551.699 317.064,545.435 318,539.315 z"
   style="fill:none;stroke:#7e0000;stroke-width:7.9920001" />
				</g>
				<g
   id="g2934">
					<path
   id="path2936"
   d="M 504.408,668.338 L 502.824,665.315 C 516.072,656.819 517.512,655.235 509.304,639.539 L 484.824,593.027 C 482.664,588.851 481.008,585.827 479.496,584.315 C 476.976,582.515 474.24,581.651 470.641,583.594 C 469.416,584.17 469.416,584.17 463.729,589.498 L 462.145,586.475 L 465.745,583.09 C 475.321,573.37 481.585,566.242 485.474,561.922 C 486.913,560.338 487.849,559.114 487.849,559.114 C 488.786,559.402 489.074,559.978 489.074,559.978 L 526.226,630.682 C 534.146,645.73 536.881,646.593 550.49,640.257 L 552.074,643.281 L 504.408,668.338 z M 448.607,530.674 L 448.607,529.378 C 448.824,525.347 451.056,521.386 454.656,519.515 C 460.704,516.347 467.472,518.939 470.351,524.338 C 473.16,529.811 471.503,536.866 465.455,540.034 C 460.056,542.914 452.64,540.61 449.831,535.138 C 449.04,533.771 448.68,532.187 448.607,530.674 z"
   style="fill:#7e0000" />
					<path
   id="path2938"
   d="M 504.408,668.338 L 502.824,665.315 C 516.072,656.819 517.512,655.235 509.304,639.539 L 484.824,593.027 C 482.664,588.851 481.008,585.827 479.496,584.315 C 476.976,582.515 474.24,581.651 470.641,583.594 C 469.416,584.17 469.416,584.17 463.729,589.498 L 462.145,586.475 L 465.745,583.09 C 475.321,573.37 481.585,566.242 485.474,561.922 C 486.913,560.338 487.849,559.114 487.849,559.114 C 488.786,559.402 489.074,559.978 489.074,559.978 L 526.226,630.682 C 534.146,645.73 536.881,646.593 550.49,640.257 L 552.074,643.281 L 504.408,668.338 z M 449.832,535.139 C 446.952,529.739 449.256,522.323 454.656,519.515 C 460.704,516.347 467.472,518.939 470.351,524.338 C 473.16,529.811 471.503,536.866 465.455,540.034 C 460.057,542.915 452.641,540.611 449.832,535.139 z"
   style="fill:none;stroke:#7e0000;stroke-width:7.9920001" />
				</g>
				<g
   id="g2940">
					<path
   id="path2942"
   d="M 106.68,138.635 L 109.344,140.723 C 100.632,153.899 99.912,155.915 113.808,166.931 L 154.992,199.547 C 158.736,202.571 161.4,204.659 163.416,205.379 C 166.44,206.027 169.32,205.667 171.84,202.499 C 172.704,201.419 172.704,201.419 175.728,194.219 L 178.392,196.379 L 176.52,200.987 C 171.696,213.659 168.816,222.731 167.016,228.275 C 166.296,230.291 166.008,231.803 166.008,231.803 C 165,231.947 164.496,231.515 164.496,231.515 L 101.928,181.907 C 88.608,171.323 85.728,171.611 75.865,182.987 L 73.201,180.827 L 106.68,138.635 z M 214.68,246.851 L 214.68,248.219 C 214.608,250.523 213.816,252.755 212.376,254.627 C 208.128,259.955 200.856,260.315 196.032,256.499 C 191.208,252.683 189.912,245.555 194.16,240.227 C 197.976,235.403 205.68,234.539 210.432,238.355 C 213.096,240.371 214.536,243.611 214.68,246.851 z"
   style="fill:#7e0000" />
					<path
   id="path2944"
   d="M 106.68,138.635 L 109.344,140.723 C 100.632,153.899 99.912,155.915 113.808,166.931 L 154.992,199.547 C 158.736,202.571 161.4,204.659 163.416,205.379 C 166.44,206.027 169.32,205.667 171.84,202.499 C 172.704,201.419 172.704,201.419 175.728,194.219 L 178.392,196.379 L 176.52,200.987 C 171.696,213.659 168.816,222.731 167.016,228.275 C 166.296,230.291 166.008,231.803 166.008,231.803 C 165,231.947 164.496,231.515 164.496,231.515 L 101.928,181.907 C 88.608,171.323 85.728,171.611 75.865,182.987 L 73.201,180.827 L 106.68,138.635 z M 210.432,238.355 C 215.256,242.171 216.192,249.803 212.376,254.626 C 208.128,259.954 200.856,260.314 196.032,256.498 C 191.208,252.682 189.912,245.554 194.16,240.226 C 197.976,235.403 205.68,234.539 210.432,238.355 z"
   style="fill:none;stroke:#7e0000;stroke-width:7.9920001" />
				</g>
				<g
   id="g2946">
					<path
   id="path2948"
   d="M 78.888,538.307 L 81.84,536.578 C 91.056,549.322 92.64,550.763 107.904,541.618 L 152.976,514.618 C 157.08,512.17 160.032,510.442 161.4,508.786 C 163.056,506.266 163.776,503.458 161.688,499.931 C 160.968,498.779 160.968,498.779 155.352,493.378 L 158.304,491.578 L 161.904,495.034 C 172.056,504.034 179.544,509.866 184.08,513.538 C 185.736,514.906 187.032,515.77 187.032,515.77 C 186.816,516.706 186.24,517.066 186.24,517.066 L 117.696,558.034 C 103.08,566.746 102.36,569.555 109.488,582.802 L 106.536,584.603 L 78.888,538.307 z M 226.416,485.819 L 226.416,487.115 C 226.2,490.859 224.112,494.386 220.728,496.403 C 215.472,499.499 208.344,498.203 204.816,492.371 C 201.72,487.115 203.592,479.627 208.848,476.459 C 214.104,473.291 221.592,475.163 224.76,480.491 C 225.768,482.218 226.344,484.019 226.416,485.819 z"
   style="fill:#7e0000" />
					<path
   id="path2950"
   d="M 78.888,538.307 L 81.84,536.578 C 91.056,549.322 92.64,550.763 107.904,541.618 L 152.976,514.618 C 157.08,512.17 160.032,510.442 161.4,508.786 C 163.056,506.266 163.776,503.458 161.688,499.931 C 160.968,498.779 160.968,498.779 155.352,493.378 L 158.304,491.578 L 161.904,495.034 C 172.056,504.034 179.544,509.866 184.08,513.538 C 185.736,514.906 187.032,515.77 187.032,515.77 C 186.816,516.706 186.24,517.066 186.24,517.066 L 117.696,558.034 C 103.08,566.746 102.36,569.555 109.488,582.802 L 106.536,584.603 L 78.888,538.307 z M 208.848,476.458 C 214.104,473.29 221.592,475.162 224.76,480.49 C 228.288,486.322 226.056,493.234 220.728,496.402 C 215.472,499.498 208.344,498.202 204.816,492.37 C 201.72,487.115 203.592,479.626 208.848,476.458 z"
   style="fill:none;stroke:#7e0000;stroke-width:7.9920001" />
				</g>
				<g
   id="g2952">
					<path
   id="path2954"
   d="M 11.424,344.411 L 14.808,344.267 C 16.752,359.819 17.544,361.835 35.256,361.187 L 87.744,359.099 C 92.568,358.954 95.952,358.811 97.968,358.09 C 100.632,356.578 102.576,354.562 102.432,350.458 C 102.432,349.091 102.432,349.091 100.056,341.674 L 103.44,341.53 L 105.024,346.21 C 109.632,358.954 113.376,367.666 115.608,373.066 C 116.4,375.082 117.12,376.45 117.12,376.45 C 116.472,377.17 115.752,377.17 115.752,377.17 L 35.976,380.267 C 18.984,380.914 16.968,383.002 16.896,398.05 L 13.512,398.195 L 11.424,344.411 z M 155.136,352.474 C 161.256,352.259 166.944,357.443 167.16,363.563 C 167.16,363.779 167.16,363.995 167.16,364.21 C 167.088,370.69 161.976,375.37 156,375.586 C 149.88,375.874 144.264,371.267 143.976,364.498 C 143.76,358.307 148.944,352.763 155.136,352.474 z"
   style="fill:#7e0000" />
					<path
   id="path2956"
   d="M 11.424,344.411 L 14.808,344.267 C 16.752,359.819 17.544,361.835 35.256,361.187 L 87.744,359.099 C 92.568,358.954 95.952,358.811 97.968,358.09 C 100.632,356.578 102.576,354.562 102.432,350.458 C 102.432,349.091 102.432,349.091 100.056,341.674 L 103.44,341.53 L 105.024,346.21 C 109.632,358.954 113.376,367.666 115.608,373.066 C 116.4,375.082 117.12,376.45 117.12,376.45 C 116.472,377.17 115.752,377.17 115.752,377.17 L 35.976,380.267 C 18.984,380.914 16.968,383.002 16.896,398.05 L 13.512,398.195 L 11.424,344.411 z M 155.136,352.474 C 161.256,352.259 166.944,357.443 167.16,363.563 C 167.376,370.403 162.12,375.371 156,375.586 C 149.88,375.874 144.264,371.267 143.976,364.498 C 143.76,358.307 148.944,352.763 155.136,352.474 z"
   style="fill:none;stroke:#7e0000;stroke-width:7.9920001" />
				</g>
				<g
   id="g2958">
					<path
   id="path2960"
   d="M 295.68,19.547 L 296.472,22.859 C 281.496,27.755 279.624,28.907 283.656,46.187 L 295.464,97.307 C 296.544,101.987 297.336,105.299 298.488,107.171 C 300.432,109.475 302.88,111.059 306.84,110.123 C 308.208,109.835 308.208,109.835 315.048,106.091 L 315.84,109.403 L 311.448,111.851 C 299.784,118.763 291.864,124.091 287.04,127.331 C 285.168,128.411 284.016,129.419 284.016,129.419 C 283.224,128.915 283.08,128.267 283.08,128.267 L 265.008,50.507 C 261.192,33.875 258.672,32.291 243.912,35.027 L 243.192,31.715 L 295.68,19.547 z M 314.76,162.25 C 316.128,168.226 312.024,174.778 306.048,176.146 C 299.424,177.658 293.52,173.41 292.152,167.434 C 290.784,161.458 294.168,155.05 300.792,153.538 C 306.84,152.171 313.32,156.203 314.76,162.25 z"
   style="fill:#7e0000" />
					<path
   id="path2962"
   d="M 295.68,19.547 L 296.472,22.859 C 281.496,27.755 279.624,28.907 283.656,46.187 L 295.464,97.307 C 296.544,101.987 297.336,105.299 298.488,107.171 C 300.432,109.475 302.88,111.059 306.84,110.123 C 308.208,109.835 308.208,109.835 315.048,106.091 L 315.84,109.403 L 311.448,111.851 C 299.784,118.763 291.864,124.091 287.04,127.331 C 285.168,128.411 284.016,129.419 284.016,129.419 C 283.224,128.915 283.08,128.267 283.08,128.267 L 265.008,50.507 C 261.192,33.875 258.672,32.291 243.912,35.027 L 243.192,31.715 L 295.68,19.547 z M 314.76,162.25 C 316.128,168.226 312.024,174.778 306.048,176.146 C 299.424,177.658 293.52,173.41 292.152,167.434 C 290.784,161.458 294.168,155.05 300.792,153.538 C 306.84,152.171 313.32,156.203 314.76,162.25 z"
   style="fill:none;stroke:#7e0000;stroke-width:7.9920001" />
				</g>
				<g
   id="g2964">
					<path
   id="path2966"
   d="M 649.344,520.307 L 646.393,518.651 C 652.584,504.179 652.944,502.09 637.248,493.667 L 590.952,468.899 C 586.775,466.667 583.752,465.083 581.592,464.651 C 578.569,464.579 575.76,465.443 573.889,469.043 C 573.241,470.268 573.241,470.268 571.512,477.827 L 568.489,476.243 L 569.497,471.347 C 572.017,458.027 573.169,448.595 573.961,442.834 C 574.321,440.674 574.394,439.162 574.394,439.162 C 575.33,438.874 575.906,439.162 575.906,439.162 L 646.322,476.818 C 661.37,484.881 664.105,484.018 671.81,471.13 L 674.761,472.714 L 649.344,520.307 z M 523.488,430.955 L 523.488,429.443 C 523.56,427.859 523.92,426.347 524.712,424.979 C 527.952,418.931 535.008,417.275 540.408,420.227 C 545.808,423.107 548.4,429.874 545.16,435.922 C 542.279,441.322 534.863,443.555 529.464,440.674 C 525.863,438.731 523.704,434.915 523.488,430.955 z"
   style="fill:#7e0000" />
					<path
   id="path2968"
   d="M 649.344,520.307 L 646.393,518.651 C 652.584,504.179 652.944,502.09 637.248,493.667 L 590.952,468.899 C 586.775,466.667 583.752,465.083 581.592,464.651 C 578.569,464.579 575.76,465.443 573.889,469.043 C 573.241,470.268 573.241,470.268 571.512,477.827 L 568.489,476.243 L 569.497,471.347 C 572.017,458.027 573.169,448.595 573.961,442.834 C 574.321,440.674 574.394,439.162 574.394,439.162 C 575.33,438.874 575.906,439.162 575.906,439.162 L 646.322,476.818 C 661.37,484.881 664.105,484.018 671.81,471.13 L 674.761,472.714 L 649.344,520.307 z M 529.464,440.674 C 524.065,437.794 521.832,430.378 524.712,424.979 C 527.952,418.931 535.008,417.275 540.408,420.227 C 545.808,423.107 548.4,429.874 545.16,435.922 C 542.279,441.323 534.863,443.555 529.464,440.674 z"
   style="fill:none;stroke:#7e0000;stroke-width:7.9920001" />
				</g>
				<g
   id="g2970">
					<path
   id="path2972"
   d="M 517.584,40.067 L 516.072,43.163 C 501.384,37.403 499.296,37.115 491.376,53.027 L 468.12,100.115 C 465.96,104.363 464.448,107.459 464.16,109.547 C 464.16,112.643 465.096,115.379 468.767,117.179 C 469.992,117.827 469.992,117.827 477.623,119.267 L 476.11,122.363 L 471.214,121.427 C 457.822,119.339 448.318,118.475 442.559,117.899 C 440.399,117.611 438.887,117.611 438.887,117.611 C 438.526,116.675 438.887,116.099 438.887,116.099 L 474.239,44.531 C 481.799,29.267 480.934,26.531 467.759,19.259 L 469.271,16.163 L 517.584,40.067 z M 419.809,158.147 L 419.809,156.635 C 419.88,155.123 420.313,153.611 421.033,152.171 C 423.696,146.699 430.465,143.891 436.512,146.915 C 442.057,149.651 444.504,156.923 441.768,162.467 C 439.104,167.939 431.76,170.459 426.289,167.723 C 422.256,165.707 420.023,162.035 419.809,158.147 z"
   style="fill:#7e0000" />
					<path
   id="path2974"
   d="M 517.584,40.067 L 516.072,43.163 C 501.384,37.403 499.296,37.115 491.376,53.027 L 468.12,100.115 C 465.96,104.363 464.448,107.459 464.16,109.547 C 464.16,112.643 465.096,115.379 468.767,117.179 C 469.992,117.827 469.992,117.827 477.623,119.267 L 476.11,122.363 L 471.214,121.427 C 457.822,119.339 448.318,118.475 442.559,117.899 C 440.399,117.611 438.887,117.611 438.887,117.611 C 438.526,116.675 438.887,116.099 438.887,116.099 L 474.239,44.531 C 481.799,29.267 480.934,26.531 467.759,19.259 L 469.271,16.163 L 517.584,40.067 z M 441.768,162.467 C 439.104,167.939 431.76,170.459 426.289,167.723 C 420.169,164.699 418.297,157.643 421.033,152.171 C 423.696,146.699 430.465,143.891 436.512,146.915 C 442.057,149.651 444.504,156.923 441.768,162.467 z"
   style="fill:none;stroke:#7e0000;stroke-width:7.9920001" />
				</g>
				<path
   id="path2976"
   d="M 260.76,487.331 L 234.336,431.747 L 238.584,429.731 C 241.032,434.987 243.048,439.163 243.552,440.243 C 247.152,442.403 250.248,443.483 253.344,441.971 C 256.512,440.532 260.76,435.923 271.416,423.18 L 320.232,366.659 L 227.64,378.18 C 204.528,379.835 200.784,382.068 196.32,392.076 L 193.152,390.852 L 199.632,363.635 L 194.088,346.86 L 197.184,345.348 C 200.28,349.02 202.8,351.684 206.4,353.845 C 211.224,356.653 215.832,354.492 220.8,356.076 C 227.352,355.932 233.976,355.284 240.6,354.852 C 242.184,354.707 243.984,354.563 245.928,354.419 L 260.688,353.411 L 332.256,348.371 L 263.136,288.035 C 257.016,282.923 252.984,279.971 249.816,278.747 C 246,277.379 242.04,278.099 239.592,280.835 C 238.224,282.491 236.208,286.091 234.552,290.627 L 230.736,289.187 L 246.792,245.627 L 249.96,246.851 C 248.952,251.531 249.024,255.275 250.032,258.515 C 251.328,262.619 255.36,268.739 263.136,274.211 L 343.056,332.099 L 298.56,231.875 C 289.272,210.995 285.816,208.691 274.152,207.539 L 274.152,204.011 L 335.712,204.011 L 335.712,208.691 C 329.88,208.691 325.272,208.691 324.12,208.691 C 320.592,210.995 318.288,213.299 318.288,216.827 C 318.288,220.283 320.592,226.115 327.576,241.163 L 357.744,309.491 L 386.976,220.931 C 395.4,199.331 394.967,194.939 387.839,186.659 L 390.287,184.283 L 412.102,201.851 L 429.743,204.011 L 429.743,207.539 C 425.135,208.691 421.606,209.843 418.151,212.147 C 413.471,215.243 413.471,220.427 409.871,224.171 C 407.207,230.147 404.975,236.483 402.599,242.603 C 402.023,244.115 401.375,245.843 400.656,247.643 L 395.256,261.395 L 369.12,328.211 L 453.288,291.635 C 460.56,288.323 464.88,285.947 467.328,283.571 C 470.279,280.691 471.288,276.875 469.848,273.491 C 468.912,271.547 466.536,268.091 463.225,264.707 L 466.176,261.827 L 498.576,295.019 L 496.128,297.395 C 492.313,294.443 489,292.931 485.616,292.427 C 481.296,291.851 474.023,292.859 465.744,297.539 L 362.496,354.13 L 485.473,385.09 C 507.577,390.922 511.033,389.698 519.168,381.634 L 521.473,383.939 L 483.168,431.531 L 479.712,429.227 C 483.168,424.546 486.624,421.09 486.624,419.939 C 487.775,415.258 486.624,412.955 484.32,410.651 C 482.015,408.275 476.183,405.97 459.912,402.515 L 387.984,383.939 L 437.88,461.699 C 449.473,481.427 454.152,483.803 464.592,483.803 L 464.592,487.259 L 437.88,493.091 L 425.136,505.835 L 422.76,503.531 C 423.985,498.851 425.136,495.395 426.288,490.715 C 426.288,486.108 422.76,482.579 421.607,476.819 C 418.152,470.987 414.695,466.379 411.168,460.547 C 411.168,458.243 410.016,457.091 408.864,455.94 L 401.88,443.124 L 365.88,380.412 L 341.544,468.684 C 340.32,476.82 339.168,481.427 339.168,484.955 C 339.168,489.563 342.696,493.091 346.152,493.091 C 347.304,494.243 351.985,494.243 356.592,494.243 L 356.592,497.699 L 311.304,502.379 L 310.152,498.852 C 314.832,497.7 318.288,496.547 320.592,494.244 C 324.12,490.716 327.576,484.956 329.88,475.668 L 348.024,368.893 L 275.449,453.349 C 260.545,470.701 259.969,474.876 263.857,485.821 L 260.76,487.331 z"
   style="fill:#7e0000;stroke:#7e0000;stroke-width:7.9920001" />
			</g>
			<g
   id="g2978">
				<g
   id="g2980">
					<path
   id="path2982"
   d="M 661.512,193.355 L 658.632,195.083 C 649.488,182.267 647.832,180.827 632.569,189.899 L 587.28,216.611 C 583.176,218.987 580.225,220.715 578.856,222.371 C 577.201,224.963 576.481,227.699 578.569,231.227 C 579.216,232.451 579.216,232.451 584.833,237.851 L 581.881,239.579 L 578.28,236.195 C 568.129,227.051 560.713,221.147 556.176,217.547 C 554.52,216.107 553.225,215.243 553.225,215.243 C 553.512,214.307 554.088,214.019 554.088,214.019 L 622.848,173.411 C 637.536,164.771 638.256,161.963 631.201,148.643 L 634.153,146.915 L 661.512,193.355 z M 513.695,245.123 L 513.695,243.683 C 513.912,239.939 516.072,236.411 519.383,234.467 C 524.711,231.299 531.839,232.667 535.295,238.571 C 538.392,243.827 536.519,251.315 531.191,254.411 C 525.935,257.579 518.448,255.635 515.351,250.307 C 514.344,248.651 513.768,246.851 513.695,245.123 z"
   style="fill:#caa7d1" />
					<path
   id="path2984"
   d="M 661.512,193.355 L 658.632,195.083 C 649.488,182.267 647.832,180.827 632.569,189.899 L 587.28,216.611 C 583.176,218.987 580.225,220.715 578.856,222.371 C 577.201,224.963 576.481,227.699 578.569,231.227 C 579.216,232.451 579.216,232.451 584.833,237.851 L 581.881,239.579 L 578.28,236.195 C 568.129,227.051 560.713,221.147 556.176,217.547 C 554.52,216.107 553.225,215.243 553.225,215.243 C 553.512,214.307 554.088,214.019 554.088,214.019 L 622.848,173.411 C 637.536,164.771 638.256,161.963 631.201,148.643 L 634.153,146.915 L 661.512,193.355 z M 531.191,254.411 C 525.935,257.579 518.448,255.635 515.351,250.307 C 511.824,244.475 514.127,237.563 519.383,234.467 C 524.711,231.299 531.839,232.667 535.295,238.571 C 538.393,243.827 536.52,251.315 531.191,254.411 z"
   style="fill:none;stroke:#b696bc;stroke-width:7.9920001" />
				</g>
				<g
   id="g2986">
					<path
   id="path2988"
   d="M 292.368,667.763 L 292.944,664.451 C 308.64,665.603 310.728,665.243 313.608,647.747 L 322.032,595.907 C 322.824,591.155 323.328,587.771 323.04,585.683 C 322.104,582.731 320.376,580.426 316.344,579.779 C 315.048,579.491 315.048,579.491 307.272,580.355 L 307.848,576.971 L 312.744,576.395 C 326.208,574.451 335.496,572.506 341.256,571.355 C 343.344,570.995 344.784,570.563 344.784,570.563 C 345.36,571.355 345.288,572.002 345.288,572.002 L 332.472,650.771 C 329.736,667.619 331.392,669.995 346.152,673.09 L 345.576,676.402 L 292.368,667.763 z M 328.8,528.515 C 329.808,522.466 336.072,518.002 342.12,518.939 C 348.889,520.019 352.704,526.21 351.695,532.258 C 350.759,538.307 345.144,542.914 338.448,541.834 C 332.328,540.899 327.864,534.634 328.8,528.515 z"
   style="fill:#caa7d1" />
					<path
   id="path2990"
   d="M 292.368,667.763 L 292.944,664.451 C 308.64,665.603 310.728,665.243 313.608,647.747 L 322.032,595.907 C 322.824,591.155 323.328,587.771 323.04,585.683 C 322.104,582.731 320.376,580.426 316.344,579.779 C 315.048,579.491 315.048,579.491 307.272,580.355 L 307.848,576.971 L 312.744,576.395 C 326.208,574.451 335.496,572.506 341.256,571.355 C 343.344,570.995 344.784,570.563 344.784,570.563 C 345.36,571.355 345.288,572.002 345.288,572.002 L 332.472,650.771 C 329.736,667.619 331.392,669.995 346.152,673.09 L 345.576,676.402 L 292.368,667.763 z M 328.8,528.515 C 329.808,522.466 336.072,518.002 342.12,518.939 C 348.889,520.019 352.704,526.21 351.695,532.258 C 350.759,538.307 345.144,542.914 338.448,541.834 C 332.328,540.899 327.864,534.634 328.8,528.515 z"
   style="fill:none;stroke:#b696bc;stroke-width:7.9920001" />
				</g>
				<g
   id="g2992">
					<path
   id="path2994"
   d="M 515.208,657.539 L 513.624,654.516 C 526.872,646.02 528.312,644.436 520.103,628.74 L 495.624,582.228 C 493.464,578.051 491.809,575.028 490.296,573.516 C 487.775,571.715 485.04,570.852 481.44,572.795 C 480.216,573.371 480.216,573.371 474.528,578.699 L 472.944,575.675 L 476.545,572.291 C 486.121,562.571 492.385,555.443 496.273,551.123 C 497.713,549.539 498.65,548.315 498.65,548.315 C 499.586,548.603 499.874,549.179 499.874,549.179 L 537.025,619.882 C 544.945,634.931 547.681,635.794 561.29,629.458 L 562.874,632.482 L 515.208,657.539 z M 459.408,519.875 L 459.408,518.579 C 459.624,514.547 461.855,510.587 465.456,508.715 C 471.504,505.547 478.271,508.14 481.152,513.539 C 483.96,519.011 482.304,526.067 476.256,529.235 C 470.856,532.115 463.44,529.811 460.632,524.339 C 459.84,522.971 459.48,521.386 459.408,519.875 z"
   style="fill:#caa7d1" />
					<path
   id="path2996"
   d="M 515.208,657.539 L 513.624,654.516 C 526.872,646.02 528.312,644.436 520.103,628.74 L 495.624,582.228 C 493.464,578.051 491.809,575.028 490.296,573.516 C 487.775,571.715 485.04,570.852 481.44,572.795 C 480.216,573.371 480.216,573.371 474.528,578.699 L 472.944,575.675 L 476.545,572.291 C 486.121,562.571 492.385,555.443 496.273,551.123 C 497.713,549.539 498.65,548.315 498.65,548.315 C 499.586,548.603 499.874,549.179 499.874,549.179 L 537.025,619.882 C 544.945,634.931 547.681,635.794 561.29,629.458 L 562.874,632.482 L 515.208,657.539 z M 460.632,524.338 C 457.752,518.939 460.057,511.523 465.456,508.714 C 471.504,505.546 478.271,508.139 481.152,513.538 C 483.96,519.01 482.304,526.066 476.256,529.234 C 470.855,532.115 463.439,529.811 460.632,524.338 z"
   style="fill:none;stroke:#b696bc;stroke-width:7.9920001" />
				</g>
				<g
   id="g2998">
					<path
   id="path3000"
   d="M 117.48,127.834 L 120.144,129.922 C 111.432,143.098 110.712,145.114 124.608,156.13 L 165.792,188.746 C 169.536,191.77 172.2,193.858 174.216,194.578 C 177.24,195.226 180.12,194.866 182.64,191.698 C 183.504,190.618 183.504,190.618 186.528,183.418 L 189.192,185.578 L 187.32,190.186 C 182.496,202.858 179.616,211.93 177.816,217.474 C 177.096,219.49 176.808,221.002 176.808,221.002 C 175.8,221.147 175.296,220.714 175.296,220.714 L 112.728,171.106 C 99.408,160.522 96.528,160.81 86.664,172.186 L 84,170.027 L 117.48,127.834 z M 225.48,236.051 L 225.48,237.419 C 225.408,239.723 224.616,241.955 223.176,243.827 C 218.928,249.155 211.656,249.515 206.832,245.699 C 202.008,241.883 200.712,234.755 204.96,229.427 C 208.776,224.603 216.48,223.739 221.232,227.555 C 223.896,229.571 225.336,232.811 225.48,236.051 z"
   style="fill:#caa7d1" />
					<path
   id="path3002"
   d="M 117.48,127.834 L 120.144,129.922 C 111.432,143.098 110.712,145.114 124.608,156.13 L 165.792,188.746 C 169.536,191.77 172.2,193.858 174.216,194.578 C 177.24,195.226 180.12,194.866 182.64,191.698 C 183.504,190.618 183.504,190.618 186.528,183.418 L 189.192,185.578 L 187.32,190.186 C 182.496,202.858 179.616,211.93 177.816,217.474 C 177.096,219.49 176.808,221.002 176.808,221.002 C 175.8,221.147 175.296,220.714 175.296,220.714 L 112.728,171.106 C 99.408,160.522 96.528,160.81 86.664,172.186 L 84,170.027 L 117.48,127.834 z M 221.232,227.555 C 226.056,231.371 226.992,239.003 223.176,243.827 C 218.928,249.155 211.656,249.515 206.832,245.699 C 202.008,241.883 200.712,234.755 204.96,229.427 C 208.776,224.603 216.48,223.739 221.232,227.555 z"
   style="fill:none;stroke:#b696bc;stroke-width:7.9920001" />
				</g>
				<g
   id="g3004">
					<path
   id="path3006"
   d="M 89.688,527.506 L 92.64,525.778 C 101.856,538.522 103.44,539.962 118.704,530.818 L 163.776,503.818 C 167.88,501.37 170.832,499.642 172.2,497.986 C 173.856,495.465 174.576,492.658 172.488,489.13 C 171.768,487.979 171.768,487.979 166.152,482.578 L 169.104,480.778 L 172.704,484.234 C 182.856,493.234 190.344,499.066 194.88,502.738 C 196.536,504.106 197.832,504.97 197.832,504.97 C 197.616,505.906 197.04,506.266 197.04,506.266 L 128.496,547.234 C 113.88,555.946 113.16,558.754 120.288,572.002 L 117.336,573.802 L 89.688,527.506 z M 237.216,475.019 L 237.216,476.315 C 237,480.059 234.912,483.586 231.528,485.603 C 226.272,488.699 219.144,487.403 215.616,481.571 C 212.52,476.315 214.392,468.827 219.648,465.659 C 224.904,462.491 232.392,464.363 235.56,469.691 C 236.568,471.418 237.144,473.218 237.216,475.019 z"
   style="fill:#caa7d1" />
					<path
   id="path3008"
   d="M 89.688,527.506 L 92.64,525.778 C 101.856,538.522 103.44,539.962 118.704,530.818 L 163.776,503.818 C 167.88,501.37 170.832,499.642 172.2,497.986 C 173.856,495.465 174.576,492.658 172.488,489.13 C 171.768,487.979 171.768,487.979 166.152,482.578 L 169.104,480.778 L 172.704,484.234 C 182.856,493.234 190.344,499.066 194.88,502.738 C 196.536,504.106 197.832,504.97 197.832,504.97 C 197.616,505.906 197.04,506.266 197.04,506.266 L 128.496,547.234 C 113.88,555.946 113.16,558.754 120.288,572.002 L 117.336,573.802 L 89.688,527.506 z M 219.648,465.659 C 224.904,462.491 232.392,464.363 235.56,469.691 C 239.088,475.523 236.856,482.435 231.528,485.603 C 226.272,488.699 219.144,487.403 215.616,481.571 C 212.52,476.315 214.392,468.827 219.648,465.659 z"
   style="fill:none;stroke:#b696bc;stroke-width:7.9920001" />
				</g>
				<g
   id="g3010">
					<path
   id="path3012"
   d="M 22.224,333.611 L 25.608,333.467 C 27.552,349.092 28.344,351.107 46.056,350.459 L 98.544,348.371 C 103.368,348.226 106.752,348.083 108.768,347.363 C 111.432,345.851 113.376,343.763 113.232,339.659 C 113.232,338.291 113.232,338.291 110.856,330.875 L 114.24,330.731 L 115.824,335.411 C 120.432,348.226 124.176,356.867 126.408,362.267 C 127.2,364.283 127.92,365.651 127.92,365.651 C 127.272,366.371 126.552,366.371 126.552,366.371 L 46.776,369.467 C 29.784,370.115 27.768,372.203 27.696,387.251 L 24.312,387.396 L 22.224,333.611 z M 165.936,341.675 C 172.056,341.459 177.744,346.715 177.96,352.835 C 177.96,353.051 177.96,353.268 177.96,353.483 C 177.888,359.891 172.776,364.571 166.8,364.787 C 160.68,365.075 155.064,360.467 154.776,353.771 C 154.56,347.579 159.744,341.963 165.936,341.675 z"
   style="fill:#caa7d1" />
					<path
   id="path3014"
   d="M 22.224,333.611 L 25.608,333.467 C 27.552,349.092 28.344,351.107 46.056,350.459 L 98.544,348.371 C 103.368,348.226 106.752,348.083 108.768,347.363 C 111.432,345.851 113.376,343.763 113.232,339.659 C 113.232,338.291 113.232,338.291 110.856,330.875 L 114.24,330.731 L 115.824,335.411 C 120.432,348.226 124.176,356.867 126.408,362.267 C 127.2,364.283 127.92,365.651 127.92,365.651 C 127.272,366.371 126.552,366.371 126.552,366.371 L 46.776,369.467 C 29.784,370.115 27.768,372.203 27.696,387.251 L 24.312,387.396 L 22.224,333.611 z M 165.936,341.675 C 172.056,341.459 177.744,346.715 177.96,352.835 C 178.176,359.604 172.92,364.571 166.8,364.787 C 160.68,365.075 155.064,360.467 154.776,353.771 C 154.56,347.579 159.744,341.963 165.936,341.675 z"
   style="fill:none;stroke:#b696bc;stroke-width:7.9920001" />
				</g>
				<g
   id="g3016">
					<path
   id="path3018"
   d="M 306.48,8.747 L 307.272,12.059 C 292.296,16.955 290.424,18.107 294.456,35.387 L 306.264,86.507 C 307.344,91.187 308.136,94.499 309.288,96.371 C 311.232,98.675 313.68,100.259 317.64,99.323 C 319.008,99.035 319.008,99.035 325.848,95.291 L 326.64,98.603 L 322.248,101.051 C 310.584,107.963 302.664,113.291 297.84,116.531 C 295.968,117.611 294.816,118.619 294.816,118.619 C 294.024,118.115 293.88,117.467 293.88,117.467 L 275.808,39.707 C 271.992,23.075 269.472,21.491 254.712,24.227 L 253.992,20.915 L 306.48,8.747 z M 325.56,151.451 C 326.928,157.427 322.824,163.979 316.848,165.347 C 310.224,166.859 304.32,162.611 302.952,156.635 C 301.584,150.659 304.968,144.251 311.592,142.739 C 317.64,141.371 324.12,145.403 325.56,151.451 z"
   style="fill:#caa7d1" />
					<path
   id="path3020"
   d="M 306.48,8.747 L 307.272,12.059 C 292.296,16.955 290.424,18.107 294.456,35.387 L 306.264,86.507 C 307.344,91.187 308.136,94.499 309.288,96.371 C 311.232,98.675 313.68,100.259 317.64,99.323 C 319.008,99.035 319.008,99.035 325.848,95.291 L 326.64,98.603 L 322.248,101.051 C 310.584,107.963 302.664,113.291 297.84,116.531 C 295.968,117.611 294.816,118.619 294.816,118.619 C 294.024,118.115 293.88,117.467 293.88,117.467 L 275.808,39.707 C 271.992,23.075 269.472,21.491 254.712,24.227 L 253.992,20.915 L 306.48,8.747 z M 325.56,151.451 C 326.928,157.427 322.824,163.979 316.848,165.347 C 310.224,166.859 304.32,162.611 302.952,156.635 C 301.584,150.659 304.968,144.251 311.592,142.739 C 317.64,141.371 324.12,145.403 325.56,151.451 z"
   style="fill:none;stroke:#b696bc;stroke-width:7.9920001" />
				</g>
				<g
   id="g3022">
					<path
   id="path3024"
   d="M 660.145,509.506 L 657.192,507.851 C 663.384,493.378 663.745,491.29 648.048,482.867 L 601.752,458.099 C 597.576,455.867 594.552,454.283 592.393,453.851 C 589.369,453.779 586.561,454.643 584.688,458.243 C 584.041,459.467 584.041,459.467 582.313,467.027 L 579.289,465.443 L 580.297,460.547 C 582.818,447.228 583.969,437.795 584.761,432.035 C 585.121,429.875 585.193,428.363 585.193,428.363 C 586.13,428.075 586.706,428.363 586.706,428.363 L 657.122,466.019 C 672.17,474.082 674.906,473.218 682.609,460.331 L 685.562,461.915 L 660.145,509.506 z M 534.288,420.155 L 534.288,418.643 C 534.359,417.059 534.721,415.546 535.512,414.179 C 538.752,408.13 545.809,406.475 551.208,409.426 C 556.607,412.307 559.2,419.074 555.96,425.122 C 553.08,430.522 545.664,432.754 540.264,429.874 C 536.664,427.931 534.504,424.115 534.288,420.155 z"
   style="fill:#caa7d1" />
					<path
   id="path3026"
   d="M 660.145,509.506 L 657.192,507.851 C 663.384,493.378 663.745,491.29 648.048,482.867 L 601.752,458.099 C 597.576,455.867 594.552,454.283 592.393,453.851 C 589.369,453.779 586.561,454.643 584.688,458.243 C 584.041,459.467 584.041,459.467 582.313,467.027 L 579.289,465.443 L 580.297,460.547 C 582.818,447.228 583.969,437.795 584.761,432.035 C 585.121,429.875 585.193,428.363 585.193,428.363 C 586.13,428.075 586.706,428.363 586.706,428.363 L 657.122,466.019 C 672.17,474.082 674.906,473.218 682.609,460.331 L 685.562,461.915 L 660.145,509.506 z M 540.264,429.875 C 534.864,426.995 532.632,419.579 535.512,414.18 C 538.752,408.131 545.809,406.476 551.208,409.427 C 556.607,412.308 559.2,419.075 555.96,425.123 C 553.08,430.523 545.664,432.754 540.264,429.875 z"
   style="fill:none;stroke:#b696bc;stroke-width:7.9920001" />
				</g>
				<g
   id="g3028">
					<path
   id="path3030"
   d="M 528.384,29.267 L 526.872,32.363 C 512.184,26.603 510.096,26.315 502.176,42.227 L 478.92,89.315 C 476.76,93.563 475.248,96.659 474.96,98.747 C 474.96,101.843 475.897,104.579 479.568,106.379 C 480.792,107.027 480.792,107.027 488.423,108.467 L 486.911,111.563 L 482.015,110.626 C 468.623,108.538 459.119,107.674 453.359,107.098 C 451.2,106.81 449.687,106.81 449.687,106.81 C 449.328,105.874 449.687,105.298 449.687,105.298 L 485.04,33.73 C 492.6,18.466 491.736,15.73 478.561,8.458 L 480.073,5.362 L 528.384,29.267 z M 430.607,147.347 L 430.607,145.835 C 430.679,144.323 431.111,142.811 431.832,141.371 C 434.496,135.899 441.264,133.091 447.312,136.115 C 452.855,138.851 455.304,146.123 452.568,151.667 C 449.904,157.139 442.56,159.659 437.088,156.923 C 433.057,154.907 430.824,151.235 430.607,147.347 z"
   style="fill:#caa7d1" />
					<path
   id="path3032"
   d="M 528.384,29.267 L 526.872,32.363 C 512.184,26.603 510.096,26.315 502.176,42.227 L 478.92,89.315 C 476.76,93.563 475.248,96.659 474.96,98.747 C 474.96,101.843 475.897,104.579 479.568,106.379 C 480.792,107.027 480.792,107.027 488.423,108.467 L 486.911,111.563 L 482.015,110.626 C 468.623,108.538 459.119,107.674 453.359,107.098 C 451.2,106.81 449.687,106.81 449.687,106.81 C 449.328,105.874 449.687,105.298 449.687,105.298 L 485.04,33.73 C 492.6,18.466 491.736,15.73 478.561,8.458 L 480.073,5.362 L 528.384,29.267 z M 452.568,151.667 C 449.904,157.139 442.56,159.659 437.088,156.923 C 430.968,153.899 429.096,146.843 431.832,141.371 C 434.496,135.899 441.264,133.091 447.312,136.115 C 452.855,138.851 455.305,146.123 452.568,151.667 z"
   style="fill:none;stroke:#b696bc;stroke-width:7.9920001" />
				</g>
				<path
   id="path3034"
   d="M 271.56,476.531 L 245.136,420.947 L 249.384,418.931 C 251.832,424.187 253.848,428.363 254.352,429.443 C 257.952,431.603 261.048,432.683 264.144,431.171 C 267.312,429.732 271.56,425.123 282.216,412.379 L 331.032,355.859 L 238.44,367.379 C 215.328,369.035 211.584,371.268 207.12,381.275 L 203.952,380.05 L 210.432,352.906 L 204.888,336.058 L 207.984,334.546 C 211.08,338.218 213.6,340.882 217.2,343.042 C 222.024,345.922 226.632,343.69 231.6,345.346 C 238.152,345.202 244.776,344.482 251.4,344.05 C 252.984,343.906 254.784,343.762 256.728,343.618 L 271.488,342.61 L 343.056,337.57 L 273.936,277.234 C 267.816,272.122 263.784,269.17 260.616,267.946 C 256.8,266.578 252.84,267.298 250.392,270.034 C 249.024,271.69 247.008,275.29 245.352,279.826 L 241.536,278.386 L 257.592,234.826 L 260.76,236.05 C 259.752,240.73 259.824,244.474 260.832,247.714 C 262.128,251.818 266.16,257.938 273.936,263.41 L 353.855,321.298 L 309.36,221.075 C 300.072,200.195 296.616,197.891 284.952,196.739 L 284.952,193.211 L 346.512,193.211 L 346.512,197.891 C 340.68,197.891 336.072,197.891 334.92,197.891 C 331.392,200.195 329.088,202.499 329.088,206.027 C 329.088,209.483 331.392,215.315 338.376,230.363 L 368.544,298.691 L 397.775,210.131 C 406.2,188.531 405.767,184.139 398.64,175.859 L 401.087,173.483 L 422.903,191.051 L 440.543,193.211 L 440.543,196.739 C 435.935,197.891 432.407,199.043 428.951,201.347 C 424.27,204.443 424.27,209.627 420.671,213.371 C 418.007,219.347 415.775,225.683 413.4,231.803 C 412.824,233.315 412.175,235.043 411.456,236.843 L 406.057,250.595 L 379.92,317.411 L 464.088,280.835 C 471.359,277.523 475.68,275.147 478.128,272.771 C 481.08,269.891 482.088,266.075 480.649,262.691 C 479.712,260.747 477.337,257.291 474.024,253.907 L 476.977,251.027 L 509.376,284.219 L 506.928,286.595 C 503.112,283.643 499.8,282.131 496.416,281.627 C 492.096,281.051 484.824,282.059 476.544,286.739 L 373.296,343.331 L 496.272,374.291 C 518.376,380.123 521.833,378.899 529.968,370.835 L 532.272,373.14 L 493.968,420.732 L 490.512,418.427 C 493.968,413.747 497.424,410.291 497.424,409.14 C 498.576,404.459 497.424,402.156 495.12,399.852 C 492.816,397.476 486.984,395.171 470.712,391.715 L 398.784,373.14 L 448.68,450.9 C 460.272,470.628 464.952,473.004 475.393,473.004 L 475.393,476.46 L 448.68,482.292 L 435.936,495.036 L 433.561,492.732 C 434.785,488.051 435.936,484.596 437.088,479.916 C 437.088,475.309 433.561,471.78 432.408,466.02 C 428.952,460.188 425.496,455.58 421.968,449.748 C 421.968,447.444 420.817,446.292 419.664,445.141 L 412.68,432.325 L 376.68,369.613 L 352.344,457.884 C 351.12,466.021 349.968,470.628 349.968,474.156 C 349.968,478.764 353.496,482.292 356.952,482.292 C 358.103,483.444 362.784,483.444 367.392,483.444 L 367.392,486.9 L 322.103,491.58 L 320.951,488.052 C 325.631,486.901 329.087,485.748 331.391,483.445 C 334.919,479.917 338.375,474.157 340.679,464.869 L 358.823,358.093 L 286.247,442.549 C 271.343,459.902 270.767,464.077 274.655,475.022 L 271.56,476.531 z"
   style="fill:#caa7d1;stroke:#b696bc;stroke-width:7.9920001" />
			</g>
		</g></svg>